M48
; DRILL file {KiCad 9.0.6} date 2025-11-17T19:52:11+0700
; FORMAT={-:-/ absolute / inch / decimal}
; #@! TF.CreationDate,2025-11-17T19:52:11+07:00
; #@! TF.GenerationSoftware,Kicad,Pcbnew,9.0.6
; #@! TF.FileFunction,Plated,1,2,PTH
FMAT,2
INCH
; #@! TA.AperFunction,Plated,PTH,ViaDrill
T1C0.0118
; #@! TA.AperFunction,Plated,PTH,ComponentDrill
T2C0.1299
%
G90
G05
T1
X5.0807Y-3.9965
X5.1063Y-3.9703
X5.1887Y-4.1253
X5.1918Y-3.9902
X5.1966Y-3.959
X5.1974Y-3.9173
X5.2231Y-4.1235
X5.2301Y-4.0928
X5.2645Y-4.091
X5.5442Y-3.684
X5.6053Y-3.6964
X5.6102Y-4.0476
X5.9192Y-3.56
X5.9261Y-3.6861
X6.0023Y-3.942
X6.0382Y-3.878
X6.0527Y-4.0039
X6.0782Y-3.9843
X6.0867Y-3.9539
X6.0869Y-4.136
X6.0872Y-4.098
X6.0924Y-3.8524
X6.1773Y-4.0107
X6.1802Y-3.8964
X6.181Y-4.0816
X6.1944Y-4.1371
X6.2032Y-4.1063
T2
X4.9189Y-3.5557
X4.9189Y-4.4443
X6.0972Y-3.5557
X6.0972Y-4.4443
M30
