%TF.GenerationSoftware,KiCad,Pcbnew,9.0.6*%
%TF.CreationDate,2025-11-17T19:52:11+07:00*%
%TF.ProjectId,display,64697370-6c61-4792-9e6b-696361645f70,rev?*%
%TF.SameCoordinates,Original*%
%TF.FileFunction,Legend,Top*%
%TF.FilePolarity,Positive*%
%FSLAX46Y46*%
G04 Gerber Fmt 4.6, Leading zero omitted, Abs format (unit mm)*
G04 Created by KiCad (PCBNEW 9.0.6) date 2025-11-17 19:52:11*
%MOMM*%
%LPD*%
G01*
G04 APERTURE LIST*
%ADD10C,0.010000*%
%ADD11C,5.300000*%
G04 APERTURE END LIST*
D10*
%TO.C,REF\u002A\u002A*%
X140255814Y-99068931D02*
X140339635Y-99513555D01*
X140648920Y-99641053D01*
X140958206Y-99768551D01*
X141329246Y-99516246D01*
X141433157Y-99445996D01*
X141527087Y-99383272D01*
X141606652Y-99330938D01*
X141667470Y-99291857D01*
X141705157Y-99268893D01*
X141715421Y-99263942D01*
X141733910Y-99276676D01*
X141773420Y-99311882D01*
X141829522Y-99365062D01*
X141897787Y-99431718D01*
X141973786Y-99507354D01*
X142053092Y-99587472D01*
X142131275Y-99667574D01*
X142203907Y-99743164D01*
X142266559Y-99809745D01*
X142314803Y-99862818D01*
X142344210Y-99897887D01*
X142351241Y-99909623D01*
X142341123Y-99931260D01*
X142312759Y-99978662D01*
X142269129Y-100047193D01*
X142213218Y-100132215D01*
X142148006Y-100229093D01*
X142110219Y-100284350D01*
X142041343Y-100385248D01*
X141980140Y-100476299D01*
X141929578Y-100552970D01*
X141892628Y-100610728D01*
X141872258Y-100645043D01*
X141869197Y-100652254D01*
X141876136Y-100672748D01*
X141895051Y-100720513D01*
X141923087Y-100788832D01*
X141957391Y-100870989D01*
X141995109Y-100960270D01*
X142033387Y-101049958D01*
X142069370Y-101133338D01*
X142100206Y-101203694D01*
X142123039Y-101254310D01*
X142135017Y-101278471D01*
X142135724Y-101279422D01*
X142154531Y-101284036D01*
X142204618Y-101294328D01*
X142280793Y-101309287D01*
X142377865Y-101327901D01*
X142490643Y-101349159D01*
X142556442Y-101361418D01*
X142676950Y-101384362D01*
X142785797Y-101406195D01*
X142877476Y-101425722D01*
X142946481Y-101441748D01*
X142987304Y-101453079D01*
X142995511Y-101456674D01*
X143003548Y-101481006D01*
X143010033Y-101535959D01*
X143014970Y-101615108D01*
X143018364Y-101712026D01*
X143020218Y-101820287D01*
X143020538Y-101933465D01*
X143019327Y-102045135D01*
X143016590Y-102148868D01*
X143012331Y-102238241D01*
X143006555Y-102306826D01*
X142999267Y-102348197D01*
X142994895Y-102356810D01*
X142968764Y-102367133D01*
X142913393Y-102381892D01*
X142836107Y-102399352D01*
X142744230Y-102417780D01*
X142712158Y-102423741D01*
X142557524Y-102452066D01*
X142435375Y-102474876D01*
X142341673Y-102493080D01*
X142272384Y-102507583D01*
X142223471Y-102519292D01*
X142190897Y-102529115D01*
X142170628Y-102537956D01*
X142158626Y-102546724D01*
X142156947Y-102548457D01*
X142140184Y-102576371D01*
X142114614Y-102630695D01*
X142082788Y-102704777D01*
X142047260Y-102791965D01*
X142010583Y-102885608D01*
X141975311Y-102979052D01*
X141943996Y-103065647D01*
X141919193Y-103138740D01*
X141903454Y-103191678D01*
X141899332Y-103217811D01*
X141899676Y-103218726D01*
X141913641Y-103240086D01*
X141945322Y-103287084D01*
X141991391Y-103354827D01*
X142048518Y-103438423D01*
X142113373Y-103532982D01*
X142131843Y-103559854D01*
X142197699Y-103657275D01*
X142255650Y-103746163D01*
X142302538Y-103821412D01*
X142335207Y-103877920D01*
X142350500Y-103910581D01*
X142351241Y-103914593D01*
X142338392Y-103935684D01*
X142302888Y-103977464D01*
X142249293Y-104035445D01*
X142182171Y-104105135D01*
X142106087Y-104182045D01*
X142025604Y-104261683D01*
X141945287Y-104339561D01*
X141869699Y-104411186D01*
X141803405Y-104472070D01*
X141750969Y-104517721D01*
X141716955Y-104543650D01*
X141707545Y-104547883D01*
X141685643Y-104537912D01*
X141640800Y-104511020D01*
X141580321Y-104471736D01*
X141533789Y-104440117D01*
X141449475Y-104382098D01*
X141349626Y-104313784D01*
X141249473Y-104245579D01*
X141195627Y-104209075D01*
X141013371Y-104085800D01*
X140860381Y-104168520D01*
X140790682Y-104204759D01*
X140731414Y-104232926D01*
X140691311Y-104248991D01*
X140681103Y-104251226D01*
X140668829Y-104234722D01*
X140644613Y-104188082D01*
X140610263Y-104115609D01*
X140567588Y-104021606D01*
X140518394Y-103910374D01*
X140464490Y-103786215D01*
X140407684Y-103653432D01*
X140349782Y-103516327D01*
X140292593Y-103379202D01*
X140237924Y-103246358D01*
X140187584Y-103122098D01*
X140143380Y-103010725D01*
X140107119Y-102916539D01*
X140080609Y-102843844D01*
X140065658Y-102796941D01*
X140063254Y-102780833D01*
X140082311Y-102760286D01*
X140124036Y-102726933D01*
X140179706Y-102687702D01*
X140184378Y-102684599D01*
X140328264Y-102569423D01*
X140444283Y-102435053D01*
X140531430Y-102285784D01*
X140588699Y-102125913D01*
X140615086Y-101959737D01*
X140609585Y-101791552D01*
X140571190Y-101625655D01*
X140498895Y-101466342D01*
X140477626Y-101431487D01*
X140366996Y-101290737D01*
X140236302Y-101177714D01*
X140090064Y-101093003D01*
X139932808Y-101037194D01*
X139769057Y-101010874D01*
X139603333Y-101014630D01*
X139440162Y-101049050D01*
X139284065Y-101114723D01*
X139139567Y-101212235D01*
X139094869Y-101251813D01*
X138981112Y-101375703D01*
X138898218Y-101506124D01*
X138841356Y-101652315D01*
X138809687Y-101797088D01*
X138801869Y-101959860D01*
X138827938Y-102123440D01*
X138885245Y-102282298D01*
X138971144Y-102430906D01*
X139082986Y-102563735D01*
X139218123Y-102675256D01*
X139235883Y-102687011D01*
X139292150Y-102725508D01*
X139334923Y-102758863D01*
X139355372Y-102780160D01*
X139355669Y-102780833D01*
X139351279Y-102803871D01*
X139333876Y-102856157D01*
X139305268Y-102933390D01*
X139267265Y-103031268D01*
X139221674Y-103145491D01*
X139170303Y-103271758D01*
X139114962Y-103405767D01*
X139057458Y-103543218D01*
X138999601Y-103679808D01*
X138943198Y-103811237D01*
X138890058Y-103933205D01*
X138841990Y-104041409D01*
X138800801Y-104131549D01*
X138768301Y-104199323D01*
X138746297Y-104240430D01*
X138737436Y-104251226D01*
X138710360Y-104242819D01*
X138659697Y-104220272D01*
X138594183Y-104187613D01*
X138558159Y-104168520D01*
X138405168Y-104085800D01*
X138222912Y-104209075D01*
X138129875Y-104272228D01*
X138028015Y-104341727D01*
X137932562Y-104407165D01*
X137884750Y-104440117D01*
X137817505Y-104485273D01*
X137760564Y-104521057D01*
X137721354Y-104542938D01*
X137708619Y-104547563D01*
X137690083Y-104535085D01*
X137649059Y-104500252D01*
X137589525Y-104446678D01*
X137515458Y-104377983D01*
X137430835Y-104297781D01*
X137377315Y-104246286D01*
X137283681Y-104154286D01*
X137202759Y-104071999D01*
X137137823Y-104002945D01*
X137092142Y-103950644D01*
X137068989Y-103918616D01*
X137066768Y-103912116D01*
X137077076Y-103887394D01*
X137105561Y-103837405D01*
X137149063Y-103767212D01*
X137204423Y-103681875D01*
X137268480Y-103586456D01*
X137286697Y-103559854D01*
X137353073Y-103463167D01*
X137412622Y-103376117D01*
X137462016Y-103303595D01*
X137497925Y-103250493D01*
X137517019Y-103221703D01*
X137518864Y-103218726D01*
X137516105Y-103195782D01*
X137501462Y-103145336D01*
X137477487Y-103074041D01*
X137446734Y-102988547D01*
X137411756Y-102895507D01*
X137375107Y-102801574D01*
X137339339Y-102713399D01*
X137307006Y-102637634D01*
X137280662Y-102580931D01*
X137262858Y-102549943D01*
X137261593Y-102548457D01*
X137250706Y-102539601D01*
X137232318Y-102530843D01*
X137202394Y-102521277D01*
X137156897Y-102509996D01*
X137091791Y-102496093D01*
X137003039Y-102478663D01*
X136886607Y-102456798D01*
X136738458Y-102429591D01*
X136706382Y-102423741D01*
X136611314Y-102405374D01*
X136528435Y-102387405D01*
X136465070Y-102371569D01*
X136428542Y-102359600D01*
X136423644Y-102356810D01*
X136415573Y-102332072D01*
X136409013Y-102276790D01*
X136403967Y-102197389D01*
X136400441Y-102100296D01*
X136398439Y-101991938D01*
X136397964Y-101878740D01*
X136399023Y-101767128D01*
X136401618Y-101663529D01*
X136405754Y-101574368D01*
X136411437Y-101506072D01*
X136418669Y-101465066D01*
X136423029Y-101456674D01*
X136447302Y-101448208D01*
X136502574Y-101434435D01*
X136583338Y-101416550D01*
X136684088Y-101395748D01*
X136799317Y-101373223D01*
X136862098Y-101361418D01*
X136981213Y-101339151D01*
X137087435Y-101318979D01*
X137175573Y-101301915D01*
X137240434Y-101288969D01*
X137276826Y-101281155D01*
X137282816Y-101279422D01*
X137292939Y-101259890D01*
X137314338Y-101212843D01*
X137344161Y-101145003D01*
X137379555Y-101063091D01*
X137417668Y-100973828D01*
X137455647Y-100883935D01*
X137490640Y-100800135D01*
X137519794Y-100729147D01*
X137540257Y-100677694D01*
X137549177Y-100652497D01*
X137549343Y-100651396D01*
X137539231Y-100631519D01*
X137510883Y-100585777D01*
X137467277Y-100518717D01*
X137411394Y-100434884D01*
X137346213Y-100338826D01*
X137308321Y-100283650D01*
X137239275Y-100182481D01*
X137177950Y-100090630D01*
X137127337Y-100012744D01*
X137090429Y-99953469D01*
X137070218Y-99917451D01*
X137067299Y-99909377D01*
X137079847Y-99890584D01*
X137114537Y-99850457D01*
X137166937Y-99793493D01*
X137232616Y-99724185D01*
X137307144Y-99647031D01*
X137386087Y-99566525D01*
X137465017Y-99487163D01*
X137539500Y-99413440D01*
X137605106Y-99349852D01*
X137657404Y-99300894D01*
X137691961Y-99271061D01*
X137703522Y-99263942D01*
X137722346Y-99273953D01*
X137767369Y-99302078D01*
X137834213Y-99345454D01*
X137918501Y-99401218D01*
X138015856Y-99466506D01*
X138089293Y-99516246D01*
X138460333Y-99768551D01*
X139078905Y-99513555D01*
X139162725Y-99068931D01*
X139246546Y-98624307D01*
X140171994Y-98624307D01*
X140255814Y-99068931D01*
G36*
X140255814Y-99068931D02*
G01*
X140339635Y-99513555D01*
X140648920Y-99641053D01*
X140958206Y-99768551D01*
X141329246Y-99516246D01*
X141433157Y-99445996D01*
X141527087Y-99383272D01*
X141606652Y-99330938D01*
X141667470Y-99291857D01*
X141705157Y-99268893D01*
X141715421Y-99263942D01*
X141733910Y-99276676D01*
X141773420Y-99311882D01*
X141829522Y-99365062D01*
X141897787Y-99431718D01*
X141973786Y-99507354D01*
X142053092Y-99587472D01*
X142131275Y-99667574D01*
X142203907Y-99743164D01*
X142266559Y-99809745D01*
X142314803Y-99862818D01*
X142344210Y-99897887D01*
X142351241Y-99909623D01*
X142341123Y-99931260D01*
X142312759Y-99978662D01*
X142269129Y-100047193D01*
X142213218Y-100132215D01*
X142148006Y-100229093D01*
X142110219Y-100284350D01*
X142041343Y-100385248D01*
X141980140Y-100476299D01*
X141929578Y-100552970D01*
X141892628Y-100610728D01*
X141872258Y-100645043D01*
X141869197Y-100652254D01*
X141876136Y-100672748D01*
X141895051Y-100720513D01*
X141923087Y-100788832D01*
X141957391Y-100870989D01*
X141995109Y-100960270D01*
X142033387Y-101049958D01*
X142069370Y-101133338D01*
X142100206Y-101203694D01*
X142123039Y-101254310D01*
X142135017Y-101278471D01*
X142135724Y-101279422D01*
X142154531Y-101284036D01*
X142204618Y-101294328D01*
X142280793Y-101309287D01*
X142377865Y-101327901D01*
X142490643Y-101349159D01*
X142556442Y-101361418D01*
X142676950Y-101384362D01*
X142785797Y-101406195D01*
X142877476Y-101425722D01*
X142946481Y-101441748D01*
X142987304Y-101453079D01*
X142995511Y-101456674D01*
X143003548Y-101481006D01*
X143010033Y-101535959D01*
X143014970Y-101615108D01*
X143018364Y-101712026D01*
X143020218Y-101820287D01*
X143020538Y-101933465D01*
X143019327Y-102045135D01*
X143016590Y-102148868D01*
X143012331Y-102238241D01*
X143006555Y-102306826D01*
X142999267Y-102348197D01*
X142994895Y-102356810D01*
X142968764Y-102367133D01*
X142913393Y-102381892D01*
X142836107Y-102399352D01*
X142744230Y-102417780D01*
X142712158Y-102423741D01*
X142557524Y-102452066D01*
X142435375Y-102474876D01*
X142341673Y-102493080D01*
X142272384Y-102507583D01*
X142223471Y-102519292D01*
X142190897Y-102529115D01*
X142170628Y-102537956D01*
X142158626Y-102546724D01*
X142156947Y-102548457D01*
X142140184Y-102576371D01*
X142114614Y-102630695D01*
X142082788Y-102704777D01*
X142047260Y-102791965D01*
X142010583Y-102885608D01*
X141975311Y-102979052D01*
X141943996Y-103065647D01*
X141919193Y-103138740D01*
X141903454Y-103191678D01*
X141899332Y-103217811D01*
X141899676Y-103218726D01*
X141913641Y-103240086D01*
X141945322Y-103287084D01*
X141991391Y-103354827D01*
X142048518Y-103438423D01*
X142113373Y-103532982D01*
X142131843Y-103559854D01*
X142197699Y-103657275D01*
X142255650Y-103746163D01*
X142302538Y-103821412D01*
X142335207Y-103877920D01*
X142350500Y-103910581D01*
X142351241Y-103914593D01*
X142338392Y-103935684D01*
X142302888Y-103977464D01*
X142249293Y-104035445D01*
X142182171Y-104105135D01*
X142106087Y-104182045D01*
X142025604Y-104261683D01*
X141945287Y-104339561D01*
X141869699Y-104411186D01*
X141803405Y-104472070D01*
X141750969Y-104517721D01*
X141716955Y-104543650D01*
X141707545Y-104547883D01*
X141685643Y-104537912D01*
X141640800Y-104511020D01*
X141580321Y-104471736D01*
X141533789Y-104440117D01*
X141449475Y-104382098D01*
X141349626Y-104313784D01*
X141249473Y-104245579D01*
X141195627Y-104209075D01*
X141013371Y-104085800D01*
X140860381Y-104168520D01*
X140790682Y-104204759D01*
X140731414Y-104232926D01*
X140691311Y-104248991D01*
X140681103Y-104251226D01*
X140668829Y-104234722D01*
X140644613Y-104188082D01*
X140610263Y-104115609D01*
X140567588Y-104021606D01*
X140518394Y-103910374D01*
X140464490Y-103786215D01*
X140407684Y-103653432D01*
X140349782Y-103516327D01*
X140292593Y-103379202D01*
X140237924Y-103246358D01*
X140187584Y-103122098D01*
X140143380Y-103010725D01*
X140107119Y-102916539D01*
X140080609Y-102843844D01*
X140065658Y-102796941D01*
X140063254Y-102780833D01*
X140082311Y-102760286D01*
X140124036Y-102726933D01*
X140179706Y-102687702D01*
X140184378Y-102684599D01*
X140328264Y-102569423D01*
X140444283Y-102435053D01*
X140531430Y-102285784D01*
X140588699Y-102125913D01*
X140615086Y-101959737D01*
X140609585Y-101791552D01*
X140571190Y-101625655D01*
X140498895Y-101466342D01*
X140477626Y-101431487D01*
X140366996Y-101290737D01*
X140236302Y-101177714D01*
X140090064Y-101093003D01*
X139932808Y-101037194D01*
X139769057Y-101010874D01*
X139603333Y-101014630D01*
X139440162Y-101049050D01*
X139284065Y-101114723D01*
X139139567Y-101212235D01*
X139094869Y-101251813D01*
X138981112Y-101375703D01*
X138898218Y-101506124D01*
X138841356Y-101652315D01*
X138809687Y-101797088D01*
X138801869Y-101959860D01*
X138827938Y-102123440D01*
X138885245Y-102282298D01*
X138971144Y-102430906D01*
X139082986Y-102563735D01*
X139218123Y-102675256D01*
X139235883Y-102687011D01*
X139292150Y-102725508D01*
X139334923Y-102758863D01*
X139355372Y-102780160D01*
X139355669Y-102780833D01*
X139351279Y-102803871D01*
X139333876Y-102856157D01*
X139305268Y-102933390D01*
X139267265Y-103031268D01*
X139221674Y-103145491D01*
X139170303Y-103271758D01*
X139114962Y-103405767D01*
X139057458Y-103543218D01*
X138999601Y-103679808D01*
X138943198Y-103811237D01*
X138890058Y-103933205D01*
X138841990Y-104041409D01*
X138800801Y-104131549D01*
X138768301Y-104199323D01*
X138746297Y-104240430D01*
X138737436Y-104251226D01*
X138710360Y-104242819D01*
X138659697Y-104220272D01*
X138594183Y-104187613D01*
X138558159Y-104168520D01*
X138405168Y-104085800D01*
X138222912Y-104209075D01*
X138129875Y-104272228D01*
X138028015Y-104341727D01*
X137932562Y-104407165D01*
X137884750Y-104440117D01*
X137817505Y-104485273D01*
X137760564Y-104521057D01*
X137721354Y-104542938D01*
X137708619Y-104547563D01*
X137690083Y-104535085D01*
X137649059Y-104500252D01*
X137589525Y-104446678D01*
X137515458Y-104377983D01*
X137430835Y-104297781D01*
X137377315Y-104246286D01*
X137283681Y-104154286D01*
X137202759Y-104071999D01*
X137137823Y-104002945D01*
X137092142Y-103950644D01*
X137068989Y-103918616D01*
X137066768Y-103912116D01*
X137077076Y-103887394D01*
X137105561Y-103837405D01*
X137149063Y-103767212D01*
X137204423Y-103681875D01*
X137268480Y-103586456D01*
X137286697Y-103559854D01*
X137353073Y-103463167D01*
X137412622Y-103376117D01*
X137462016Y-103303595D01*
X137497925Y-103250493D01*
X137517019Y-103221703D01*
X137518864Y-103218726D01*
X137516105Y-103195782D01*
X137501462Y-103145336D01*
X137477487Y-103074041D01*
X137446734Y-102988547D01*
X137411756Y-102895507D01*
X137375107Y-102801574D01*
X137339339Y-102713399D01*
X137307006Y-102637634D01*
X137280662Y-102580931D01*
X137262858Y-102549943D01*
X137261593Y-102548457D01*
X137250706Y-102539601D01*
X137232318Y-102530843D01*
X137202394Y-102521277D01*
X137156897Y-102509996D01*
X137091791Y-102496093D01*
X137003039Y-102478663D01*
X136886607Y-102456798D01*
X136738458Y-102429591D01*
X136706382Y-102423741D01*
X136611314Y-102405374D01*
X136528435Y-102387405D01*
X136465070Y-102371569D01*
X136428542Y-102359600D01*
X136423644Y-102356810D01*
X136415573Y-102332072D01*
X136409013Y-102276790D01*
X136403967Y-102197389D01*
X136400441Y-102100296D01*
X136398439Y-101991938D01*
X136397964Y-101878740D01*
X136399023Y-101767128D01*
X136401618Y-101663529D01*
X136405754Y-101574368D01*
X136411437Y-101506072D01*
X136418669Y-101465066D01*
X136423029Y-101456674D01*
X136447302Y-101448208D01*
X136502574Y-101434435D01*
X136583338Y-101416550D01*
X136684088Y-101395748D01*
X136799317Y-101373223D01*
X136862098Y-101361418D01*
X136981213Y-101339151D01*
X137087435Y-101318979D01*
X137175573Y-101301915D01*
X137240434Y-101288969D01*
X137276826Y-101281155D01*
X137282816Y-101279422D01*
X137292939Y-101259890D01*
X137314338Y-101212843D01*
X137344161Y-101145003D01*
X137379555Y-101063091D01*
X137417668Y-100973828D01*
X137455647Y-100883935D01*
X137490640Y-100800135D01*
X137519794Y-100729147D01*
X137540257Y-100677694D01*
X137549177Y-100652497D01*
X137549343Y-100651396D01*
X137539231Y-100631519D01*
X137510883Y-100585777D01*
X137467277Y-100518717D01*
X137411394Y-100434884D01*
X137346213Y-100338826D01*
X137308321Y-100283650D01*
X137239275Y-100182481D01*
X137177950Y-100090630D01*
X137127337Y-100012744D01*
X137090429Y-99953469D01*
X137070218Y-99917451D01*
X137067299Y-99909377D01*
X137079847Y-99890584D01*
X137114537Y-99850457D01*
X137166937Y-99793493D01*
X137232616Y-99724185D01*
X137307144Y-99647031D01*
X137386087Y-99566525D01*
X137465017Y-99487163D01*
X137539500Y-99413440D01*
X137605106Y-99349852D01*
X137657404Y-99300894D01*
X137691961Y-99271061D01*
X137703522Y-99263942D01*
X137722346Y-99273953D01*
X137767369Y-99302078D01*
X137834213Y-99345454D01*
X137918501Y-99401218D01*
X138015856Y-99466506D01*
X138089293Y-99516246D01*
X138460333Y-99768551D01*
X139078905Y-99513555D01*
X139162725Y-99068931D01*
X139246546Y-98624307D01*
X140171994Y-98624307D01*
X140255814Y-99068931D01*
G37*
%TD*%
%LPC*%
D11*
%TO.C,H4*%
X154869999Y-90315000D03*
%TD*%
%TO.C,H1*%
X124940000Y-112885001D03*
%TD*%
%TO.C,H3*%
X154869999Y-112885001D03*
%TD*%
%TO.C,H2*%
X124940000Y-90315000D03*
%TD*%
%LPD*%
M02*
