%TF.GenerationSoftware,KiCad,Pcbnew,9.0.6*%
%TF.CreationDate,2025-11-17T19:53:22+07:00*%
%TF.ProjectId,controller,636f6e74-726f-46c6-9c65-722e6b696361,rev?*%
%TF.SameCoordinates,Original*%
%TF.FileFunction,Soldermask,Top*%
%TF.FilePolarity,Negative*%
%FSLAX46Y46*%
G04 Gerber Fmt 4.6, Leading zero omitted, Abs format (unit mm)*
G04 Created by KiCad (PCBNEW 9.0.6) date 2025-11-17 19:53:22*
%MOMM*%
%LPD*%
G01*
G04 APERTURE LIST*
%ADD10C,3.800000*%
%ADD11C,1.600000*%
%ADD12R,1.300000X0.300000*%
%ADD13R,2.200000X1.800000*%
%ADD14R,3.000000X3.000000*%
%ADD15R,1.200000X1.800000*%
%ADD16R,0.600000X1.550000*%
G04 APERTURE END LIST*
D10*
%TO.C,H2*%
X154686000Y-84328000D03*
%TD*%
%TO.C,H3*%
X127254000Y-108712000D03*
%TD*%
%TO.C,H4*%
X154686000Y-108712000D03*
%TD*%
D11*
%TO.C,U2*%
X128270000Y-104140000D03*
X130810000Y-104140000D03*
X133350000Y-104140000D03*
X135890000Y-104140000D03*
X138430000Y-104140000D03*
X140970000Y-104140000D03*
X143510000Y-104140000D03*
X146050000Y-104140000D03*
X148590000Y-104140000D03*
X151130000Y-104140000D03*
X153670000Y-104140000D03*
X156210000Y-104140000D03*
X156210000Y-88900000D03*
X153670000Y-88900000D03*
X151130000Y-88900000D03*
X148590000Y-88900000D03*
X146050000Y-88900000D03*
X143510000Y-88900000D03*
X140970000Y-88900000D03*
X138430000Y-88900000D03*
X135890000Y-88900000D03*
X133350000Y-88900000D03*
X130810000Y-88900000D03*
X128270000Y-88900000D03*
X125730000Y-104140000D03*
X125730000Y-88900000D03*
%TD*%
D12*
%TO.C,J4*%
X145790000Y-99270000D03*
X145790000Y-98770000D03*
X145790000Y-98270000D03*
X145790000Y-97770000D03*
X145790000Y-97270000D03*
X145790000Y-96770000D03*
X145790000Y-96270000D03*
X145790000Y-95770000D03*
X145790000Y-95270000D03*
X145790000Y-94770000D03*
X145790000Y-94270000D03*
X145790000Y-93770000D03*
D13*
X149040000Y-101170000D03*
X149040000Y-91870000D03*
%TD*%
D14*
%TO.C,TP1*%
X129540000Y-93980000D03*
%TD*%
%TO.C,TP2*%
X129540000Y-99060000D03*
%TD*%
D15*
%TO.C,QT1*%
X134638000Y-95823000D03*
X140238000Y-95823000D03*
D16*
X135938000Y-91948000D03*
X136938000Y-91948000D03*
X137938000Y-91948000D03*
X138938000Y-91948000D03*
%TD*%
D10*
%TO.C,H1*%
X127254000Y-84328000D03*
%TD*%
M02*
