%TF.GenerationSoftware,KiCad,Pcbnew,9.0.6*%
%TF.CreationDate,2025-11-17T19:53:22+07:00*%
%TF.ProjectId,controller,636f6e74-726f-46c6-9c65-722e6b696361,rev?*%
%TF.SameCoordinates,Original*%
%TF.FileFunction,Legend,Top*%
%TF.FilePolarity,Positive*%
%FSLAX46Y46*%
G04 Gerber Fmt 4.6, Leading zero omitted, Abs format (unit mm)*
G04 Created by KiCad (PCBNEW 9.0.6) date 2025-11-17 19:53:22*
%MOMM*%
%LPD*%
G01*
G04 APERTURE LIST*
%ADD10C,0.100000*%
%ADD11C,0.150000*%
%ADD12C,0.000000*%
%ADD13C,0.120000*%
%ADD14C,3.800000*%
%ADD15C,1.600000*%
%ADD16R,1.300000X0.300000*%
%ADD17R,2.200000X1.800000*%
%ADD18R,3.000000X3.000000*%
%ADD19R,1.200000X1.800000*%
%ADD20R,0.600000X1.550000*%
G04 APERTURE END LIST*
D10*
X128609437Y-102448838D02*
X128609437Y-103020266D01*
X128609437Y-102734552D02*
X127609437Y-102734552D01*
X127609437Y-102734552D02*
X127752294Y-102829790D01*
X127752294Y-102829790D02*
X127847532Y-102925028D01*
X127847532Y-102925028D02*
X127895151Y-103020266D01*
D11*
X137922190Y-93937942D02*
X138017428Y-93985561D01*
X138017428Y-93985561D02*
X138112666Y-94080800D01*
X138112666Y-94080800D02*
X138255523Y-94223657D01*
X138255523Y-94223657D02*
X138350761Y-94271276D01*
X138350761Y-94271276D02*
X138445999Y-94271276D01*
X138398380Y-94033180D02*
X138493618Y-94080800D01*
X138493618Y-94080800D02*
X138588856Y-94176038D01*
X138588856Y-94176038D02*
X138636475Y-94366514D01*
X138636475Y-94366514D02*
X138636475Y-94699847D01*
X138636475Y-94699847D02*
X138588856Y-94890323D01*
X138588856Y-94890323D02*
X138493618Y-94985561D01*
X138493618Y-94985561D02*
X138398380Y-95033180D01*
X138398380Y-95033180D02*
X138207904Y-95033180D01*
X138207904Y-95033180D02*
X138112666Y-94985561D01*
X138112666Y-94985561D02*
X138017428Y-94890323D01*
X138017428Y-94890323D02*
X137969809Y-94699847D01*
X137969809Y-94699847D02*
X137969809Y-94366514D01*
X137969809Y-94366514D02*
X138017428Y-94176038D01*
X138017428Y-94176038D02*
X138112666Y-94080800D01*
X138112666Y-94080800D02*
X138207904Y-94033180D01*
X138207904Y-94033180D02*
X138398380Y-94033180D01*
X137684094Y-95033180D02*
X137112666Y-95033180D01*
X137398380Y-94033180D02*
X137398380Y-95033180D01*
X136255523Y-94033180D02*
X136826951Y-94033180D01*
X136541237Y-94033180D02*
X136541237Y-95033180D01*
X136541237Y-95033180D02*
X136636475Y-94890323D01*
X136636475Y-94890323D02*
X136731713Y-94795085D01*
X136731713Y-94795085D02*
X136826951Y-94747466D01*
D12*
%TO.C,kibuzzard-6919562A*%
G36*
X126647546Y-94539371D02*
G01*
X126784886Y-94605179D01*
X126864285Y-94676710D01*
X126843541Y-94781144D01*
X126774156Y-94861259D01*
X126673298Y-94842661D01*
X125929378Y-94483577D01*
X125874299Y-94433505D01*
X125853978Y-94364835D01*
X126285601Y-94364835D01*
X126424371Y-94432074D01*
X126424371Y-94297597D01*
X126285601Y-94364835D01*
X125853978Y-94364835D01*
X125853555Y-94363405D01*
X125872868Y-94293662D01*
X125930808Y-94244664D01*
X126673298Y-93885579D01*
X126774871Y-93866266D01*
X126844971Y-93945665D01*
X126865715Y-94051531D01*
X126783455Y-94121631D01*
X126647546Y-94187439D01*
X126647546Y-94432074D01*
X126647546Y-94539371D01*
G37*
G36*
X126025229Y-92969986D02*
G01*
X126058848Y-92997883D01*
X126070293Y-93030787D01*
X126072439Y-93071559D01*
X126072439Y-93268984D01*
X126727661Y-93268984D01*
X126775587Y-93271130D01*
X126813498Y-93284721D01*
X126844971Y-93324778D01*
X126854986Y-93399170D01*
X126844971Y-93472847D01*
X126812783Y-93511474D01*
X126774156Y-93524349D01*
X126726230Y-93526495D01*
X126072439Y-93526495D01*
X126072439Y-93725351D01*
X126070293Y-93766123D01*
X126058848Y-93798312D01*
X126025229Y-93825494D01*
X125960851Y-93834077D01*
X125898619Y-93825494D01*
X125865715Y-93797597D01*
X125854270Y-93764692D01*
X125852124Y-93723920D01*
X125852124Y-93070129D01*
X125854270Y-93029356D01*
X125865715Y-92997167D01*
X125899335Y-92969986D01*
X125962282Y-92961402D01*
X126025229Y-92969986D01*
G37*
G36*
X126545973Y-92267554D02*
G01*
X126581738Y-92295451D01*
X126593898Y-92328355D01*
X126596044Y-92369127D01*
X126596044Y-92470701D01*
X126690465Y-92470701D01*
X126734099Y-92472847D01*
X126769149Y-92485007D01*
X126798476Y-92520773D01*
X126807775Y-92589442D01*
X126798476Y-92656681D01*
X126768433Y-92692446D01*
X126732668Y-92704607D01*
X126689034Y-92706753D01*
X126596044Y-92706753D01*
X126596044Y-92809757D01*
X126593898Y-92850529D01*
X126581738Y-92883433D01*
X126545973Y-92911330D01*
X126477303Y-92919914D01*
X126408634Y-92910615D01*
X126372868Y-92880572D01*
X126360708Y-92844092D01*
X126358562Y-92799742D01*
X126358562Y-92706753D01*
X126264142Y-92706753D01*
X126220508Y-92704607D01*
X126185458Y-92692446D01*
X126156845Y-92656681D01*
X126148262Y-92588011D01*
X126157561Y-92520773D01*
X126186888Y-92485007D01*
X126221938Y-92472847D01*
X126265572Y-92470701D01*
X126358562Y-92470701D01*
X126358562Y-92376280D01*
X126360708Y-92332647D01*
X126372868Y-92297597D01*
X126409349Y-92268269D01*
X126478734Y-92258970D01*
X126545973Y-92267554D01*
G37*
G36*
X126853555Y-95570844D02*
G01*
X126843541Y-95645236D01*
X126810637Y-95685293D01*
X126770579Y-95698884D01*
X126720508Y-95701030D01*
X125982310Y-95701030D01*
X125934385Y-95698884D01*
X125895043Y-95685293D01*
X125862139Y-95645236D01*
X125852124Y-95569413D01*
X125852124Y-95266123D01*
X126113927Y-95266123D01*
X126113927Y-95439227D01*
X126591753Y-95439227D01*
X126591753Y-95234649D01*
X126590322Y-95214621D01*
X126582454Y-95192446D01*
X126558133Y-95170987D01*
X126513069Y-95163119D01*
X126453698Y-95181717D01*
X126440107Y-95241803D01*
X126440107Y-95260401D01*
X126415072Y-95341946D01*
X126329950Y-95366266D01*
X126247690Y-95340515D01*
X126224084Y-95253247D01*
X126224084Y-95236080D01*
X126214070Y-95201745D01*
X126169721Y-95191731D01*
X126125372Y-95206753D01*
X126113927Y-95266123D01*
X125852124Y-95266123D01*
X125852124Y-95234649D01*
X125862218Y-95154058D01*
X125892500Y-95082051D01*
X125942969Y-95018627D01*
X126007267Y-94969350D01*
X126079036Y-94939784D01*
X126158276Y-94929928D01*
X126241967Y-94941731D01*
X126318505Y-94977139D01*
X126419006Y-94920272D01*
X126528805Y-94901316D01*
X126614801Y-94912523D01*
X126691578Y-94944235D01*
X126759134Y-94996452D01*
X126811590Y-95062976D01*
X126843064Y-95137606D01*
X126853555Y-95220343D01*
X126853555Y-95439227D01*
X126853555Y-95570844D01*
G37*
D13*
%TO.C,J4*%
X146340000Y-91870000D02*
X147680000Y-91870000D01*
X146340000Y-93360000D02*
X146340000Y-91870000D01*
X146340000Y-99680000D02*
X145140000Y-99680000D01*
X146340000Y-99680000D02*
X146340000Y-101170000D01*
X146340000Y-101170000D02*
X147680000Y-101170000D01*
X150400000Y-101170000D02*
X152140000Y-101170000D01*
X152140000Y-91870000D02*
X150400000Y-91870000D01*
X152140000Y-101170000D02*
X152140000Y-91870000D01*
D12*
%TO.C,kibuzzard-69195637*%
G36*
X126337818Y-97404063D02*
G01*
X126372868Y-97429099D01*
X126385744Y-97500629D01*
X126385744Y-97841116D01*
X126373584Y-97905136D01*
X126337103Y-97936967D01*
X126271295Y-97944120D01*
X126206917Y-97935536D01*
X126172582Y-97908355D01*
X126159707Y-97839685D01*
X126159707Y-97499199D01*
X126171509Y-97435536D01*
X126206917Y-97404778D01*
X126272725Y-97396195D01*
X126337818Y-97404063D01*
G37*
G36*
X126647546Y-99562146D02*
G01*
X126784886Y-99627954D01*
X126864285Y-99699485D01*
X126843541Y-99803920D01*
X126774156Y-99884034D01*
X126673298Y-99865436D01*
X125929378Y-99506352D01*
X125874299Y-99456280D01*
X125853978Y-99387611D01*
X126285601Y-99387611D01*
X126424371Y-99454850D01*
X126424371Y-99320372D01*
X126285601Y-99387611D01*
X125853978Y-99387611D01*
X125853555Y-99386180D01*
X125872868Y-99316438D01*
X125930808Y-99267439D01*
X126673298Y-98908355D01*
X126774871Y-98889041D01*
X126844971Y-98968441D01*
X126865715Y-99074306D01*
X126783455Y-99144406D01*
X126647546Y-99210215D01*
X126647546Y-99454850D01*
X126647546Y-99562146D01*
G37*
G36*
X126025229Y-97992761D02*
G01*
X126058848Y-98020658D01*
X126070293Y-98053562D01*
X126072439Y-98094335D01*
X126072439Y-98291760D01*
X126727661Y-98291760D01*
X126775587Y-98293906D01*
X126813498Y-98307496D01*
X126844971Y-98347554D01*
X126854986Y-98421946D01*
X126844971Y-98495622D01*
X126812783Y-98534249D01*
X126774156Y-98547124D01*
X126726230Y-98549270D01*
X126072439Y-98549270D01*
X126072439Y-98748126D01*
X126070293Y-98788898D01*
X126058848Y-98821087D01*
X126025229Y-98848269D01*
X125960851Y-98856853D01*
X125898619Y-98848269D01*
X125865715Y-98820372D01*
X125854270Y-98787468D01*
X125852124Y-98746695D01*
X125852124Y-98092904D01*
X125854270Y-98052132D01*
X125865715Y-98019943D01*
X125899335Y-97992761D01*
X125962282Y-97984177D01*
X126025229Y-97992761D01*
G37*
G36*
X126853555Y-100593619D02*
G01*
X126843541Y-100668011D01*
X126810637Y-100708069D01*
X126770579Y-100721660D01*
X126720508Y-100723805D01*
X125982310Y-100723805D01*
X125934385Y-100721660D01*
X125895043Y-100708069D01*
X125862139Y-100668011D01*
X125852124Y-100592189D01*
X125852124Y-100288898D01*
X126113927Y-100288898D01*
X126113927Y-100462003D01*
X126591753Y-100462003D01*
X126591753Y-100257425D01*
X126590322Y-100237396D01*
X126582454Y-100215222D01*
X126558133Y-100193763D01*
X126513069Y-100185894D01*
X126453698Y-100204492D01*
X126440107Y-100264578D01*
X126440107Y-100283176D01*
X126415072Y-100364721D01*
X126329950Y-100389041D01*
X126247690Y-100363290D01*
X126224084Y-100276023D01*
X126224084Y-100258856D01*
X126214070Y-100224521D01*
X126169721Y-100214506D01*
X126125372Y-100229528D01*
X126113927Y-100288898D01*
X125852124Y-100288898D01*
X125852124Y-100257425D01*
X125862218Y-100176834D01*
X125892500Y-100104826D01*
X125942969Y-100041402D01*
X126007267Y-99992125D01*
X126079036Y-99962559D01*
X126158276Y-99952704D01*
X126241967Y-99964506D01*
X126318505Y-99999914D01*
X126419006Y-99943047D01*
X126528805Y-99924092D01*
X126614801Y-99935298D01*
X126691578Y-99967010D01*
X126759134Y-100019227D01*
X126811590Y-100085751D01*
X126843064Y-100160381D01*
X126853555Y-100243119D01*
X126853555Y-100462003D01*
X126853555Y-100593619D01*
G37*
D13*
%TO.C,TP1*%
X127840000Y-92280000D02*
X131240000Y-92280000D01*
X127840000Y-95680000D02*
X127840000Y-92280000D01*
X131240000Y-92280000D02*
X131240000Y-95680000D01*
X131240000Y-95680000D02*
X127840000Y-95680000D01*
%TO.C,TP2*%
X127840000Y-97360000D02*
X131240000Y-97360000D01*
X127840000Y-100760000D02*
X127840000Y-97360000D01*
X131240000Y-97360000D02*
X131240000Y-100760000D01*
X131240000Y-100760000D02*
X127840000Y-100760000D01*
D11*
%TO.C,QT1*%
X134438000Y-92323000D02*
X135438000Y-92323000D01*
X134438000Y-94723000D02*
X134438000Y-92323000D01*
X139438000Y-92323000D02*
X140438000Y-92323000D01*
X139438000Y-96523000D02*
X135438000Y-96523000D01*
X140438000Y-92323000D02*
X140438000Y-94723000D01*
%TD*%
%LPC*%
D14*
%TO.C,H2*%
X154686000Y-84328000D03*
%TD*%
%TO.C,H3*%
X127254000Y-108712000D03*
%TD*%
%TO.C,H4*%
X154686000Y-108712000D03*
%TD*%
D15*
%TO.C,U2*%
X128270000Y-104140000D03*
X130810000Y-104140000D03*
X133350000Y-104140000D03*
X135890000Y-104140000D03*
X138430000Y-104140000D03*
X140970000Y-104140000D03*
X143510000Y-104140000D03*
X146050000Y-104140000D03*
X148590000Y-104140000D03*
X151130000Y-104140000D03*
X153670000Y-104140000D03*
X156210000Y-104140000D03*
X156210000Y-88900000D03*
X153670000Y-88900000D03*
X151130000Y-88900000D03*
X148590000Y-88900000D03*
X146050000Y-88900000D03*
X143510000Y-88900000D03*
X140970000Y-88900000D03*
X138430000Y-88900000D03*
X135890000Y-88900000D03*
X133350000Y-88900000D03*
X130810000Y-88900000D03*
X128270000Y-88900000D03*
X125730000Y-104140000D03*
X125730000Y-88900000D03*
%TD*%
D16*
%TO.C,J4*%
X145790000Y-99270000D03*
X145790000Y-98770000D03*
X145790000Y-98270000D03*
X145790000Y-97770000D03*
X145790000Y-97270000D03*
X145790000Y-96770000D03*
X145790000Y-96270000D03*
X145790000Y-95770000D03*
X145790000Y-95270000D03*
X145790000Y-94770000D03*
X145790000Y-94270000D03*
X145790000Y-93770000D03*
D17*
X149040000Y-101170000D03*
X149040000Y-91870000D03*
%TD*%
D18*
%TO.C,TP1*%
X129540000Y-93980000D03*
%TD*%
%TO.C,TP2*%
X129540000Y-99060000D03*
%TD*%
D19*
%TO.C,QT1*%
X134638000Y-95823000D03*
X140238000Y-95823000D03*
D20*
X135938000Y-91948000D03*
X136938000Y-91948000D03*
X137938000Y-91948000D03*
X138938000Y-91948000D03*
%TD*%
D14*
%TO.C,H1*%
X127254000Y-84328000D03*
%TD*%
%LPD*%
M02*
