%TF.GenerationSoftware,KiCad,Pcbnew,9.0.6*%
%TF.CreationDate,2025-11-17T19:53:22+07:00*%
%TF.ProjectId,controller,636f6e74-726f-46c6-9c65-722e6b696361,rev?*%
%TF.SameCoordinates,Original*%
%TF.FileFunction,Copper,L2,Bot*%
%TF.FilePolarity,Positive*%
%FSLAX46Y46*%
G04 Gerber Fmt 4.6, Leading zero omitted, Abs format (unit mm)*
G04 Created by KiCad (PCBNEW 9.0.6) date 2025-11-17 19:53:22*
%MOMM*%
%LPD*%
G01*
G04 APERTURE LIST*
%TA.AperFunction,ComponentPad*%
%ADD10C,3.800000*%
%TD*%
%TA.AperFunction,ComponentPad*%
%ADD11C,1.600000*%
%TD*%
%TA.AperFunction,SMDPad,CuDef*%
%ADD12R,1.450000X0.750000*%
%TD*%
%TA.AperFunction,ViaPad*%
%ADD13C,0.600000*%
%TD*%
%TA.AperFunction,Conductor*%
%ADD14C,0.300000*%
%TD*%
G04 APERTURE END LIST*
D10*
%TO.P,H2,1,1*%
%TO.N,GND*%
X154686000Y-84328000D03*
%TD*%
%TO.P,H3,1,1*%
%TO.N,GND*%
X127254000Y-108712000D03*
%TD*%
%TO.P,H4,1,1*%
%TO.N,GND*%
X154686000Y-108712000D03*
%TD*%
D11*
%TO.P,U2,1,TX0/P0.06*%
%TO.N,I2C_SDA*%
X128270000Y-104140000D03*
%TO.P,U2,2,RX1/P0.08*%
%TO.N,I2C_SCL*%
X130810000Y-104140000D03*
%TO.P,U2,3,GND*%
%TO.N,GND*%
X133350000Y-104140000D03*
%TO.P,U2,4,GND*%
X135890000Y-104140000D03*
%TO.P,U2,5,P0.17*%
%TO.N,LED_CTRL*%
X138430000Y-104140000D03*
%TO.P,U2,6,P0.20*%
%TO.N,SPI_SCK*%
X140970000Y-104140000D03*
%TO.P,U2,7,P0.22*%
%TO.N,SPI_MOSI*%
X143510000Y-104140000D03*
%TO.P,U2,8,P0.24*%
%TO.N,unconnected-(U2-P0.24-Pad8)*%
X146050000Y-104140000D03*
%TO.P,U2,9,P1.00*%
%TO.N,unconnected-(U2-P1.00-Pad9)*%
X148590000Y-104140000D03*
%TO.P,U2,10,P0.11*%
%TO.N,unconnected-(U2-P0.11-Pad10)*%
X151130000Y-104140000D03*
%TO.P,U2,11,P1.04*%
%TO.N,unconnected-(U2-P1.04-Pad11)*%
X153670000Y-104140000D03*
%TO.P,U2,12,P1.06*%
%TO.N,unconnected-(U2-P1.06-Pad12)*%
X156210000Y-104140000D03*
%TO.P,U2,13,NFC1/P0.09*%
%TO.N,unconnected-(U2-NFC1{slash}P0.09-Pad13)*%
X156210000Y-88900000D03*
%TO.P,U2,14,NFC2/P0.10*%
%TO.N,unconnected-(U2-NFC2{slash}P0.10-Pad14)*%
X153670000Y-88900000D03*
%TO.P,U2,15,P1.11*%
%TO.N,unconnected-(U2-P1.11-Pad15)*%
X151130000Y-88900000D03*
%TO.P,U2,16,P1.13*%
%TO.N,CS*%
X148590000Y-88900000D03*
%TO.P,U2,17,P1.15*%
%TO.N,D{slash}C*%
X146050000Y-88900000D03*
%TO.P,U2,18,AIN0/P0.02*%
%TO.N,RES*%
X143510000Y-88900000D03*
%TO.P,U2,19,AIN5/P0.29*%
%TO.N,TP_TINT*%
X140970000Y-88900000D03*
%TO.P,U2,20,AIN7/P0.31*%
%TO.N,TP_TRST*%
X138430000Y-88900000D03*
%TO.P,U2,21,VCC*%
%TO.N,VCC*%
X135890000Y-88900000D03*
%TO.P,U2,22,RST*%
%TO.N,Net-(U2-RST)*%
X133350000Y-88900000D03*
%TO.P,U2,23,GND*%
%TO.N,unconnected-(U2-GND-Pad23)*%
X130810000Y-88900000D03*
%TO.P,U2,24,RAW*%
%TO.N,unconnected-(U2-RAW-Pad24)*%
X128270000Y-88900000D03*
%TO.P,U2,28,BAT-*%
%TO.N,GND*%
X125730000Y-104140000D03*
%TO.P,U2,29,BAT+*%
%TO.N,Net-(U2-BAT+)*%
X125730000Y-88900000D03*
%TD*%
D10*
%TO.P,H1,1,1*%
%TO.N,GND*%
X127254000Y-84328000D03*
%TD*%
D12*
%TO.P,SW1,1,1*%
%TO.N,Net-(U2-RST)*%
X131075000Y-85453000D03*
X135625000Y-85453000D03*
%TO.P,SW1,2,2*%
%TO.N,GND*%
X131075000Y-83203000D03*
X135625000Y-83203000D03*
%TD*%
D13*
%TO.N,LED_CTRL*%
X144681743Y-95920000D03*
%TO.N,CS*%
X148033620Y-96725620D03*
%TO.N,GND*%
X142240000Y-95758000D03*
%TO.N,SPI_SCK*%
X144497210Y-97699114D03*
%TO.N,SPI_MOSI*%
X144526000Y-98552000D03*
%TO.N,I2C_SCL*%
X139143760Y-93520240D03*
%TO.N,I2C_SDA*%
X137938000Y-93742000D03*
%TD*%
D14*
%TO.N,LED_CTRL*%
X144681743Y-95920000D02*
X142501000Y-98100743D01*
X142501000Y-98100743D02*
X142501000Y-100069000D01*
X142501000Y-100069000D02*
X138430000Y-104140000D01*
%TO.N,CS*%
X148033620Y-96725620D02*
X148590000Y-96169240D01*
X148590000Y-96169240D02*
X148590000Y-88900000D01*
%TO.N,SPI_SCK*%
X143002000Y-102108000D02*
X140970000Y-104140000D01*
X144458232Y-97699114D02*
X143002000Y-99155346D01*
X143002000Y-99155346D02*
X143002000Y-102108000D01*
X144497210Y-97699114D02*
X144458232Y-97699114D01*
%TO.N,SPI_MOSI*%
X143510000Y-99568000D02*
X143510000Y-104140000D01*
X144526000Y-98552000D02*
X143510000Y-99568000D01*
%TO.N,Net-(U2-RST)*%
X135625000Y-85453000D02*
X133350000Y-85453000D01*
X133350000Y-88900000D02*
X133350000Y-85453000D01*
X133350000Y-85453000D02*
X131075000Y-85453000D01*
%TO.N,I2C_SCL*%
X130810000Y-104140000D02*
X130810000Y-101854000D01*
X130810000Y-101854000D02*
X139143760Y-93520240D01*
%TO.N,I2C_SDA*%
X128270000Y-103410000D02*
X137938000Y-93742000D01*
X128270000Y-104140000D02*
X128270000Y-103410000D01*
%TD*%
%TA.AperFunction,Conductor*%
%TO.N,GND*%
G36*
X133672257Y-81780596D02*
G01*
X134046233Y-81795290D01*
X134055906Y-81796051D01*
X134425173Y-81839758D01*
X134434777Y-81841280D01*
X134799464Y-81913821D01*
X134808923Y-81916092D01*
X135166797Y-82017024D01*
X135176041Y-82020028D01*
X135359376Y-82087665D01*
X135415459Y-82129336D01*
X135440109Y-82194713D01*
X135425500Y-82263039D01*
X135376271Y-82312620D01*
X135316457Y-82328000D01*
X134852155Y-82328000D01*
X134792627Y-82334401D01*
X134792620Y-82334403D01*
X134657913Y-82384645D01*
X134657906Y-82384649D01*
X134542812Y-82470809D01*
X134542809Y-82470812D01*
X134456649Y-82585906D01*
X134456645Y-82585913D01*
X134406403Y-82720620D01*
X134406401Y-82720627D01*
X134400000Y-82780155D01*
X134400000Y-82953000D01*
X136786123Y-82953000D01*
X136853162Y-82972685D01*
X136870294Y-82985944D01*
X137104414Y-83202363D01*
X137107924Y-83205738D01*
X138999595Y-85097409D01*
X138999597Y-85097412D01*
X139007411Y-85105226D01*
X139009861Y-85107676D01*
X139009891Y-85107731D01*
X139046177Y-85144016D01*
X139046177Y-85144017D01*
X139194181Y-85292019D01*
X139510553Y-85566151D01*
X139845675Y-85817015D01*
X140093047Y-85975989D01*
X140131602Y-86000767D01*
X140197839Y-86043334D01*
X140565251Y-86243953D01*
X140946039Y-86417851D01*
X141181372Y-86505624D01*
X141338259Y-86564140D01*
X141739918Y-86682076D01*
X141739928Y-86682079D01*
X142148964Y-86771059D01*
X142148971Y-86771060D01*
X142563326Y-86830636D01*
X142980875Y-86860500D01*
X143124293Y-86860500D01*
X143763924Y-86860500D01*
X143778414Y-86860500D01*
X143778550Y-86860540D01*
X143829816Y-86860540D01*
X144039126Y-86860540D01*
X144456678Y-86830674D01*
X144871036Y-86771096D01*
X144871041Y-86771095D01*
X145280084Y-86682111D01*
X145280085Y-86682110D01*
X145280088Y-86682110D01*
X145681749Y-86564168D01*
X145681824Y-86564140D01*
X146073963Y-86417877D01*
X146074020Y-86417851D01*
X146454760Y-86243969D01*
X146822171Y-86043342D01*
X147174333Y-85817015D01*
X147509451Y-85566142D01*
X147825819Y-85292000D01*
X147949153Y-85168660D01*
X149867410Y-83250403D01*
X149867413Y-83250402D01*
X149912319Y-83205494D01*
X149915750Y-83202195D01*
X150190637Y-82948084D01*
X150198011Y-82941787D01*
X150490037Y-82711566D01*
X150497857Y-82705883D01*
X150807074Y-82499266D01*
X150815339Y-82494201D01*
X151139779Y-82312502D01*
X151148431Y-82308094D01*
X151486129Y-82152409D01*
X151495081Y-82148701D01*
X151843967Y-82019986D01*
X151853183Y-82016992D01*
X152211089Y-81916050D01*
X152220508Y-81913788D01*
X152585240Y-81841236D01*
X152594806Y-81839721D01*
X152964093Y-81796012D01*
X152973760Y-81795251D01*
X153346725Y-81780596D01*
X153351594Y-81780500D01*
X153416079Y-81780500D01*
X153969940Y-81780500D01*
X154036979Y-81800185D01*
X154082734Y-81852989D01*
X154092678Y-81922147D01*
X154063653Y-81985703D01*
X154010895Y-82021541D01*
X153766118Y-82107192D01*
X153766104Y-82107198D01*
X153523247Y-82224152D01*
X153295001Y-82367568D01*
X153174899Y-82463345D01*
X154103263Y-83391709D01*
X153969398Y-83488967D01*
X153846967Y-83611398D01*
X153749709Y-83745262D01*
X152821345Y-82816899D01*
X152725568Y-82937001D01*
X152582152Y-83165247D01*
X152465198Y-83408104D01*
X152465192Y-83408118D01*
X152376167Y-83662536D01*
X152376163Y-83662548D01*
X152316181Y-83925348D01*
X152316178Y-83925366D01*
X152286000Y-84193212D01*
X152286000Y-84462787D01*
X152316178Y-84730633D01*
X152316181Y-84730651D01*
X152376163Y-84993451D01*
X152376167Y-84993463D01*
X152465192Y-85247881D01*
X152465198Y-85247895D01*
X152582152Y-85490752D01*
X152725568Y-85718998D01*
X152821346Y-85839099D01*
X153749708Y-84910736D01*
X153846967Y-85044602D01*
X153969398Y-85167033D01*
X154103262Y-85264290D01*
X153174899Y-86192652D01*
X153174900Y-86192653D01*
X153294993Y-86288427D01*
X153294997Y-86288429D01*
X153523247Y-86431847D01*
X153766104Y-86548801D01*
X153766118Y-86548807D01*
X154020536Y-86637832D01*
X154020548Y-86637836D01*
X154283348Y-86697818D01*
X154283366Y-86697821D01*
X154551212Y-86727999D01*
X154551216Y-86728000D01*
X154820784Y-86728000D01*
X154820787Y-86727999D01*
X155088633Y-86697821D01*
X155088651Y-86697818D01*
X155351451Y-86637836D01*
X155351463Y-86637832D01*
X155605881Y-86548807D01*
X155605895Y-86548801D01*
X155848752Y-86431847D01*
X156076999Y-86288431D01*
X156197098Y-86192653D01*
X156197099Y-86192652D01*
X155268737Y-85264290D01*
X155402602Y-85167033D01*
X155525033Y-85044602D01*
X155622290Y-84910737D01*
X156550652Y-85839099D01*
X156550653Y-85839098D01*
X156646431Y-85718999D01*
X156789847Y-85490752D01*
X156906801Y-85247895D01*
X156906807Y-85247881D01*
X156992459Y-85003105D01*
X157033180Y-84946329D01*
X157098133Y-84920582D01*
X157166695Y-84934038D01*
X157217097Y-84982426D01*
X157233500Y-85044060D01*
X157233500Y-88067796D01*
X157213815Y-88134835D01*
X157161011Y-88180590D01*
X157091853Y-88190534D01*
X157028297Y-88161509D01*
X157021819Y-88155477D01*
X156926930Y-88060588D01*
X156926928Y-88060586D01*
X156786788Y-87958768D01*
X156632445Y-87880127D01*
X156467701Y-87826598D01*
X156467699Y-87826597D01*
X156467698Y-87826597D01*
X156336271Y-87805781D01*
X156296611Y-87799500D01*
X156123389Y-87799500D01*
X156083728Y-87805781D01*
X155952302Y-87826597D01*
X155787552Y-87880128D01*
X155633211Y-87958768D01*
X155553256Y-88016859D01*
X155493072Y-88060586D01*
X155493070Y-88060588D01*
X155493069Y-88060588D01*
X155370588Y-88183069D01*
X155370588Y-88183070D01*
X155370586Y-88183072D01*
X155369928Y-88183978D01*
X155268768Y-88323211D01*
X155190128Y-88477552D01*
X155136597Y-88642302D01*
X155109500Y-88813389D01*
X155109500Y-88986611D01*
X155136598Y-89157701D01*
X155190127Y-89322445D01*
X155268768Y-89476788D01*
X155370586Y-89616928D01*
X155493072Y-89739414D01*
X155633212Y-89841232D01*
X155787555Y-89919873D01*
X155952299Y-89973402D01*
X156123389Y-90000500D01*
X156123390Y-90000500D01*
X156296610Y-90000500D01*
X156296611Y-90000500D01*
X156467701Y-89973402D01*
X156632445Y-89919873D01*
X156786788Y-89841232D01*
X156926928Y-89739414D01*
X157021819Y-89644523D01*
X157083142Y-89611038D01*
X157152834Y-89616022D01*
X157208767Y-89657894D01*
X157233184Y-89723358D01*
X157233500Y-89732204D01*
X157233500Y-103307796D01*
X157213815Y-103374835D01*
X157161011Y-103420590D01*
X157091853Y-103430534D01*
X157028297Y-103401509D01*
X157021819Y-103395477D01*
X156926930Y-103300588D01*
X156926929Y-103300587D01*
X156926928Y-103300586D01*
X156786788Y-103198768D01*
X156632445Y-103120127D01*
X156467701Y-103066598D01*
X156467699Y-103066597D01*
X156467698Y-103066597D01*
X156336271Y-103045781D01*
X156296611Y-103039500D01*
X156123389Y-103039500D01*
X156083728Y-103045781D01*
X155952302Y-103066597D01*
X155952299Y-103066598D01*
X155792923Y-103118383D01*
X155787552Y-103120128D01*
X155633211Y-103198768D01*
X155574599Y-103241353D01*
X155493072Y-103300586D01*
X155493070Y-103300588D01*
X155493069Y-103300588D01*
X155370588Y-103423069D01*
X155370588Y-103423070D01*
X155370586Y-103423072D01*
X155344737Y-103458650D01*
X155268768Y-103563211D01*
X155190128Y-103717552D01*
X155136597Y-103882302D01*
X155109500Y-104053389D01*
X155109500Y-104226610D01*
X155135934Y-104393512D01*
X155136598Y-104397701D01*
X155190127Y-104562445D01*
X155268768Y-104716788D01*
X155370586Y-104856928D01*
X155493072Y-104979414D01*
X155633212Y-105081232D01*
X155787555Y-105159873D01*
X155952299Y-105213402D01*
X156123389Y-105240500D01*
X156123390Y-105240500D01*
X156296610Y-105240500D01*
X156296611Y-105240500D01*
X156467701Y-105213402D01*
X156632445Y-105159873D01*
X156786788Y-105081232D01*
X156926928Y-104979414D01*
X157021819Y-104884523D01*
X157083142Y-104851038D01*
X157152834Y-104856022D01*
X157208767Y-104897894D01*
X157233184Y-104963358D01*
X157233500Y-104972204D01*
X157233500Y-107995939D01*
X157213815Y-108062978D01*
X157161011Y-108108733D01*
X157091853Y-108118677D01*
X157028297Y-108089652D01*
X156992459Y-108036894D01*
X156906807Y-107792118D01*
X156906801Y-107792104D01*
X156789847Y-107549247D01*
X156646429Y-107320997D01*
X156646427Y-107320993D01*
X156550653Y-107200900D01*
X156550652Y-107200899D01*
X155622289Y-108129261D01*
X155525033Y-107995398D01*
X155402602Y-107872967D01*
X155268736Y-107775709D01*
X156197099Y-106847346D01*
X156076998Y-106751568D01*
X155848752Y-106608152D01*
X155605895Y-106491198D01*
X155605881Y-106491192D01*
X155351463Y-106402167D01*
X155351451Y-106402163D01*
X155088651Y-106342181D01*
X155088633Y-106342178D01*
X154820787Y-106312000D01*
X154551212Y-106312000D01*
X154283366Y-106342178D01*
X154283348Y-106342181D01*
X154020548Y-106402163D01*
X154020536Y-106402167D01*
X153766118Y-106491192D01*
X153766104Y-106491198D01*
X153523247Y-106608152D01*
X153295001Y-106751568D01*
X153174899Y-106847345D01*
X154103263Y-107775709D01*
X153969398Y-107872967D01*
X153846967Y-107995398D01*
X153749709Y-108129262D01*
X152821345Y-107200899D01*
X152725568Y-107321001D01*
X152582152Y-107549247D01*
X152465198Y-107792104D01*
X152465192Y-107792118D01*
X152376167Y-108046536D01*
X152376163Y-108046548D01*
X152316181Y-108309348D01*
X152316178Y-108309366D01*
X152286000Y-108577212D01*
X152286000Y-108846787D01*
X152316178Y-109114633D01*
X152316181Y-109114651D01*
X152376163Y-109377451D01*
X152376167Y-109377463D01*
X152465192Y-109631881D01*
X152465198Y-109631895D01*
X152582152Y-109874752D01*
X152725568Y-110102998D01*
X152821346Y-110223099D01*
X153749708Y-109294736D01*
X153846967Y-109428602D01*
X153969398Y-109551033D01*
X154103262Y-109648290D01*
X153174899Y-110576652D01*
X153174900Y-110576653D01*
X153294993Y-110672427D01*
X153294997Y-110672429D01*
X153523247Y-110815847D01*
X153766104Y-110932801D01*
X153766118Y-110932807D01*
X154010895Y-111018459D01*
X154067671Y-111059180D01*
X154093418Y-111124133D01*
X154079962Y-111192695D01*
X154031574Y-111243097D01*
X153969940Y-111259500D01*
X153352611Y-111259500D01*
X153347743Y-111259404D01*
X153305586Y-111257747D01*
X152973780Y-111244710D01*
X152964074Y-111243946D01*
X152594829Y-111200242D01*
X152585213Y-111198719D01*
X152220542Y-111126182D01*
X152211075Y-111123909D01*
X151853199Y-111022978D01*
X151843939Y-111019970D01*
X151495098Y-110891278D01*
X151486103Y-110887552D01*
X151148437Y-110731887D01*
X151139762Y-110727467D01*
X150815349Y-110545790D01*
X150807047Y-110540703D01*
X150678498Y-110454811D01*
X150497869Y-110334121D01*
X150490014Y-110328414D01*
X150349776Y-110217861D01*
X150198001Y-110098212D01*
X150190598Y-110091889D01*
X149916110Y-109838161D01*
X149912599Y-109834785D01*
X148739236Y-108661421D01*
X147921635Y-107843820D01*
X147921503Y-107843704D01*
X147825818Y-107748019D01*
X147825814Y-107748015D01*
X147825804Y-107748005D01*
X147509436Y-107473869D01*
X147174317Y-107223001D01*
X146822155Y-106996679D01*
X146822152Y-106996677D01*
X146548673Y-106847346D01*
X146454745Y-106796057D01*
X146454686Y-106796030D01*
X146073966Y-106622160D01*
X146073963Y-106622159D01*
X146073959Y-106622157D01*
X145681737Y-106475864D01*
X145627549Y-106459953D01*
X145280075Y-106357924D01*
X144871031Y-106268941D01*
X144456674Y-106209365D01*
X144039126Y-106179500D01*
X144039124Y-106179500D01*
X143895707Y-106179500D01*
X143241586Y-106179500D01*
X143241450Y-106179460D01*
X143190184Y-106179460D01*
X142980874Y-106179460D01*
X142980873Y-106179460D01*
X142563321Y-106209326D01*
X142148958Y-106268904D01*
X141739915Y-106357888D01*
X141338259Y-106475829D01*
X141338223Y-106475841D01*
X140946036Y-106622122D01*
X140662598Y-106751568D01*
X140565240Y-106796031D01*
X140393071Y-106890044D01*
X140197835Y-106996654D01*
X139845659Y-107222990D01*
X139510562Y-107473847D01*
X139510556Y-107473851D01*
X139194193Y-107747989D01*
X139194165Y-107748015D01*
X139070845Y-107871339D01*
X139070844Y-107871340D01*
X137107736Y-109834449D01*
X137104226Y-109837824D01*
X136829384Y-110091885D01*
X136821981Y-110098208D01*
X136529981Y-110328403D01*
X136522104Y-110334126D01*
X136212942Y-110540704D01*
X136204640Y-110545791D01*
X135880240Y-110727464D01*
X135871565Y-110731885D01*
X135533889Y-110887557D01*
X135524894Y-110891283D01*
X135176043Y-111019982D01*
X135166783Y-111022990D01*
X134808930Y-111123916D01*
X134799462Y-111126189D01*
X134434784Y-111198728D01*
X134425168Y-111200251D01*
X134055924Y-111243956D01*
X134046218Y-111244720D01*
X133709512Y-111257950D01*
X133672511Y-111259404D01*
X133667644Y-111259500D01*
X127970060Y-111259500D01*
X127903021Y-111239815D01*
X127857266Y-111187011D01*
X127847322Y-111117853D01*
X127876347Y-111054297D01*
X127929105Y-111018459D01*
X128173881Y-110932807D01*
X128173895Y-110932801D01*
X128416752Y-110815847D01*
X128644999Y-110672431D01*
X128765098Y-110576653D01*
X128765099Y-110576652D01*
X127836737Y-109648290D01*
X127970602Y-109551033D01*
X128093033Y-109428602D01*
X128190290Y-109294737D01*
X129118652Y-110223099D01*
X129118653Y-110223098D01*
X129214431Y-110102999D01*
X129357847Y-109874752D01*
X129474801Y-109631895D01*
X129474807Y-109631881D01*
X129563832Y-109377463D01*
X129563836Y-109377451D01*
X129623818Y-109114651D01*
X129623821Y-109114633D01*
X129653999Y-108846787D01*
X129654000Y-108846783D01*
X129654000Y-108577216D01*
X129653999Y-108577212D01*
X129623821Y-108309366D01*
X129623818Y-108309348D01*
X129563836Y-108046548D01*
X129563832Y-108046536D01*
X129474807Y-107792118D01*
X129474801Y-107792104D01*
X129357847Y-107549247D01*
X129214429Y-107320997D01*
X129214427Y-107320993D01*
X129118653Y-107200900D01*
X129118652Y-107200899D01*
X128190290Y-108129262D01*
X128093033Y-107995398D01*
X127970602Y-107872967D01*
X127836736Y-107775709D01*
X128765099Y-106847346D01*
X128644998Y-106751568D01*
X128416752Y-106608152D01*
X128173895Y-106491198D01*
X128173881Y-106491192D01*
X127919463Y-106402167D01*
X127919451Y-106402163D01*
X127656651Y-106342181D01*
X127656633Y-106342178D01*
X127388787Y-106312000D01*
X127119212Y-106312000D01*
X126851366Y-106342178D01*
X126851348Y-106342181D01*
X126588548Y-106402163D01*
X126588536Y-106402167D01*
X126334118Y-106491192D01*
X126334104Y-106491198D01*
X126091247Y-106608152D01*
X125863001Y-106751568D01*
X125742899Y-106847345D01*
X126671263Y-107775709D01*
X126537398Y-107872967D01*
X126414967Y-107995398D01*
X126317709Y-108129262D01*
X125389345Y-107200899D01*
X125293568Y-107321001D01*
X125150152Y-107549247D01*
X125033198Y-107792104D01*
X125033192Y-107792118D01*
X124947541Y-108036894D01*
X124906820Y-108093670D01*
X124841867Y-108119417D01*
X124773305Y-108105961D01*
X124722902Y-108057573D01*
X124706500Y-107995939D01*
X124706500Y-105246635D01*
X124726185Y-105179596D01*
X124778989Y-105133841D01*
X124848147Y-105123897D01*
X124903386Y-105146317D01*
X125048650Y-105251859D01*
X125230968Y-105344755D01*
X125425582Y-105407990D01*
X125627683Y-105440000D01*
X125832317Y-105440000D01*
X126034417Y-105407990D01*
X126229031Y-105344755D01*
X126411349Y-105251859D01*
X126455921Y-105219474D01*
X125757447Y-104521000D01*
X125780160Y-104521000D01*
X125877061Y-104495036D01*
X125963940Y-104444876D01*
X126034876Y-104373940D01*
X126085036Y-104287061D01*
X126111000Y-104190160D01*
X126111000Y-104167447D01*
X126809474Y-104865921D01*
X126841859Y-104821349D01*
X126934755Y-104639029D01*
X126986952Y-104478386D01*
X127026389Y-104420710D01*
X127090748Y-104393512D01*
X127159594Y-104405427D01*
X127211070Y-104452671D01*
X127222814Y-104478385D01*
X127250128Y-104562449D01*
X127328768Y-104716788D01*
X127430586Y-104856928D01*
X127553072Y-104979414D01*
X127693212Y-105081232D01*
X127847555Y-105159873D01*
X128012299Y-105213402D01*
X128183389Y-105240500D01*
X128183390Y-105240500D01*
X128356610Y-105240500D01*
X128356611Y-105240500D01*
X128527701Y-105213402D01*
X128692445Y-105159873D01*
X128846788Y-105081232D01*
X128986928Y-104979414D01*
X129109414Y-104856928D01*
X129211232Y-104716788D01*
X129289873Y-104562445D01*
X129343402Y-104397701D01*
X129370500Y-104226611D01*
X129370500Y-104053389D01*
X129343402Y-103882299D01*
X129289873Y-103717555D01*
X129211232Y-103563212D01*
X129109414Y-103423072D01*
X129089403Y-103403061D01*
X129055918Y-103341738D01*
X129060902Y-103272046D01*
X129089403Y-103227699D01*
X129629499Y-102687603D01*
X130147820Y-102169281D01*
X130209142Y-102135798D01*
X130278834Y-102140782D01*
X130334767Y-102182654D01*
X130359184Y-102248118D01*
X130359500Y-102256964D01*
X130359500Y-103058433D01*
X130339815Y-103125472D01*
X130291796Y-103168917D01*
X130233214Y-103198766D01*
X130193392Y-103227699D01*
X130093072Y-103300586D01*
X130093070Y-103300588D01*
X130093069Y-103300588D01*
X129970588Y-103423069D01*
X129970588Y-103423070D01*
X129970586Y-103423072D01*
X129944737Y-103458650D01*
X129868768Y-103563211D01*
X129790128Y-103717552D01*
X129736597Y-103882302D01*
X129709500Y-104053389D01*
X129709500Y-104226610D01*
X129735934Y-104393512D01*
X129736598Y-104397701D01*
X129790127Y-104562445D01*
X129868768Y-104716788D01*
X129970586Y-104856928D01*
X130093072Y-104979414D01*
X130233212Y-105081232D01*
X130387555Y-105159873D01*
X130552299Y-105213402D01*
X130723389Y-105240500D01*
X130723390Y-105240500D01*
X130896610Y-105240500D01*
X130896611Y-105240500D01*
X131067701Y-105213402D01*
X131232445Y-105159873D01*
X131386788Y-105081232D01*
X131526928Y-104979414D01*
X131649414Y-104856928D01*
X131751232Y-104716788D01*
X131829873Y-104562445D01*
X131857186Y-104478384D01*
X131896622Y-104420711D01*
X131960981Y-104393512D01*
X132029827Y-104405427D01*
X132081303Y-104452671D01*
X132093047Y-104478385D01*
X132145244Y-104639031D01*
X132238141Y-104821350D01*
X132238147Y-104821359D01*
X132270523Y-104865921D01*
X132270524Y-104865922D01*
X132901983Y-104234463D01*
X132923958Y-104316473D01*
X132984149Y-104420727D01*
X133069273Y-104505851D01*
X133173527Y-104566042D01*
X133255535Y-104588016D01*
X132624076Y-105219474D01*
X132668650Y-105251859D01*
X132850968Y-105344755D01*
X133045582Y-105407990D01*
X133247683Y-105440000D01*
X133452317Y-105440000D01*
X133654417Y-105407990D01*
X133849031Y-105344755D01*
X134031349Y-105251859D01*
X134075921Y-105219474D01*
X133444463Y-104588016D01*
X133526473Y-104566042D01*
X133630727Y-104505851D01*
X133715851Y-104420727D01*
X133776042Y-104316473D01*
X133798016Y-104234464D01*
X134429474Y-104865922D01*
X134429474Y-104865921D01*
X134461861Y-104821347D01*
X134461861Y-104821346D01*
X134509515Y-104727820D01*
X134557489Y-104677024D01*
X134625310Y-104660228D01*
X134691445Y-104682765D01*
X134730485Y-104727819D01*
X134778141Y-104821350D01*
X134778147Y-104821359D01*
X134810523Y-104865921D01*
X134810524Y-104865922D01*
X135441983Y-104234463D01*
X135463958Y-104316473D01*
X135524149Y-104420727D01*
X135609273Y-104505851D01*
X135713527Y-104566042D01*
X135795535Y-104588016D01*
X135164076Y-105219474D01*
X135208650Y-105251859D01*
X135390968Y-105344755D01*
X135585582Y-105407990D01*
X135787683Y-105440000D01*
X135992317Y-105440000D01*
X136194417Y-105407990D01*
X136389031Y-105344755D01*
X136571349Y-105251859D01*
X136615921Y-105219474D01*
X135984463Y-104588016D01*
X136066473Y-104566042D01*
X136170727Y-104505851D01*
X136255851Y-104420727D01*
X136316042Y-104316473D01*
X136338016Y-104234464D01*
X136969474Y-104865922D01*
X136969474Y-104865921D01*
X137001859Y-104821349D01*
X137094755Y-104639029D01*
X137146952Y-104478386D01*
X137186389Y-104420710D01*
X137250748Y-104393512D01*
X137319594Y-104405427D01*
X137371070Y-104452671D01*
X137382814Y-104478385D01*
X137410128Y-104562449D01*
X137488768Y-104716788D01*
X137590586Y-104856928D01*
X137713072Y-104979414D01*
X137853212Y-105081232D01*
X138007555Y-105159873D01*
X138172299Y-105213402D01*
X138343389Y-105240500D01*
X138343390Y-105240500D01*
X138516610Y-105240500D01*
X138516611Y-105240500D01*
X138687701Y-105213402D01*
X138852445Y-105159873D01*
X139006788Y-105081232D01*
X139146928Y-104979414D01*
X139269414Y-104856928D01*
X139371232Y-104716788D01*
X139449873Y-104562445D01*
X139503402Y-104397701D01*
X139530500Y-104226611D01*
X139530500Y-104053389D01*
X139503402Y-103882299D01*
X139483082Y-103819764D01*
X139481087Y-103749927D01*
X139513331Y-103693770D01*
X142339821Y-100867281D01*
X142401142Y-100833798D01*
X142470834Y-100838782D01*
X142526767Y-100880654D01*
X142551184Y-100946118D01*
X142551500Y-100954964D01*
X142551500Y-101870034D01*
X142531815Y-101937073D01*
X142515181Y-101957715D01*
X141416230Y-103056665D01*
X141354907Y-103090150D01*
X141290232Y-103086915D01*
X141227702Y-103066598D01*
X141227698Y-103066597D01*
X141096271Y-103045781D01*
X141056611Y-103039500D01*
X140883389Y-103039500D01*
X140843728Y-103045781D01*
X140712302Y-103066597D01*
X140712299Y-103066598D01*
X140552923Y-103118383D01*
X140547552Y-103120128D01*
X140393208Y-103198770D01*
X140268314Y-103289510D01*
X140268306Y-103289517D01*
X140253072Y-103300586D01*
X140130586Y-103423072D01*
X140119517Y-103438306D01*
X140119510Y-103438314D01*
X140028770Y-103563208D01*
X139950128Y-103717552D01*
X139896597Y-103882302D01*
X139869500Y-104053389D01*
X139869500Y-104226610D01*
X139895934Y-104393512D01*
X139896598Y-104397701D01*
X139950127Y-104562445D01*
X140028768Y-104716788D01*
X140130586Y-104856928D01*
X140253072Y-104979414D01*
X140393212Y-105081232D01*
X140547555Y-105159873D01*
X140712299Y-105213402D01*
X140883389Y-105240500D01*
X140883390Y-105240500D01*
X141056610Y-105240500D01*
X141056611Y-105240500D01*
X141227701Y-105213402D01*
X141392445Y-105159873D01*
X141546788Y-105081232D01*
X141686928Y-104979414D01*
X141809414Y-104856928D01*
X141911232Y-104716788D01*
X141989873Y-104562445D01*
X142043402Y-104397701D01*
X142070500Y-104226611D01*
X142070500Y-104053389D01*
X142043402Y-103882299D01*
X142023082Y-103819764D01*
X142021087Y-103749927D01*
X142053331Y-103693770D01*
X142477250Y-103269852D01*
X142538570Y-103236369D01*
X142608262Y-103241353D01*
X142664195Y-103283225D01*
X142688612Y-103348689D01*
X142673760Y-103416962D01*
X142665246Y-103430420D01*
X142568770Y-103563208D01*
X142490128Y-103717552D01*
X142436597Y-103882302D01*
X142409500Y-104053389D01*
X142409500Y-104226610D01*
X142435934Y-104393512D01*
X142436598Y-104397701D01*
X142490127Y-104562445D01*
X142568768Y-104716788D01*
X142670586Y-104856928D01*
X142793072Y-104979414D01*
X142933212Y-105081232D01*
X143087555Y-105159873D01*
X143252299Y-105213402D01*
X143423389Y-105240500D01*
X143423390Y-105240500D01*
X143596610Y-105240500D01*
X143596611Y-105240500D01*
X143767701Y-105213402D01*
X143932445Y-105159873D01*
X144086788Y-105081232D01*
X144226928Y-104979414D01*
X144349414Y-104856928D01*
X144451232Y-104716788D01*
X144529873Y-104562445D01*
X144583402Y-104397701D01*
X144610500Y-104226611D01*
X144610500Y-104053389D01*
X144949500Y-104053389D01*
X144949500Y-104226610D01*
X144975934Y-104393512D01*
X144976598Y-104397701D01*
X145030127Y-104562445D01*
X145108768Y-104716788D01*
X145210586Y-104856928D01*
X145333072Y-104979414D01*
X145473212Y-105081232D01*
X145627555Y-105159873D01*
X145792299Y-105213402D01*
X145963389Y-105240500D01*
X145963390Y-105240500D01*
X146136610Y-105240500D01*
X146136611Y-105240500D01*
X146307701Y-105213402D01*
X146472445Y-105159873D01*
X146626788Y-105081232D01*
X146766928Y-104979414D01*
X146889414Y-104856928D01*
X146991232Y-104716788D01*
X147069873Y-104562445D01*
X147123402Y-104397701D01*
X147150500Y-104226611D01*
X147150500Y-104053389D01*
X147489500Y-104053389D01*
X147489500Y-104226610D01*
X147515934Y-104393512D01*
X147516598Y-104397701D01*
X147570127Y-104562445D01*
X147648768Y-104716788D01*
X147750586Y-104856928D01*
X147873072Y-104979414D01*
X148013212Y-105081232D01*
X148167555Y-105159873D01*
X148332299Y-105213402D01*
X148503389Y-105240500D01*
X148503390Y-105240500D01*
X148676610Y-105240500D01*
X148676611Y-105240500D01*
X148847701Y-105213402D01*
X149012445Y-105159873D01*
X149166788Y-105081232D01*
X149306928Y-104979414D01*
X149429414Y-104856928D01*
X149531232Y-104716788D01*
X149609873Y-104562445D01*
X149663402Y-104397701D01*
X149690500Y-104226611D01*
X149690500Y-104053389D01*
X150029500Y-104053389D01*
X150029500Y-104226610D01*
X150055934Y-104393512D01*
X150056598Y-104397701D01*
X150110127Y-104562445D01*
X150188768Y-104716788D01*
X150290586Y-104856928D01*
X150413072Y-104979414D01*
X150553212Y-105081232D01*
X150707555Y-105159873D01*
X150872299Y-105213402D01*
X151043389Y-105240500D01*
X151043390Y-105240500D01*
X151216610Y-105240500D01*
X151216611Y-105240500D01*
X151387701Y-105213402D01*
X151552445Y-105159873D01*
X151706788Y-105081232D01*
X151846928Y-104979414D01*
X151969414Y-104856928D01*
X152071232Y-104716788D01*
X152149873Y-104562445D01*
X152203402Y-104397701D01*
X152230500Y-104226611D01*
X152230500Y-104053389D01*
X152569500Y-104053389D01*
X152569500Y-104226610D01*
X152595934Y-104393512D01*
X152596598Y-104397701D01*
X152650127Y-104562445D01*
X152728768Y-104716788D01*
X152830586Y-104856928D01*
X152953072Y-104979414D01*
X153093212Y-105081232D01*
X153247555Y-105159873D01*
X153412299Y-105213402D01*
X153583389Y-105240500D01*
X153583390Y-105240500D01*
X153756610Y-105240500D01*
X153756611Y-105240500D01*
X153927701Y-105213402D01*
X154092445Y-105159873D01*
X154246788Y-105081232D01*
X154386928Y-104979414D01*
X154509414Y-104856928D01*
X154611232Y-104716788D01*
X154689873Y-104562445D01*
X154743402Y-104397701D01*
X154770500Y-104226611D01*
X154770500Y-104053389D01*
X154743402Y-103882299D01*
X154689873Y-103717555D01*
X154611232Y-103563212D01*
X154509414Y-103423072D01*
X154386928Y-103300586D01*
X154246788Y-103198768D01*
X154092445Y-103120127D01*
X153927701Y-103066598D01*
X153927699Y-103066597D01*
X153927698Y-103066597D01*
X153796271Y-103045781D01*
X153756611Y-103039500D01*
X153583389Y-103039500D01*
X153543728Y-103045781D01*
X153412302Y-103066597D01*
X153412299Y-103066598D01*
X153252923Y-103118383D01*
X153247552Y-103120128D01*
X153093211Y-103198768D01*
X153034599Y-103241353D01*
X152953072Y-103300586D01*
X152953070Y-103300588D01*
X152953069Y-103300588D01*
X152830588Y-103423069D01*
X152830588Y-103423070D01*
X152830586Y-103423072D01*
X152804737Y-103458650D01*
X152728768Y-103563211D01*
X152650128Y-103717552D01*
X152596597Y-103882302D01*
X152569500Y-104053389D01*
X152230500Y-104053389D01*
X152203402Y-103882299D01*
X152149873Y-103717555D01*
X152071232Y-103563212D01*
X151969414Y-103423072D01*
X151846928Y-103300586D01*
X151706788Y-103198768D01*
X151552445Y-103120127D01*
X151387701Y-103066598D01*
X151387699Y-103066597D01*
X151387698Y-103066597D01*
X151256271Y-103045781D01*
X151216611Y-103039500D01*
X151043389Y-103039500D01*
X151003728Y-103045781D01*
X150872302Y-103066597D01*
X150872299Y-103066598D01*
X150712923Y-103118383D01*
X150707552Y-103120128D01*
X150553211Y-103198768D01*
X150494599Y-103241353D01*
X150413072Y-103300586D01*
X150413070Y-103300588D01*
X150413069Y-103300588D01*
X150290588Y-103423069D01*
X150290588Y-103423070D01*
X150290586Y-103423072D01*
X150264737Y-103458650D01*
X150188768Y-103563211D01*
X150110128Y-103717552D01*
X150056597Y-103882302D01*
X150029500Y-104053389D01*
X149690500Y-104053389D01*
X149663402Y-103882299D01*
X149609873Y-103717555D01*
X149531232Y-103563212D01*
X149429414Y-103423072D01*
X149306928Y-103300586D01*
X149166788Y-103198768D01*
X149012445Y-103120127D01*
X148847701Y-103066598D01*
X148847699Y-103066597D01*
X148847698Y-103066597D01*
X148716271Y-103045781D01*
X148676611Y-103039500D01*
X148503389Y-103039500D01*
X148463728Y-103045781D01*
X148332302Y-103066597D01*
X148332299Y-103066598D01*
X148172923Y-103118383D01*
X148167552Y-103120128D01*
X148013211Y-103198768D01*
X147954599Y-103241353D01*
X147873072Y-103300586D01*
X147873070Y-103300588D01*
X147873069Y-103300588D01*
X147750588Y-103423069D01*
X147750588Y-103423070D01*
X147750586Y-103423072D01*
X147724737Y-103458650D01*
X147648768Y-103563211D01*
X147570128Y-103717552D01*
X147516597Y-103882302D01*
X147489500Y-104053389D01*
X147150500Y-104053389D01*
X147123402Y-103882299D01*
X147069873Y-103717555D01*
X146991232Y-103563212D01*
X146889414Y-103423072D01*
X146766928Y-103300586D01*
X146626788Y-103198768D01*
X146472445Y-103120127D01*
X146307701Y-103066598D01*
X146307699Y-103066597D01*
X146307698Y-103066597D01*
X146176271Y-103045781D01*
X146136611Y-103039500D01*
X145963389Y-103039500D01*
X145923728Y-103045781D01*
X145792302Y-103066597D01*
X145792299Y-103066598D01*
X145632923Y-103118383D01*
X145627552Y-103120128D01*
X145473211Y-103198768D01*
X145414599Y-103241353D01*
X145333072Y-103300586D01*
X145333070Y-103300588D01*
X145333069Y-103300588D01*
X145210588Y-103423069D01*
X145210588Y-103423070D01*
X145210586Y-103423072D01*
X145184737Y-103458650D01*
X145108768Y-103563211D01*
X145030128Y-103717552D01*
X144976597Y-103882302D01*
X144949500Y-104053389D01*
X144610500Y-104053389D01*
X144583402Y-103882299D01*
X144529873Y-103717555D01*
X144451232Y-103563212D01*
X144349414Y-103423072D01*
X144226928Y-103300586D01*
X144086788Y-103198768D01*
X144086787Y-103198767D01*
X144086785Y-103198766D01*
X144028204Y-103168917D01*
X143977409Y-103120943D01*
X143960500Y-103058433D01*
X143960500Y-99805965D01*
X143980185Y-99738926D01*
X143996819Y-99718284D01*
X144526404Y-99188698D01*
X144587725Y-99155215D01*
X144597901Y-99153441D01*
X144605045Y-99152500D01*
X144605057Y-99152500D01*
X144757784Y-99111577D01*
X144894716Y-99032520D01*
X145006520Y-98920716D01*
X145085577Y-98783784D01*
X145126500Y-98631057D01*
X145126500Y-98472943D01*
X145085577Y-98320216D01*
X145006520Y-98183284D01*
X145006512Y-98183276D01*
X145002494Y-98178039D01*
X144977297Y-98112871D01*
X144991333Y-98044425D01*
X144993453Y-98040595D01*
X145056787Y-97930898D01*
X145097710Y-97778171D01*
X145097710Y-97620057D01*
X145056787Y-97467330D01*
X145056783Y-97467323D01*
X144977734Y-97330404D01*
X144977728Y-97330396D01*
X144865927Y-97218595D01*
X144865919Y-97218589D01*
X144729000Y-97139540D01*
X144728996Y-97139538D01*
X144728994Y-97139537D01*
X144576267Y-97098614D01*
X144439594Y-97098614D01*
X144372555Y-97078929D01*
X144326800Y-97026125D01*
X144316856Y-96956967D01*
X144345881Y-96893411D01*
X144351913Y-96886933D01*
X144512824Y-96726022D01*
X144592283Y-96646563D01*
X147433120Y-96646563D01*
X147433120Y-96804677D01*
X147455161Y-96886933D01*
X147474043Y-96957403D01*
X147474046Y-96957410D01*
X147553095Y-97094329D01*
X147553099Y-97094334D01*
X147553100Y-97094336D01*
X147664904Y-97206140D01*
X147664906Y-97206141D01*
X147664910Y-97206144D01*
X147801829Y-97285193D01*
X147801836Y-97285197D01*
X147954563Y-97326120D01*
X147954565Y-97326120D01*
X148112675Y-97326120D01*
X148112677Y-97326120D01*
X148265404Y-97285197D01*
X148402336Y-97206140D01*
X148514140Y-97094336D01*
X148593197Y-96957404D01*
X148634120Y-96804677D01*
X148634120Y-96804664D01*
X148635061Y-96797521D01*
X148663327Y-96733623D01*
X148670308Y-96726034D01*
X148950489Y-96445854D01*
X149009799Y-96343127D01*
X149024378Y-96288716D01*
X149040500Y-96228549D01*
X149040500Y-89981565D01*
X149060185Y-89914526D01*
X149108204Y-89871081D01*
X149166788Y-89841232D01*
X149306928Y-89739414D01*
X149429414Y-89616928D01*
X149531232Y-89476788D01*
X149609873Y-89322445D01*
X149663402Y-89157701D01*
X149690500Y-88986611D01*
X149690500Y-88813389D01*
X150029500Y-88813389D01*
X150029500Y-88986611D01*
X150056598Y-89157701D01*
X150110127Y-89322445D01*
X150188768Y-89476788D01*
X150290586Y-89616928D01*
X150413072Y-89739414D01*
X150553212Y-89841232D01*
X150707555Y-89919873D01*
X150872299Y-89973402D01*
X151043389Y-90000500D01*
X151043390Y-90000500D01*
X151216610Y-90000500D01*
X151216611Y-90000500D01*
X151387701Y-89973402D01*
X151552445Y-89919873D01*
X151706788Y-89841232D01*
X151846928Y-89739414D01*
X151969414Y-89616928D01*
X152071232Y-89476788D01*
X152149873Y-89322445D01*
X152203402Y-89157701D01*
X152230500Y-88986611D01*
X152230500Y-88813389D01*
X152569500Y-88813389D01*
X152569500Y-88986611D01*
X152596598Y-89157701D01*
X152650127Y-89322445D01*
X152728768Y-89476788D01*
X152830586Y-89616928D01*
X152953072Y-89739414D01*
X153093212Y-89841232D01*
X153247555Y-89919873D01*
X153412299Y-89973402D01*
X153583389Y-90000500D01*
X153583390Y-90000500D01*
X153756610Y-90000500D01*
X153756611Y-90000500D01*
X153927701Y-89973402D01*
X154092445Y-89919873D01*
X154246788Y-89841232D01*
X154386928Y-89739414D01*
X154509414Y-89616928D01*
X154611232Y-89476788D01*
X154689873Y-89322445D01*
X154743402Y-89157701D01*
X154770500Y-88986611D01*
X154770500Y-88813389D01*
X154743402Y-88642299D01*
X154689873Y-88477555D01*
X154611232Y-88323212D01*
X154509414Y-88183072D01*
X154386928Y-88060586D01*
X154246788Y-87958768D01*
X154092445Y-87880127D01*
X153927701Y-87826598D01*
X153927699Y-87826597D01*
X153927698Y-87826597D01*
X153796271Y-87805781D01*
X153756611Y-87799500D01*
X153583389Y-87799500D01*
X153543728Y-87805781D01*
X153412302Y-87826597D01*
X153247552Y-87880128D01*
X153093211Y-87958768D01*
X153013256Y-88016859D01*
X152953072Y-88060586D01*
X152953070Y-88060588D01*
X152953069Y-88060588D01*
X152830588Y-88183069D01*
X152830588Y-88183070D01*
X152830586Y-88183072D01*
X152829928Y-88183978D01*
X152728768Y-88323211D01*
X152650128Y-88477552D01*
X152596597Y-88642302D01*
X152569500Y-88813389D01*
X152230500Y-88813389D01*
X152203402Y-88642299D01*
X152149873Y-88477555D01*
X152071232Y-88323212D01*
X151969414Y-88183072D01*
X151846928Y-88060586D01*
X151706788Y-87958768D01*
X151552445Y-87880127D01*
X151387701Y-87826598D01*
X151387699Y-87826597D01*
X151387698Y-87826597D01*
X151256271Y-87805781D01*
X151216611Y-87799500D01*
X151043389Y-87799500D01*
X151003728Y-87805781D01*
X150872302Y-87826597D01*
X150707552Y-87880128D01*
X150553211Y-87958768D01*
X150473256Y-88016859D01*
X150413072Y-88060586D01*
X150413070Y-88060588D01*
X150413069Y-88060588D01*
X150290588Y-88183069D01*
X150290588Y-88183070D01*
X150290586Y-88183072D01*
X150289928Y-88183978D01*
X150188768Y-88323211D01*
X150110128Y-88477552D01*
X150056597Y-88642302D01*
X150029500Y-88813389D01*
X149690500Y-88813389D01*
X149663402Y-88642299D01*
X149609873Y-88477555D01*
X149531232Y-88323212D01*
X149429414Y-88183072D01*
X149306928Y-88060586D01*
X149166788Y-87958768D01*
X149012445Y-87880127D01*
X148847701Y-87826598D01*
X148847699Y-87826597D01*
X148847698Y-87826597D01*
X148716271Y-87805781D01*
X148676611Y-87799500D01*
X148503389Y-87799500D01*
X148463728Y-87805781D01*
X148332302Y-87826597D01*
X148167552Y-87880128D01*
X148013211Y-87958768D01*
X147933256Y-88016859D01*
X147873072Y-88060586D01*
X147873070Y-88060588D01*
X147873069Y-88060588D01*
X147750588Y-88183069D01*
X147750588Y-88183070D01*
X147750586Y-88183072D01*
X147749928Y-88183978D01*
X147648768Y-88323211D01*
X147570128Y-88477552D01*
X147516597Y-88642302D01*
X147489500Y-88813389D01*
X147489500Y-88986611D01*
X147516598Y-89157701D01*
X147570127Y-89322445D01*
X147648768Y-89476788D01*
X147750586Y-89616928D01*
X147873072Y-89739414D01*
X147952186Y-89796894D01*
X148013207Y-89841229D01*
X148013211Y-89841231D01*
X148013212Y-89841232D01*
X148071795Y-89871081D01*
X148122590Y-89919053D01*
X148139500Y-89981565D01*
X148139500Y-95931275D01*
X148130855Y-95960712D01*
X148124332Y-95990703D01*
X148120576Y-95995719D01*
X148119815Y-95998314D01*
X148103185Y-96018951D01*
X148033217Y-96088920D01*
X147971893Y-96122404D01*
X147961727Y-96124176D01*
X147954569Y-96125118D01*
X147801836Y-96166043D01*
X147801829Y-96166046D01*
X147664910Y-96245095D01*
X147664902Y-96245101D01*
X147553101Y-96356902D01*
X147553095Y-96356910D01*
X147474046Y-96493829D01*
X147474043Y-96493836D01*
X147433120Y-96646563D01*
X144592283Y-96646563D01*
X144682147Y-96556698D01*
X144698754Y-96547630D01*
X144712380Y-96534490D01*
X144737184Y-96526645D01*
X144743468Y-96523215D01*
X144745667Y-96522757D01*
X144757029Y-96520500D01*
X144760800Y-96520500D01*
X144913527Y-96479577D01*
X145050459Y-96400520D01*
X145162263Y-96288716D01*
X145241320Y-96151784D01*
X145282243Y-95999057D01*
X145282243Y-95840943D01*
X145241320Y-95688216D01*
X145241316Y-95688209D01*
X145162267Y-95551290D01*
X145162261Y-95551282D01*
X145050460Y-95439481D01*
X145050452Y-95439475D01*
X144913533Y-95360426D01*
X144913529Y-95360424D01*
X144913527Y-95360423D01*
X144760800Y-95319500D01*
X144602686Y-95319500D01*
X144449959Y-95360423D01*
X144449952Y-95360426D01*
X144313033Y-95439475D01*
X144313025Y-95439481D01*
X144201224Y-95551282D01*
X144201218Y-95551290D01*
X144122169Y-95688209D01*
X144122166Y-95688216D01*
X144081241Y-95840949D01*
X144080299Y-95848107D01*
X144052030Y-95912003D01*
X144045042Y-95919597D01*
X142140513Y-97824126D01*
X142140509Y-97824132D01*
X142081201Y-97926855D01*
X142081200Y-97926860D01*
X142050500Y-98041434D01*
X142050500Y-99831034D01*
X142030815Y-99898073D01*
X142014181Y-99918715D01*
X138876230Y-103056665D01*
X138814907Y-103090150D01*
X138750232Y-103086915D01*
X138687702Y-103066598D01*
X138687698Y-103066597D01*
X138556271Y-103045781D01*
X138516611Y-103039500D01*
X138343389Y-103039500D01*
X138303728Y-103045781D01*
X138172302Y-103066597D01*
X138172299Y-103066598D01*
X138012923Y-103118383D01*
X138007552Y-103120128D01*
X137853211Y-103198768D01*
X137794599Y-103241353D01*
X137713072Y-103300586D01*
X137713070Y-103300588D01*
X137713069Y-103300588D01*
X137590588Y-103423069D01*
X137590588Y-103423070D01*
X137590586Y-103423072D01*
X137564737Y-103458650D01*
X137488768Y-103563211D01*
X137410129Y-103717549D01*
X137382814Y-103801615D01*
X137343375Y-103859290D01*
X137279016Y-103886487D01*
X137210170Y-103874572D01*
X137158695Y-103827327D01*
X137146952Y-103801613D01*
X137094755Y-103640970D01*
X137001859Y-103458650D01*
X136969474Y-103414077D01*
X136969474Y-103414076D01*
X136338016Y-104045535D01*
X136316042Y-103963527D01*
X136255851Y-103859273D01*
X136170727Y-103774149D01*
X136066473Y-103713958D01*
X135984462Y-103691983D01*
X136615922Y-103060524D01*
X136615921Y-103060523D01*
X136571359Y-103028147D01*
X136571350Y-103028141D01*
X136389031Y-102935244D01*
X136194417Y-102872009D01*
X135992317Y-102840000D01*
X135787683Y-102840000D01*
X135585582Y-102872009D01*
X135390968Y-102935244D01*
X135208644Y-103028143D01*
X135164077Y-103060523D01*
X135164077Y-103060524D01*
X135795536Y-103691983D01*
X135713527Y-103713958D01*
X135609273Y-103774149D01*
X135524149Y-103859273D01*
X135463958Y-103963527D01*
X135441983Y-104045536D01*
X134810524Y-103414077D01*
X134810523Y-103414077D01*
X134778143Y-103458644D01*
X134730485Y-103552180D01*
X134682510Y-103602976D01*
X134614689Y-103619771D01*
X134548554Y-103597233D01*
X134509515Y-103552180D01*
X134461859Y-103458650D01*
X134429474Y-103414077D01*
X134429474Y-103414076D01*
X133798016Y-104045535D01*
X133776042Y-103963527D01*
X133715851Y-103859273D01*
X133630727Y-103774149D01*
X133526473Y-103713958D01*
X133444462Y-103691983D01*
X134075922Y-103060524D01*
X134075921Y-103060523D01*
X134031359Y-103028147D01*
X134031350Y-103028141D01*
X133849031Y-102935244D01*
X133654417Y-102872009D01*
X133452317Y-102840000D01*
X133247683Y-102840000D01*
X133045582Y-102872009D01*
X132850968Y-102935244D01*
X132668644Y-103028143D01*
X132624077Y-103060523D01*
X132624077Y-103060524D01*
X133255536Y-103691983D01*
X133173527Y-103713958D01*
X133069273Y-103774149D01*
X132984149Y-103859273D01*
X132923958Y-103963527D01*
X132901983Y-104045536D01*
X132270524Y-103414077D01*
X132270523Y-103414077D01*
X132238143Y-103458644D01*
X132145244Y-103640968D01*
X132093047Y-103801614D01*
X132053609Y-103859289D01*
X131989250Y-103886487D01*
X131920404Y-103874572D01*
X131868928Y-103827328D01*
X131857186Y-103801615D01*
X131829873Y-103717555D01*
X131751232Y-103563212D01*
X131649414Y-103423072D01*
X131526928Y-103300586D01*
X131445401Y-103241353D01*
X131405524Y-103212380D01*
X131405520Y-103212378D01*
X131386788Y-103198768D01*
X131326019Y-103167804D01*
X131323858Y-103166593D01*
X131301087Y-103143306D01*
X131277409Y-103120943D01*
X131276716Y-103118383D01*
X131275009Y-103116637D01*
X131271077Y-103097535D01*
X131260500Y-103058433D01*
X131260500Y-102091965D01*
X131280185Y-102024926D01*
X131296819Y-102004284D01*
X135189941Y-98111162D01*
X139144164Y-94156938D01*
X139205485Y-94123455D01*
X139215661Y-94121681D01*
X139222805Y-94120740D01*
X139222817Y-94120740D01*
X139375544Y-94079817D01*
X139512476Y-94000760D01*
X139624280Y-93888956D01*
X139703337Y-93752024D01*
X139744260Y-93599297D01*
X139744260Y-93441183D01*
X139703337Y-93288456D01*
X139687760Y-93261475D01*
X139624284Y-93151530D01*
X139624278Y-93151522D01*
X139512477Y-93039721D01*
X139512469Y-93039715D01*
X139375550Y-92960666D01*
X139375546Y-92960664D01*
X139375544Y-92960663D01*
X139222817Y-92919740D01*
X139064703Y-92919740D01*
X138911976Y-92960663D01*
X138911969Y-92960666D01*
X138775050Y-93039715D01*
X138775042Y-93039721D01*
X138663241Y-93151522D01*
X138663235Y-93151530D01*
X138584183Y-93288453D01*
X138581830Y-93294135D01*
X138537985Y-93348535D01*
X138471689Y-93370595D01*
X138403991Y-93353311D01*
X138379591Y-93334355D01*
X138306717Y-93261481D01*
X138306709Y-93261475D01*
X138169790Y-93182426D01*
X138169786Y-93182424D01*
X138169784Y-93182423D01*
X138017057Y-93141500D01*
X137858943Y-93141500D01*
X137706216Y-93182423D01*
X137706209Y-93182426D01*
X137569290Y-93261475D01*
X137569282Y-93261481D01*
X137457481Y-93373282D01*
X137457475Y-93373290D01*
X137378426Y-93510209D01*
X137378423Y-93510216D01*
X137337498Y-93662948D01*
X137336556Y-93670107D01*
X137308286Y-93734002D01*
X137301299Y-93741596D01*
X127980021Y-103062874D01*
X127930660Y-103093123D01*
X127847554Y-103120126D01*
X127693211Y-103198768D01*
X127634599Y-103241353D01*
X127553072Y-103300586D01*
X127553070Y-103300588D01*
X127553069Y-103300588D01*
X127430588Y-103423069D01*
X127430588Y-103423070D01*
X127430586Y-103423072D01*
X127404737Y-103458650D01*
X127328768Y-103563211D01*
X127250129Y-103717549D01*
X127222814Y-103801615D01*
X127183375Y-103859290D01*
X127119016Y-103886487D01*
X127050170Y-103874572D01*
X126998695Y-103827327D01*
X126986952Y-103801613D01*
X126934755Y-103640970D01*
X126841859Y-103458650D01*
X126809474Y-103414077D01*
X126809474Y-103414076D01*
X126111000Y-104112551D01*
X126111000Y-104089840D01*
X126085036Y-103992939D01*
X126034876Y-103906060D01*
X125963940Y-103835124D01*
X125877061Y-103784964D01*
X125780160Y-103759000D01*
X125757446Y-103759000D01*
X126455922Y-103060524D01*
X126455921Y-103060523D01*
X126411359Y-103028147D01*
X126411350Y-103028141D01*
X126229031Y-102935244D01*
X126034417Y-102872009D01*
X125832317Y-102840000D01*
X125627683Y-102840000D01*
X125425582Y-102872009D01*
X125230968Y-102935244D01*
X125048650Y-103028140D01*
X124903386Y-103133682D01*
X124837579Y-103157162D01*
X124769525Y-103141337D01*
X124720831Y-103091231D01*
X124706500Y-103033364D01*
X124706500Y-89732204D01*
X124726185Y-89665165D01*
X124778989Y-89619410D01*
X124848147Y-89609466D01*
X124911703Y-89638491D01*
X124918181Y-89644523D01*
X125013072Y-89739414D01*
X125153212Y-89841232D01*
X125307555Y-89919873D01*
X125472299Y-89973402D01*
X125643389Y-90000500D01*
X125643390Y-90000500D01*
X125816610Y-90000500D01*
X125816611Y-90000500D01*
X125987701Y-89973402D01*
X126152445Y-89919873D01*
X126306788Y-89841232D01*
X126446928Y-89739414D01*
X126569414Y-89616928D01*
X126671232Y-89476788D01*
X126749873Y-89322445D01*
X126803402Y-89157701D01*
X126830500Y-88986611D01*
X126830500Y-88813389D01*
X127169500Y-88813389D01*
X127169500Y-88986611D01*
X127196598Y-89157701D01*
X127250127Y-89322445D01*
X127328768Y-89476788D01*
X127430586Y-89616928D01*
X127553072Y-89739414D01*
X127693212Y-89841232D01*
X127847555Y-89919873D01*
X128012299Y-89973402D01*
X128183389Y-90000500D01*
X128183390Y-90000500D01*
X128356610Y-90000500D01*
X128356611Y-90000500D01*
X128527701Y-89973402D01*
X128692445Y-89919873D01*
X128846788Y-89841232D01*
X128986928Y-89739414D01*
X129109414Y-89616928D01*
X129211232Y-89476788D01*
X129289873Y-89322445D01*
X129343402Y-89157701D01*
X129370500Y-88986611D01*
X129370500Y-88813389D01*
X129709500Y-88813389D01*
X129709500Y-88986611D01*
X129736598Y-89157701D01*
X129790127Y-89322445D01*
X129868768Y-89476788D01*
X129970586Y-89616928D01*
X130093072Y-89739414D01*
X130233212Y-89841232D01*
X130387555Y-89919873D01*
X130552299Y-89973402D01*
X130723389Y-90000500D01*
X130723390Y-90000500D01*
X130896610Y-90000500D01*
X130896611Y-90000500D01*
X131067701Y-89973402D01*
X131232445Y-89919873D01*
X131386788Y-89841232D01*
X131526928Y-89739414D01*
X131649414Y-89616928D01*
X131751232Y-89476788D01*
X131829873Y-89322445D01*
X131883402Y-89157701D01*
X131910500Y-88986611D01*
X131910500Y-88813389D01*
X131883402Y-88642299D01*
X131829873Y-88477555D01*
X131751232Y-88323212D01*
X131649414Y-88183072D01*
X131526928Y-88060586D01*
X131386788Y-87958768D01*
X131232445Y-87880127D01*
X131067701Y-87826598D01*
X131067699Y-87826597D01*
X131067698Y-87826597D01*
X130936271Y-87805781D01*
X130896611Y-87799500D01*
X130723389Y-87799500D01*
X130683728Y-87805781D01*
X130552302Y-87826597D01*
X130387552Y-87880128D01*
X130233211Y-87958768D01*
X130153256Y-88016859D01*
X130093072Y-88060586D01*
X130093070Y-88060588D01*
X130093069Y-88060588D01*
X129970588Y-88183069D01*
X129970588Y-88183070D01*
X129970586Y-88183072D01*
X129969928Y-88183978D01*
X129868768Y-88323211D01*
X129790128Y-88477552D01*
X129736597Y-88642302D01*
X129709500Y-88813389D01*
X129370500Y-88813389D01*
X129343402Y-88642299D01*
X129289873Y-88477555D01*
X129211232Y-88323212D01*
X129109414Y-88183072D01*
X128986928Y-88060586D01*
X128846788Y-87958768D01*
X128692445Y-87880127D01*
X128527701Y-87826598D01*
X128527699Y-87826597D01*
X128527698Y-87826597D01*
X128396271Y-87805781D01*
X128356611Y-87799500D01*
X128183389Y-87799500D01*
X128143728Y-87805781D01*
X128012302Y-87826597D01*
X127847552Y-87880128D01*
X127693211Y-87958768D01*
X127613256Y-88016859D01*
X127553072Y-88060586D01*
X127553070Y-88060588D01*
X127553069Y-88060588D01*
X127430588Y-88183069D01*
X127430588Y-88183070D01*
X127430586Y-88183072D01*
X127429928Y-88183978D01*
X127328768Y-88323211D01*
X127250128Y-88477552D01*
X127196597Y-88642302D01*
X127169500Y-88813389D01*
X126830500Y-88813389D01*
X126803402Y-88642299D01*
X126749873Y-88477555D01*
X126671232Y-88323212D01*
X126569414Y-88183072D01*
X126446928Y-88060586D01*
X126306788Y-87958768D01*
X126152445Y-87880127D01*
X125987701Y-87826598D01*
X125987699Y-87826597D01*
X125987698Y-87826597D01*
X125856271Y-87805781D01*
X125816611Y-87799500D01*
X125643389Y-87799500D01*
X125603728Y-87805781D01*
X125472302Y-87826597D01*
X125307552Y-87880128D01*
X125153211Y-87958768D01*
X125073256Y-88016859D01*
X125013072Y-88060586D01*
X125013070Y-88060588D01*
X125013069Y-88060588D01*
X124918181Y-88155477D01*
X124856858Y-88188962D01*
X124787166Y-88183978D01*
X124731233Y-88142106D01*
X124706816Y-88076642D01*
X124706500Y-88067796D01*
X124706500Y-85044060D01*
X124726185Y-84977021D01*
X124778989Y-84931266D01*
X124848147Y-84921322D01*
X124911703Y-84950347D01*
X124947541Y-85003105D01*
X125033192Y-85247881D01*
X125033198Y-85247895D01*
X125150152Y-85490752D01*
X125293568Y-85718998D01*
X125389346Y-85839099D01*
X126317708Y-84910736D01*
X126414967Y-85044602D01*
X126537398Y-85167033D01*
X126671262Y-85264290D01*
X125742899Y-86192652D01*
X125742900Y-86192653D01*
X125862993Y-86288427D01*
X125862997Y-86288429D01*
X126091247Y-86431847D01*
X126334104Y-86548801D01*
X126334118Y-86548807D01*
X126588536Y-86637832D01*
X126588548Y-86637836D01*
X126851348Y-86697818D01*
X126851366Y-86697821D01*
X127119212Y-86727999D01*
X127119216Y-86728000D01*
X127388784Y-86728000D01*
X127388787Y-86727999D01*
X127656633Y-86697821D01*
X127656651Y-86697818D01*
X127919451Y-86637836D01*
X127919463Y-86637832D01*
X128173881Y-86548807D01*
X128173895Y-86548801D01*
X128416752Y-86431847D01*
X128644999Y-86288431D01*
X128765098Y-86192653D01*
X128765099Y-86192652D01*
X127836737Y-85264290D01*
X127970602Y-85167033D01*
X128093033Y-85044602D01*
X128190290Y-84910737D01*
X129118652Y-85839099D01*
X129118653Y-85839098D01*
X129214431Y-85718999D01*
X129357847Y-85490752D01*
X129474801Y-85247895D01*
X129474807Y-85247881D01*
X129549952Y-85033131D01*
X130049500Y-85033131D01*
X130049500Y-85872856D01*
X130049502Y-85872882D01*
X130052413Y-85897987D01*
X130052415Y-85897991D01*
X130097793Y-86000764D01*
X130097794Y-86000765D01*
X130177235Y-86080206D01*
X130280009Y-86125585D01*
X130305135Y-86128500D01*
X131844864Y-86128499D01*
X131844879Y-86128497D01*
X131844882Y-86128497D01*
X131869987Y-86125586D01*
X131869988Y-86125585D01*
X131869991Y-86125585D01*
X131972765Y-86080206D01*
X132052206Y-86000765D01*
X132062517Y-85977414D01*
X132107603Y-85924037D01*
X132174389Y-85903510D01*
X132175951Y-85903500D01*
X132775500Y-85903500D01*
X132842539Y-85923185D01*
X132888294Y-85975989D01*
X132899500Y-86027500D01*
X132899500Y-87818433D01*
X132879815Y-87885472D01*
X132831796Y-87928917D01*
X132773214Y-87958766D01*
X132703142Y-88009677D01*
X132633072Y-88060586D01*
X132633070Y-88060588D01*
X132633069Y-88060588D01*
X132510588Y-88183069D01*
X132510588Y-88183070D01*
X132510586Y-88183072D01*
X132509928Y-88183978D01*
X132408768Y-88323211D01*
X132330128Y-88477552D01*
X132276597Y-88642302D01*
X132249500Y-88813389D01*
X132249500Y-88986611D01*
X132276598Y-89157701D01*
X132330127Y-89322445D01*
X132408768Y-89476788D01*
X132510586Y-89616928D01*
X132633072Y-89739414D01*
X132773212Y-89841232D01*
X132927555Y-89919873D01*
X133092299Y-89973402D01*
X133263389Y-90000500D01*
X133263390Y-90000500D01*
X133436610Y-90000500D01*
X133436611Y-90000500D01*
X133607701Y-89973402D01*
X133772445Y-89919873D01*
X133926788Y-89841232D01*
X134066928Y-89739414D01*
X134189414Y-89616928D01*
X134291232Y-89476788D01*
X134369873Y-89322445D01*
X134423402Y-89157701D01*
X134450500Y-88986611D01*
X134450500Y-88813389D01*
X134789500Y-88813389D01*
X134789500Y-88986611D01*
X134816598Y-89157701D01*
X134870127Y-89322445D01*
X134948768Y-89476788D01*
X135050586Y-89616928D01*
X135173072Y-89739414D01*
X135313212Y-89841232D01*
X135467555Y-89919873D01*
X135632299Y-89973402D01*
X135803389Y-90000500D01*
X135803390Y-90000500D01*
X135976610Y-90000500D01*
X135976611Y-90000500D01*
X136147701Y-89973402D01*
X136312445Y-89919873D01*
X136466788Y-89841232D01*
X136606928Y-89739414D01*
X136729414Y-89616928D01*
X136831232Y-89476788D01*
X136909873Y-89322445D01*
X136963402Y-89157701D01*
X136990500Y-88986611D01*
X136990500Y-88813389D01*
X137329500Y-88813389D01*
X137329500Y-88986611D01*
X137356598Y-89157701D01*
X137410127Y-89322445D01*
X137488768Y-89476788D01*
X137590586Y-89616928D01*
X137713072Y-89739414D01*
X137853212Y-89841232D01*
X138007555Y-89919873D01*
X138172299Y-89973402D01*
X138343389Y-90000500D01*
X138343390Y-90000500D01*
X138516610Y-90000500D01*
X138516611Y-90000500D01*
X138687701Y-89973402D01*
X138852445Y-89919873D01*
X139006788Y-89841232D01*
X139146928Y-89739414D01*
X139269414Y-89616928D01*
X139371232Y-89476788D01*
X139449873Y-89322445D01*
X139503402Y-89157701D01*
X139530500Y-88986611D01*
X139530500Y-88813389D01*
X139869500Y-88813389D01*
X139869500Y-88986611D01*
X139896598Y-89157701D01*
X139950127Y-89322445D01*
X140028768Y-89476788D01*
X140130586Y-89616928D01*
X140253072Y-89739414D01*
X140393212Y-89841232D01*
X140547555Y-89919873D01*
X140712299Y-89973402D01*
X140883389Y-90000500D01*
X140883390Y-90000500D01*
X141056610Y-90000500D01*
X141056611Y-90000500D01*
X141227701Y-89973402D01*
X141392445Y-89919873D01*
X141546788Y-89841232D01*
X141686928Y-89739414D01*
X141809414Y-89616928D01*
X141911232Y-89476788D01*
X141989873Y-89322445D01*
X142043402Y-89157701D01*
X142070500Y-88986611D01*
X142070500Y-88813389D01*
X142409500Y-88813389D01*
X142409500Y-88986611D01*
X142436598Y-89157701D01*
X142490127Y-89322445D01*
X142568768Y-89476788D01*
X142670586Y-89616928D01*
X142793072Y-89739414D01*
X142933212Y-89841232D01*
X143087555Y-89919873D01*
X143252299Y-89973402D01*
X143423389Y-90000500D01*
X143423390Y-90000500D01*
X143596610Y-90000500D01*
X143596611Y-90000500D01*
X143767701Y-89973402D01*
X143932445Y-89919873D01*
X144086788Y-89841232D01*
X144226928Y-89739414D01*
X144349414Y-89616928D01*
X144451232Y-89476788D01*
X144529873Y-89322445D01*
X144583402Y-89157701D01*
X144610500Y-88986611D01*
X144610500Y-88813389D01*
X144949500Y-88813389D01*
X144949500Y-88986611D01*
X144976598Y-89157701D01*
X145030127Y-89322445D01*
X145108768Y-89476788D01*
X145210586Y-89616928D01*
X145333072Y-89739414D01*
X145473212Y-89841232D01*
X145627555Y-89919873D01*
X145792299Y-89973402D01*
X145963389Y-90000500D01*
X145963390Y-90000500D01*
X146136610Y-90000500D01*
X146136611Y-90000500D01*
X146307701Y-89973402D01*
X146472445Y-89919873D01*
X146626788Y-89841232D01*
X146766928Y-89739414D01*
X146889414Y-89616928D01*
X146991232Y-89476788D01*
X147069873Y-89322445D01*
X147123402Y-89157701D01*
X147150500Y-88986611D01*
X147150500Y-88813389D01*
X147123402Y-88642299D01*
X147069873Y-88477555D01*
X146991232Y-88323212D01*
X146889414Y-88183072D01*
X146766928Y-88060586D01*
X146626788Y-87958768D01*
X146472445Y-87880127D01*
X146307701Y-87826598D01*
X146307699Y-87826597D01*
X146307698Y-87826597D01*
X146176271Y-87805781D01*
X146136611Y-87799500D01*
X145963389Y-87799500D01*
X145923728Y-87805781D01*
X145792302Y-87826597D01*
X145627552Y-87880128D01*
X145473211Y-87958768D01*
X145393256Y-88016859D01*
X145333072Y-88060586D01*
X145333070Y-88060588D01*
X145333069Y-88060588D01*
X145210588Y-88183069D01*
X145210588Y-88183070D01*
X145210586Y-88183072D01*
X145209928Y-88183978D01*
X145108768Y-88323211D01*
X145030128Y-88477552D01*
X144976597Y-88642302D01*
X144949500Y-88813389D01*
X144610500Y-88813389D01*
X144583402Y-88642299D01*
X144529873Y-88477555D01*
X144451232Y-88323212D01*
X144349414Y-88183072D01*
X144226928Y-88060586D01*
X144086788Y-87958768D01*
X143932445Y-87880127D01*
X143767701Y-87826598D01*
X143767699Y-87826597D01*
X143767698Y-87826597D01*
X143636271Y-87805781D01*
X143596611Y-87799500D01*
X143423389Y-87799500D01*
X143383728Y-87805781D01*
X143252302Y-87826597D01*
X143087552Y-87880128D01*
X142933211Y-87958768D01*
X142853256Y-88016859D01*
X142793072Y-88060586D01*
X142793070Y-88060588D01*
X142793069Y-88060588D01*
X142670588Y-88183069D01*
X142670588Y-88183070D01*
X142670586Y-88183072D01*
X142669928Y-88183978D01*
X142568768Y-88323211D01*
X142490128Y-88477552D01*
X142436597Y-88642302D01*
X142409500Y-88813389D01*
X142070500Y-88813389D01*
X142043402Y-88642299D01*
X141989873Y-88477555D01*
X141911232Y-88323212D01*
X141809414Y-88183072D01*
X141686928Y-88060586D01*
X141546788Y-87958768D01*
X141392445Y-87880127D01*
X141227701Y-87826598D01*
X141227699Y-87826597D01*
X141227698Y-87826597D01*
X141096271Y-87805781D01*
X141056611Y-87799500D01*
X140883389Y-87799500D01*
X140843728Y-87805781D01*
X140712302Y-87826597D01*
X140547552Y-87880128D01*
X140393211Y-87958768D01*
X140313256Y-88016859D01*
X140253072Y-88060586D01*
X140253070Y-88060588D01*
X140253069Y-88060588D01*
X140130588Y-88183069D01*
X140130588Y-88183070D01*
X140130586Y-88183072D01*
X140129928Y-88183978D01*
X140028768Y-88323211D01*
X139950128Y-88477552D01*
X139896597Y-88642302D01*
X139869500Y-88813389D01*
X139530500Y-88813389D01*
X139503402Y-88642299D01*
X139449873Y-88477555D01*
X139371232Y-88323212D01*
X139269414Y-88183072D01*
X139146928Y-88060586D01*
X139006788Y-87958768D01*
X138852445Y-87880127D01*
X138687701Y-87826598D01*
X138687699Y-87826597D01*
X138687698Y-87826597D01*
X138556271Y-87805781D01*
X138516611Y-87799500D01*
X138343389Y-87799500D01*
X138303728Y-87805781D01*
X138172302Y-87826597D01*
X138007552Y-87880128D01*
X137853211Y-87958768D01*
X137773256Y-88016859D01*
X137713072Y-88060586D01*
X137713070Y-88060588D01*
X137713069Y-88060588D01*
X137590588Y-88183069D01*
X137590588Y-88183070D01*
X137590586Y-88183072D01*
X137589928Y-88183978D01*
X137488768Y-88323211D01*
X137410128Y-88477552D01*
X137356597Y-88642302D01*
X137329500Y-88813389D01*
X136990500Y-88813389D01*
X136963402Y-88642299D01*
X136909873Y-88477555D01*
X136831232Y-88323212D01*
X136729414Y-88183072D01*
X136606928Y-88060586D01*
X136466788Y-87958768D01*
X136312445Y-87880127D01*
X136147701Y-87826598D01*
X136147699Y-87826597D01*
X136147698Y-87826597D01*
X136016271Y-87805781D01*
X135976611Y-87799500D01*
X135803389Y-87799500D01*
X135763728Y-87805781D01*
X135632302Y-87826597D01*
X135467552Y-87880128D01*
X135313211Y-87958768D01*
X135233256Y-88016859D01*
X135173072Y-88060586D01*
X135173070Y-88060588D01*
X135173069Y-88060588D01*
X135050588Y-88183069D01*
X135050588Y-88183070D01*
X135050586Y-88183072D01*
X135049928Y-88183978D01*
X134948768Y-88323211D01*
X134870128Y-88477552D01*
X134816597Y-88642302D01*
X134789500Y-88813389D01*
X134450500Y-88813389D01*
X134423402Y-88642299D01*
X134369873Y-88477555D01*
X134291232Y-88323212D01*
X134189414Y-88183072D01*
X134066928Y-88060586D01*
X133926788Y-87958768D01*
X133926787Y-87958767D01*
X133926785Y-87958766D01*
X133868204Y-87928917D01*
X133817409Y-87880943D01*
X133800500Y-87818433D01*
X133800500Y-86027500D01*
X133820185Y-85960461D01*
X133872989Y-85914706D01*
X133924500Y-85903500D01*
X134524049Y-85903500D01*
X134591088Y-85923185D01*
X134636843Y-85975989D01*
X134637483Y-85977414D01*
X134647790Y-86000759D01*
X134647793Y-86000763D01*
X134647794Y-86000765D01*
X134727235Y-86080206D01*
X134830009Y-86125585D01*
X134855135Y-86128500D01*
X136394864Y-86128499D01*
X136394879Y-86128497D01*
X136394882Y-86128497D01*
X136419987Y-86125586D01*
X136419988Y-86125585D01*
X136419991Y-86125585D01*
X136522765Y-86080206D01*
X136602206Y-86000765D01*
X136647585Y-85897991D01*
X136650500Y-85872865D01*
X136650499Y-85033136D01*
X136650497Y-85033117D01*
X136647586Y-85008012D01*
X136647585Y-85008010D01*
X136647585Y-85008009D01*
X136602206Y-84905235D01*
X136522765Y-84825794D01*
X136522763Y-84825793D01*
X136419992Y-84780415D01*
X136394865Y-84777500D01*
X134855143Y-84777500D01*
X134855117Y-84777502D01*
X134830012Y-84780413D01*
X134830008Y-84780415D01*
X134727235Y-84825793D01*
X134647796Y-84905232D01*
X134647790Y-84905240D01*
X134637483Y-84928586D01*
X134592397Y-84981963D01*
X134525611Y-85002490D01*
X134524049Y-85002500D01*
X132175951Y-85002500D01*
X132108912Y-84982815D01*
X132063157Y-84930011D01*
X132062517Y-84928586D01*
X132052209Y-84905240D01*
X132052207Y-84905237D01*
X132052206Y-84905235D01*
X131972765Y-84825794D01*
X131972763Y-84825793D01*
X131869992Y-84780415D01*
X131844865Y-84777500D01*
X130305143Y-84777500D01*
X130305117Y-84777502D01*
X130280012Y-84780413D01*
X130280008Y-84780415D01*
X130177235Y-84825793D01*
X130097794Y-84905234D01*
X130052415Y-85008006D01*
X130052415Y-85008008D01*
X130049500Y-85033131D01*
X129549952Y-85033131D01*
X129563832Y-84993464D01*
X129563836Y-84993450D01*
X129623818Y-84730651D01*
X129623821Y-84730633D01*
X129653999Y-84462787D01*
X129654000Y-84462783D01*
X129654000Y-84193216D01*
X129653999Y-84193212D01*
X129623821Y-83925366D01*
X129623818Y-83925348D01*
X129563836Y-83662548D01*
X129563832Y-83662536D01*
X129550993Y-83625844D01*
X129850000Y-83625844D01*
X129856401Y-83685372D01*
X129856403Y-83685379D01*
X129906645Y-83820086D01*
X129906649Y-83820093D01*
X129992809Y-83935187D01*
X129992812Y-83935190D01*
X130107906Y-84021350D01*
X130107913Y-84021354D01*
X130242620Y-84071596D01*
X130242627Y-84071598D01*
X130302155Y-84077999D01*
X130302172Y-84078000D01*
X130825000Y-84078000D01*
X131325000Y-84078000D01*
X131847828Y-84078000D01*
X131847844Y-84077999D01*
X131907372Y-84071598D01*
X131907379Y-84071596D01*
X132042086Y-84021354D01*
X132042093Y-84021350D01*
X132157187Y-83935190D01*
X132157190Y-83935187D01*
X132243350Y-83820093D01*
X132243354Y-83820086D01*
X132293596Y-83685379D01*
X132293598Y-83685372D01*
X132299999Y-83625844D01*
X134400000Y-83625844D01*
X134406401Y-83685372D01*
X134406403Y-83685379D01*
X134456645Y-83820086D01*
X134456649Y-83820093D01*
X134542809Y-83935187D01*
X134542812Y-83935190D01*
X134657906Y-84021350D01*
X134657913Y-84021354D01*
X134792620Y-84071596D01*
X134792627Y-84071598D01*
X134852155Y-84077999D01*
X134852172Y-84078000D01*
X135375000Y-84078000D01*
X135875000Y-84078000D01*
X136397828Y-84078000D01*
X136397844Y-84077999D01*
X136457372Y-84071598D01*
X136457379Y-84071596D01*
X136592086Y-84021354D01*
X136592093Y-84021350D01*
X136707187Y-83935190D01*
X136707190Y-83935187D01*
X136793350Y-83820093D01*
X136793354Y-83820086D01*
X136843596Y-83685379D01*
X136843598Y-83685372D01*
X136849999Y-83625844D01*
X136850000Y-83625827D01*
X136850000Y-83453000D01*
X135875000Y-83453000D01*
X135875000Y-84078000D01*
X135375000Y-84078000D01*
X135375000Y-83453000D01*
X134400000Y-83453000D01*
X134400000Y-83625844D01*
X132299999Y-83625844D01*
X132300000Y-83625827D01*
X132300000Y-83453000D01*
X131325000Y-83453000D01*
X131325000Y-84078000D01*
X130825000Y-84078000D01*
X130825000Y-83453000D01*
X129850000Y-83453000D01*
X129850000Y-83625844D01*
X129550993Y-83625844D01*
X129486871Y-83442593D01*
X129474805Y-83408113D01*
X129474801Y-83408104D01*
X129357847Y-83165247D01*
X129214431Y-82937000D01*
X129148371Y-82854165D01*
X129148370Y-82854164D01*
X129118652Y-82816899D01*
X128190290Y-83745262D01*
X128093033Y-83611398D01*
X127970602Y-83488967D01*
X127836736Y-83391709D01*
X128448290Y-82780155D01*
X129850000Y-82780155D01*
X129850000Y-82953000D01*
X130825000Y-82953000D01*
X131325000Y-82953000D01*
X132300000Y-82953000D01*
X132300000Y-82780172D01*
X132299999Y-82780155D01*
X132293598Y-82720627D01*
X132293596Y-82720620D01*
X132243354Y-82585913D01*
X132243350Y-82585906D01*
X132157190Y-82470812D01*
X132157187Y-82470809D01*
X132042093Y-82384649D01*
X132042086Y-82384645D01*
X131907379Y-82334403D01*
X131907372Y-82334401D01*
X131847844Y-82328000D01*
X131325000Y-82328000D01*
X131325000Y-82953000D01*
X130825000Y-82953000D01*
X130825000Y-82328000D01*
X130302155Y-82328000D01*
X130242627Y-82334401D01*
X130242620Y-82334403D01*
X130107913Y-82384645D01*
X130107906Y-82384649D01*
X129992812Y-82470809D01*
X129992809Y-82470812D01*
X129906649Y-82585906D01*
X129906645Y-82585913D01*
X129856403Y-82720620D01*
X129856401Y-82720627D01*
X129850000Y-82780155D01*
X128448290Y-82780155D01*
X128765099Y-82463346D01*
X128644998Y-82367568D01*
X128416752Y-82224152D01*
X128173895Y-82107198D01*
X128173881Y-82107192D01*
X127929105Y-82021541D01*
X127872329Y-81980820D01*
X127846582Y-81915867D01*
X127860038Y-81847305D01*
X127908426Y-81796903D01*
X127970060Y-81780500D01*
X133603921Y-81780500D01*
X133667389Y-81780500D01*
X133672257Y-81780596D01*
G37*
%TD.AperFunction*%
%TA.AperFunction,Conductor*%
G36*
X126414967Y-109428602D02*
G01*
X126537398Y-109551033D01*
X126671262Y-109648290D01*
X125742899Y-110576652D01*
X125742900Y-110576653D01*
X125862993Y-110672427D01*
X125862997Y-110672429D01*
X126091247Y-110815847D01*
X126334104Y-110932801D01*
X126334118Y-110932807D01*
X126523859Y-110999201D01*
X126545455Y-111014690D01*
X126569007Y-111027010D01*
X126573407Y-111034738D01*
X126580635Y-111039922D01*
X126590428Y-111064629D01*
X126603581Y-111087726D01*
X126603104Y-111096607D01*
X126606382Y-111104875D01*
X126601263Y-111130953D01*
X126599841Y-111157495D01*
X126594638Y-111164708D01*
X126592926Y-111173437D01*
X126574518Y-111192610D01*
X126558974Y-111214167D01*
X126550696Y-111217423D01*
X126544538Y-111223839D01*
X126518691Y-111230016D01*
X126493956Y-111239749D01*
X126480900Y-111239048D01*
X126476582Y-111240081D01*
X126458712Y-111237859D01*
X126226111Y-111191591D01*
X126210445Y-111187393D01*
X125973213Y-111106864D01*
X125958227Y-111100657D01*
X125733539Y-110989853D01*
X125719492Y-110981743D01*
X125511188Y-110842559D01*
X125498320Y-110832685D01*
X125309966Y-110667502D01*
X125298497Y-110656033D01*
X125197355Y-110540703D01*
X125133311Y-110467675D01*
X125123440Y-110454811D01*
X124984256Y-110246507D01*
X124976146Y-110232460D01*
X124912303Y-110102999D01*
X124865339Y-110007765D01*
X124859135Y-109992786D01*
X124778606Y-109755554D01*
X124774408Y-109739888D01*
X124757086Y-109652804D01*
X124728140Y-109507283D01*
X124734367Y-109437695D01*
X124777230Y-109382518D01*
X124843120Y-109359273D01*
X124911117Y-109375341D01*
X124959632Y-109425620D01*
X124966798Y-109442140D01*
X125033192Y-109631881D01*
X125033198Y-109631895D01*
X125150152Y-109874752D01*
X125293568Y-110102998D01*
X125389346Y-110223099D01*
X126317708Y-109294736D01*
X126414967Y-109428602D01*
G37*
%TD.AperFunction*%
%TA.AperFunction,Conductor*%
G36*
X156550652Y-110223099D02*
G01*
X156550653Y-110223098D01*
X156646431Y-110102999D01*
X156789847Y-109874752D01*
X156906801Y-109631895D01*
X156906807Y-109631881D01*
X156973201Y-109442140D01*
X156988690Y-109420543D01*
X157001010Y-109396992D01*
X157008738Y-109392591D01*
X157013922Y-109385364D01*
X157038629Y-109375570D01*
X157061726Y-109362418D01*
X157070607Y-109362894D01*
X157078875Y-109359617D01*
X157104953Y-109364735D01*
X157131495Y-109366158D01*
X157138708Y-109371360D01*
X157147437Y-109373073D01*
X157166610Y-109391480D01*
X157188167Y-109407025D01*
X157191423Y-109415302D01*
X157197839Y-109421461D01*
X157204016Y-109447307D01*
X157213749Y-109472043D01*
X157213048Y-109485097D01*
X157214081Y-109489416D01*
X157211859Y-109507287D01*
X157165591Y-109739888D01*
X157161393Y-109755554D01*
X157080864Y-109992786D01*
X157074657Y-110007772D01*
X156963853Y-110232460D01*
X156955743Y-110246507D01*
X156816559Y-110454811D01*
X156806685Y-110467679D01*
X156641502Y-110656033D01*
X156630033Y-110667502D01*
X156441679Y-110832685D01*
X156428811Y-110842559D01*
X156220507Y-110981743D01*
X156206460Y-110989853D01*
X155981772Y-111100657D01*
X155966786Y-111106864D01*
X155729554Y-111187393D01*
X155713888Y-111191591D01*
X155481287Y-111237859D01*
X155411695Y-111231632D01*
X155356518Y-111188769D01*
X155333273Y-111122879D01*
X155349341Y-111054882D01*
X155399620Y-111006367D01*
X155416140Y-110999201D01*
X155605881Y-110932807D01*
X155605895Y-110932801D01*
X155848752Y-110815847D01*
X156076999Y-110672431D01*
X156197098Y-110576653D01*
X156197099Y-110576652D01*
X155268737Y-109648290D01*
X155402602Y-109551033D01*
X155525033Y-109428602D01*
X155622290Y-109294737D01*
X156550652Y-110223099D01*
G37*
%TD.AperFunction*%
%TA.AperFunction,Conductor*%
G36*
X126528304Y-81808367D02*
G01*
X126583481Y-81851230D01*
X126606726Y-81917120D01*
X126590658Y-81985117D01*
X126540379Y-82033632D01*
X126523859Y-82040798D01*
X126334118Y-82107192D01*
X126334104Y-82107198D01*
X126091247Y-82224152D01*
X125863001Y-82367568D01*
X125742899Y-82463345D01*
X126671263Y-83391709D01*
X126537398Y-83488967D01*
X126414967Y-83611398D01*
X126317709Y-83745262D01*
X125389345Y-82816899D01*
X125293568Y-82937001D01*
X125150152Y-83165247D01*
X125033198Y-83408104D01*
X125033192Y-83408118D01*
X124966798Y-83597859D01*
X124951309Y-83619453D01*
X124938989Y-83643007D01*
X124931258Y-83647408D01*
X124926076Y-83654635D01*
X124901372Y-83664427D01*
X124878273Y-83677581D01*
X124869390Y-83677104D01*
X124861123Y-83680382D01*
X124835046Y-83675263D01*
X124808504Y-83673841D01*
X124801288Y-83668637D01*
X124792562Y-83666925D01*
X124773389Y-83648519D01*
X124751832Y-83632974D01*
X124748575Y-83624698D01*
X124742159Y-83618538D01*
X124735980Y-83592687D01*
X124726250Y-83567956D01*
X124726950Y-83554900D01*
X124725918Y-83550582D01*
X124728138Y-83532726D01*
X124774409Y-83300107D01*
X124778606Y-83284445D01*
X124819068Y-83165247D01*
X124859138Y-83047205D01*
X124865336Y-83032239D01*
X124976149Y-82807533D01*
X124984252Y-82793498D01*
X125123448Y-82585176D01*
X125133305Y-82572331D01*
X125298502Y-82383960D01*
X125309960Y-82372502D01*
X125498331Y-82207305D01*
X125511176Y-82197448D01*
X125719498Y-82058252D01*
X125733533Y-82050149D01*
X125958239Y-81939336D01*
X125973205Y-81933138D01*
X126143626Y-81875288D01*
X126210445Y-81852606D01*
X126226107Y-81848409D01*
X126458715Y-81802140D01*
X126528304Y-81808367D01*
G37*
%TD.AperFunction*%
%TA.AperFunction,Conductor*%
G36*
X155481275Y-81802138D02*
G01*
X155708765Y-81847389D01*
X155713888Y-81848408D01*
X155729554Y-81852606D01*
X155880736Y-81903925D01*
X155966788Y-81933136D01*
X155981765Y-81939339D01*
X156172973Y-82033632D01*
X156206460Y-82050146D01*
X156220508Y-82058256D01*
X156428815Y-82197443D01*
X156441679Y-82207314D01*
X156630033Y-82372497D01*
X156641502Y-82383966D01*
X156806685Y-82572320D01*
X156816559Y-82585188D01*
X156955743Y-82793492D01*
X156963853Y-82807539D01*
X157074657Y-83032227D01*
X157080864Y-83047213D01*
X157161393Y-83284445D01*
X157165591Y-83300111D01*
X157211859Y-83532712D01*
X157205632Y-83602304D01*
X157162769Y-83657481D01*
X157096879Y-83680726D01*
X157028882Y-83664658D01*
X156980367Y-83614379D01*
X156973201Y-83597859D01*
X156906807Y-83408118D01*
X156906801Y-83408104D01*
X156789847Y-83165247D01*
X156646429Y-82936997D01*
X156646427Y-82936993D01*
X156550653Y-82816900D01*
X156550652Y-82816899D01*
X155622289Y-83745261D01*
X155525033Y-83611398D01*
X155402602Y-83488967D01*
X155268736Y-83391709D01*
X156197099Y-82463346D01*
X156076998Y-82367568D01*
X155848752Y-82224152D01*
X155605895Y-82107198D01*
X155605881Y-82107192D01*
X155416140Y-82040798D01*
X155394545Y-82025309D01*
X155370992Y-82012989D01*
X155366590Y-82005258D01*
X155359364Y-82000076D01*
X155349571Y-81975371D01*
X155336418Y-81952273D01*
X155336894Y-81943391D01*
X155333617Y-81935124D01*
X155338735Y-81909047D01*
X155340158Y-81882504D01*
X155345361Y-81875288D01*
X155347074Y-81866562D01*
X155365479Y-81847389D01*
X155381025Y-81825832D01*
X155389300Y-81822575D01*
X155395461Y-81816159D01*
X155421311Y-81809980D01*
X155446043Y-81800250D01*
X155459098Y-81800950D01*
X155463417Y-81799918D01*
X155481275Y-81802138D01*
G37*
%TD.AperFunction*%
%TD*%
M02*
