%TF.GenerationSoftware,KiCad,Pcbnew,9.0.6*%
%TF.CreationDate,2025-11-17T19:53:22+07:00*%
%TF.ProjectId,controller,636f6e74-726f-46c6-9c65-722e6b696361,rev?*%
%TF.SameCoordinates,Original*%
%TF.FileFunction,Copper,L1,Top*%
%TF.FilePolarity,Positive*%
%FSLAX46Y46*%
G04 Gerber Fmt 4.6, Leading zero omitted, Abs format (unit mm)*
G04 Created by KiCad (PCBNEW 9.0.6) date 2025-11-17 19:53:22*
%MOMM*%
%LPD*%
G01*
G04 APERTURE LIST*
%TA.AperFunction,ComponentPad*%
%ADD10C,3.800000*%
%TD*%
%TA.AperFunction,ComponentPad*%
%ADD11C,1.600000*%
%TD*%
%TA.AperFunction,SMDPad,CuDef*%
%ADD12R,1.300000X0.300000*%
%TD*%
%TA.AperFunction,SMDPad,CuDef*%
%ADD13R,2.200000X1.800000*%
%TD*%
%TA.AperFunction,SMDPad,CuDef*%
%ADD14R,3.000000X3.000000*%
%TD*%
%TA.AperFunction,SMDPad,CuDef*%
%ADD15R,1.200000X1.800000*%
%TD*%
%TA.AperFunction,SMDPad,CuDef*%
%ADD16R,0.600000X1.550000*%
%TD*%
%TA.AperFunction,ViaPad*%
%ADD17C,0.600000*%
%TD*%
%TA.AperFunction,Conductor*%
%ADD18C,0.300000*%
%TD*%
%TA.AperFunction,Conductor*%
%ADD19C,0.500000*%
%TD*%
G04 APERTURE END LIST*
D10*
%TO.P,H2,1,1*%
%TO.N,GND*%
X154686000Y-84328000D03*
%TD*%
%TO.P,H3,1,1*%
%TO.N,GND*%
X127254000Y-108712000D03*
%TD*%
%TO.P,H4,1,1*%
%TO.N,GND*%
X154686000Y-108712000D03*
%TD*%
D11*
%TO.P,U2,1,TX0/P0.06*%
%TO.N,I2C_SDA*%
X128270000Y-104140000D03*
%TO.P,U2,2,RX1/P0.08*%
%TO.N,I2C_SCL*%
X130810000Y-104140000D03*
%TO.P,U2,3,GND*%
%TO.N,GND*%
X133350000Y-104140000D03*
%TO.P,U2,4,GND*%
X135890000Y-104140000D03*
%TO.P,U2,5,P0.17*%
%TO.N,LED_CTRL*%
X138430000Y-104140000D03*
%TO.P,U2,6,P0.20*%
%TO.N,SPI_SCK*%
X140970000Y-104140000D03*
%TO.P,U2,7,P0.22*%
%TO.N,SPI_MOSI*%
X143510000Y-104140000D03*
%TO.P,U2,8,P0.24*%
%TO.N,unconnected-(U2-P0.24-Pad8)*%
X146050000Y-104140000D03*
%TO.P,U2,9,P1.00*%
%TO.N,unconnected-(U2-P1.00-Pad9)*%
X148590000Y-104140000D03*
%TO.P,U2,10,P0.11*%
%TO.N,unconnected-(U2-P0.11-Pad10)*%
X151130000Y-104140000D03*
%TO.P,U2,11,P1.04*%
%TO.N,unconnected-(U2-P1.04-Pad11)*%
X153670000Y-104140000D03*
%TO.P,U2,12,P1.06*%
%TO.N,unconnected-(U2-P1.06-Pad12)*%
X156210000Y-104140000D03*
%TO.P,U2,13,NFC1/P0.09*%
%TO.N,unconnected-(U2-NFC1{slash}P0.09-Pad13)*%
X156210000Y-88900000D03*
%TO.P,U2,14,NFC2/P0.10*%
%TO.N,unconnected-(U2-NFC2{slash}P0.10-Pad14)*%
X153670000Y-88900000D03*
%TO.P,U2,15,P1.11*%
%TO.N,unconnected-(U2-P1.11-Pad15)*%
X151130000Y-88900000D03*
%TO.P,U2,16,P1.13*%
%TO.N,CS*%
X148590000Y-88900000D03*
%TO.P,U2,17,P1.15*%
%TO.N,D{slash}C*%
X146050000Y-88900000D03*
%TO.P,U2,18,AIN0/P0.02*%
%TO.N,RES*%
X143510000Y-88900000D03*
%TO.P,U2,19,AIN5/P0.29*%
%TO.N,TP_TINT*%
X140970000Y-88900000D03*
%TO.P,U2,20,AIN7/P0.31*%
%TO.N,TP_TRST*%
X138430000Y-88900000D03*
%TO.P,U2,21,VCC*%
%TO.N,VCC*%
X135890000Y-88900000D03*
%TO.P,U2,22,RST*%
%TO.N,Net-(U2-RST)*%
X133350000Y-88900000D03*
%TO.P,U2,23,GND*%
%TO.N,unconnected-(U2-GND-Pad23)*%
X130810000Y-88900000D03*
%TO.P,U2,24,RAW*%
%TO.N,unconnected-(U2-RAW-Pad24)*%
X128270000Y-88900000D03*
%TO.P,U2,28,BAT-*%
%TO.N,GND*%
X125730000Y-104140000D03*
%TO.P,U2,29,BAT+*%
%TO.N,Net-(U2-BAT+)*%
X125730000Y-88900000D03*
%TD*%
D12*
%TO.P,J4,1,Pin_1*%
%TO.N,VCC*%
X145790000Y-99270000D03*
%TO.P,J4,2,Pin_2*%
%TO.N,GND*%
X145790000Y-98770000D03*
%TO.P,J4,3,Pin_3*%
%TO.N,SPI_MOSI*%
X145790000Y-98270000D03*
%TO.P,J4,4,Pin_4*%
%TO.N,SPI_SCK*%
X145790000Y-97770000D03*
%TO.P,J4,5,Pin_5*%
%TO.N,CS*%
X145790000Y-97270000D03*
%TO.P,J4,6,Pin_6*%
%TO.N,D{slash}C*%
X145790000Y-96770000D03*
%TO.P,J4,7,Pin_7*%
%TO.N,RES*%
X145790000Y-96270000D03*
%TO.P,J4,8,Pin_8*%
%TO.N,LED_CTRL*%
X145790000Y-95770000D03*
%TO.P,J4,9,Pin_9*%
%TO.N,I2C_SDA*%
X145790000Y-95270000D03*
%TO.P,J4,10,Pin_10*%
%TO.N,I2C_SCL*%
X145790000Y-94770000D03*
%TO.P,J4,11,Pin_11*%
%TO.N,TP_TRST*%
X145790000Y-94270000D03*
%TO.P,J4,12,Pin_12*%
%TO.N,TP_TINT*%
X145790000Y-93770000D03*
D13*
%TO.P,J4,MP*%
%TO.N,N/C*%
X149040000Y-101170000D03*
X149040000Y-91870000D03*
%TD*%
D14*
%TO.P,TP1,1,1*%
%TO.N,Net-(U2-BAT+)*%
X129540000Y-93980000D03*
%TD*%
%TO.P,TP2,1,1*%
%TO.N,GND*%
X129540000Y-99060000D03*
%TD*%
D15*
%TO.P,QT1,*%
%TO.N,*%
X134638000Y-95823000D03*
X140238000Y-95823000D03*
D16*
%TO.P,QT1,1,GND*%
%TO.N,GND*%
X135938000Y-91948000D03*
%TO.P,QT1,2,+3.3V*%
%TO.N,VCC*%
X136938000Y-91948000D03*
%TO.P,QT1,3,SDA*%
%TO.N,I2C_SDA*%
X137938000Y-91948000D03*
%TO.P,QT1,4,SCL*%
%TO.N,I2C_SCL*%
X138938000Y-91948000D03*
%TD*%
D10*
%TO.P,H1,1,1*%
%TO.N,GND*%
X127254000Y-84328000D03*
%TD*%
D17*
%TO.N,LED_CTRL*%
X144681743Y-95920000D03*
%TO.N,CS*%
X148033620Y-96725620D03*
%TO.N,GND*%
X142240000Y-95758000D03*
%TO.N,SPI_SCK*%
X144497210Y-97699114D03*
%TO.N,SPI_MOSI*%
X144526000Y-98552000D03*
%TO.N,I2C_SCL*%
X139143760Y-93520240D03*
%TO.N,I2C_SDA*%
X137938000Y-93742000D03*
%TD*%
D18*
%TO.N,LED_CTRL*%
X144681743Y-95920000D02*
X144831743Y-95770000D01*
X144831743Y-95770000D02*
X145790000Y-95770000D01*
%TO.N,RES*%
X147320000Y-95758000D02*
X147320000Y-93472000D01*
X146808000Y-96270000D02*
X147320000Y-95758000D01*
X145790000Y-96270000D02*
X146808000Y-96270000D01*
X143510000Y-89662000D02*
X143510000Y-88900000D01*
X147320000Y-93472000D02*
X143510000Y-89662000D01*
%TO.N,TP_TRST*%
X145790000Y-94270000D02*
X143800000Y-94270000D01*
X143800000Y-94270000D02*
X138430000Y-88900000D01*
%TO.N,CS*%
X147489240Y-97270000D02*
X145790000Y-97270000D01*
X148033620Y-96725620D02*
X147489240Y-97270000D01*
D19*
%TO.N,GND*%
X125730000Y-102870000D02*
X129540000Y-99060000D01*
D18*
X148300000Y-98770000D02*
X145790000Y-98770000D01*
D19*
X125730000Y-104140000D02*
X125730000Y-102870000D01*
D18*
%TO.N,SPI_SCK*%
X144568096Y-97770000D02*
X145790000Y-97770000D01*
X144497210Y-97699114D02*
X144568096Y-97770000D01*
%TO.N,SPI_MOSI*%
X144808000Y-98270000D02*
X144526000Y-98552000D01*
X145790000Y-98270000D02*
X144808000Y-98270000D01*
%TO.N,D{slash}C*%
X147828000Y-93271480D02*
X146050000Y-91493480D01*
X147070000Y-96770000D02*
X147828000Y-96012000D01*
X147828000Y-96012000D02*
X147828000Y-93271480D01*
X145790000Y-96770000D02*
X147070000Y-96770000D01*
X146050000Y-91493480D02*
X146050000Y-88900000D01*
%TO.N,TP_TINT*%
X144062000Y-93770000D02*
X140970000Y-90678000D01*
X145790000Y-93770000D02*
X144062000Y-93770000D01*
X140970000Y-90678000D02*
X140970000Y-88900000D01*
%TO.N,VCC*%
X136938000Y-89948000D02*
X136938000Y-91948000D01*
X139148000Y-99270000D02*
X136938000Y-97060000D01*
X135890000Y-88900000D02*
X136938000Y-89948000D01*
X145790000Y-99270000D02*
X139148000Y-99270000D01*
X136938000Y-97060000D02*
X136938000Y-91948000D01*
%TO.N,I2C_SCL*%
X139349520Y-93726000D02*
X142547480Y-93726000D01*
X138938000Y-93314480D02*
X139143760Y-93520240D01*
X142547480Y-93726000D02*
X143591480Y-94770000D01*
X139143760Y-93520240D02*
X139349520Y-93726000D01*
X138938000Y-91948000D02*
X138938000Y-93314480D01*
X143591480Y-94770000D02*
X145790000Y-94770000D01*
%TO.N,I2C_SDA*%
X137938000Y-93742000D02*
X137938000Y-91948000D01*
X138430000Y-94234000D02*
X142346960Y-94234000D01*
X143382960Y-95270000D02*
X145790000Y-95270000D01*
X142346960Y-94234000D02*
X143382960Y-95270000D01*
X137938000Y-93742000D02*
X138430000Y-94234000D01*
D19*
%TO.N,Net-(U2-BAT+)*%
X125730000Y-88900000D02*
X125730000Y-90170000D01*
X125730000Y-90170000D02*
X129540000Y-93980000D01*
%TD*%
%TA.AperFunction,Conductor*%
%TO.N,GND*%
G36*
X137574498Y-94225530D02*
G01*
X137706216Y-94301577D01*
X137858943Y-94342500D01*
X137858945Y-94342500D01*
X137866099Y-94343442D01*
X137929996Y-94371707D01*
X137937597Y-94378700D01*
X138153386Y-94594489D01*
X138256113Y-94653799D01*
X138280321Y-94660284D01*
X138280324Y-94660286D01*
X138280325Y-94660286D01*
X138310447Y-94668357D01*
X138370691Y-94684500D01*
X139224518Y-94684500D01*
X139291557Y-94704185D01*
X139337312Y-94756989D01*
X139347256Y-94826147D01*
X139342185Y-94843823D01*
X139342864Y-94844008D01*
X139340415Y-94853008D01*
X139337500Y-94878131D01*
X139337500Y-96767856D01*
X139337502Y-96767882D01*
X139340413Y-96792987D01*
X139340415Y-96792991D01*
X139385793Y-96895764D01*
X139385794Y-96895765D01*
X139465235Y-96975206D01*
X139568009Y-97020585D01*
X139593135Y-97023500D01*
X140882864Y-97023499D01*
X140882879Y-97023497D01*
X140882882Y-97023497D01*
X140907987Y-97020586D01*
X140907988Y-97020585D01*
X140907991Y-97020585D01*
X141010765Y-96975206D01*
X141090206Y-96895765D01*
X141135585Y-96792991D01*
X141138500Y-96767865D01*
X141138499Y-94878136D01*
X141138497Y-94878117D01*
X141135586Y-94853012D01*
X141133137Y-94844011D01*
X141136034Y-94843222D01*
X141128977Y-94789301D01*
X141158804Y-94726118D01*
X141218056Y-94689090D01*
X141251482Y-94684500D01*
X142108995Y-94684500D01*
X142176034Y-94704185D01*
X142196676Y-94720819D01*
X143106346Y-95630489D01*
X143209073Y-95689799D01*
X143233281Y-95696284D01*
X143233284Y-95696286D01*
X143233285Y-95696286D01*
X143263407Y-95704357D01*
X143323651Y-95720500D01*
X143957243Y-95720500D01*
X144024282Y-95740185D01*
X144070037Y-95792989D01*
X144081243Y-95844500D01*
X144081243Y-95999057D01*
X144100603Y-96071307D01*
X144122166Y-96151783D01*
X144122169Y-96151790D01*
X144201218Y-96288709D01*
X144201222Y-96288714D01*
X144201223Y-96288716D01*
X144313027Y-96400520D01*
X144313029Y-96400521D01*
X144313033Y-96400524D01*
X144449952Y-96479573D01*
X144449959Y-96479577D01*
X144602686Y-96520500D01*
X144602688Y-96520500D01*
X144715500Y-96520500D01*
X144782539Y-96540185D01*
X144828294Y-96592989D01*
X144839500Y-96644500D01*
X144839500Y-96964856D01*
X144839501Y-96964872D01*
X144842926Y-96994405D01*
X144831093Y-97063265D01*
X144783910Y-97114797D01*
X144716357Y-97132640D01*
X144687658Y-97128461D01*
X144653502Y-97119309D01*
X144576267Y-97098614D01*
X144418153Y-97098614D01*
X144265426Y-97139537D01*
X144265419Y-97139540D01*
X144128500Y-97218589D01*
X144128492Y-97218595D01*
X144016691Y-97330396D01*
X144016685Y-97330404D01*
X143937636Y-97467323D01*
X143937633Y-97467330D01*
X143896710Y-97620057D01*
X143896710Y-97778170D01*
X143937633Y-97930897D01*
X143937636Y-97930904D01*
X144016688Y-98067828D01*
X144020715Y-98073076D01*
X144045912Y-98138244D01*
X144031875Y-98206689D01*
X144029730Y-98210564D01*
X143966423Y-98320215D01*
X143966423Y-98320216D01*
X143925500Y-98472943D01*
X143925500Y-98631058D01*
X143934168Y-98663405D01*
X143932506Y-98733255D01*
X143893345Y-98791118D01*
X143829116Y-98818623D01*
X143814394Y-98819500D01*
X139385965Y-98819500D01*
X139318926Y-98799815D01*
X139298284Y-98783181D01*
X137424819Y-96909716D01*
X137391334Y-96848393D01*
X137388500Y-96822035D01*
X137388500Y-94332918D01*
X137408185Y-94265879D01*
X137460989Y-94220124D01*
X137530147Y-94210180D01*
X137574498Y-94225530D01*
G37*
%TD.AperFunction*%
%TA.AperFunction,Conductor*%
G36*
X133672257Y-81780596D02*
G01*
X134046233Y-81795290D01*
X134055906Y-81796051D01*
X134425173Y-81839758D01*
X134434777Y-81841280D01*
X134799464Y-81913821D01*
X134808923Y-81916092D01*
X135166797Y-82017024D01*
X135176026Y-82020022D01*
X135524799Y-82148692D01*
X135524891Y-82148726D01*
X135533886Y-82152452D01*
X135689414Y-82224152D01*
X135871561Y-82308123D01*
X135880232Y-82312542D01*
X136204644Y-82494222D01*
X136212928Y-82499298D01*
X136522064Y-82705857D01*
X136522100Y-82705881D01*
X136529977Y-82711604D01*
X136821976Y-82941799D01*
X136829374Y-82948117D01*
X137064263Y-83165247D01*
X137104415Y-83202363D01*
X137107924Y-83205738D01*
X138999595Y-85097409D01*
X138999597Y-85097412D01*
X139007411Y-85105226D01*
X139009861Y-85107676D01*
X139009891Y-85107731D01*
X139046177Y-85144016D01*
X139046177Y-85144017D01*
X139194181Y-85292019D01*
X139510553Y-85566151D01*
X139845675Y-85817015D01*
X140197839Y-86043334D01*
X140565251Y-86243953D01*
X140946039Y-86417851D01*
X141181372Y-86505624D01*
X141338259Y-86564140D01*
X141739918Y-86682076D01*
X141739928Y-86682079D01*
X142148964Y-86771059D01*
X142148971Y-86771060D01*
X142563326Y-86830636D01*
X142980875Y-86860500D01*
X143124293Y-86860500D01*
X143763924Y-86860500D01*
X143778414Y-86860500D01*
X143778550Y-86860540D01*
X143829816Y-86860540D01*
X144039126Y-86860540D01*
X144456678Y-86830674D01*
X144871036Y-86771096D01*
X144871041Y-86771095D01*
X145280084Y-86682111D01*
X145280085Y-86682110D01*
X145280088Y-86682110D01*
X145681749Y-86564168D01*
X145681824Y-86564140D01*
X146073963Y-86417877D01*
X146074020Y-86417851D01*
X146454760Y-86243969D01*
X146822171Y-86043342D01*
X147174333Y-85817015D01*
X147509451Y-85566142D01*
X147825819Y-85292000D01*
X147949153Y-85168660D01*
X149867410Y-83250403D01*
X149867413Y-83250402D01*
X149912319Y-83205494D01*
X149915750Y-83202195D01*
X150190637Y-82948084D01*
X150198011Y-82941787D01*
X150490037Y-82711566D01*
X150497861Y-82705881D01*
X150807074Y-82499266D01*
X150815339Y-82494201D01*
X151139779Y-82312502D01*
X151148431Y-82308094D01*
X151486129Y-82152409D01*
X151495081Y-82148701D01*
X151843967Y-82019986D01*
X151853183Y-82016992D01*
X152211089Y-81916050D01*
X152220508Y-81913788D01*
X152585240Y-81841236D01*
X152594806Y-81839721D01*
X152964093Y-81796012D01*
X152973760Y-81795251D01*
X153346725Y-81780596D01*
X153351594Y-81780500D01*
X153416079Y-81780500D01*
X153969940Y-81780500D01*
X154036979Y-81800185D01*
X154082734Y-81852989D01*
X154092678Y-81922147D01*
X154063653Y-81985703D01*
X154010895Y-82021541D01*
X153766118Y-82107192D01*
X153766104Y-82107198D01*
X153523247Y-82224152D01*
X153295001Y-82367568D01*
X153174899Y-82463345D01*
X154103263Y-83391709D01*
X153969398Y-83488967D01*
X153846967Y-83611398D01*
X153749709Y-83745262D01*
X152821345Y-82816899D01*
X152725568Y-82937001D01*
X152582152Y-83165247D01*
X152465198Y-83408104D01*
X152465192Y-83408118D01*
X152376167Y-83662536D01*
X152376163Y-83662548D01*
X152316181Y-83925348D01*
X152316178Y-83925366D01*
X152286000Y-84193212D01*
X152286000Y-84462787D01*
X152316178Y-84730633D01*
X152316181Y-84730651D01*
X152376163Y-84993451D01*
X152376167Y-84993463D01*
X152465192Y-85247881D01*
X152465198Y-85247895D01*
X152582152Y-85490752D01*
X152725568Y-85718998D01*
X152821346Y-85839099D01*
X153749708Y-84910736D01*
X153846967Y-85044602D01*
X153969398Y-85167033D01*
X154103262Y-85264290D01*
X153174899Y-86192652D01*
X153174900Y-86192653D01*
X153294993Y-86288427D01*
X153294997Y-86288429D01*
X153523247Y-86431847D01*
X153766104Y-86548801D01*
X153766118Y-86548807D01*
X154020536Y-86637832D01*
X154020548Y-86637836D01*
X154283348Y-86697818D01*
X154283366Y-86697821D01*
X154551212Y-86727999D01*
X154551216Y-86728000D01*
X154820784Y-86728000D01*
X154820787Y-86727999D01*
X155088633Y-86697821D01*
X155088651Y-86697818D01*
X155351451Y-86637836D01*
X155351463Y-86637832D01*
X155605881Y-86548807D01*
X155605895Y-86548801D01*
X155848752Y-86431847D01*
X156076999Y-86288431D01*
X156197098Y-86192653D01*
X156197099Y-86192652D01*
X155268737Y-85264290D01*
X155402602Y-85167033D01*
X155525033Y-85044602D01*
X155622290Y-84910737D01*
X156550652Y-85839099D01*
X156550653Y-85839098D01*
X156646431Y-85718999D01*
X156789847Y-85490752D01*
X156906801Y-85247895D01*
X156906807Y-85247881D01*
X156992459Y-85003105D01*
X157033180Y-84946329D01*
X157098133Y-84920582D01*
X157166695Y-84934038D01*
X157217097Y-84982426D01*
X157233500Y-85044060D01*
X157233500Y-88067796D01*
X157213815Y-88134835D01*
X157161011Y-88180590D01*
X157091853Y-88190534D01*
X157028297Y-88161509D01*
X157021819Y-88155477D01*
X156926930Y-88060588D01*
X156926928Y-88060586D01*
X156786788Y-87958768D01*
X156632445Y-87880127D01*
X156467701Y-87826598D01*
X156467699Y-87826597D01*
X156467698Y-87826597D01*
X156336271Y-87805781D01*
X156296611Y-87799500D01*
X156123389Y-87799500D01*
X156083728Y-87805781D01*
X155952302Y-87826597D01*
X155787552Y-87880128D01*
X155633211Y-87958768D01*
X155553256Y-88016859D01*
X155493072Y-88060586D01*
X155493070Y-88060588D01*
X155493069Y-88060588D01*
X155370588Y-88183069D01*
X155370588Y-88183070D01*
X155370586Y-88183072D01*
X155369928Y-88183978D01*
X155268768Y-88323211D01*
X155190128Y-88477552D01*
X155136597Y-88642302D01*
X155109500Y-88813389D01*
X155109500Y-88986610D01*
X155136597Y-89157697D01*
X155136597Y-89157699D01*
X155136598Y-89157701D01*
X155190127Y-89322445D01*
X155268768Y-89476788D01*
X155370586Y-89616928D01*
X155493072Y-89739414D01*
X155633212Y-89841232D01*
X155787555Y-89919873D01*
X155952299Y-89973402D01*
X156123389Y-90000500D01*
X156123390Y-90000500D01*
X156296610Y-90000500D01*
X156296611Y-90000500D01*
X156467701Y-89973402D01*
X156632445Y-89919873D01*
X156786788Y-89841232D01*
X156926928Y-89739414D01*
X157021819Y-89644523D01*
X157083142Y-89611038D01*
X157152834Y-89616022D01*
X157208767Y-89657894D01*
X157233184Y-89723358D01*
X157233500Y-89732204D01*
X157233500Y-103307796D01*
X157213815Y-103374835D01*
X157161011Y-103420590D01*
X157091853Y-103430534D01*
X157028297Y-103401509D01*
X157021819Y-103395477D01*
X156926930Y-103300588D01*
X156926929Y-103300587D01*
X156926928Y-103300586D01*
X156786788Y-103198768D01*
X156632445Y-103120127D01*
X156467701Y-103066598D01*
X156467699Y-103066597D01*
X156467698Y-103066597D01*
X156336271Y-103045781D01*
X156296611Y-103039500D01*
X156123389Y-103039500D01*
X156083728Y-103045781D01*
X155952302Y-103066597D01*
X155787552Y-103120128D01*
X155633211Y-103198768D01*
X155553256Y-103256859D01*
X155493072Y-103300586D01*
X155493070Y-103300588D01*
X155493069Y-103300588D01*
X155370588Y-103423069D01*
X155370588Y-103423070D01*
X155370586Y-103423072D01*
X155344737Y-103458650D01*
X155268768Y-103563211D01*
X155190128Y-103717552D01*
X155136597Y-103882302D01*
X155109500Y-104053389D01*
X155109500Y-104226610D01*
X155135934Y-104393512D01*
X155136598Y-104397701D01*
X155190127Y-104562445D01*
X155268768Y-104716788D01*
X155370586Y-104856928D01*
X155493072Y-104979414D01*
X155633212Y-105081232D01*
X155787555Y-105159873D01*
X155952299Y-105213402D01*
X156123389Y-105240500D01*
X156123390Y-105240500D01*
X156296610Y-105240500D01*
X156296611Y-105240500D01*
X156467701Y-105213402D01*
X156632445Y-105159873D01*
X156786788Y-105081232D01*
X156926928Y-104979414D01*
X157021819Y-104884523D01*
X157083142Y-104851038D01*
X157152834Y-104856022D01*
X157208767Y-104897894D01*
X157233184Y-104963358D01*
X157233500Y-104972204D01*
X157233500Y-107995939D01*
X157213815Y-108062978D01*
X157161011Y-108108733D01*
X157091853Y-108118677D01*
X157028297Y-108089652D01*
X156992459Y-108036894D01*
X156906807Y-107792118D01*
X156906801Y-107792104D01*
X156789847Y-107549247D01*
X156646429Y-107320997D01*
X156646427Y-107320993D01*
X156550653Y-107200900D01*
X156550652Y-107200899D01*
X155622289Y-108129261D01*
X155525033Y-107995398D01*
X155402602Y-107872967D01*
X155268736Y-107775709D01*
X156197099Y-106847346D01*
X156076998Y-106751568D01*
X155848752Y-106608152D01*
X155605895Y-106491198D01*
X155605881Y-106491192D01*
X155351463Y-106402167D01*
X155351451Y-106402163D01*
X155088651Y-106342181D01*
X155088633Y-106342178D01*
X154820787Y-106312000D01*
X154551212Y-106312000D01*
X154283366Y-106342178D01*
X154283348Y-106342181D01*
X154020548Y-106402163D01*
X154020536Y-106402167D01*
X153766118Y-106491192D01*
X153766104Y-106491198D01*
X153523247Y-106608152D01*
X153295001Y-106751568D01*
X153174899Y-106847345D01*
X154103263Y-107775709D01*
X153969398Y-107872967D01*
X153846967Y-107995398D01*
X153749709Y-108129262D01*
X152821345Y-107200899D01*
X152725568Y-107321001D01*
X152582152Y-107549247D01*
X152465198Y-107792104D01*
X152465192Y-107792118D01*
X152376167Y-108046536D01*
X152376163Y-108046548D01*
X152316181Y-108309348D01*
X152316178Y-108309366D01*
X152286000Y-108577212D01*
X152286000Y-108846787D01*
X152316178Y-109114633D01*
X152316181Y-109114651D01*
X152376163Y-109377451D01*
X152376167Y-109377463D01*
X152465192Y-109631881D01*
X152465198Y-109631895D01*
X152582152Y-109874752D01*
X152725568Y-110102998D01*
X152821346Y-110223099D01*
X153749708Y-109294736D01*
X153846967Y-109428602D01*
X153969398Y-109551033D01*
X154103262Y-109648290D01*
X153174899Y-110576652D01*
X153174900Y-110576653D01*
X153294993Y-110672427D01*
X153294997Y-110672429D01*
X153523247Y-110815847D01*
X153766104Y-110932801D01*
X153766118Y-110932807D01*
X154010895Y-111018459D01*
X154067671Y-111059180D01*
X154093418Y-111124133D01*
X154079962Y-111192695D01*
X154031574Y-111243097D01*
X153969940Y-111259500D01*
X153352611Y-111259500D01*
X153347743Y-111259404D01*
X153305586Y-111257747D01*
X152973780Y-111244710D01*
X152964074Y-111243946D01*
X152594829Y-111200242D01*
X152585213Y-111198719D01*
X152220542Y-111126182D01*
X152211075Y-111123909D01*
X151853199Y-111022978D01*
X151843939Y-111019970D01*
X151495098Y-110891278D01*
X151486103Y-110887552D01*
X151148437Y-110731887D01*
X151139762Y-110727467D01*
X150815349Y-110545790D01*
X150807047Y-110540703D01*
X150678498Y-110454811D01*
X150497869Y-110334121D01*
X150490014Y-110328414D01*
X150349776Y-110217861D01*
X150198001Y-110098212D01*
X150190598Y-110091889D01*
X149916110Y-109838161D01*
X149912599Y-109834785D01*
X148739236Y-108661421D01*
X147921635Y-107843820D01*
X147921503Y-107843704D01*
X147825818Y-107748019D01*
X147825814Y-107748015D01*
X147825804Y-107748005D01*
X147509436Y-107473869D01*
X147174317Y-107223001D01*
X146822155Y-106996679D01*
X146822152Y-106996677D01*
X146548673Y-106847346D01*
X146454745Y-106796057D01*
X146454686Y-106796030D01*
X146073966Y-106622160D01*
X146073963Y-106622159D01*
X146073959Y-106622157D01*
X145681737Y-106475864D01*
X145627549Y-106459953D01*
X145280075Y-106357924D01*
X144871031Y-106268941D01*
X144456674Y-106209365D01*
X144039126Y-106179500D01*
X144039124Y-106179500D01*
X143895707Y-106179500D01*
X143241586Y-106179500D01*
X143241450Y-106179460D01*
X143190184Y-106179460D01*
X142980874Y-106179460D01*
X142980873Y-106179460D01*
X142563321Y-106209326D01*
X142148958Y-106268904D01*
X141739915Y-106357888D01*
X141338259Y-106475829D01*
X141338223Y-106475841D01*
X140946036Y-106622122D01*
X140662598Y-106751568D01*
X140565240Y-106796031D01*
X140393071Y-106890044D01*
X140197835Y-106996654D01*
X139845659Y-107222990D01*
X139510562Y-107473847D01*
X139510556Y-107473851D01*
X139194193Y-107747989D01*
X139194165Y-107748015D01*
X139070845Y-107871339D01*
X139070844Y-107871340D01*
X137107736Y-109834449D01*
X137104226Y-109837824D01*
X136829384Y-110091885D01*
X136821981Y-110098208D01*
X136529981Y-110328403D01*
X136522104Y-110334126D01*
X136212942Y-110540704D01*
X136204640Y-110545791D01*
X135880240Y-110727464D01*
X135871565Y-110731885D01*
X135533889Y-110887557D01*
X135524894Y-110891283D01*
X135176043Y-111019982D01*
X135166783Y-111022990D01*
X134808930Y-111123916D01*
X134799462Y-111126189D01*
X134434784Y-111198728D01*
X134425168Y-111200251D01*
X134055924Y-111243956D01*
X134046218Y-111244720D01*
X133709512Y-111257950D01*
X133672511Y-111259404D01*
X133667644Y-111259500D01*
X127970060Y-111259500D01*
X127903021Y-111239815D01*
X127857266Y-111187011D01*
X127847322Y-111117853D01*
X127876347Y-111054297D01*
X127929105Y-111018459D01*
X128173881Y-110932807D01*
X128173895Y-110932801D01*
X128416752Y-110815847D01*
X128644999Y-110672431D01*
X128765098Y-110576653D01*
X128765099Y-110576652D01*
X127836737Y-109648290D01*
X127970602Y-109551033D01*
X128093033Y-109428602D01*
X128190290Y-109294737D01*
X129118652Y-110223099D01*
X129118653Y-110223098D01*
X129214431Y-110102999D01*
X129357847Y-109874752D01*
X129474801Y-109631895D01*
X129474807Y-109631881D01*
X129563832Y-109377463D01*
X129563836Y-109377451D01*
X129623818Y-109114651D01*
X129623821Y-109114633D01*
X129653999Y-108846787D01*
X129654000Y-108846783D01*
X129654000Y-108577216D01*
X129653999Y-108577212D01*
X129623821Y-108309366D01*
X129623818Y-108309348D01*
X129563836Y-108046548D01*
X129563832Y-108046536D01*
X129474807Y-107792118D01*
X129474801Y-107792104D01*
X129357847Y-107549247D01*
X129214429Y-107320997D01*
X129214427Y-107320993D01*
X129118653Y-107200900D01*
X129118652Y-107200899D01*
X128190290Y-108129262D01*
X128093033Y-107995398D01*
X127970602Y-107872967D01*
X127836736Y-107775709D01*
X128765099Y-106847346D01*
X128644998Y-106751568D01*
X128416752Y-106608152D01*
X128173895Y-106491198D01*
X128173881Y-106491192D01*
X127919463Y-106402167D01*
X127919451Y-106402163D01*
X127656651Y-106342181D01*
X127656633Y-106342178D01*
X127388787Y-106312000D01*
X127119212Y-106312000D01*
X126851366Y-106342178D01*
X126851348Y-106342181D01*
X126588548Y-106402163D01*
X126588536Y-106402167D01*
X126334118Y-106491192D01*
X126334104Y-106491198D01*
X126091247Y-106608152D01*
X125863001Y-106751568D01*
X125742899Y-106847345D01*
X126671263Y-107775709D01*
X126537398Y-107872967D01*
X126414967Y-107995398D01*
X126317709Y-108129262D01*
X125389345Y-107200899D01*
X125293568Y-107321001D01*
X125150152Y-107549247D01*
X125033198Y-107792104D01*
X125033192Y-107792118D01*
X124947541Y-108036894D01*
X124906820Y-108093670D01*
X124841867Y-108119417D01*
X124773305Y-108105961D01*
X124722902Y-108057573D01*
X124706500Y-107995939D01*
X124706500Y-105246635D01*
X124726185Y-105179596D01*
X124778989Y-105133841D01*
X124848147Y-105123897D01*
X124903386Y-105146317D01*
X125048650Y-105251859D01*
X125230968Y-105344755D01*
X125425582Y-105407990D01*
X125627683Y-105440000D01*
X125832317Y-105440000D01*
X126034417Y-105407990D01*
X126229031Y-105344755D01*
X126411349Y-105251859D01*
X126455921Y-105219474D01*
X125757447Y-104521000D01*
X125780160Y-104521000D01*
X125877061Y-104495036D01*
X125963940Y-104444876D01*
X126034876Y-104373940D01*
X126085036Y-104287061D01*
X126111000Y-104190160D01*
X126111000Y-104167447D01*
X126809474Y-104865921D01*
X126841859Y-104821349D01*
X126934755Y-104639029D01*
X126986952Y-104478386D01*
X127026389Y-104420710D01*
X127090748Y-104393512D01*
X127159594Y-104405427D01*
X127211070Y-104452671D01*
X127222814Y-104478385D01*
X127250128Y-104562449D01*
X127328768Y-104716788D01*
X127430586Y-104856928D01*
X127553072Y-104979414D01*
X127693212Y-105081232D01*
X127847555Y-105159873D01*
X128012299Y-105213402D01*
X128183389Y-105240500D01*
X128183390Y-105240500D01*
X128356610Y-105240500D01*
X128356611Y-105240500D01*
X128527701Y-105213402D01*
X128692445Y-105159873D01*
X128846788Y-105081232D01*
X128986928Y-104979414D01*
X129109414Y-104856928D01*
X129211232Y-104716788D01*
X129289873Y-104562445D01*
X129343402Y-104397701D01*
X129370500Y-104226611D01*
X129370500Y-104053389D01*
X129709500Y-104053389D01*
X129709500Y-104226610D01*
X129735934Y-104393512D01*
X129736598Y-104397701D01*
X129790127Y-104562445D01*
X129868768Y-104716788D01*
X129970586Y-104856928D01*
X130093072Y-104979414D01*
X130233212Y-105081232D01*
X130387555Y-105159873D01*
X130552299Y-105213402D01*
X130723389Y-105240500D01*
X130723390Y-105240500D01*
X130896610Y-105240500D01*
X130896611Y-105240500D01*
X131067701Y-105213402D01*
X131232445Y-105159873D01*
X131386788Y-105081232D01*
X131526928Y-104979414D01*
X131649414Y-104856928D01*
X131751232Y-104716788D01*
X131829873Y-104562445D01*
X131857186Y-104478384D01*
X131896622Y-104420711D01*
X131960981Y-104393512D01*
X132029827Y-104405427D01*
X132081303Y-104452671D01*
X132093047Y-104478385D01*
X132145244Y-104639031D01*
X132238141Y-104821350D01*
X132238147Y-104821359D01*
X132270523Y-104865921D01*
X132270524Y-104865922D01*
X132901983Y-104234463D01*
X132923958Y-104316473D01*
X132984149Y-104420727D01*
X133069273Y-104505851D01*
X133173527Y-104566042D01*
X133255535Y-104588016D01*
X132624076Y-105219474D01*
X132668650Y-105251859D01*
X132850968Y-105344755D01*
X133045582Y-105407990D01*
X133247683Y-105440000D01*
X133452317Y-105440000D01*
X133654417Y-105407990D01*
X133849031Y-105344755D01*
X134031349Y-105251859D01*
X134075921Y-105219474D01*
X133444463Y-104588016D01*
X133526473Y-104566042D01*
X133630727Y-104505851D01*
X133715851Y-104420727D01*
X133776042Y-104316473D01*
X133798016Y-104234464D01*
X134429474Y-104865922D01*
X134429474Y-104865921D01*
X134461861Y-104821347D01*
X134461861Y-104821346D01*
X134509515Y-104727820D01*
X134557489Y-104677024D01*
X134625310Y-104660228D01*
X134691445Y-104682765D01*
X134730485Y-104727819D01*
X134778141Y-104821350D01*
X134778147Y-104821359D01*
X134810523Y-104865921D01*
X134810524Y-104865922D01*
X135441983Y-104234463D01*
X135463958Y-104316473D01*
X135524149Y-104420727D01*
X135609273Y-104505851D01*
X135713527Y-104566042D01*
X135795535Y-104588016D01*
X135164076Y-105219474D01*
X135208650Y-105251859D01*
X135390968Y-105344755D01*
X135585582Y-105407990D01*
X135787683Y-105440000D01*
X135992317Y-105440000D01*
X136194417Y-105407990D01*
X136389031Y-105344755D01*
X136571349Y-105251859D01*
X136615921Y-105219474D01*
X135984463Y-104588016D01*
X136066473Y-104566042D01*
X136170727Y-104505851D01*
X136255851Y-104420727D01*
X136316042Y-104316473D01*
X136338016Y-104234464D01*
X136969474Y-104865922D01*
X136969474Y-104865921D01*
X137001859Y-104821349D01*
X137094755Y-104639029D01*
X137146952Y-104478386D01*
X137186389Y-104420710D01*
X137250748Y-104393512D01*
X137319594Y-104405427D01*
X137371070Y-104452671D01*
X137382814Y-104478385D01*
X137410128Y-104562449D01*
X137488768Y-104716788D01*
X137590586Y-104856928D01*
X137713072Y-104979414D01*
X137853212Y-105081232D01*
X138007555Y-105159873D01*
X138172299Y-105213402D01*
X138343389Y-105240500D01*
X138343390Y-105240500D01*
X138516610Y-105240500D01*
X138516611Y-105240500D01*
X138687701Y-105213402D01*
X138852445Y-105159873D01*
X139006788Y-105081232D01*
X139146928Y-104979414D01*
X139269414Y-104856928D01*
X139371232Y-104716788D01*
X139449873Y-104562445D01*
X139503402Y-104397701D01*
X139530500Y-104226611D01*
X139530500Y-104053389D01*
X139869500Y-104053389D01*
X139869500Y-104226610D01*
X139895934Y-104393512D01*
X139896598Y-104397701D01*
X139950127Y-104562445D01*
X140028768Y-104716788D01*
X140130586Y-104856928D01*
X140253072Y-104979414D01*
X140393212Y-105081232D01*
X140547555Y-105159873D01*
X140712299Y-105213402D01*
X140883389Y-105240500D01*
X140883390Y-105240500D01*
X141056610Y-105240500D01*
X141056611Y-105240500D01*
X141227701Y-105213402D01*
X141392445Y-105159873D01*
X141546788Y-105081232D01*
X141686928Y-104979414D01*
X141809414Y-104856928D01*
X141911232Y-104716788D01*
X141989873Y-104562445D01*
X142043402Y-104397701D01*
X142070500Y-104226611D01*
X142070500Y-104053389D01*
X142409500Y-104053389D01*
X142409500Y-104226610D01*
X142435934Y-104393512D01*
X142436598Y-104397701D01*
X142490127Y-104562445D01*
X142568768Y-104716788D01*
X142670586Y-104856928D01*
X142793072Y-104979414D01*
X142933212Y-105081232D01*
X143087555Y-105159873D01*
X143252299Y-105213402D01*
X143423389Y-105240500D01*
X143423390Y-105240500D01*
X143596610Y-105240500D01*
X143596611Y-105240500D01*
X143767701Y-105213402D01*
X143932445Y-105159873D01*
X144086788Y-105081232D01*
X144226928Y-104979414D01*
X144349414Y-104856928D01*
X144451232Y-104716788D01*
X144529873Y-104562445D01*
X144583402Y-104397701D01*
X144610500Y-104226611D01*
X144610500Y-104053389D01*
X144949500Y-104053389D01*
X144949500Y-104226610D01*
X144975934Y-104393512D01*
X144976598Y-104397701D01*
X145030127Y-104562445D01*
X145108768Y-104716788D01*
X145210586Y-104856928D01*
X145333072Y-104979414D01*
X145473212Y-105081232D01*
X145627555Y-105159873D01*
X145792299Y-105213402D01*
X145963389Y-105240500D01*
X145963390Y-105240500D01*
X146136610Y-105240500D01*
X146136611Y-105240500D01*
X146307701Y-105213402D01*
X146472445Y-105159873D01*
X146626788Y-105081232D01*
X146766928Y-104979414D01*
X146889414Y-104856928D01*
X146991232Y-104716788D01*
X147069873Y-104562445D01*
X147123402Y-104397701D01*
X147150500Y-104226611D01*
X147150500Y-104053389D01*
X147489500Y-104053389D01*
X147489500Y-104226610D01*
X147515934Y-104393512D01*
X147516598Y-104397701D01*
X147570127Y-104562445D01*
X147648768Y-104716788D01*
X147750586Y-104856928D01*
X147873072Y-104979414D01*
X148013212Y-105081232D01*
X148167555Y-105159873D01*
X148332299Y-105213402D01*
X148503389Y-105240500D01*
X148503390Y-105240500D01*
X148676610Y-105240500D01*
X148676611Y-105240500D01*
X148847701Y-105213402D01*
X149012445Y-105159873D01*
X149166788Y-105081232D01*
X149306928Y-104979414D01*
X149429414Y-104856928D01*
X149531232Y-104716788D01*
X149609873Y-104562445D01*
X149663402Y-104397701D01*
X149690500Y-104226611D01*
X149690500Y-104053389D01*
X150029500Y-104053389D01*
X150029500Y-104226610D01*
X150055934Y-104393512D01*
X150056598Y-104397701D01*
X150110127Y-104562445D01*
X150188768Y-104716788D01*
X150290586Y-104856928D01*
X150413072Y-104979414D01*
X150553212Y-105081232D01*
X150707555Y-105159873D01*
X150872299Y-105213402D01*
X151043389Y-105240500D01*
X151043390Y-105240500D01*
X151216610Y-105240500D01*
X151216611Y-105240500D01*
X151387701Y-105213402D01*
X151552445Y-105159873D01*
X151706788Y-105081232D01*
X151846928Y-104979414D01*
X151969414Y-104856928D01*
X152071232Y-104716788D01*
X152149873Y-104562445D01*
X152203402Y-104397701D01*
X152230500Y-104226611D01*
X152230500Y-104053389D01*
X152569500Y-104053389D01*
X152569500Y-104226610D01*
X152595934Y-104393512D01*
X152596598Y-104397701D01*
X152650127Y-104562445D01*
X152728768Y-104716788D01*
X152830586Y-104856928D01*
X152953072Y-104979414D01*
X153093212Y-105081232D01*
X153247555Y-105159873D01*
X153412299Y-105213402D01*
X153583389Y-105240500D01*
X153583390Y-105240500D01*
X153756610Y-105240500D01*
X153756611Y-105240500D01*
X153927701Y-105213402D01*
X154092445Y-105159873D01*
X154246788Y-105081232D01*
X154386928Y-104979414D01*
X154509414Y-104856928D01*
X154611232Y-104716788D01*
X154689873Y-104562445D01*
X154743402Y-104397701D01*
X154770500Y-104226611D01*
X154770500Y-104053389D01*
X154743402Y-103882299D01*
X154689873Y-103717555D01*
X154611232Y-103563212D01*
X154509414Y-103423072D01*
X154386928Y-103300586D01*
X154246788Y-103198768D01*
X154092445Y-103120127D01*
X153927701Y-103066598D01*
X153927699Y-103066597D01*
X153927698Y-103066597D01*
X153796271Y-103045781D01*
X153756611Y-103039500D01*
X153583389Y-103039500D01*
X153543728Y-103045781D01*
X153412302Y-103066597D01*
X153247552Y-103120128D01*
X153093211Y-103198768D01*
X153013256Y-103256859D01*
X152953072Y-103300586D01*
X152953070Y-103300588D01*
X152953069Y-103300588D01*
X152830588Y-103423069D01*
X152830588Y-103423070D01*
X152830586Y-103423072D01*
X152804737Y-103458650D01*
X152728768Y-103563211D01*
X152650128Y-103717552D01*
X152596597Y-103882302D01*
X152569500Y-104053389D01*
X152230500Y-104053389D01*
X152203402Y-103882299D01*
X152149873Y-103717555D01*
X152071232Y-103563212D01*
X151969414Y-103423072D01*
X151846928Y-103300586D01*
X151706788Y-103198768D01*
X151552445Y-103120127D01*
X151387701Y-103066598D01*
X151387699Y-103066597D01*
X151387698Y-103066597D01*
X151256271Y-103045781D01*
X151216611Y-103039500D01*
X151043389Y-103039500D01*
X151003728Y-103045781D01*
X150872302Y-103066597D01*
X150707552Y-103120128D01*
X150553211Y-103198768D01*
X150473256Y-103256859D01*
X150413072Y-103300586D01*
X150413070Y-103300588D01*
X150413069Y-103300588D01*
X150290588Y-103423069D01*
X150290588Y-103423070D01*
X150290586Y-103423072D01*
X150264737Y-103458650D01*
X150188768Y-103563211D01*
X150110128Y-103717552D01*
X150056597Y-103882302D01*
X150029500Y-104053389D01*
X149690500Y-104053389D01*
X149663402Y-103882299D01*
X149609873Y-103717555D01*
X149531232Y-103563212D01*
X149429414Y-103423072D01*
X149306928Y-103300586D01*
X149166788Y-103198768D01*
X149012445Y-103120127D01*
X148847701Y-103066598D01*
X148847699Y-103066597D01*
X148847698Y-103066597D01*
X148716271Y-103045781D01*
X148676611Y-103039500D01*
X148503389Y-103039500D01*
X148463728Y-103045781D01*
X148332302Y-103066597D01*
X148167552Y-103120128D01*
X148013211Y-103198768D01*
X147933256Y-103256859D01*
X147873072Y-103300586D01*
X147873070Y-103300588D01*
X147873069Y-103300588D01*
X147750588Y-103423069D01*
X147750588Y-103423070D01*
X147750586Y-103423072D01*
X147724737Y-103458650D01*
X147648768Y-103563211D01*
X147570128Y-103717552D01*
X147516597Y-103882302D01*
X147489500Y-104053389D01*
X147150500Y-104053389D01*
X147123402Y-103882299D01*
X147069873Y-103717555D01*
X146991232Y-103563212D01*
X146889414Y-103423072D01*
X146766928Y-103300586D01*
X146626788Y-103198768D01*
X146472445Y-103120127D01*
X146307701Y-103066598D01*
X146307699Y-103066597D01*
X146307698Y-103066597D01*
X146176271Y-103045781D01*
X146136611Y-103039500D01*
X145963389Y-103039500D01*
X145923728Y-103045781D01*
X145792302Y-103066597D01*
X145627552Y-103120128D01*
X145473211Y-103198768D01*
X145393256Y-103256859D01*
X145333072Y-103300586D01*
X145333070Y-103300588D01*
X145333069Y-103300588D01*
X145210588Y-103423069D01*
X145210588Y-103423070D01*
X145210586Y-103423072D01*
X145184737Y-103458650D01*
X145108768Y-103563211D01*
X145030128Y-103717552D01*
X144976597Y-103882302D01*
X144949500Y-104053389D01*
X144610500Y-104053389D01*
X144583402Y-103882299D01*
X144529873Y-103717555D01*
X144451232Y-103563212D01*
X144349414Y-103423072D01*
X144226928Y-103300586D01*
X144086788Y-103198768D01*
X143932445Y-103120127D01*
X143767701Y-103066598D01*
X143767699Y-103066597D01*
X143767698Y-103066597D01*
X143636271Y-103045781D01*
X143596611Y-103039500D01*
X143423389Y-103039500D01*
X143383728Y-103045781D01*
X143252302Y-103066597D01*
X143087552Y-103120128D01*
X142933211Y-103198768D01*
X142853256Y-103256859D01*
X142793072Y-103300586D01*
X142793070Y-103300588D01*
X142793069Y-103300588D01*
X142670588Y-103423069D01*
X142670588Y-103423070D01*
X142670586Y-103423072D01*
X142644737Y-103458650D01*
X142568768Y-103563211D01*
X142490128Y-103717552D01*
X142436597Y-103882302D01*
X142409500Y-104053389D01*
X142070500Y-104053389D01*
X142043402Y-103882299D01*
X141989873Y-103717555D01*
X141911232Y-103563212D01*
X141809414Y-103423072D01*
X141686928Y-103300586D01*
X141546788Y-103198768D01*
X141392445Y-103120127D01*
X141227701Y-103066598D01*
X141227699Y-103066597D01*
X141227698Y-103066597D01*
X141096271Y-103045781D01*
X141056611Y-103039500D01*
X140883389Y-103039500D01*
X140843728Y-103045781D01*
X140712302Y-103066597D01*
X140547552Y-103120128D01*
X140393211Y-103198768D01*
X140313256Y-103256859D01*
X140253072Y-103300586D01*
X140253070Y-103300588D01*
X140253069Y-103300588D01*
X140130588Y-103423069D01*
X140130588Y-103423070D01*
X140130586Y-103423072D01*
X140104737Y-103458650D01*
X140028768Y-103563211D01*
X139950128Y-103717552D01*
X139896597Y-103882302D01*
X139869500Y-104053389D01*
X139530500Y-104053389D01*
X139503402Y-103882299D01*
X139449873Y-103717555D01*
X139371232Y-103563212D01*
X139269414Y-103423072D01*
X139146928Y-103300586D01*
X139006788Y-103198768D01*
X138852445Y-103120127D01*
X138687701Y-103066598D01*
X138687699Y-103066597D01*
X138687698Y-103066597D01*
X138556271Y-103045781D01*
X138516611Y-103039500D01*
X138343389Y-103039500D01*
X138303728Y-103045781D01*
X138172302Y-103066597D01*
X138007552Y-103120128D01*
X137853211Y-103198768D01*
X137773256Y-103256859D01*
X137713072Y-103300586D01*
X137713070Y-103300588D01*
X137713069Y-103300588D01*
X137590588Y-103423069D01*
X137590588Y-103423070D01*
X137590586Y-103423072D01*
X137564737Y-103458650D01*
X137488768Y-103563211D01*
X137410129Y-103717549D01*
X137382814Y-103801615D01*
X137343375Y-103859290D01*
X137279016Y-103886487D01*
X137210170Y-103874572D01*
X137158695Y-103827327D01*
X137146952Y-103801613D01*
X137094755Y-103640970D01*
X137001859Y-103458650D01*
X136969474Y-103414077D01*
X136969474Y-103414076D01*
X136338016Y-104045535D01*
X136316042Y-103963527D01*
X136255851Y-103859273D01*
X136170727Y-103774149D01*
X136066473Y-103713958D01*
X135984462Y-103691983D01*
X136615922Y-103060524D01*
X136615921Y-103060523D01*
X136571359Y-103028147D01*
X136571350Y-103028141D01*
X136389031Y-102935244D01*
X136194417Y-102872009D01*
X135992317Y-102840000D01*
X135787683Y-102840000D01*
X135585582Y-102872009D01*
X135390968Y-102935244D01*
X135208644Y-103028143D01*
X135164077Y-103060523D01*
X135164077Y-103060524D01*
X135795536Y-103691983D01*
X135713527Y-103713958D01*
X135609273Y-103774149D01*
X135524149Y-103859273D01*
X135463958Y-103963527D01*
X135441983Y-104045536D01*
X134810524Y-103414077D01*
X134810523Y-103414077D01*
X134778143Y-103458644D01*
X134730485Y-103552180D01*
X134682510Y-103602976D01*
X134614689Y-103619771D01*
X134548554Y-103597233D01*
X134509515Y-103552180D01*
X134461859Y-103458650D01*
X134429474Y-103414077D01*
X134429474Y-103414076D01*
X133798016Y-104045535D01*
X133776042Y-103963527D01*
X133715851Y-103859273D01*
X133630727Y-103774149D01*
X133526473Y-103713958D01*
X133444462Y-103691983D01*
X134075922Y-103060524D01*
X134075921Y-103060523D01*
X134031359Y-103028147D01*
X134031350Y-103028141D01*
X133849031Y-102935244D01*
X133654417Y-102872009D01*
X133452317Y-102840000D01*
X133247683Y-102840000D01*
X133045582Y-102872009D01*
X132850968Y-102935244D01*
X132668644Y-103028143D01*
X132624077Y-103060523D01*
X132624077Y-103060524D01*
X133255536Y-103691983D01*
X133173527Y-103713958D01*
X133069273Y-103774149D01*
X132984149Y-103859273D01*
X132923958Y-103963527D01*
X132901983Y-104045536D01*
X132270524Y-103414077D01*
X132270523Y-103414077D01*
X132238143Y-103458644D01*
X132145244Y-103640968D01*
X132093047Y-103801614D01*
X132053609Y-103859289D01*
X131989250Y-103886487D01*
X131920404Y-103874572D01*
X131868928Y-103827328D01*
X131857186Y-103801615D01*
X131829873Y-103717555D01*
X131751232Y-103563212D01*
X131649414Y-103423072D01*
X131526928Y-103300586D01*
X131386788Y-103198768D01*
X131386789Y-103198768D01*
X131386787Y-103198767D01*
X131232447Y-103120128D01*
X131232446Y-103120127D01*
X131232445Y-103120127D01*
X131067701Y-103066598D01*
X131067699Y-103066597D01*
X131067698Y-103066597D01*
X130936271Y-103045781D01*
X130896611Y-103039500D01*
X130723389Y-103039500D01*
X130683728Y-103045781D01*
X130552302Y-103066597D01*
X130387552Y-103120128D01*
X130233211Y-103198768D01*
X130153256Y-103256859D01*
X130093072Y-103300586D01*
X130093070Y-103300588D01*
X130093069Y-103300588D01*
X129970588Y-103423069D01*
X129970588Y-103423070D01*
X129970586Y-103423072D01*
X129944737Y-103458650D01*
X129868768Y-103563211D01*
X129790128Y-103717552D01*
X129736597Y-103882302D01*
X129709500Y-104053389D01*
X129370500Y-104053389D01*
X129343402Y-103882299D01*
X129289873Y-103717555D01*
X129211232Y-103563212D01*
X129109414Y-103423072D01*
X128986928Y-103300586D01*
X128846788Y-103198768D01*
X128692445Y-103120127D01*
X128527701Y-103066598D01*
X128527699Y-103066597D01*
X128527698Y-103066597D01*
X128396271Y-103045781D01*
X128356611Y-103039500D01*
X128183389Y-103039500D01*
X128143728Y-103045781D01*
X128012302Y-103066597D01*
X127847552Y-103120128D01*
X127693211Y-103198768D01*
X127613256Y-103256859D01*
X127553072Y-103300586D01*
X127553070Y-103300588D01*
X127553069Y-103300588D01*
X127430588Y-103423069D01*
X127430588Y-103423070D01*
X127430586Y-103423072D01*
X127404737Y-103458650D01*
X127328768Y-103563211D01*
X127250129Y-103717549D01*
X127222814Y-103801615D01*
X127183375Y-103859290D01*
X127119016Y-103886487D01*
X127050170Y-103874572D01*
X126998695Y-103827327D01*
X126986952Y-103801613D01*
X126934755Y-103640970D01*
X126841859Y-103458650D01*
X126809474Y-103414077D01*
X126809474Y-103414076D01*
X126111000Y-104112551D01*
X126111000Y-104089840D01*
X126085036Y-103992939D01*
X126034876Y-103906060D01*
X125963940Y-103835124D01*
X125877061Y-103784964D01*
X125780160Y-103759000D01*
X125757446Y-103759000D01*
X126455922Y-103060524D01*
X126455921Y-103060523D01*
X126411359Y-103028147D01*
X126411350Y-103028141D01*
X126229031Y-102935244D01*
X126034417Y-102872009D01*
X125832317Y-102840000D01*
X125627683Y-102840000D01*
X125425582Y-102872009D01*
X125230968Y-102935244D01*
X125048650Y-103028140D01*
X124903386Y-103133682D01*
X124837579Y-103157162D01*
X124769525Y-103141337D01*
X124720831Y-103091231D01*
X124706500Y-103033364D01*
X124706500Y-100607844D01*
X127540000Y-100607844D01*
X127546401Y-100667372D01*
X127546403Y-100667379D01*
X127596645Y-100802086D01*
X127596649Y-100802093D01*
X127682809Y-100917187D01*
X127682812Y-100917190D01*
X127797906Y-101003350D01*
X127797913Y-101003354D01*
X127932620Y-101053596D01*
X127932627Y-101053598D01*
X127992155Y-101059999D01*
X127992172Y-101060000D01*
X129290000Y-101060000D01*
X129790000Y-101060000D01*
X131087828Y-101060000D01*
X131087844Y-101059999D01*
X131147372Y-101053598D01*
X131147379Y-101053596D01*
X131282086Y-101003354D01*
X131282093Y-101003350D01*
X131397187Y-100917190D01*
X131397190Y-100917187D01*
X131483350Y-100802093D01*
X131483354Y-100802086D01*
X131533596Y-100667379D01*
X131533598Y-100667372D01*
X131539999Y-100607844D01*
X131540000Y-100607827D01*
X131540000Y-100225131D01*
X147639500Y-100225131D01*
X147639500Y-102114856D01*
X147639502Y-102114882D01*
X147642413Y-102139987D01*
X147642415Y-102139991D01*
X147687793Y-102242764D01*
X147687794Y-102242765D01*
X147767235Y-102322206D01*
X147870009Y-102367585D01*
X147895135Y-102370500D01*
X150184864Y-102370499D01*
X150184879Y-102370497D01*
X150184882Y-102370497D01*
X150209987Y-102367586D01*
X150209988Y-102367585D01*
X150209991Y-102367585D01*
X150312765Y-102322206D01*
X150392206Y-102242765D01*
X150437585Y-102139991D01*
X150440500Y-102114865D01*
X150440499Y-100225136D01*
X150440497Y-100225117D01*
X150437586Y-100200012D01*
X150437585Y-100200010D01*
X150437585Y-100200009D01*
X150392206Y-100097235D01*
X150312765Y-100017794D01*
X150312763Y-100017793D01*
X150209992Y-99972415D01*
X150184865Y-99969500D01*
X147895143Y-99969500D01*
X147895117Y-99969502D01*
X147870012Y-99972413D01*
X147870008Y-99972415D01*
X147767235Y-100017793D01*
X147687794Y-100097234D01*
X147642415Y-100200006D01*
X147642415Y-100200008D01*
X147639500Y-100225131D01*
X131540000Y-100225131D01*
X131540000Y-99310000D01*
X129790000Y-99310000D01*
X129790000Y-101060000D01*
X129290000Y-101060000D01*
X129290000Y-99310000D01*
X127540000Y-99310000D01*
X127540000Y-100607844D01*
X124706500Y-100607844D01*
X124706500Y-97512155D01*
X127540000Y-97512155D01*
X127540000Y-98810000D01*
X129290000Y-98810000D01*
X129790000Y-98810000D01*
X131540000Y-98810000D01*
X131540000Y-97512172D01*
X131539999Y-97512155D01*
X131533598Y-97452627D01*
X131533596Y-97452620D01*
X131483354Y-97317913D01*
X131483350Y-97317906D01*
X131397190Y-97202812D01*
X131397187Y-97202809D01*
X131282093Y-97116649D01*
X131282086Y-97116645D01*
X131147379Y-97066403D01*
X131147372Y-97066401D01*
X131087844Y-97060000D01*
X129790000Y-97060000D01*
X129790000Y-98810000D01*
X129290000Y-98810000D01*
X129290000Y-97060000D01*
X127992155Y-97060000D01*
X127932627Y-97066401D01*
X127932620Y-97066403D01*
X127797913Y-97116645D01*
X127797906Y-97116649D01*
X127682812Y-97202809D01*
X127682809Y-97202812D01*
X127596649Y-97317906D01*
X127596645Y-97317913D01*
X127546403Y-97452620D01*
X127546401Y-97452627D01*
X127540000Y-97512155D01*
X124706500Y-97512155D01*
X124706500Y-89732204D01*
X124726185Y-89665165D01*
X124778989Y-89619410D01*
X124848147Y-89609466D01*
X124911703Y-89638491D01*
X124918181Y-89644523D01*
X125013072Y-89739414D01*
X125013075Y-89739416D01*
X125128385Y-89823194D01*
X125171051Y-89878524D01*
X125179500Y-89923512D01*
X125179500Y-90097526D01*
X125179500Y-90242474D01*
X125208954Y-90352396D01*
X125217016Y-90382485D01*
X125289489Y-90508013D01*
X125289491Y-90508016D01*
X127703181Y-92921705D01*
X127736666Y-92983028D01*
X127739500Y-93009386D01*
X127739500Y-95524856D01*
X127739502Y-95524882D01*
X127742413Y-95549987D01*
X127742415Y-95549991D01*
X127787793Y-95652764D01*
X127787794Y-95652765D01*
X127867235Y-95732206D01*
X127970009Y-95777585D01*
X127995135Y-95780500D01*
X131084864Y-95780499D01*
X131084879Y-95780497D01*
X131084882Y-95780497D01*
X131109987Y-95777586D01*
X131109988Y-95777585D01*
X131109991Y-95777585D01*
X131212765Y-95732206D01*
X131292206Y-95652765D01*
X131337585Y-95549991D01*
X131340500Y-95524865D01*
X131340500Y-94878131D01*
X133737500Y-94878131D01*
X133737500Y-96767856D01*
X133737502Y-96767882D01*
X133740413Y-96792987D01*
X133740415Y-96792991D01*
X133785793Y-96895764D01*
X133785794Y-96895765D01*
X133865235Y-96975206D01*
X133968009Y-97020585D01*
X133993135Y-97023500D01*
X135282864Y-97023499D01*
X135282879Y-97023497D01*
X135282882Y-97023497D01*
X135307987Y-97020586D01*
X135307988Y-97020585D01*
X135307991Y-97020585D01*
X135410765Y-96975206D01*
X135490206Y-96895765D01*
X135535585Y-96792991D01*
X135538500Y-96767865D01*
X135538499Y-94878136D01*
X135538497Y-94878117D01*
X135535586Y-94853012D01*
X135535585Y-94853010D01*
X135535585Y-94853009D01*
X135490206Y-94750235D01*
X135410765Y-94670794D01*
X135372273Y-94653798D01*
X135307992Y-94625415D01*
X135282865Y-94622500D01*
X133993143Y-94622500D01*
X133993117Y-94622502D01*
X133968012Y-94625413D01*
X133968008Y-94625415D01*
X133865235Y-94670793D01*
X133785794Y-94750234D01*
X133740415Y-94853006D01*
X133740415Y-94853008D01*
X133737500Y-94878131D01*
X131340500Y-94878131D01*
X131340499Y-93964865D01*
X131340499Y-92770844D01*
X135138000Y-92770844D01*
X135144401Y-92830372D01*
X135144403Y-92830379D01*
X135194645Y-92965086D01*
X135194649Y-92965093D01*
X135280809Y-93080187D01*
X135280812Y-93080190D01*
X135395906Y-93166350D01*
X135395913Y-93166354D01*
X135530620Y-93216596D01*
X135530627Y-93216598D01*
X135590155Y-93222999D01*
X135590172Y-93223000D01*
X135688000Y-93223000D01*
X135688000Y-92198000D01*
X135138000Y-92198000D01*
X135138000Y-92770844D01*
X131340499Y-92770844D01*
X131340499Y-92435143D01*
X131340499Y-92435136D01*
X131340497Y-92435117D01*
X131337586Y-92410012D01*
X131337585Y-92410010D01*
X131337585Y-92410009D01*
X131292206Y-92307235D01*
X131212765Y-92227794D01*
X131145288Y-92198000D01*
X131109992Y-92182415D01*
X131084868Y-92179500D01*
X131084865Y-92179500D01*
X128569387Y-92179500D01*
X128502348Y-92159815D01*
X128481706Y-92143181D01*
X127463680Y-91125155D01*
X135138000Y-91125155D01*
X135138000Y-91698000D01*
X135688000Y-91698000D01*
X135688000Y-90673000D01*
X135590155Y-90673000D01*
X135530627Y-90679401D01*
X135530620Y-90679403D01*
X135395913Y-90729645D01*
X135395906Y-90729649D01*
X135280812Y-90815809D01*
X135280809Y-90815812D01*
X135194649Y-90930906D01*
X135194645Y-90930913D01*
X135144403Y-91065620D01*
X135144401Y-91065627D01*
X135138000Y-91125155D01*
X127463680Y-91125155D01*
X126335874Y-89997349D01*
X126302389Y-89936026D01*
X126307373Y-89866334D01*
X126349245Y-89810401D01*
X126350626Y-89809381D01*
X126446928Y-89739414D01*
X126569414Y-89616928D01*
X126671232Y-89476788D01*
X126749873Y-89322445D01*
X126803402Y-89157701D01*
X126830500Y-88986611D01*
X126830500Y-88813389D01*
X127169500Y-88813389D01*
X127169500Y-88986610D01*
X127196597Y-89157697D01*
X127196597Y-89157699D01*
X127196598Y-89157701D01*
X127250127Y-89322445D01*
X127328768Y-89476788D01*
X127430586Y-89616928D01*
X127553072Y-89739414D01*
X127693212Y-89841232D01*
X127847555Y-89919873D01*
X128012299Y-89973402D01*
X128183389Y-90000500D01*
X128183390Y-90000500D01*
X128356610Y-90000500D01*
X128356611Y-90000500D01*
X128527701Y-89973402D01*
X128692445Y-89919873D01*
X128846788Y-89841232D01*
X128986928Y-89739414D01*
X129109414Y-89616928D01*
X129211232Y-89476788D01*
X129289873Y-89322445D01*
X129343402Y-89157701D01*
X129370500Y-88986611D01*
X129370500Y-88813389D01*
X129709500Y-88813389D01*
X129709500Y-88986610D01*
X129736597Y-89157697D01*
X129736597Y-89157699D01*
X129736598Y-89157701D01*
X129790127Y-89322445D01*
X129868768Y-89476788D01*
X129970586Y-89616928D01*
X130093072Y-89739414D01*
X130233212Y-89841232D01*
X130387555Y-89919873D01*
X130552299Y-89973402D01*
X130723389Y-90000500D01*
X130723390Y-90000500D01*
X130896610Y-90000500D01*
X130896611Y-90000500D01*
X131067701Y-89973402D01*
X131232445Y-89919873D01*
X131386788Y-89841232D01*
X131526928Y-89739414D01*
X131649414Y-89616928D01*
X131751232Y-89476788D01*
X131829873Y-89322445D01*
X131883402Y-89157701D01*
X131910500Y-88986611D01*
X131910500Y-88813389D01*
X132249500Y-88813389D01*
X132249500Y-88986610D01*
X132276597Y-89157697D01*
X132276597Y-89157699D01*
X132276598Y-89157701D01*
X132330127Y-89322445D01*
X132408768Y-89476788D01*
X132510586Y-89616928D01*
X132633072Y-89739414D01*
X132773212Y-89841232D01*
X132927555Y-89919873D01*
X133092299Y-89973402D01*
X133263389Y-90000500D01*
X133263390Y-90000500D01*
X133436610Y-90000500D01*
X133436611Y-90000500D01*
X133607701Y-89973402D01*
X133772445Y-89919873D01*
X133926788Y-89841232D01*
X134066928Y-89739414D01*
X134189414Y-89616928D01*
X134291232Y-89476788D01*
X134369873Y-89322445D01*
X134423402Y-89157701D01*
X134450500Y-88986611D01*
X134450500Y-88813389D01*
X134789500Y-88813389D01*
X134789500Y-88986610D01*
X134816597Y-89157697D01*
X134816597Y-89157699D01*
X134816598Y-89157701D01*
X134870127Y-89322445D01*
X134948768Y-89476788D01*
X135050586Y-89616928D01*
X135173072Y-89739414D01*
X135313212Y-89841232D01*
X135467555Y-89919873D01*
X135632299Y-89973402D01*
X135803389Y-90000500D01*
X135803390Y-90000500D01*
X135976610Y-90000500D01*
X135976611Y-90000500D01*
X136147701Y-89973402D01*
X136210232Y-89953083D01*
X136225442Y-89952649D01*
X136239702Y-89947331D01*
X136259657Y-89951672D01*
X136280071Y-89951089D01*
X136294158Y-89959177D01*
X136307975Y-89962183D01*
X136336227Y-89983330D01*
X136451182Y-90098285D01*
X136484666Y-90159606D01*
X136487500Y-90185965D01*
X136487500Y-90556636D01*
X136467815Y-90623675D01*
X136415011Y-90669430D01*
X136350244Y-90679925D01*
X136285844Y-90673000D01*
X136188000Y-90673000D01*
X136188000Y-93223000D01*
X136285828Y-93223000D01*
X136285839Y-93222999D01*
X136350242Y-93216074D01*
X136419002Y-93228478D01*
X136470140Y-93276087D01*
X136487500Y-93339363D01*
X136487500Y-97119309D01*
X136501674Y-97172206D01*
X136518201Y-97233887D01*
X136577511Y-97336614D01*
X138871386Y-99630489D01*
X138974113Y-99689799D01*
X138998321Y-99696284D01*
X138998324Y-99696286D01*
X138998325Y-99696286D01*
X139028447Y-99704357D01*
X139088691Y-99720500D01*
X139088693Y-99720500D01*
X145863743Y-99720500D01*
X145863751Y-99720499D01*
X146484856Y-99720499D01*
X146484864Y-99720499D01*
X146484879Y-99720497D01*
X146484882Y-99720497D01*
X146509987Y-99717586D01*
X146509988Y-99717585D01*
X146509991Y-99717585D01*
X146612765Y-99672206D01*
X146692206Y-99592765D01*
X146737585Y-99489991D01*
X146740500Y-99464865D01*
X146740499Y-99381694D01*
X146760183Y-99314658D01*
X146790194Y-99282425D01*
X146797188Y-99277189D01*
X146883352Y-99162088D01*
X146883354Y-99162086D01*
X146933596Y-99027379D01*
X146933598Y-99027372D01*
X146939999Y-98967844D01*
X146940000Y-98967827D01*
X146940000Y-98920000D01*
X146716333Y-98920000D01*
X146687880Y-98911645D01*
X146658797Y-98905843D01*
X146652596Y-98901284D01*
X146649294Y-98900315D01*
X146630181Y-98885184D01*
X146629416Y-98884445D01*
X146612765Y-98867794D01*
X146611685Y-98867317D01*
X146603266Y-98859184D01*
X146590938Y-98837507D01*
X146575165Y-98818190D01*
X146573964Y-98807659D01*
X146568726Y-98798449D01*
X146570074Y-98773547D01*
X146567249Y-98748770D01*
X146571930Y-98739264D01*
X146572504Y-98728682D01*
X146587102Y-98708460D01*
X146598121Y-98686090D01*
X146604699Y-98680390D01*
X146604640Y-98680331D01*
X146628652Y-98656319D01*
X146689975Y-98622834D01*
X146716333Y-98620000D01*
X146940000Y-98620000D01*
X146940000Y-98572172D01*
X146939999Y-98572155D01*
X146933598Y-98512627D01*
X146933596Y-98512620D01*
X146883354Y-98377913D01*
X146883352Y-98377911D01*
X146797190Y-98262813D01*
X146797185Y-98262807D01*
X146790185Y-98257567D01*
X146789264Y-98256336D01*
X146787836Y-98255765D01*
X146768384Y-98228442D01*
X146748316Y-98201632D01*
X146747919Y-98199695D01*
X146747314Y-98198846D01*
X146745353Y-98187183D01*
X146740639Y-98164189D01*
X146740499Y-98161247D01*
X146740499Y-98075136D01*
X146737585Y-98050009D01*
X146734927Y-98043990D01*
X146734067Y-98025885D01*
X146738282Y-98008518D01*
X146738282Y-97999460D01*
X146736510Y-97999255D01*
X146737585Y-97989991D01*
X146740500Y-97964865D01*
X146740500Y-97844500D01*
X146760185Y-97777461D01*
X146812989Y-97731706D01*
X146864500Y-97720500D01*
X147548548Y-97720500D01*
X147548549Y-97720500D01*
X147638913Y-97696286D01*
X147663127Y-97689799D01*
X147765854Y-97630489D01*
X148034024Y-97362318D01*
X148095345Y-97328835D01*
X148105521Y-97327061D01*
X148112665Y-97326120D01*
X148112677Y-97326120D01*
X148265404Y-97285197D01*
X148402336Y-97206140D01*
X148514140Y-97094336D01*
X148593197Y-96957404D01*
X148634120Y-96804677D01*
X148634120Y-96646563D01*
X148593197Y-96493836D01*
X148539324Y-96400524D01*
X148514144Y-96356910D01*
X148514138Y-96356902D01*
X148402337Y-96245101D01*
X148402332Y-96245097D01*
X148337163Y-96207472D01*
X148288947Y-96156905D01*
X148275724Y-96088298D01*
X148277715Y-96077263D01*
X148278500Y-96071307D01*
X148278500Y-93212177D01*
X148278500Y-93212171D01*
X148278498Y-93212165D01*
X148278304Y-93210689D01*
X148278500Y-93209431D01*
X148278500Y-93204044D01*
X148279340Y-93204044D01*
X148289068Y-93141653D01*
X148335446Y-93089396D01*
X148401243Y-93070499D01*
X150184856Y-93070499D01*
X150184864Y-93070499D01*
X150184879Y-93070497D01*
X150184882Y-93070497D01*
X150209987Y-93067586D01*
X150209988Y-93067585D01*
X150209991Y-93067585D01*
X150312765Y-93022206D01*
X150392206Y-92942765D01*
X150437585Y-92839991D01*
X150440500Y-92814865D01*
X150440499Y-90925136D01*
X150440497Y-90925117D01*
X150437586Y-90900012D01*
X150437585Y-90900010D01*
X150437585Y-90900009D01*
X150392206Y-90797235D01*
X150312765Y-90717794D01*
X150227000Y-90679925D01*
X150209992Y-90672415D01*
X150184865Y-90669500D01*
X147895143Y-90669500D01*
X147895117Y-90669502D01*
X147870012Y-90672413D01*
X147870008Y-90672415D01*
X147767235Y-90717793D01*
X147687794Y-90797234D01*
X147642415Y-90900006D01*
X147642415Y-90900008D01*
X147639500Y-90925131D01*
X147639500Y-92146514D01*
X147619815Y-92213553D01*
X147567011Y-92259308D01*
X147497853Y-92269252D01*
X147434297Y-92240227D01*
X147427819Y-92234195D01*
X146536819Y-91343195D01*
X146503334Y-91281872D01*
X146500500Y-91255514D01*
X146500500Y-89981565D01*
X146520185Y-89914526D01*
X146568204Y-89871081D01*
X146626788Y-89841232D01*
X146766928Y-89739414D01*
X146889414Y-89616928D01*
X146991232Y-89476788D01*
X147069873Y-89322445D01*
X147123402Y-89157701D01*
X147150500Y-88986611D01*
X147150500Y-88813389D01*
X147489500Y-88813389D01*
X147489500Y-88986610D01*
X147516597Y-89157697D01*
X147516597Y-89157699D01*
X147516598Y-89157701D01*
X147570127Y-89322445D01*
X147648768Y-89476788D01*
X147750586Y-89616928D01*
X147873072Y-89739414D01*
X148013212Y-89841232D01*
X148167555Y-89919873D01*
X148332299Y-89973402D01*
X148503389Y-90000500D01*
X148503390Y-90000500D01*
X148676610Y-90000500D01*
X148676611Y-90000500D01*
X148847701Y-89973402D01*
X149012445Y-89919873D01*
X149166788Y-89841232D01*
X149306928Y-89739414D01*
X149429414Y-89616928D01*
X149531232Y-89476788D01*
X149609873Y-89322445D01*
X149663402Y-89157701D01*
X149690500Y-88986611D01*
X149690500Y-88813389D01*
X150029500Y-88813389D01*
X150029500Y-88986610D01*
X150056597Y-89157697D01*
X150056597Y-89157699D01*
X150056598Y-89157701D01*
X150110127Y-89322445D01*
X150188768Y-89476788D01*
X150290586Y-89616928D01*
X150413072Y-89739414D01*
X150553212Y-89841232D01*
X150707555Y-89919873D01*
X150872299Y-89973402D01*
X151043389Y-90000500D01*
X151043390Y-90000500D01*
X151216610Y-90000500D01*
X151216611Y-90000500D01*
X151387701Y-89973402D01*
X151552445Y-89919873D01*
X151706788Y-89841232D01*
X151846928Y-89739414D01*
X151969414Y-89616928D01*
X152071232Y-89476788D01*
X152149873Y-89322445D01*
X152203402Y-89157701D01*
X152230500Y-88986611D01*
X152230500Y-88813389D01*
X152569500Y-88813389D01*
X152569500Y-88986610D01*
X152596597Y-89157697D01*
X152596597Y-89157699D01*
X152596598Y-89157701D01*
X152650127Y-89322445D01*
X152728768Y-89476788D01*
X152830586Y-89616928D01*
X152953072Y-89739414D01*
X153093212Y-89841232D01*
X153247555Y-89919873D01*
X153412299Y-89973402D01*
X153583389Y-90000500D01*
X153583390Y-90000500D01*
X153756610Y-90000500D01*
X153756611Y-90000500D01*
X153927701Y-89973402D01*
X154092445Y-89919873D01*
X154246788Y-89841232D01*
X154386928Y-89739414D01*
X154509414Y-89616928D01*
X154611232Y-89476788D01*
X154689873Y-89322445D01*
X154743402Y-89157701D01*
X154770500Y-88986611D01*
X154770500Y-88813389D01*
X154743402Y-88642299D01*
X154689873Y-88477555D01*
X154611232Y-88323212D01*
X154509414Y-88183072D01*
X154386928Y-88060586D01*
X154246788Y-87958768D01*
X154092445Y-87880127D01*
X153927701Y-87826598D01*
X153927699Y-87826597D01*
X153927698Y-87826597D01*
X153796271Y-87805781D01*
X153756611Y-87799500D01*
X153583389Y-87799500D01*
X153543728Y-87805781D01*
X153412302Y-87826597D01*
X153247552Y-87880128D01*
X153093211Y-87958768D01*
X153013256Y-88016859D01*
X152953072Y-88060586D01*
X152953070Y-88060588D01*
X152953069Y-88060588D01*
X152830588Y-88183069D01*
X152830588Y-88183070D01*
X152830586Y-88183072D01*
X152829928Y-88183978D01*
X152728768Y-88323211D01*
X152650128Y-88477552D01*
X152596597Y-88642302D01*
X152569500Y-88813389D01*
X152230500Y-88813389D01*
X152203402Y-88642299D01*
X152149873Y-88477555D01*
X152071232Y-88323212D01*
X151969414Y-88183072D01*
X151846928Y-88060586D01*
X151706788Y-87958768D01*
X151552445Y-87880127D01*
X151387701Y-87826598D01*
X151387699Y-87826597D01*
X151387698Y-87826597D01*
X151256271Y-87805781D01*
X151216611Y-87799500D01*
X151043389Y-87799500D01*
X151003728Y-87805781D01*
X150872302Y-87826597D01*
X150707552Y-87880128D01*
X150553211Y-87958768D01*
X150473256Y-88016859D01*
X150413072Y-88060586D01*
X150413070Y-88060588D01*
X150413069Y-88060588D01*
X150290588Y-88183069D01*
X150290588Y-88183070D01*
X150290586Y-88183072D01*
X150289928Y-88183978D01*
X150188768Y-88323211D01*
X150110128Y-88477552D01*
X150056597Y-88642302D01*
X150029500Y-88813389D01*
X149690500Y-88813389D01*
X149663402Y-88642299D01*
X149609873Y-88477555D01*
X149531232Y-88323212D01*
X149429414Y-88183072D01*
X149306928Y-88060586D01*
X149166788Y-87958768D01*
X149012445Y-87880127D01*
X148847701Y-87826598D01*
X148847699Y-87826597D01*
X148847698Y-87826597D01*
X148716271Y-87805781D01*
X148676611Y-87799500D01*
X148503389Y-87799500D01*
X148463728Y-87805781D01*
X148332302Y-87826597D01*
X148167552Y-87880128D01*
X148013211Y-87958768D01*
X147933256Y-88016859D01*
X147873072Y-88060586D01*
X147873070Y-88060588D01*
X147873069Y-88060588D01*
X147750588Y-88183069D01*
X147750588Y-88183070D01*
X147750586Y-88183072D01*
X147749928Y-88183978D01*
X147648768Y-88323211D01*
X147570128Y-88477552D01*
X147516597Y-88642302D01*
X147489500Y-88813389D01*
X147150500Y-88813389D01*
X147123402Y-88642299D01*
X147069873Y-88477555D01*
X146991232Y-88323212D01*
X146889414Y-88183072D01*
X146766928Y-88060586D01*
X146626788Y-87958768D01*
X146472445Y-87880127D01*
X146307701Y-87826598D01*
X146307699Y-87826597D01*
X146307698Y-87826597D01*
X146176271Y-87805781D01*
X146136611Y-87799500D01*
X145963389Y-87799500D01*
X145923728Y-87805781D01*
X145792302Y-87826597D01*
X145627552Y-87880128D01*
X145473211Y-87958768D01*
X145393256Y-88016859D01*
X145333072Y-88060586D01*
X145333070Y-88060588D01*
X145333069Y-88060588D01*
X145210588Y-88183069D01*
X145210588Y-88183070D01*
X145210586Y-88183072D01*
X145209928Y-88183978D01*
X145108768Y-88323211D01*
X145030128Y-88477552D01*
X144976597Y-88642302D01*
X144949500Y-88813389D01*
X144949500Y-88986610D01*
X144976597Y-89157697D01*
X144976597Y-89157699D01*
X144976598Y-89157701D01*
X145030127Y-89322445D01*
X145108768Y-89476788D01*
X145210586Y-89616928D01*
X145333072Y-89739414D01*
X145389837Y-89780656D01*
X145473207Y-89841229D01*
X145473211Y-89841231D01*
X145473212Y-89841232D01*
X145531795Y-89871081D01*
X145582590Y-89919053D01*
X145599500Y-89981565D01*
X145599500Y-90815034D01*
X145579815Y-90882073D01*
X145527011Y-90927828D01*
X145457853Y-90937772D01*
X145394297Y-90908747D01*
X145387819Y-90902715D01*
X144313403Y-89828300D01*
X144279918Y-89766977D01*
X144284902Y-89697285D01*
X144313402Y-89652939D01*
X144349414Y-89616928D01*
X144451232Y-89476788D01*
X144529873Y-89322445D01*
X144583402Y-89157701D01*
X144610500Y-88986611D01*
X144610500Y-88813389D01*
X144583402Y-88642299D01*
X144529873Y-88477555D01*
X144451232Y-88323212D01*
X144349414Y-88183072D01*
X144226928Y-88060586D01*
X144086788Y-87958768D01*
X143932445Y-87880127D01*
X143767701Y-87826598D01*
X143767699Y-87826597D01*
X143767698Y-87826597D01*
X143636271Y-87805781D01*
X143596611Y-87799500D01*
X143423389Y-87799500D01*
X143383728Y-87805781D01*
X143252302Y-87826597D01*
X143087552Y-87880128D01*
X142933211Y-87958768D01*
X142853256Y-88016859D01*
X142793072Y-88060586D01*
X142793070Y-88060588D01*
X142793069Y-88060588D01*
X142670588Y-88183069D01*
X142670588Y-88183070D01*
X142670586Y-88183072D01*
X142669928Y-88183978D01*
X142568768Y-88323211D01*
X142490128Y-88477552D01*
X142436597Y-88642302D01*
X142409500Y-88813389D01*
X142409500Y-88986610D01*
X142436597Y-89157697D01*
X142436597Y-89157699D01*
X142436598Y-89157701D01*
X142490127Y-89322445D01*
X142568768Y-89476788D01*
X142670586Y-89616928D01*
X142793072Y-89739414D01*
X142849837Y-89780656D01*
X142933213Y-89841233D01*
X143006402Y-89878524D01*
X143087555Y-89919873D01*
X143123255Y-89931472D01*
X143172619Y-89961722D01*
X146318716Y-93107819D01*
X146352201Y-93169142D01*
X146347217Y-93238834D01*
X146305345Y-93294767D01*
X146239881Y-93319184D01*
X146231035Y-93319500D01*
X144299965Y-93319500D01*
X144232926Y-93299815D01*
X144212284Y-93283181D01*
X141456819Y-90527716D01*
X141423334Y-90466393D01*
X141420500Y-90440035D01*
X141420500Y-89981565D01*
X141440185Y-89914526D01*
X141488204Y-89871081D01*
X141546788Y-89841232D01*
X141686928Y-89739414D01*
X141809414Y-89616928D01*
X141911232Y-89476788D01*
X141989873Y-89322445D01*
X142043402Y-89157701D01*
X142070500Y-88986611D01*
X142070500Y-88813389D01*
X142043402Y-88642299D01*
X141989873Y-88477555D01*
X141911232Y-88323212D01*
X141809414Y-88183072D01*
X141686928Y-88060586D01*
X141546788Y-87958768D01*
X141392445Y-87880127D01*
X141227701Y-87826598D01*
X141227699Y-87826597D01*
X141227698Y-87826597D01*
X141096271Y-87805781D01*
X141056611Y-87799500D01*
X140883389Y-87799500D01*
X140843728Y-87805781D01*
X140712302Y-87826597D01*
X140547552Y-87880128D01*
X140393211Y-87958768D01*
X140313256Y-88016859D01*
X140253072Y-88060586D01*
X140253070Y-88060588D01*
X140253069Y-88060588D01*
X140130588Y-88183069D01*
X140130588Y-88183070D01*
X140130586Y-88183072D01*
X140129928Y-88183978D01*
X140028768Y-88323211D01*
X139950128Y-88477552D01*
X139896597Y-88642302D01*
X139869500Y-88813389D01*
X139869500Y-88986610D01*
X139896597Y-89157697D01*
X139896597Y-89157699D01*
X139896598Y-89157701D01*
X139950127Y-89322445D01*
X140028768Y-89476788D01*
X140125244Y-89609576D01*
X140148724Y-89675380D01*
X140132899Y-89743434D01*
X140082793Y-89792129D01*
X140014315Y-89806005D01*
X139949206Y-89780656D01*
X139937245Y-89770141D01*
X139513333Y-89346230D01*
X139479848Y-89284907D01*
X139483084Y-89220230D01*
X139503402Y-89157701D01*
X139530500Y-88986611D01*
X139530500Y-88813389D01*
X139503402Y-88642299D01*
X139449873Y-88477555D01*
X139371232Y-88323212D01*
X139269414Y-88183072D01*
X139146928Y-88060586D01*
X139006788Y-87958768D01*
X138852445Y-87880127D01*
X138687701Y-87826598D01*
X138687699Y-87826597D01*
X138687698Y-87826597D01*
X138556271Y-87805781D01*
X138516611Y-87799500D01*
X138343389Y-87799500D01*
X138303728Y-87805781D01*
X138172302Y-87826597D01*
X138007552Y-87880128D01*
X137853211Y-87958768D01*
X137773256Y-88016859D01*
X137713072Y-88060586D01*
X137713070Y-88060588D01*
X137713069Y-88060588D01*
X137590588Y-88183069D01*
X137590588Y-88183070D01*
X137590586Y-88183072D01*
X137589928Y-88183978D01*
X137488768Y-88323211D01*
X137410128Y-88477552D01*
X137356597Y-88642302D01*
X137329500Y-88813389D01*
X137329500Y-88986610D01*
X137356597Y-89157697D01*
X137356597Y-89157699D01*
X137356598Y-89157701D01*
X137410127Y-89322445D01*
X137488768Y-89476788D01*
X137590586Y-89616928D01*
X137713072Y-89739414D01*
X137853212Y-89841232D01*
X138007555Y-89919873D01*
X138172299Y-89973402D01*
X138343389Y-90000500D01*
X138343390Y-90000500D01*
X138516610Y-90000500D01*
X138516611Y-90000500D01*
X138687701Y-89973402D01*
X138750231Y-89953083D01*
X138820070Y-89951087D01*
X138876230Y-89983333D01*
X141956715Y-93063819D01*
X141990200Y-93125142D01*
X141985216Y-93194834D01*
X141943344Y-93250767D01*
X141877880Y-93275184D01*
X141869034Y-93275500D01*
X139767449Y-93275500D01*
X139700410Y-93255815D01*
X139660062Y-93213500D01*
X139624282Y-93151527D01*
X139624278Y-93151522D01*
X139512996Y-93040240D01*
X139479511Y-92978917D01*
X139484495Y-92909225D01*
X139487243Y-92902471D01*
X139490202Y-92895768D01*
X139490206Y-92895765D01*
X139535585Y-92792991D01*
X139538500Y-92767865D01*
X139538499Y-91128136D01*
X139538497Y-91128117D01*
X139535586Y-91103012D01*
X139535585Y-91103010D01*
X139535585Y-91103009D01*
X139490206Y-91000235D01*
X139410765Y-90920794D01*
X139369820Y-90902715D01*
X139307992Y-90875415D01*
X139282865Y-90872500D01*
X138593143Y-90872500D01*
X138593117Y-90872502D01*
X138568013Y-90875413D01*
X138552930Y-90882073D01*
X138488083Y-90910705D01*
X138418808Y-90919776D01*
X138387913Y-90910704D01*
X138307992Y-90875415D01*
X138282865Y-90872500D01*
X137593143Y-90872500D01*
X137593117Y-90872502D01*
X137568012Y-90875413D01*
X137568010Y-90875414D01*
X137562585Y-90877810D01*
X137493307Y-90886881D01*
X137430122Y-90857057D01*
X137393092Y-90797807D01*
X137388500Y-90764375D01*
X137388500Y-89888693D01*
X137388500Y-89888691D01*
X137357799Y-89774114D01*
X137357799Y-89774113D01*
X137357799Y-89774112D01*
X137298492Y-89671389D01*
X137298488Y-89671384D01*
X136973334Y-89346230D01*
X136939849Y-89284907D01*
X136943083Y-89220233D01*
X136963402Y-89157701D01*
X136990500Y-88986611D01*
X136990500Y-88813389D01*
X136963402Y-88642299D01*
X136909873Y-88477555D01*
X136831232Y-88323212D01*
X136729414Y-88183072D01*
X136606928Y-88060586D01*
X136466788Y-87958768D01*
X136312445Y-87880127D01*
X136147701Y-87826598D01*
X136147699Y-87826597D01*
X136147698Y-87826597D01*
X136016271Y-87805781D01*
X135976611Y-87799500D01*
X135803389Y-87799500D01*
X135763728Y-87805781D01*
X135632302Y-87826597D01*
X135467552Y-87880128D01*
X135313211Y-87958768D01*
X135233256Y-88016859D01*
X135173072Y-88060586D01*
X135173070Y-88060588D01*
X135173069Y-88060588D01*
X135050588Y-88183069D01*
X135050588Y-88183070D01*
X135050586Y-88183072D01*
X135049928Y-88183978D01*
X134948768Y-88323211D01*
X134870128Y-88477552D01*
X134816597Y-88642302D01*
X134789500Y-88813389D01*
X134450500Y-88813389D01*
X134423402Y-88642299D01*
X134369873Y-88477555D01*
X134291232Y-88323212D01*
X134189414Y-88183072D01*
X134066928Y-88060586D01*
X133926788Y-87958768D01*
X133772445Y-87880127D01*
X133607701Y-87826598D01*
X133607699Y-87826597D01*
X133607698Y-87826597D01*
X133476271Y-87805781D01*
X133436611Y-87799500D01*
X133263389Y-87799500D01*
X133223728Y-87805781D01*
X133092302Y-87826597D01*
X132927552Y-87880128D01*
X132773211Y-87958768D01*
X132693256Y-88016859D01*
X132633072Y-88060586D01*
X132633070Y-88060588D01*
X132633069Y-88060588D01*
X132510588Y-88183069D01*
X132510588Y-88183070D01*
X132510586Y-88183072D01*
X132509928Y-88183978D01*
X132408768Y-88323211D01*
X132330128Y-88477552D01*
X132276597Y-88642302D01*
X132249500Y-88813389D01*
X131910500Y-88813389D01*
X131883402Y-88642299D01*
X131829873Y-88477555D01*
X131751232Y-88323212D01*
X131649414Y-88183072D01*
X131526928Y-88060586D01*
X131386788Y-87958768D01*
X131232445Y-87880127D01*
X131067701Y-87826598D01*
X131067699Y-87826597D01*
X131067698Y-87826597D01*
X130936271Y-87805781D01*
X130896611Y-87799500D01*
X130723389Y-87799500D01*
X130683728Y-87805781D01*
X130552302Y-87826597D01*
X130387552Y-87880128D01*
X130233211Y-87958768D01*
X130153256Y-88016859D01*
X130093072Y-88060586D01*
X130093070Y-88060588D01*
X130093069Y-88060588D01*
X129970588Y-88183069D01*
X129970588Y-88183070D01*
X129970586Y-88183072D01*
X129969928Y-88183978D01*
X129868768Y-88323211D01*
X129790128Y-88477552D01*
X129736597Y-88642302D01*
X129709500Y-88813389D01*
X129370500Y-88813389D01*
X129343402Y-88642299D01*
X129289873Y-88477555D01*
X129211232Y-88323212D01*
X129109414Y-88183072D01*
X128986928Y-88060586D01*
X128846788Y-87958768D01*
X128692445Y-87880127D01*
X128527701Y-87826598D01*
X128527699Y-87826597D01*
X128527698Y-87826597D01*
X128396271Y-87805781D01*
X128356611Y-87799500D01*
X128183389Y-87799500D01*
X128143728Y-87805781D01*
X128012302Y-87826597D01*
X127847552Y-87880128D01*
X127693211Y-87958768D01*
X127613256Y-88016859D01*
X127553072Y-88060586D01*
X127553070Y-88060588D01*
X127553069Y-88060588D01*
X127430588Y-88183069D01*
X127430588Y-88183070D01*
X127430586Y-88183072D01*
X127429928Y-88183978D01*
X127328768Y-88323211D01*
X127250128Y-88477552D01*
X127196597Y-88642302D01*
X127169500Y-88813389D01*
X126830500Y-88813389D01*
X126803402Y-88642299D01*
X126749873Y-88477555D01*
X126671232Y-88323212D01*
X126569414Y-88183072D01*
X126446928Y-88060586D01*
X126306788Y-87958768D01*
X126152445Y-87880127D01*
X125987701Y-87826598D01*
X125987699Y-87826597D01*
X125987698Y-87826597D01*
X125856271Y-87805781D01*
X125816611Y-87799500D01*
X125643389Y-87799500D01*
X125603728Y-87805781D01*
X125472302Y-87826597D01*
X125307552Y-87880128D01*
X125153211Y-87958768D01*
X125073256Y-88016859D01*
X125013072Y-88060586D01*
X125013070Y-88060588D01*
X125013069Y-88060588D01*
X124918181Y-88155477D01*
X124856858Y-88188962D01*
X124787166Y-88183978D01*
X124731233Y-88142106D01*
X124706816Y-88076642D01*
X124706500Y-88067796D01*
X124706500Y-85044060D01*
X124726185Y-84977021D01*
X124778989Y-84931266D01*
X124848147Y-84921322D01*
X124911703Y-84950347D01*
X124947541Y-85003105D01*
X125033192Y-85247881D01*
X125033198Y-85247895D01*
X125150152Y-85490752D01*
X125293568Y-85718998D01*
X125389346Y-85839099D01*
X126317708Y-84910736D01*
X126414967Y-85044602D01*
X126537398Y-85167033D01*
X126671262Y-85264290D01*
X125742899Y-86192652D01*
X125742900Y-86192653D01*
X125862993Y-86288427D01*
X125862997Y-86288429D01*
X126091247Y-86431847D01*
X126334104Y-86548801D01*
X126334118Y-86548807D01*
X126588536Y-86637832D01*
X126588548Y-86637836D01*
X126851348Y-86697818D01*
X126851366Y-86697821D01*
X127119212Y-86727999D01*
X127119216Y-86728000D01*
X127388784Y-86728000D01*
X127388787Y-86727999D01*
X127656633Y-86697821D01*
X127656651Y-86697818D01*
X127919451Y-86637836D01*
X127919463Y-86637832D01*
X128173881Y-86548807D01*
X128173895Y-86548801D01*
X128416752Y-86431847D01*
X128644999Y-86288431D01*
X128765098Y-86192653D01*
X128765099Y-86192652D01*
X127836737Y-85264290D01*
X127970602Y-85167033D01*
X128093033Y-85044602D01*
X128190290Y-84910737D01*
X129118652Y-85839099D01*
X129118653Y-85839098D01*
X129214431Y-85718999D01*
X129357847Y-85490752D01*
X129474801Y-85247895D01*
X129474807Y-85247881D01*
X129563832Y-84993463D01*
X129563836Y-84993451D01*
X129623818Y-84730651D01*
X129623821Y-84730633D01*
X129653999Y-84462787D01*
X129654000Y-84462783D01*
X129654000Y-84193216D01*
X129653999Y-84193212D01*
X129623821Y-83925366D01*
X129623818Y-83925348D01*
X129563836Y-83662548D01*
X129563832Y-83662536D01*
X129474807Y-83408118D01*
X129474801Y-83408104D01*
X129357847Y-83165247D01*
X129214429Y-82936997D01*
X129214427Y-82936993D01*
X129118653Y-82816900D01*
X129118652Y-82816899D01*
X128190290Y-83745262D01*
X128093033Y-83611398D01*
X127970602Y-83488967D01*
X127836736Y-83391709D01*
X128765099Y-82463346D01*
X128644998Y-82367568D01*
X128416752Y-82224152D01*
X128173895Y-82107198D01*
X128173881Y-82107192D01*
X127929105Y-82021541D01*
X127872329Y-81980820D01*
X127846582Y-81915867D01*
X127860038Y-81847305D01*
X127908426Y-81796903D01*
X127970060Y-81780500D01*
X133603921Y-81780500D01*
X133667389Y-81780500D01*
X133672257Y-81780596D01*
G37*
%TD.AperFunction*%
%TA.AperFunction,Conductor*%
G36*
X126414967Y-109428602D02*
G01*
X126537398Y-109551033D01*
X126671262Y-109648290D01*
X125742899Y-110576652D01*
X125742900Y-110576653D01*
X125862993Y-110672427D01*
X125862997Y-110672429D01*
X126091247Y-110815847D01*
X126334104Y-110932801D01*
X126334118Y-110932807D01*
X126523859Y-110999201D01*
X126545455Y-111014690D01*
X126569007Y-111027010D01*
X126573407Y-111034738D01*
X126580635Y-111039922D01*
X126590428Y-111064629D01*
X126603581Y-111087726D01*
X126603104Y-111096607D01*
X126606382Y-111104875D01*
X126601263Y-111130953D01*
X126599841Y-111157495D01*
X126594638Y-111164708D01*
X126592926Y-111173437D01*
X126574518Y-111192610D01*
X126558974Y-111214167D01*
X126550696Y-111217423D01*
X126544538Y-111223839D01*
X126518691Y-111230016D01*
X126493956Y-111239749D01*
X126480900Y-111239048D01*
X126476582Y-111240081D01*
X126458712Y-111237859D01*
X126226111Y-111191591D01*
X126210445Y-111187393D01*
X125973213Y-111106864D01*
X125958227Y-111100657D01*
X125733539Y-110989853D01*
X125719492Y-110981743D01*
X125511188Y-110842559D01*
X125498320Y-110832685D01*
X125309966Y-110667502D01*
X125298497Y-110656033D01*
X125197355Y-110540703D01*
X125133311Y-110467675D01*
X125123440Y-110454811D01*
X124984256Y-110246507D01*
X124976146Y-110232460D01*
X124912303Y-110102999D01*
X124865339Y-110007765D01*
X124859135Y-109992786D01*
X124778606Y-109755554D01*
X124774408Y-109739888D01*
X124757086Y-109652804D01*
X124728140Y-109507283D01*
X124734367Y-109437695D01*
X124777230Y-109382518D01*
X124843120Y-109359273D01*
X124911117Y-109375341D01*
X124959632Y-109425620D01*
X124966798Y-109442140D01*
X125033192Y-109631881D01*
X125033198Y-109631895D01*
X125150152Y-109874752D01*
X125293568Y-110102998D01*
X125389346Y-110223099D01*
X126317708Y-109294736D01*
X126414967Y-109428602D01*
G37*
%TD.AperFunction*%
%TA.AperFunction,Conductor*%
G36*
X156550652Y-110223099D02*
G01*
X156550653Y-110223098D01*
X156646431Y-110102999D01*
X156789847Y-109874752D01*
X156906801Y-109631895D01*
X156906807Y-109631881D01*
X156973201Y-109442140D01*
X156988690Y-109420543D01*
X157001010Y-109396992D01*
X157008738Y-109392591D01*
X157013922Y-109385364D01*
X157038629Y-109375570D01*
X157061726Y-109362418D01*
X157070607Y-109362894D01*
X157078875Y-109359617D01*
X157104953Y-109364735D01*
X157131495Y-109366158D01*
X157138708Y-109371360D01*
X157147437Y-109373073D01*
X157166610Y-109391480D01*
X157188167Y-109407025D01*
X157191423Y-109415302D01*
X157197839Y-109421461D01*
X157204016Y-109447307D01*
X157213749Y-109472043D01*
X157213048Y-109485097D01*
X157214081Y-109489416D01*
X157211859Y-109507287D01*
X157165591Y-109739888D01*
X157161393Y-109755554D01*
X157080864Y-109992786D01*
X157074657Y-110007772D01*
X156963853Y-110232460D01*
X156955743Y-110246507D01*
X156816559Y-110454811D01*
X156806685Y-110467679D01*
X156641502Y-110656033D01*
X156630033Y-110667502D01*
X156441679Y-110832685D01*
X156428811Y-110842559D01*
X156220507Y-110981743D01*
X156206460Y-110989853D01*
X155981772Y-111100657D01*
X155966786Y-111106864D01*
X155729554Y-111187393D01*
X155713888Y-111191591D01*
X155481287Y-111237859D01*
X155411695Y-111231632D01*
X155356518Y-111188769D01*
X155333273Y-111122879D01*
X155349341Y-111054882D01*
X155399620Y-111006367D01*
X155416140Y-110999201D01*
X155605881Y-110932807D01*
X155605895Y-110932801D01*
X155848752Y-110815847D01*
X156076999Y-110672431D01*
X156197098Y-110576653D01*
X156197099Y-110576652D01*
X155268737Y-109648290D01*
X155402602Y-109551033D01*
X155525033Y-109428602D01*
X155622290Y-109294737D01*
X156550652Y-110223099D01*
G37*
%TD.AperFunction*%
%TA.AperFunction,Conductor*%
G36*
X126528304Y-81808367D02*
G01*
X126583481Y-81851230D01*
X126606726Y-81917120D01*
X126590658Y-81985117D01*
X126540379Y-82033632D01*
X126523859Y-82040798D01*
X126334118Y-82107192D01*
X126334104Y-82107198D01*
X126091247Y-82224152D01*
X125863001Y-82367568D01*
X125742899Y-82463345D01*
X126671263Y-83391709D01*
X126537398Y-83488967D01*
X126414967Y-83611398D01*
X126317709Y-83745262D01*
X125389345Y-82816899D01*
X125293568Y-82937001D01*
X125150152Y-83165247D01*
X125033198Y-83408104D01*
X125033192Y-83408118D01*
X124966798Y-83597859D01*
X124951309Y-83619453D01*
X124938989Y-83643007D01*
X124931258Y-83647408D01*
X124926076Y-83654635D01*
X124901372Y-83664427D01*
X124878273Y-83677581D01*
X124869390Y-83677104D01*
X124861123Y-83680382D01*
X124835046Y-83675263D01*
X124808504Y-83673841D01*
X124801288Y-83668637D01*
X124792562Y-83666925D01*
X124773389Y-83648519D01*
X124751832Y-83632974D01*
X124748575Y-83624698D01*
X124742159Y-83618538D01*
X124735980Y-83592687D01*
X124726250Y-83567956D01*
X124726950Y-83554900D01*
X124725918Y-83550582D01*
X124728138Y-83532726D01*
X124774409Y-83300107D01*
X124778606Y-83284445D01*
X124819068Y-83165247D01*
X124859138Y-83047205D01*
X124865336Y-83032239D01*
X124976149Y-82807533D01*
X124984252Y-82793498D01*
X125123448Y-82585176D01*
X125133305Y-82572331D01*
X125298502Y-82383960D01*
X125309960Y-82372502D01*
X125498331Y-82207305D01*
X125511176Y-82197448D01*
X125719498Y-82058252D01*
X125733533Y-82050149D01*
X125958239Y-81939336D01*
X125973205Y-81933138D01*
X126143626Y-81875288D01*
X126210445Y-81852606D01*
X126226107Y-81848409D01*
X126458715Y-81802140D01*
X126528304Y-81808367D01*
G37*
%TD.AperFunction*%
%TA.AperFunction,Conductor*%
G36*
X155481275Y-81802138D02*
G01*
X155708765Y-81847389D01*
X155713888Y-81848408D01*
X155729554Y-81852606D01*
X155880736Y-81903925D01*
X155966788Y-81933136D01*
X155981765Y-81939339D01*
X156172973Y-82033632D01*
X156206460Y-82050146D01*
X156220508Y-82058256D01*
X156428815Y-82197443D01*
X156441679Y-82207314D01*
X156630033Y-82372497D01*
X156641502Y-82383966D01*
X156806685Y-82572320D01*
X156816559Y-82585188D01*
X156955743Y-82793492D01*
X156963853Y-82807539D01*
X157074657Y-83032227D01*
X157080864Y-83047213D01*
X157161393Y-83284445D01*
X157165591Y-83300111D01*
X157211859Y-83532712D01*
X157205632Y-83602304D01*
X157162769Y-83657481D01*
X157096879Y-83680726D01*
X157028882Y-83664658D01*
X156980367Y-83614379D01*
X156973201Y-83597859D01*
X156906807Y-83408118D01*
X156906801Y-83408104D01*
X156789847Y-83165247D01*
X156646429Y-82936997D01*
X156646427Y-82936993D01*
X156550653Y-82816900D01*
X156550652Y-82816899D01*
X155622289Y-83745261D01*
X155525033Y-83611398D01*
X155402602Y-83488967D01*
X155268736Y-83391709D01*
X156197099Y-82463346D01*
X156076998Y-82367568D01*
X155848752Y-82224152D01*
X155605895Y-82107198D01*
X155605881Y-82107192D01*
X155416140Y-82040798D01*
X155394545Y-82025309D01*
X155370992Y-82012989D01*
X155366590Y-82005258D01*
X155359364Y-82000076D01*
X155349571Y-81975371D01*
X155336418Y-81952273D01*
X155336894Y-81943391D01*
X155333617Y-81935124D01*
X155338735Y-81909047D01*
X155340158Y-81882504D01*
X155345361Y-81875288D01*
X155347074Y-81866562D01*
X155365479Y-81847389D01*
X155381025Y-81825832D01*
X155389300Y-81822575D01*
X155395461Y-81816159D01*
X155421311Y-81809980D01*
X155446043Y-81800250D01*
X155459098Y-81800950D01*
X155463417Y-81799918D01*
X155481275Y-81802138D01*
G37*
%TD.AperFunction*%
%TD*%
M02*
