%TF.GenerationSoftware,KiCad,Pcbnew,9.0.6*%
%TF.CreationDate,2025-11-17T19:53:22+07:00*%
%TF.ProjectId,controller,636f6e74-726f-46c6-9c65-722e6b696361,rev?*%
%TF.SameCoordinates,Original*%
%TF.FileFunction,Legend,Bot*%
%TF.FilePolarity,Positive*%
%FSLAX46Y46*%
G04 Gerber Fmt 4.6, Leading zero omitted, Abs format (unit mm)*
G04 Created by KiCad (PCBNEW 9.0.6) date 2025-11-17 19:53:22*
%MOMM*%
%LPD*%
G01*
G04 APERTURE LIST*
%ADD10C,0.100000*%
%ADD11C,0.250000*%
%ADD12C,0.120000*%
%ADD13C,3.800000*%
%ADD14C,1.600000*%
%ADD15R,1.450000X0.750000*%
G04 APERTURE END LIST*
D10*
X128608414Y-103316424D02*
X128608414Y-102744996D01*
X128608414Y-103030710D02*
X127608414Y-103030710D01*
X127608414Y-103030710D02*
X127751271Y-102935472D01*
X127751271Y-102935472D02*
X127846509Y-102840234D01*
X127846509Y-102840234D02*
X127894128Y-102744996D01*
X132350000Y-84021950D02*
X132457143Y-83986235D01*
X132457143Y-83986235D02*
X132635714Y-83986235D01*
X132635714Y-83986235D02*
X132707143Y-84021950D01*
X132707143Y-84021950D02*
X132742857Y-84057664D01*
X132742857Y-84057664D02*
X132778571Y-84129092D01*
X132778571Y-84129092D02*
X132778571Y-84200521D01*
X132778571Y-84200521D02*
X132742857Y-84271950D01*
X132742857Y-84271950D02*
X132707143Y-84307664D01*
X132707143Y-84307664D02*
X132635714Y-84343378D01*
X132635714Y-84343378D02*
X132492857Y-84379092D01*
X132492857Y-84379092D02*
X132421428Y-84414807D01*
X132421428Y-84414807D02*
X132385714Y-84450521D01*
X132385714Y-84450521D02*
X132350000Y-84521950D01*
X132350000Y-84521950D02*
X132350000Y-84593378D01*
X132350000Y-84593378D02*
X132385714Y-84664807D01*
X132385714Y-84664807D02*
X132421428Y-84700521D01*
X132421428Y-84700521D02*
X132492857Y-84736235D01*
X132492857Y-84736235D02*
X132671428Y-84736235D01*
X132671428Y-84736235D02*
X132778571Y-84700521D01*
X133028571Y-84736235D02*
X133207143Y-83986235D01*
X133207143Y-83986235D02*
X133350000Y-84521950D01*
X133350000Y-84521950D02*
X133492857Y-83986235D01*
X133492857Y-83986235D02*
X133671429Y-84736235D01*
X134350000Y-83986235D02*
X133921429Y-83986235D01*
X134135714Y-83986235D02*
X134135714Y-84736235D01*
X134135714Y-84736235D02*
X134064286Y-84629092D01*
X134064286Y-84629092D02*
X133992857Y-84557664D01*
X133992857Y-84557664D02*
X133921429Y-84521950D01*
%TO.C,U2*%
D11*
X124241609Y-87497540D02*
X157579990Y-87497540D01*
X157579990Y-105542441D01*
X124241609Y-105542441D01*
X124241609Y-87497540D01*
D12*
%TO.C,SW1*%
X131150000Y-82628000D02*
X135550000Y-82628000D01*
X131150000Y-82748000D02*
X131150000Y-82628000D01*
X131150000Y-84898000D02*
X131150000Y-83758000D01*
X131150000Y-86028000D02*
X131150000Y-85908000D01*
D10*
X132950000Y-85428000D02*
X133750000Y-85428000D01*
X133750000Y-83228000D02*
X132950000Y-83228000D01*
D12*
X135550000Y-82628000D02*
X135550000Y-82748000D01*
X135550000Y-83758000D02*
X135550000Y-84898000D01*
X135550000Y-85908000D02*
X135550000Y-86028000D01*
X135550000Y-86028000D02*
X131150000Y-86028000D01*
D10*
X131850000Y-84328000D02*
G75*
G02*
X132950000Y-83228000I1100002J-2D01*
G01*
X132950000Y-85428000D02*
G75*
G02*
X131850000Y-84328000I2J1100002D01*
G01*
X133750000Y-83228000D02*
G75*
G02*
X134850000Y-84328000I0J-1100000D01*
G01*
X134850000Y-84328000D02*
G75*
G02*
X133750000Y-85428000I-1100002J2D01*
G01*
%TD*%
%LPC*%
D13*
%TO.C,H2*%
X154686000Y-84328000D03*
%TD*%
%TO.C,H3*%
X127254000Y-108712000D03*
%TD*%
%TO.C,H4*%
X154686000Y-108712000D03*
%TD*%
D14*
%TO.C,U2*%
X128270000Y-104140000D03*
X130810000Y-104140000D03*
X133350000Y-104140000D03*
X135890000Y-104140000D03*
X138430000Y-104140000D03*
X140970000Y-104140000D03*
X143510000Y-104140000D03*
X146050000Y-104140000D03*
X148590000Y-104140000D03*
X151130000Y-104140000D03*
X153670000Y-104140000D03*
X156210000Y-104140000D03*
X156210000Y-88900000D03*
X153670000Y-88900000D03*
X151130000Y-88900000D03*
X148590000Y-88900000D03*
X146050000Y-88900000D03*
X143510000Y-88900000D03*
X140970000Y-88900000D03*
X138430000Y-88900000D03*
X135890000Y-88900000D03*
X133350000Y-88900000D03*
X130810000Y-88900000D03*
X128270000Y-88900000D03*
X125730000Y-104140000D03*
X125730000Y-88900000D03*
%TD*%
D13*
%TO.C,H1*%
X127254000Y-84328000D03*
%TD*%
D15*
%TO.C,SW1*%
X131075000Y-85453000D03*
X135625000Y-85453000D03*
X131075000Y-83203000D03*
X135625000Y-83203000D03*
%TD*%
%LPD*%
M02*
