M48
; DRILL file {KiCad 9.0.6} date 2025-11-17T19:53:22+0700
; FORMAT={-:-/ absolute / inch / decimal}
; #@! TF.CreationDate,2025-11-17T19:53:22+07:00
; #@! TF.GenerationSoftware,Kicad,Pcbnew,9.0.6
; #@! TF.FileFunction,Plated,1,2,PTH
FMAT,2
INCH
; #@! TA.AperFunction,Plated,PTH,ViaDrill
T1C0.0118
; #@! TA.AperFunction,Plated,PTH,ComponentDrill
T2C0.0300
; #@! TA.AperFunction,Plated,PTH,ComponentDrill
T3C0.0360
; #@! TA.AperFunction,Plated,PTH,ComponentDrill
T4C0.0360
; #@! TA.AperFunction,Plated,PTH,ComponentDrill
T5C0.0866
%
G90
G05
T1
X5.4306Y-3.6906
X5.4781Y-3.6819
X5.6Y-3.77
X5.6889Y-3.8464
X5.69Y-3.88
X5.6961Y-3.7764
X5.8281Y-3.8081
T2
X4.95Y-3.5
X4.95Y-4.1
T3
X6.15Y-4.1
T4
X5.05Y-3.5
X5.05Y-4.1
X5.15Y-3.5
X5.15Y-4.1
X5.25Y-3.5
X5.25Y-4.1
X5.35Y-3.5
X5.35Y-4.1
X5.45Y-3.5
X5.45Y-4.1
X5.55Y-3.5
X5.55Y-4.1
X5.65Y-3.5
X5.65Y-4.1
X5.75Y-3.5
X5.75Y-4.1
X5.85Y-3.5
X5.85Y-4.1
X5.95Y-3.5
X5.95Y-4.1
X6.05Y-3.5
X6.05Y-4.1
X6.15Y-3.5
T5
X5.01Y-3.32
X5.01Y-4.28
X6.09Y-3.32
X6.09Y-4.28
M30
