%TF.GenerationSoftware,KiCad,Pcbnew,9.0.6*%
%TF.CreationDate,2025-11-17T19:52:11+07:00*%
%TF.ProjectId,display,64697370-6c61-4792-9e6b-696361645f70,rev?*%
%TF.SameCoordinates,Original*%
%TF.FileFunction,Copper,L1,Top*%
%TF.FilePolarity,Positive*%
%FSLAX46Y46*%
G04 Gerber Fmt 4.6, Leading zero omitted, Abs format (unit mm)*
G04 Created by KiCad (PCBNEW 9.0.6) date 2025-11-17 19:52:11*
%MOMM*%
%LPD*%
G01*
G04 APERTURE LIST*
%TA.AperFunction,ComponentPad*%
%ADD10C,5.300000*%
%TD*%
%TA.AperFunction,ViaPad*%
%ADD11C,0.600000*%
%TD*%
%TA.AperFunction,Conductor*%
%ADD12C,0.300000*%
%TD*%
G04 APERTURE END LIST*
D10*
%TO.P,H4,1,1*%
%TO.N,GND*%
X154869999Y-90315000D03*
%TD*%
%TO.P,H1,1,1*%
%TO.N,GND*%
X124940000Y-112885001D03*
%TD*%
%TO.P,H3,1,1*%
%TO.N,GND*%
X154869999Y-112885001D03*
%TD*%
%TO.P,H2,1,1*%
%TO.N,GND*%
X124940000Y-90315000D03*
%TD*%
D11*
%TO.N,SPI_MOSI*%
X132015002Y-99500000D03*
%TO.N,CS*%
X129700000Y-100846124D03*
%TO.N,RES*%
X129050000Y-101510000D03*
%TO.N,TP_TINT*%
X131793245Y-104782436D03*
%TO.N,TP_TRST*%
X132666178Y-104736129D03*
%TO.N,TP_SCL*%
X132845771Y-103956545D03*
%TO.N,TP_SDA*%
X133719232Y-103910767D03*
%TO.N,D{slash}C*%
X131872119Y-101350046D03*
%TO.N,SPI_SCK*%
X131994494Y-100558269D03*
%TO.N,TP_TRST*%
X157560100Y-104300357D03*
%TO.N,D{slash}C*%
X156903363Y-101871762D03*
%TO.N,LED_K*%
X150522928Y-93626636D03*
X154746268Y-97849976D03*
%TO.N,TP_SCL*%
X156998103Y-103671372D03*
%TO.N,+3V3*%
X156976764Y-98968800D03*
X154606226Y-105053436D03*
X142375426Y-93888801D03*
%TO.N,CS*%
X154603364Y-100429665D03*
%TO.N,GND*%
X140822364Y-93573600D03*
X150347364Y-90424000D03*
X153369964Y-98501200D03*
%TO.N,TP_TINT*%
X157339022Y-105082718D03*
%TO.N,RES*%
X152457984Y-100126800D03*
%TO.N,TP_SDA*%
X154615984Y-104088362D03*
%TO.N,SPI_MOSI*%
X153737526Y-101700000D03*
%TO.N,SPI_SCK*%
X154387526Y-101200001D03*
%TO.N,GND*%
X142500000Y-102810000D03*
%TD*%
D12*
%TO.N,LED_K*%
X150522928Y-93626636D02*
X154746268Y-97849976D01*
%TO.N,+3V3*%
X157586364Y-102108000D02*
X154645107Y-105049257D01*
X142375426Y-93888801D02*
X143380827Y-92883400D01*
X156976764Y-98968800D02*
X157586364Y-99578400D01*
X150891364Y-92883400D02*
X156976764Y-98968800D01*
X157586364Y-99578400D02*
X157586364Y-102108000D01*
X154645107Y-105049257D02*
X154610405Y-105049257D01*
X154610405Y-105049257D02*
X154606226Y-105053436D01*
X143380827Y-92883400D02*
X150891364Y-92883400D01*
%TO.N,D{slash}C*%
X131872119Y-101350046D02*
X132077751Y-101350046D01*
X155498725Y-103276400D02*
X156903363Y-101871762D01*
X132077751Y-101350046D02*
X135772164Y-105044459D01*
X148137277Y-111026000D02*
X153261364Y-105901913D01*
X139722043Y-111026000D02*
X148137277Y-111026000D01*
X135772164Y-107076114D02*
X139722043Y-111026000D01*
X135772164Y-105044459D02*
X135772164Y-107076114D01*
X153261364Y-105901913D02*
X153261364Y-104502600D01*
X153261364Y-104502600D02*
X154487564Y-103276400D01*
X154487564Y-103276400D02*
X155498725Y-103276400D01*
%TO.N,SPI_SCK*%
X131994494Y-100558269D02*
X132135271Y-100699046D01*
X139929564Y-110525000D02*
X147929756Y-110525000D01*
X132135271Y-100699046D02*
X132141773Y-100699046D01*
X136273164Y-104830437D02*
X136273164Y-106868594D01*
X132141773Y-100699046D02*
X136273164Y-104830437D01*
X136273164Y-106868594D02*
X139929564Y-110525000D01*
X147929756Y-110525000D02*
X152760364Y-105694392D01*
X152760364Y-105694392D02*
X152760364Y-104295079D01*
X152760364Y-104295079D02*
X154387526Y-102667918D01*
X154387526Y-102667918D02*
X154387526Y-101200001D01*
%TO.N,TP_SDA*%
X153762364Y-106109432D02*
X153762364Y-104941982D01*
X133719232Y-103910767D02*
X135271164Y-105462699D01*
X135271164Y-107283638D02*
X139514521Y-111527000D01*
X135271164Y-105462699D02*
X135271164Y-107283638D01*
X139514521Y-111527000D02*
X148344796Y-111527000D01*
X148344796Y-111527000D02*
X153762364Y-106109432D01*
X153762364Y-104941982D02*
X154615984Y-104088362D01*
%TO.N,TP_SCL*%
X132845771Y-103956545D02*
X134770164Y-105880938D01*
X134770164Y-105880938D02*
X134770164Y-107491160D01*
X134770164Y-107491160D02*
X139307003Y-112028000D01*
X139307003Y-112028000D02*
X148552316Y-112028000D01*
X148552316Y-112028000D02*
X156908944Y-103671372D01*
X156908944Y-103671372D02*
X156998103Y-103671372D01*
%TO.N,TP_TRST*%
X157267757Y-104322372D02*
X157289772Y-104300357D01*
X132666178Y-104736129D02*
X134269164Y-106339115D01*
X157140035Y-104322372D02*
X157267757Y-104322372D01*
X134269164Y-106339115D02*
X134269164Y-107698681D01*
X134269164Y-107698681D02*
X139099481Y-112529000D01*
X139099481Y-112529000D02*
X148933407Y-112529000D01*
X148933407Y-112529000D02*
X157140035Y-104322372D01*
X157289772Y-104300357D02*
X157560100Y-104300357D01*
%TO.N,TP_TINT*%
X131793245Y-104782436D02*
X133768164Y-106757355D01*
X133768164Y-106757355D02*
X133768164Y-107906200D01*
X133768164Y-107906200D02*
X138891959Y-113030000D01*
X149391740Y-113030000D02*
X157339022Y-105082718D01*
X138891959Y-113030000D02*
X149391740Y-113030000D01*
%TO.N,RES*%
X149218364Y-93384400D02*
X152143764Y-96309800D01*
X129050000Y-101510000D02*
X129050000Y-100140000D01*
X134810740Y-97140740D02*
X137412680Y-94538800D01*
X142701965Y-94538800D02*
X143856365Y-93384400D01*
X129050000Y-100140000D02*
X132049260Y-97140740D01*
X132049260Y-97140740D02*
X134810740Y-97140740D01*
X143856365Y-93384400D02*
X149218364Y-93384400D01*
X137412680Y-94538800D02*
X142701965Y-94538800D01*
X152143764Y-96309800D02*
X152143764Y-99812580D01*
X152143764Y-99812580D02*
X152457984Y-100126800D01*
%TO.N,CS*%
X129700000Y-100846124D02*
X129700000Y-100198520D01*
X129700000Y-100198520D02*
X132256780Y-97641740D01*
X132256780Y-97641740D02*
X135018261Y-97641740D01*
X142909485Y-95039800D02*
X144063885Y-93885400D01*
X135018261Y-97641740D02*
X137620200Y-95039800D01*
X137620200Y-95039800D02*
X142909485Y-95039800D01*
X149010845Y-93885400D02*
X151642764Y-96517320D01*
X144063885Y-93885400D02*
X149010845Y-93885400D01*
X151642764Y-96517320D02*
X151642764Y-100232234D01*
X151642764Y-100232234D02*
X152391530Y-100981000D01*
X152391530Y-100981000D02*
X153480964Y-100981000D01*
X153480964Y-100981000D02*
X154032299Y-100429665D01*
X154032299Y-100429665D02*
X154603364Y-100429665D01*
%TO.N,SPI_MOSI*%
X151141764Y-96724842D02*
X151141764Y-100439755D01*
X132015002Y-99500000D02*
X133372262Y-98142740D01*
X133372262Y-98142740D02*
X135225781Y-98142740D01*
X135225781Y-98142740D02*
X137827720Y-95540800D01*
X137827720Y-95540800D02*
X143117005Y-95540800D01*
X143117005Y-95540800D02*
X144271405Y-94386400D01*
X151141764Y-100439755D02*
X152184010Y-101482000D01*
X144271405Y-94386400D02*
X148803324Y-94386400D01*
X148803324Y-94386400D02*
X151141764Y-96724842D01*
X152184010Y-101482000D02*
X153347310Y-101482000D01*
X153347310Y-101482000D02*
X153354310Y-101489000D01*
X153354310Y-101489000D02*
X153532550Y-101489000D01*
X153532550Y-101489000D02*
X153737526Y-101693976D01*
X153737526Y-101693976D02*
X153737526Y-101700000D01*
%TD*%
%TA.AperFunction,Conductor*%
%TO.N,GND*%
G36*
X153457932Y-87215656D02*
G01*
X153463904Y-87215804D01*
X154053472Y-87244775D01*
X154071569Y-87247008D01*
X154364843Y-87305344D01*
X154629080Y-87357904D01*
X154644748Y-87362102D01*
X154803397Y-87415956D01*
X155187891Y-87546475D01*
X155202862Y-87552676D01*
X155651574Y-87773955D01*
X155717287Y-87806361D01*
X155731335Y-87814471D01*
X156208243Y-88133132D01*
X156221107Y-88143003D01*
X156652337Y-88521185D01*
X156663806Y-88532654D01*
X156891302Y-88792061D01*
X157011548Y-88929175D01*
X157041994Y-88963891D01*
X157051868Y-88976759D01*
X157370529Y-89453668D01*
X157378639Y-89467715D01*
X157632318Y-89982128D01*
X157638525Y-89997113D01*
X157822895Y-90540249D01*
X157827093Y-90555917D01*
X157938990Y-91118462D01*
X157941107Y-91134543D01*
X157979950Y-91727161D01*
X157980216Y-91735338D01*
X157976256Y-99031893D01*
X157970015Y-99053104D01*
X157968438Y-99075160D01*
X157960345Y-99085969D01*
X157956535Y-99098922D01*
X157939816Y-99113392D01*
X157926566Y-99131093D01*
X157913915Y-99135811D01*
X157903706Y-99144648D01*
X157881819Y-99147782D01*
X157861102Y-99155510D01*
X157847907Y-99152639D01*
X157834542Y-99154554D01*
X157814433Y-99145357D01*
X157792829Y-99140658D01*
X157775042Y-99127342D01*
X157771002Y-99125495D01*
X157764575Y-99119507D01*
X157613464Y-98968396D01*
X157579979Y-98907073D01*
X157578206Y-98896900D01*
X157577264Y-98889744D01*
X157577264Y-98889743D01*
X157536341Y-98737016D01*
X157536337Y-98737009D01*
X157457288Y-98600090D01*
X157457282Y-98600082D01*
X157345481Y-98488281D01*
X157345473Y-98488275D01*
X157208554Y-98409226D01*
X157208550Y-98409224D01*
X157208548Y-98409223D01*
X157055821Y-98368300D01*
X157055814Y-98368298D01*
X157048657Y-98367356D01*
X156984761Y-98339087D01*
X156977166Y-98332099D01*
X151167980Y-92522913D01*
X151167978Y-92522911D01*
X151116614Y-92493256D01*
X151065252Y-92463601D01*
X151053144Y-92460357D01*
X151041037Y-92457113D01*
X151041034Y-92457112D01*
X151002842Y-92446878D01*
X150950673Y-92432900D01*
X143321518Y-92432900D01*
X143231152Y-92457113D01*
X143231151Y-92457112D01*
X143206942Y-92463600D01*
X143206933Y-92463604D01*
X143104219Y-92522905D01*
X143104211Y-92522911D01*
X142375023Y-93252100D01*
X142313700Y-93285585D01*
X142303533Y-93287357D01*
X142296375Y-93288299D01*
X142143642Y-93329224D01*
X142143635Y-93329227D01*
X142006716Y-93408276D01*
X142006708Y-93408282D01*
X141894907Y-93520083D01*
X141894901Y-93520091D01*
X141815852Y-93657010D01*
X141815849Y-93657017D01*
X141774926Y-93809744D01*
X141774926Y-93964300D01*
X141755241Y-94031339D01*
X141702437Y-94077094D01*
X141650926Y-94088300D01*
X137353371Y-94088300D01*
X137273184Y-94109786D01*
X137273183Y-94109786D01*
X137238795Y-94118999D01*
X137238790Y-94119001D01*
X137136072Y-94178305D01*
X137136064Y-94178311D01*
X134660456Y-96653921D01*
X134599133Y-96687406D01*
X134572775Y-96690240D01*
X131989951Y-96690240D01*
X131899585Y-96714453D01*
X131899584Y-96714452D01*
X131875376Y-96720939D01*
X131875373Y-96720940D01*
X131772646Y-96780251D01*
X131772643Y-96780253D01*
X128689513Y-99863383D01*
X128689509Y-99863389D01*
X128630201Y-99966112D01*
X128630200Y-99966117D01*
X128599500Y-100080691D01*
X128599500Y-101060069D01*
X128579815Y-101127108D01*
X128573875Y-101135557D01*
X128569475Y-101141290D01*
X128490426Y-101278209D01*
X128490423Y-101278216D01*
X128449500Y-101430943D01*
X128449500Y-101589057D01*
X128484255Y-101718762D01*
X128490423Y-101741783D01*
X128490426Y-101741790D01*
X128569475Y-101878709D01*
X128569479Y-101878714D01*
X128569480Y-101878716D01*
X128681284Y-101990520D01*
X128681286Y-101990521D01*
X128681290Y-101990524D01*
X128816718Y-102068712D01*
X128818216Y-102069577D01*
X128970943Y-102110500D01*
X128970945Y-102110500D01*
X129129055Y-102110500D01*
X129129057Y-102110500D01*
X129281784Y-102069577D01*
X129418716Y-101990520D01*
X129530520Y-101878716D01*
X129609577Y-101741784D01*
X129650500Y-101589057D01*
X129650500Y-101570624D01*
X129670185Y-101503585D01*
X129722989Y-101457830D01*
X129774500Y-101446624D01*
X129779055Y-101446624D01*
X129779057Y-101446624D01*
X129931784Y-101405701D01*
X130068716Y-101326644D01*
X130180520Y-101214840D01*
X130259577Y-101077908D01*
X130300500Y-100925181D01*
X130300500Y-100767067D01*
X130259577Y-100614340D01*
X130183326Y-100482269D01*
X130166854Y-100414369D01*
X130189707Y-100348343D01*
X130203027Y-100332595D01*
X131202821Y-99332802D01*
X131264144Y-99299317D01*
X131333836Y-99304301D01*
X131389769Y-99346173D01*
X131414186Y-99411637D01*
X131414502Y-99420483D01*
X131414502Y-99420943D01*
X131414502Y-99579057D01*
X131454595Y-99728684D01*
X131455425Y-99731783D01*
X131455428Y-99731790D01*
X131534477Y-99868709D01*
X131534483Y-99868717D01*
X131596965Y-99931199D01*
X131630450Y-99992522D01*
X131625466Y-100062214D01*
X131596966Y-100106561D01*
X131513972Y-100189555D01*
X131513969Y-100189559D01*
X131434920Y-100326478D01*
X131434917Y-100326485D01*
X131393994Y-100479212D01*
X131393994Y-100637326D01*
X131434917Y-100790053D01*
X131441499Y-100801454D01*
X131457972Y-100869352D01*
X131435120Y-100935379D01*
X131421794Y-100951133D01*
X131391598Y-100981329D01*
X131312545Y-101118255D01*
X131312542Y-101118262D01*
X131271619Y-101270989D01*
X131271619Y-101429103D01*
X131309540Y-101570624D01*
X131312542Y-101581829D01*
X131312545Y-101581836D01*
X131391594Y-101718755D01*
X131391598Y-101718760D01*
X131391599Y-101718762D01*
X131503403Y-101830566D01*
X131503405Y-101830567D01*
X131503409Y-101830570D01*
X131626783Y-101901799D01*
X131640335Y-101909623D01*
X131793062Y-101950546D01*
X131793064Y-101950546D01*
X131951173Y-101950546D01*
X131951176Y-101950546D01*
X131952978Y-101950063D01*
X131954557Y-101950100D01*
X131959233Y-101949485D01*
X131959328Y-101950213D01*
X132022825Y-101951721D01*
X132072757Y-101982155D01*
X133348000Y-103257398D01*
X133352336Y-103265339D01*
X133359582Y-103270763D01*
X133368820Y-103295527D01*
X133381485Y-103318721D01*
X133380839Y-103327746D01*
X133384003Y-103336226D01*
X133378386Y-103362051D01*
X133376501Y-103388413D01*
X133370684Y-103397464D01*
X133369154Y-103404500D01*
X133348005Y-103432755D01*
X133338988Y-103441773D01*
X133277667Y-103475262D01*
X133207975Y-103470281D01*
X133189303Y-103461485D01*
X133077555Y-103396968D01*
X132969075Y-103367901D01*
X132924828Y-103356045D01*
X132766714Y-103356045D01*
X132613987Y-103396968D01*
X132613980Y-103396971D01*
X132477061Y-103476020D01*
X132477053Y-103476026D01*
X132365252Y-103587827D01*
X132365246Y-103587835D01*
X132286197Y-103724754D01*
X132286194Y-103724761D01*
X132245271Y-103877488D01*
X132245271Y-104035601D01*
X132267455Y-104118395D01*
X132265792Y-104188245D01*
X132226629Y-104246107D01*
X132162400Y-104273611D01*
X132093498Y-104262024D01*
X132085681Y-104257876D01*
X132025029Y-104222859D01*
X131872302Y-104181936D01*
X131714188Y-104181936D01*
X131561461Y-104222859D01*
X131561454Y-104222862D01*
X131424535Y-104301911D01*
X131424527Y-104301917D01*
X131312726Y-104413718D01*
X131312720Y-104413726D01*
X131233671Y-104550645D01*
X131233668Y-104550652D01*
X131192745Y-104703379D01*
X131192745Y-104861492D01*
X131233668Y-105014219D01*
X131233671Y-105014226D01*
X131312720Y-105151145D01*
X131312724Y-105151150D01*
X131312725Y-105151152D01*
X131424529Y-105262956D01*
X131424531Y-105262957D01*
X131424535Y-105262960D01*
X131513810Y-105314502D01*
X131561461Y-105342013D01*
X131714188Y-105382936D01*
X131714190Y-105382936D01*
X131721344Y-105383878D01*
X131785241Y-105412143D01*
X131792842Y-105419136D01*
X133281345Y-106907639D01*
X133314830Y-106968962D01*
X133317664Y-106995320D01*
X133317664Y-107965509D01*
X133329020Y-108007889D01*
X133348366Y-108080090D01*
X133348367Y-108080093D01*
X133407669Y-108182807D01*
X133407673Y-108182812D01*
X133407674Y-108182814D01*
X138615345Y-113390489D01*
X138718072Y-113449799D01*
X138742280Y-113456284D01*
X138742283Y-113456286D01*
X138742284Y-113456286D01*
X138772406Y-113464357D01*
X138832650Y-113480500D01*
X138832652Y-113480500D01*
X149451048Y-113480500D01*
X149451049Y-113480500D01*
X149541413Y-113456286D01*
X149565627Y-113449799D01*
X149668354Y-113390489D01*
X157339426Y-105719416D01*
X157400747Y-105685933D01*
X157410923Y-105684159D01*
X157418067Y-105683218D01*
X157418079Y-105683218D01*
X157570806Y-105642295D01*
X157707738Y-105563238D01*
X157761013Y-105509962D01*
X157822334Y-105476478D01*
X157892026Y-105481462D01*
X157947959Y-105523333D01*
X157972377Y-105588797D01*
X157972693Y-105597711D01*
X157969506Y-111469555D01*
X157969357Y-111475574D01*
X157940222Y-112068468D01*
X157937988Y-112086573D01*
X157827093Y-112644080D01*
X157822895Y-112659748D01*
X157638525Y-113202884D01*
X157632318Y-113217869D01*
X157378639Y-113732282D01*
X157370529Y-113746329D01*
X157051868Y-114223238D01*
X157041994Y-114236106D01*
X156663806Y-114667343D01*
X156652337Y-114678812D01*
X156221107Y-115056994D01*
X156208239Y-115066868D01*
X155731334Y-115385526D01*
X155717287Y-115393636D01*
X155202869Y-115647318D01*
X155187884Y-115653525D01*
X154644748Y-115837895D01*
X154629080Y-115842093D01*
X154066535Y-115953990D01*
X154050454Y-115956107D01*
X153455333Y-115995114D01*
X153447174Y-115995380D01*
X125945411Y-115984504D01*
X125939374Y-115984355D01*
X125346529Y-115955225D01*
X125328424Y-115952991D01*
X124770916Y-115842096D01*
X124755248Y-115837898D01*
X124212115Y-115653528D01*
X124197136Y-115647323D01*
X123682710Y-115393638D01*
X123668664Y-115385529D01*
X123191757Y-115066870D01*
X123178889Y-115056996D01*
X122747656Y-114678812D01*
X122736187Y-114667343D01*
X122586376Y-114496518D01*
X122358000Y-114236106D01*
X122348129Y-114223242D01*
X122348126Y-114223238D01*
X122029470Y-113746335D01*
X122021360Y-113732288D01*
X121953395Y-113594468D01*
X121767676Y-113217865D01*
X121761475Y-113202894D01*
X121577101Y-112659748D01*
X121572904Y-112644083D01*
X121498265Y-112268848D01*
X121461005Y-112081531D01*
X121458890Y-112065473D01*
X121420045Y-111472818D01*
X121419781Y-111464648D01*
X121419788Y-111451984D01*
X121430491Y-91730425D01*
X121430640Y-91724421D01*
X121431714Y-91702567D01*
X121459774Y-91131524D01*
X121462008Y-91113425D01*
X121572907Y-90555900D01*
X121577096Y-90540263D01*
X121761476Y-89997101D01*
X121767673Y-89982140D01*
X122021364Y-89467704D01*
X122029468Y-89453668D01*
X122348137Y-88976746D01*
X122357994Y-88963901D01*
X122736189Y-88532653D01*
X122747647Y-88521195D01*
X123178901Y-88142994D01*
X123191746Y-88133137D01*
X123668670Y-87814466D01*
X123682699Y-87806366D01*
X124197148Y-87552670D01*
X124212108Y-87546474D01*
X124599070Y-87415117D01*
X124755250Y-87362102D01*
X124770917Y-87357904D01*
X125333469Y-87246005D01*
X125349536Y-87243890D01*
X125942222Y-87205043D01*
X125950344Y-87204778D01*
X153457932Y-87215656D01*
G37*
%TD.AperFunction*%
%TA.AperFunction,Conductor*%
G36*
X146656672Y-94841018D02*
G01*
X146671275Y-94840250D01*
X146689525Y-94850665D01*
X146709684Y-94856585D01*
X146719258Y-94867634D01*
X146731958Y-94874882D01*
X146741680Y-94893510D01*
X146755439Y-94909389D01*
X146757519Y-94923860D01*
X146764285Y-94936823D01*
X146762392Y-94957749D01*
X146765383Y-94978547D01*
X146759196Y-94993095D01*
X146757992Y-95006409D01*
X146740499Y-95037060D01*
X146705177Y-95082442D01*
X146619820Y-95192108D01*
X146619817Y-95192113D01*
X146520241Y-95376114D01*
X146520236Y-95376125D01*
X146452302Y-95574009D01*
X146417864Y-95780387D01*
X146417864Y-107419612D01*
X146452302Y-107625990D01*
X146520236Y-107823874D01*
X146520241Y-107823885D01*
X146619817Y-108007886D01*
X146619824Y-108007897D01*
X146748323Y-108172992D01*
X146748325Y-108172994D01*
X146748329Y-108172999D01*
X146884760Y-108298592D01*
X146902265Y-108314707D01*
X147077421Y-108429141D01*
X147269026Y-108513187D01*
X147471851Y-108564549D01*
X147541355Y-108570308D01*
X147680358Y-108581827D01*
X147680364Y-108581827D01*
X147680370Y-108581827D01*
X147805471Y-108571460D01*
X147888877Y-108564549D01*
X148091702Y-108513187D01*
X148283307Y-108429141D01*
X148458465Y-108314705D01*
X148612399Y-108172999D01*
X148740909Y-108007889D01*
X148840490Y-107823879D01*
X148908426Y-107625988D01*
X148942864Y-107419614D01*
X148942864Y-107315000D01*
X148942864Y-107249108D01*
X148942864Y-95819108D01*
X148942864Y-95780386D01*
X148908426Y-95574012D01*
X148849615Y-95402701D01*
X148846465Y-95332902D01*
X148881551Y-95272481D01*
X148943734Y-95240620D01*
X149013270Y-95247436D01*
X149054577Y-95274757D01*
X150654945Y-96875125D01*
X150688430Y-96936448D01*
X150691264Y-96962806D01*
X150691264Y-100499064D01*
X150698580Y-100526368D01*
X150707538Y-100559799D01*
X150721965Y-100613643D01*
X150735639Y-100637326D01*
X150781275Y-100716369D01*
X151907397Y-101842490D01*
X151970143Y-101878716D01*
X152010124Y-101901799D01*
X152124701Y-101932500D01*
X153106770Y-101932500D01*
X153173809Y-101952185D01*
X153214157Y-101994500D01*
X153257003Y-102068712D01*
X153257005Y-102068715D01*
X153257006Y-102068716D01*
X153368810Y-102180520D01*
X153368812Y-102180521D01*
X153368816Y-102180524D01*
X153505735Y-102259573D01*
X153505742Y-102259577D01*
X153658469Y-102300500D01*
X153658471Y-102300500D01*
X153813026Y-102300500D01*
X153821711Y-102303050D01*
X153830673Y-102301762D01*
X153854713Y-102312740D01*
X153880065Y-102320185D01*
X153885992Y-102327025D01*
X153894229Y-102330787D01*
X153908518Y-102353021D01*
X153925820Y-102372989D01*
X153928107Y-102383503D01*
X153932003Y-102389565D01*
X153937026Y-102424500D01*
X153937026Y-102429952D01*
X153917341Y-102496991D01*
X153900707Y-102517633D01*
X152399877Y-104018462D01*
X152399873Y-104018468D01*
X152340565Y-104121191D01*
X152340564Y-104121196D01*
X152309864Y-104235770D01*
X152309864Y-105456427D01*
X152290179Y-105523466D01*
X152273545Y-105544108D01*
X147779472Y-110038181D01*
X147718149Y-110071666D01*
X147691791Y-110074500D01*
X140167529Y-110074500D01*
X140100490Y-110054815D01*
X140079848Y-110038181D01*
X136759983Y-106718310D01*
X136726498Y-106656987D01*
X136723664Y-106630629D01*
X136723664Y-104771130D01*
X136723664Y-104771128D01*
X136695326Y-104665368D01*
X136692963Y-104656550D01*
X136633653Y-104553823D01*
X132630208Y-100550378D01*
X132596723Y-100489055D01*
X132595033Y-100479360D01*
X132594994Y-100479214D01*
X132594994Y-100479212D01*
X132554071Y-100326485D01*
X132554067Y-100326478D01*
X132475018Y-100189559D01*
X132475012Y-100189551D01*
X132412530Y-100127069D01*
X132379045Y-100065746D01*
X132384029Y-99996054D01*
X132412526Y-99951711D01*
X132495522Y-99868716D01*
X132574579Y-99731784D01*
X132615502Y-99579057D01*
X132615502Y-99579044D01*
X132616443Y-99571901D01*
X132644709Y-99508003D01*
X132651690Y-99500414D01*
X133522546Y-98629559D01*
X133583869Y-98596074D01*
X133610227Y-98593240D01*
X135285089Y-98593240D01*
X135285090Y-98593240D01*
X135375454Y-98569026D01*
X135399668Y-98562539D01*
X135502395Y-98503229D01*
X137978004Y-96027618D01*
X138039327Y-95994134D01*
X138065685Y-95991300D01*
X143176313Y-95991300D01*
X143176314Y-95991300D01*
X143266678Y-95967086D01*
X143290892Y-95960599D01*
X143393619Y-95901289D01*
X144421689Y-94873219D01*
X144483012Y-94839734D01*
X144509370Y-94836900D01*
X146642645Y-94836900D01*
X146656672Y-94841018D01*
G37*
%TD.AperFunction*%
%TA.AperFunction,Conductor*%
G36*
X152799467Y-96540724D02*
G01*
X152805945Y-96546756D01*
X154109567Y-97850378D01*
X154143052Y-97911701D01*
X154144824Y-97921869D01*
X154145766Y-97929026D01*
X154158738Y-97977441D01*
X154182794Y-98067218D01*
X154186691Y-98081759D01*
X154186694Y-98081766D01*
X154265743Y-98218685D01*
X154265747Y-98218690D01*
X154265748Y-98218692D01*
X154377552Y-98330496D01*
X154377554Y-98330497D01*
X154377558Y-98330500D01*
X154443031Y-98368300D01*
X154514484Y-98409553D01*
X154667211Y-98450476D01*
X154667213Y-98450476D01*
X154825323Y-98450476D01*
X154825325Y-98450476D01*
X154978052Y-98409553D01*
X155114984Y-98330496D01*
X155226788Y-98218692D01*
X155278769Y-98128656D01*
X155329335Y-98080442D01*
X155397942Y-98067218D01*
X155462807Y-98093186D01*
X155473837Y-98102976D01*
X156340063Y-98969202D01*
X156373548Y-99030525D01*
X156375320Y-99040693D01*
X156376262Y-99047850D01*
X156376264Y-99047857D01*
X156405109Y-99155510D01*
X156417187Y-99200583D01*
X156417190Y-99200590D01*
X156496239Y-99337509D01*
X156496243Y-99337514D01*
X156496244Y-99337516D01*
X156608048Y-99449320D01*
X156608050Y-99449321D01*
X156608054Y-99449324D01*
X156696525Y-99500402D01*
X156744980Y-99528377D01*
X156897707Y-99569300D01*
X156897709Y-99569300D01*
X156904863Y-99570242D01*
X156925768Y-99579489D01*
X156948107Y-99584349D01*
X156964505Y-99596625D01*
X156968760Y-99598507D01*
X156976361Y-99605500D01*
X157099545Y-99728684D01*
X157133030Y-99790007D01*
X157135864Y-99816365D01*
X157135864Y-101150777D01*
X157116179Y-101217816D01*
X157063375Y-101263571D01*
X156994217Y-101273515D01*
X156984688Y-101271560D01*
X156982421Y-101271262D01*
X156982420Y-101271262D01*
X156824306Y-101271262D01*
X156671579Y-101312185D01*
X156671572Y-101312188D01*
X156534653Y-101391237D01*
X156534645Y-101391243D01*
X156422844Y-101503044D01*
X156422838Y-101503052D01*
X156343789Y-101639971D01*
X156343786Y-101639978D01*
X156302861Y-101792711D01*
X156301919Y-101799869D01*
X156273650Y-101863765D01*
X156266662Y-101871359D01*
X155348441Y-102789581D01*
X155287118Y-102823066D01*
X155260760Y-102825900D01*
X154962026Y-102825900D01*
X154894987Y-102806215D01*
X154849232Y-102753411D01*
X154838026Y-102701900D01*
X154838026Y-101649931D01*
X154857711Y-101582892D01*
X154863654Y-101574439D01*
X154868038Y-101568724D01*
X154868046Y-101568717D01*
X154947103Y-101431785D01*
X154988026Y-101279058D01*
X154988026Y-101120944D01*
X154958646Y-101011296D01*
X154960309Y-100941449D01*
X154990736Y-100891528D01*
X155083884Y-100798381D01*
X155162941Y-100661449D01*
X155203864Y-100508722D01*
X155203864Y-100350608D01*
X155162941Y-100197881D01*
X155095282Y-100080691D01*
X155083888Y-100060955D01*
X155083882Y-100060947D01*
X154972081Y-99949146D01*
X154972073Y-99949140D01*
X154835154Y-99870091D01*
X154835150Y-99870089D01*
X154835148Y-99870088D01*
X154682421Y-99829165D01*
X154524307Y-99829165D01*
X154371580Y-99870088D01*
X154371573Y-99870091D01*
X154234654Y-99949140D01*
X154228921Y-99953540D01*
X154163752Y-99978735D01*
X154153433Y-99979165D01*
X153972990Y-99979165D01*
X153909960Y-99996054D01*
X153858408Y-100009867D01*
X153858407Y-100009868D01*
X153825448Y-100028898D01*
X153825446Y-100028899D01*
X153755691Y-100069171D01*
X153755683Y-100069177D01*
X153330680Y-100494181D01*
X153303752Y-100508884D01*
X153277934Y-100525477D01*
X153271733Y-100526368D01*
X153269357Y-100527666D01*
X153242999Y-100530500D01*
X153131930Y-100530500D01*
X153064891Y-100510815D01*
X153019136Y-100458011D01*
X153009192Y-100388853D01*
X153017368Y-100359049D01*
X153017556Y-100358592D01*
X153017561Y-100358584D01*
X153058484Y-100205857D01*
X153058484Y-100047743D01*
X153017561Y-99895016D01*
X153003169Y-99870088D01*
X152938508Y-99758090D01*
X152938502Y-99758082D01*
X152826701Y-99646281D01*
X152826693Y-99646275D01*
X152689774Y-99567226D01*
X152689770Y-99567224D01*
X152689768Y-99567223D01*
X152689766Y-99567222D01*
X152689763Y-99567221D01*
X152686168Y-99566258D01*
X152683476Y-99564617D01*
X152682259Y-99564113D01*
X152682337Y-99563923D01*
X152626508Y-99529892D01*
X152595980Y-99467044D01*
X152594264Y-99446484D01*
X152594264Y-96634437D01*
X152613949Y-96567398D01*
X152666753Y-96521643D01*
X152735911Y-96511699D01*
X152799467Y-96540724D01*
G37*
%TD.AperFunction*%
%TD*%
M02*
