%TF.GenerationSoftware,KiCad,Pcbnew,9.0.6*%
%TF.CreationDate,2025-11-17T19:52:11+07:00*%
%TF.ProjectId,display,64697370-6c61-4792-9e6b-696361645f70,rev?*%
%TF.SameCoordinates,Original*%
%TF.FileFunction,Soldermask,Bot*%
%TF.FilePolarity,Negative*%
%FSLAX46Y46*%
G04 Gerber Fmt 4.6, Leading zero omitted, Abs format (unit mm)*
G04 Created by KiCad (PCBNEW 9.0.6) date 2025-11-17 19:52:11*
%MOMM*%
%LPD*%
G01*
G04 APERTURE LIST*
G04 Aperture macros list*
%AMRoundRect*
0 Rectangle with rounded corners*
0 $1 Rounding radius*
0 $2 $3 $4 $5 $6 $7 $8 $9 X,Y pos of 4 corners*
0 Add a 4 corners polygon primitive as box body*
4,1,4,$2,$3,$4,$5,$6,$7,$8,$9,$2,$3,0*
0 Add four circle primitives for the rounded corners*
1,1,$1+$1,$2,$3*
1,1,$1+$1,$4,$5*
1,1,$1+$1,$6,$7*
1,1,$1+$1,$8,$9*
0 Add four rect primitives between the rounded corners*
20,1,$1+$1,$2,$3,$4,$5,0*
20,1,$1+$1,$4,$5,$6,$7,0*
20,1,$1+$1,$6,$7,$8,$9,0*
20,1,$1+$1,$8,$9,$2,$3,0*%
G04 Aperture macros list end*
%ADD10R,2.200000X1.800000*%
%ADD11R,1.300000X0.300000*%
%ADD12RoundRect,0.237500X-0.250000X-0.237500X0.250000X-0.237500X0.250000X0.237500X-0.250000X0.237500X0*%
%ADD13C,5.300000*%
%ADD14RoundRect,0.237500X0.237500X-0.300000X0.237500X0.300000X-0.237500X0.300000X-0.237500X-0.300000X0*%
%ADD15RoundRect,0.237500X-0.237500X0.300000X-0.237500X-0.300000X0.237500X-0.300000X0.237500X0.300000X0*%
%ADD16RoundRect,0.237500X-0.237500X0.250000X-0.237500X-0.250000X0.237500X-0.250000X0.237500X0.250000X0*%
%ADD17RoundRect,0.200000X-0.750000X-0.200000X0.750000X-0.200000X0.750000X0.200000X-0.750000X0.200000X0*%
G04 APERTURE END LIST*
D10*
%TO.C,J4*%
X134115000Y-106250000D03*
X134115000Y-96950000D03*
D11*
X130865000Y-104350000D03*
X130865000Y-103850000D03*
X130865000Y-103350000D03*
X130865000Y-102850000D03*
X130865000Y-102350000D03*
X130865000Y-101850000D03*
X130865000Y-101350000D03*
X130865000Y-100850000D03*
X130865000Y-100350000D03*
X130865000Y-99850000D03*
X130865000Y-99350000D03*
X130865000Y-98850000D03*
%TD*%
D12*
%TO.C,R2*%
X149180864Y-93345000D03*
X151005864Y-93345000D03*
%TD*%
D13*
%TO.C,H4*%
X154869999Y-90315000D03*
%TD*%
D14*
%TO.C,C1*%
X157459364Y-98652500D03*
X157459364Y-96927500D03*
%TD*%
D13*
%TO.C,H1*%
X124940000Y-112885001D03*
%TD*%
D15*
%TO.C,C2*%
X157459364Y-106122300D03*
X157459364Y-107847300D03*
%TD*%
D11*
%TO.C,J1*%
X155753364Y-105850000D03*
X155753364Y-105350000D03*
X155753364Y-104850000D03*
X155753364Y-104350000D03*
X155753364Y-103850000D03*
X155753364Y-103350000D03*
X155753364Y-102850000D03*
X155753364Y-102350000D03*
X155753364Y-101850000D03*
X155753364Y-101350000D03*
X155753364Y-100850000D03*
X155753364Y-100350000D03*
X155753364Y-99850000D03*
X155753364Y-99350000D03*
X155753364Y-98850000D03*
X155753364Y-98350000D03*
X155753364Y-97850000D03*
X155753364Y-97350000D03*
D10*
X152503364Y-107750000D03*
X152503364Y-95450000D03*
%TD*%
D16*
%TO.C,R1*%
X141838364Y-92432500D03*
X141838364Y-94257500D03*
%TD*%
D13*
%TO.C,H3*%
X154869999Y-112885001D03*
%TD*%
%TO.C,H2*%
X124940000Y-90315000D03*
%TD*%
D17*
%TO.C,Q1*%
X144148364Y-94295000D03*
X144148364Y-92395000D03*
X147148364Y-93345000D03*
%TD*%
M02*
