%TF.GenerationSoftware,KiCad,Pcbnew,9.0.6*%
%TF.CreationDate,2025-11-17T19:52:11+07:00*%
%TF.ProjectId,display,64697370-6c61-4792-9e6b-696361645f70,rev?*%
%TF.SameCoordinates,Original*%
%TF.FileFunction,Copper,L2,Bot*%
%TF.FilePolarity,Positive*%
%FSLAX46Y46*%
G04 Gerber Fmt 4.6, Leading zero omitted, Abs format (unit mm)*
G04 Created by KiCad (PCBNEW 9.0.6) date 2025-11-17 19:52:11*
%MOMM*%
%LPD*%
G01*
G04 APERTURE LIST*
G04 Aperture macros list*
%AMRoundRect*
0 Rectangle with rounded corners*
0 $1 Rounding radius*
0 $2 $3 $4 $5 $6 $7 $8 $9 X,Y pos of 4 corners*
0 Add a 4 corners polygon primitive as box body*
4,1,4,$2,$3,$4,$5,$6,$7,$8,$9,$2,$3,0*
0 Add four circle primitives for the rounded corners*
1,1,$1+$1,$2,$3*
1,1,$1+$1,$4,$5*
1,1,$1+$1,$6,$7*
1,1,$1+$1,$8,$9*
0 Add four rect primitives between the rounded corners*
20,1,$1+$1,$2,$3,$4,$5,0*
20,1,$1+$1,$4,$5,$6,$7,0*
20,1,$1+$1,$6,$7,$8,$9,0*
20,1,$1+$1,$8,$9,$2,$3,0*%
G04 Aperture macros list end*
%TA.AperFunction,SMDPad,CuDef*%
%ADD10R,2.200000X1.800000*%
%TD*%
%TA.AperFunction,SMDPad,CuDef*%
%ADD11R,1.300000X0.300000*%
%TD*%
%TA.AperFunction,SMDPad,CuDef*%
%ADD12RoundRect,0.237500X-0.250000X-0.237500X0.250000X-0.237500X0.250000X0.237500X-0.250000X0.237500X0*%
%TD*%
%TA.AperFunction,ComponentPad*%
%ADD13C,5.300000*%
%TD*%
%TA.AperFunction,SMDPad,CuDef*%
%ADD14RoundRect,0.237500X0.237500X-0.300000X0.237500X0.300000X-0.237500X0.300000X-0.237500X-0.300000X0*%
%TD*%
%TA.AperFunction,SMDPad,CuDef*%
%ADD15RoundRect,0.237500X-0.237500X0.300000X-0.237500X-0.300000X0.237500X-0.300000X0.237500X0.300000X0*%
%TD*%
%TA.AperFunction,SMDPad,CuDef*%
%ADD16RoundRect,0.237500X-0.237500X0.250000X-0.237500X-0.250000X0.237500X-0.250000X0.237500X0.250000X0*%
%TD*%
%TA.AperFunction,SMDPad,CuDef*%
%ADD17RoundRect,0.200000X-0.750000X-0.200000X0.750000X-0.200000X0.750000X0.200000X-0.750000X0.200000X0*%
%TD*%
%TA.AperFunction,ViaPad*%
%ADD18C,0.600000*%
%TD*%
%TA.AperFunction,Conductor*%
%ADD19C,0.300000*%
%TD*%
G04 APERTURE END LIST*
D10*
%TO.P,J4,MP*%
%TO.N,N/C*%
X134115000Y-106250000D03*
X134115000Y-96950000D03*
D11*
%TO.P,J4,12,Pin_12*%
%TO.N,TP_TINT*%
X130865000Y-104350000D03*
%TO.P,J4,11,Pin_11*%
%TO.N,TP_TRST*%
X130865000Y-103850000D03*
%TO.P,J4,10,Pin_10*%
%TO.N,TP_SCL*%
X130865000Y-103350000D03*
%TO.P,J4,9,Pin_9*%
%TO.N,TP_SDA*%
X130865000Y-102850000D03*
%TO.P,J4,8,Pin_8*%
%TO.N,LED_CTRL*%
X130865000Y-102350000D03*
%TO.P,J4,7,Pin_7*%
%TO.N,RES*%
X130865000Y-101850000D03*
%TO.P,J4,6,Pin_6*%
%TO.N,D{slash}C*%
X130865000Y-101350000D03*
%TO.P,J4,5,Pin_5*%
%TO.N,CS*%
X130865000Y-100850000D03*
%TO.P,J4,4,Pin_4*%
%TO.N,SPI_SCK*%
X130865000Y-100350000D03*
%TO.P,J4,3,Pin_3*%
%TO.N,SPI_MOSI*%
X130865000Y-99850000D03*
%TO.P,J4,2,Pin_2*%
%TO.N,GND*%
X130865000Y-99350000D03*
%TO.P,J4,1,Pin_1*%
%TO.N,+3V3*%
X130865000Y-98850000D03*
%TD*%
D12*
%TO.P,R2,1*%
%TO.N,Net-(Q1-D)*%
X149180864Y-93345000D03*
%TO.P,R2,2*%
%TO.N,LED_K*%
X151005864Y-93345000D03*
%TD*%
D13*
%TO.P,H4,1,1*%
%TO.N,GND*%
X154869999Y-90315000D03*
%TD*%
D14*
%TO.P,C1,1*%
%TO.N,+3V3*%
X157459364Y-98652500D03*
%TO.P,C1,2*%
%TO.N,GND*%
X157459364Y-96927500D03*
%TD*%
D13*
%TO.P,H1,1,1*%
%TO.N,GND*%
X124940000Y-112885001D03*
%TD*%
D15*
%TO.P,C2,1*%
%TO.N,+3V3*%
X157459364Y-106122300D03*
%TO.P,C2,2*%
%TO.N,GND*%
X157459364Y-107847300D03*
%TD*%
D11*
%TO.P,J1,1,Pin_1*%
%TO.N,GND*%
X155753364Y-105850000D03*
%TO.P,J1,2,Pin_2*%
%TO.N,+3V3*%
X155753364Y-105350000D03*
%TO.P,J1,3,Pin_3*%
%TO.N,TP_TINT*%
X155753364Y-104850000D03*
%TO.P,J1,4,Pin_4*%
%TO.N,TP_TRST*%
X155753364Y-104350000D03*
%TO.P,J1,5,Pin_5*%
%TO.N,TP_SDA*%
X155753364Y-103850000D03*
%TO.P,J1,6,Pin_6*%
%TO.N,TP_SCL*%
X155753364Y-103350000D03*
%TO.P,J1,7,Pin_7*%
%TO.N,GND*%
X155753364Y-102850000D03*
%TO.P,J1,8,Pin_8*%
%TO.N,RES*%
X155753364Y-102350000D03*
%TO.P,J1,9,Pin_9*%
%TO.N,SPI_MOSI*%
X155753364Y-101850000D03*
%TO.P,J1,10,Pin_10*%
%TO.N,SPI_SCK*%
X155753364Y-101350000D03*
%TO.P,J1,11,Pin_11*%
%TO.N,CS*%
X155753364Y-100850000D03*
%TO.P,J1,12,Pin_12*%
%TO.N,D{slash}C*%
X155753364Y-100350000D03*
%TO.P,J1,13,Pin_13*%
%TO.N,GND*%
X155753364Y-99850000D03*
%TO.P,J1,14,Pin_14*%
X155753364Y-99350000D03*
%TO.P,J1,15,Pin_15*%
%TO.N,+3V3*%
X155753364Y-98850000D03*
%TO.P,J1,16,Pin_16*%
X155753364Y-98350000D03*
%TO.P,J1,17,Pin_17*%
%TO.N,LED_K*%
X155753364Y-97850000D03*
%TO.P,J1,18,Pin_18*%
%TO.N,GND*%
X155753364Y-97350000D03*
D10*
%TO.P,J1,MP*%
%TO.N,N/C*%
X152503364Y-107750000D03*
X152503364Y-95450000D03*
%TD*%
D16*
%TO.P,R1,1*%
%TO.N,LED_CTRL*%
X141838364Y-92432500D03*
%TO.P,R1,2*%
%TO.N,+3V3*%
X141838364Y-94257500D03*
%TD*%
D13*
%TO.P,H3,1,1*%
%TO.N,GND*%
X154869999Y-112885001D03*
%TD*%
%TO.P,H2,1,1*%
%TO.N,GND*%
X124940000Y-90315000D03*
%TD*%
D17*
%TO.P,Q1,1,G*%
%TO.N,LED_CTRL*%
X144148364Y-94295000D03*
%TO.P,Q1,2,S*%
%TO.N,GND*%
X144148364Y-92395000D03*
%TO.P,Q1,3,D*%
%TO.N,Net-(Q1-D)*%
X147148364Y-93345000D03*
%TD*%
D18*
%TO.N,SPI_MOSI*%
X132015002Y-99500000D03*
%TO.N,CS*%
X129700000Y-100846124D03*
%TO.N,RES*%
X129050000Y-101510000D03*
%TO.N,TP_TINT*%
X131793245Y-104782436D03*
%TO.N,TP_TRST*%
X132666178Y-104736129D03*
%TO.N,TP_SCL*%
X132845771Y-103956545D03*
%TO.N,TP_SDA*%
X133719232Y-103910767D03*
%TO.N,D{slash}C*%
X131872119Y-101350046D03*
%TO.N,SPI_SCK*%
X131994494Y-100558269D03*
%TO.N,TP_TRST*%
X157560100Y-104300357D03*
%TO.N,D{slash}C*%
X156903363Y-101871762D03*
%TO.N,LED_K*%
X150522928Y-93626636D03*
X154746268Y-97849976D03*
%TO.N,TP_SCL*%
X156998103Y-103671372D03*
%TO.N,+3V3*%
X156976764Y-98968800D03*
X154606226Y-105053436D03*
X142375426Y-93888801D03*
%TO.N,CS*%
X154603364Y-100429665D03*
%TO.N,GND*%
X140822364Y-93573600D03*
X150347364Y-90424000D03*
X153369964Y-98501200D03*
%TO.N,TP_TINT*%
X157339022Y-105082718D03*
%TO.N,RES*%
X152457984Y-100126800D03*
%TO.N,TP_SDA*%
X154615984Y-104088362D03*
%TO.N,SPI_MOSI*%
X153737526Y-101700000D03*
%TO.N,SPI_SCK*%
X154387526Y-101200001D03*
%TO.N,GND*%
X142500000Y-102810000D03*
%TD*%
D19*
%TO.N,TP_TRST*%
X155753364Y-104350000D02*
X157510457Y-104350000D01*
X157510457Y-104350000D02*
X157560100Y-104300357D01*
%TO.N,D{slash}C*%
X156903363Y-101871762D02*
X156976764Y-101798361D01*
X156976764Y-101798361D02*
X156976764Y-100702766D01*
X156623998Y-100350000D02*
X155753364Y-100350000D01*
X156976764Y-100702766D02*
X156623998Y-100350000D01*
%TO.N,LED_K*%
X150522928Y-93626636D02*
X150616164Y-93533400D01*
X154746292Y-97850000D02*
X155753364Y-97850000D01*
X150616164Y-93533400D02*
X150817464Y-93533400D01*
X150817464Y-93533400D02*
X151005864Y-93345000D01*
X154746268Y-97849976D02*
X154746292Y-97850000D01*
%TO.N,TP_SCL*%
X156998103Y-103671372D02*
X156998103Y-103653339D01*
X156694764Y-103350000D02*
X155753364Y-103350000D01*
X156998103Y-103653339D02*
X156694764Y-103350000D01*
%TO.N,+3V3*%
X154902790Y-105350000D02*
X154606226Y-105053436D01*
X157515864Y-98850000D02*
X157713364Y-98652500D01*
X155753364Y-105350000D02*
X156687064Y-105350000D01*
X141838364Y-94234000D02*
X141838364Y-94257500D01*
X142183563Y-93888801D02*
X141838364Y-94234000D01*
X157495864Y-98652500D02*
X157713364Y-98652500D01*
X155753364Y-98850000D02*
X157515864Y-98850000D01*
X155753364Y-105350000D02*
X154902790Y-105350000D01*
X157410864Y-98350000D02*
X157713364Y-98652500D01*
X157159255Y-98382853D02*
X157226217Y-98382853D01*
X142375426Y-93888801D02*
X142183563Y-93888801D01*
X156687064Y-105350000D02*
X157459364Y-106122300D01*
X155753364Y-98350000D02*
X157410864Y-98350000D01*
X157090844Y-98451264D02*
X157159255Y-98382853D01*
X157226217Y-98382853D02*
X157495864Y-98652500D01*
%TO.N,CS*%
X154603364Y-100429665D02*
X154639964Y-100466265D01*
X154639964Y-100466265D02*
X154639964Y-100533200D01*
X154639964Y-100533200D02*
X154956764Y-100850000D01*
X154956764Y-100850000D02*
X155753364Y-100850000D01*
%TO.N,GND*%
X155753364Y-99618800D02*
X154843164Y-99618800D01*
X155753364Y-99350000D02*
X155753364Y-99618800D01*
X155753364Y-102850000D02*
X157199964Y-102850000D01*
X157459364Y-96927500D02*
X157713364Y-96927500D01*
X154843164Y-99618800D02*
X154690764Y-99466400D01*
X153725564Y-98501200D02*
X153369964Y-98501200D01*
X157738764Y-100380800D02*
X156976764Y-99618800D01*
X157199964Y-102850000D02*
X157738764Y-102311200D01*
X157036864Y-97350000D02*
X157459364Y-96927500D01*
X155753364Y-99618800D02*
X155753364Y-99850000D01*
X156976764Y-99618800D02*
X155753364Y-99618800D01*
X157738764Y-102311200D02*
X157738764Y-100380800D01*
X154098364Y-105850000D02*
X154081164Y-105867200D01*
X154690764Y-99466400D02*
X153725564Y-98501200D01*
X155753364Y-105850000D02*
X154098364Y-105850000D01*
X155753364Y-97350000D02*
X157036864Y-97350000D01*
X155753364Y-102850000D02*
X154703364Y-102850000D01*
%TO.N,TP_TINT*%
X157319683Y-105063379D02*
X157311257Y-105063379D01*
X157106303Y-104850000D02*
X155753364Y-104850000D01*
X157339022Y-105082718D02*
X157319683Y-105063379D01*
X157339022Y-105082718D02*
X157106303Y-104850000D01*
%TO.N,RES*%
X153014364Y-101904800D02*
X153014364Y-100683180D01*
X153459564Y-102350000D02*
X155753364Y-102350000D01*
X153014364Y-101904800D02*
X153459564Y-102350000D01*
X153014364Y-100683180D02*
X152457984Y-100126800D01*
%TO.N,TP_SDA*%
X154615984Y-104088362D02*
X154691602Y-104088362D01*
X154691602Y-104088362D02*
X154929964Y-103850000D01*
X154929964Y-103850000D02*
X155753364Y-103850000D01*
%TO.N,SPI_MOSI*%
X153743550Y-101700000D02*
X153893550Y-101850000D01*
X153893550Y-101850000D02*
X155753364Y-101850000D01*
X153737526Y-101700000D02*
X153743550Y-101700000D01*
%TO.N,SPI_SCK*%
X154537525Y-101350000D02*
X155753364Y-101350000D01*
X154387526Y-101200001D02*
X154537525Y-101350000D01*
%TO.N,Net-(Q1-D)*%
X147148364Y-93345000D02*
X149180864Y-93345000D01*
%TO.N,LED_CTRL*%
X140642664Y-92432500D02*
X141838364Y-92432500D01*
X144148364Y-94295000D02*
X143700864Y-94295000D01*
X143700864Y-94295000D02*
X141838364Y-92432500D01*
%TO.N,+3V3*%
X130865000Y-98850000D02*
X137245864Y-98850000D01*
X137245864Y-98850000D02*
X141838364Y-94257500D01*
%TO.N,D{slash}C*%
X131750121Y-101350000D02*
X130865000Y-101350000D01*
X131872119Y-101350046D02*
X131750167Y-101350046D01*
X131750167Y-101350046D02*
X131750121Y-101350000D01*
%TO.N,SPI_SCK*%
X131786225Y-100350000D02*
X131994494Y-100558269D01*
X130865000Y-100350000D02*
X131786225Y-100350000D01*
%TO.N,TP_SDA*%
X133719232Y-103910767D02*
X132658465Y-102850000D01*
X132658465Y-102850000D02*
X130865000Y-102850000D01*
%TO.N,TP_SCL*%
X132845771Y-103956545D02*
X132239226Y-103350000D01*
X132239226Y-103350000D02*
X130865000Y-103350000D01*
%TO.N,TP_TRST*%
X130865000Y-103850000D02*
X131780049Y-103850000D01*
X131780049Y-103850000D02*
X132666178Y-104736129D01*
%TO.N,TP_TINT*%
X131793245Y-104782436D02*
X131360809Y-104350000D01*
X131360809Y-104350000D02*
X130865000Y-104350000D01*
%TO.N,RES*%
X129188350Y-101648350D02*
X129390000Y-101850000D01*
X129390000Y-101850000D02*
X130865000Y-101850000D01*
%TO.N,CS*%
X129854051Y-100846124D02*
X129857879Y-100849952D01*
X129892416Y-100850000D02*
X130865000Y-100850000D01*
X129700000Y-100846124D02*
X129888540Y-100846124D01*
X129888540Y-100846124D02*
X129892416Y-100850000D01*
X129700000Y-100846124D02*
X129854051Y-100846124D01*
%TO.N,SPI_MOSI*%
X132015002Y-99500000D02*
X131665002Y-99850000D01*
X131665002Y-99850000D02*
X130865000Y-99850000D01*
%TO.N,LED_CTRL*%
X130865000Y-102350000D02*
X131792819Y-102350000D01*
X141554384Y-95250000D02*
X143193364Y-95250000D01*
X131792819Y-102350000D02*
X132645494Y-101497325D01*
X132645494Y-101497325D02*
X132645494Y-100314506D01*
X132645494Y-100314506D02*
X133609000Y-99351000D01*
X137453384Y-99351000D02*
X141554384Y-95250000D01*
X133609000Y-99351000D02*
X137453384Y-99351000D01*
X143193364Y-95250000D02*
X144148364Y-94295000D01*
%TO.N,GND*%
X130865000Y-99350000D02*
X129680000Y-99350000D01*
X129680000Y-99350000D02*
X129670000Y-99340000D01*
%TD*%
%TA.AperFunction,Conductor*%
%TO.N,GND*%
G36*
X153457932Y-87215656D02*
G01*
X153463904Y-87215804D01*
X154053472Y-87244775D01*
X154071569Y-87247008D01*
X154364843Y-87305344D01*
X154629080Y-87357904D01*
X154644748Y-87362102D01*
X154803397Y-87415956D01*
X155187891Y-87546475D01*
X155202862Y-87552676D01*
X155651574Y-87773955D01*
X155717287Y-87806361D01*
X155731335Y-87814471D01*
X156208243Y-88133132D01*
X156221107Y-88143003D01*
X156652337Y-88521185D01*
X156663806Y-88532654D01*
X156891302Y-88792061D01*
X157011548Y-88929175D01*
X157041994Y-88963891D01*
X157051868Y-88976759D01*
X157370529Y-89453668D01*
X157378639Y-89467715D01*
X157632318Y-89982128D01*
X157638525Y-89997113D01*
X157822895Y-90540249D01*
X157827093Y-90555917D01*
X157938990Y-91118462D01*
X157941107Y-91134543D01*
X157979950Y-91727161D01*
X157980216Y-91735338D01*
X157976977Y-97704010D01*
X157957256Y-97771039D01*
X157904427Y-97816765D01*
X157835263Y-97826671D01*
X157827444Y-97825123D01*
X157738983Y-97814500D01*
X157738982Y-97814500D01*
X157179746Y-97814500D01*
X157179745Y-97814500D01*
X157093289Y-97824882D01*
X157093288Y-97824882D01*
X157019126Y-97854128D01*
X156955706Y-97879138D01*
X156955704Y-97879139D01*
X156947816Y-97882250D01*
X156947337Y-97881035D01*
X156941679Y-97882516D01*
X156930849Y-97889477D01*
X156895914Y-97894500D01*
X156827863Y-97894500D01*
X156760824Y-97874815D01*
X156715069Y-97822011D01*
X156703863Y-97770500D01*
X156703863Y-97655142D01*
X156703863Y-97655136D01*
X156700949Y-97630009D01*
X156655570Y-97527235D01*
X156576129Y-97447794D01*
X156473356Y-97402415D01*
X156448232Y-97399500D01*
X156448229Y-97399500D01*
X155812674Y-97399500D01*
X155812673Y-97399500D01*
X155196230Y-97399500D01*
X155129191Y-97379815D01*
X155120741Y-97373874D01*
X155114977Y-97369451D01*
X154978058Y-97290402D01*
X154978054Y-97290400D01*
X154978052Y-97290399D01*
X154825325Y-97249476D01*
X154667211Y-97249476D01*
X154514484Y-97290399D01*
X154514477Y-97290402D01*
X154377558Y-97369451D01*
X154377550Y-97369457D01*
X154265749Y-97481258D01*
X154265743Y-97481266D01*
X154186694Y-97618185D01*
X154186691Y-97618192D01*
X154145768Y-97770919D01*
X154145768Y-97929033D01*
X154170884Y-98022765D01*
X154186691Y-98081759D01*
X154186694Y-98081766D01*
X154265743Y-98218685D01*
X154265747Y-98218690D01*
X154265748Y-98218692D01*
X154377552Y-98330496D01*
X154377554Y-98330497D01*
X154377558Y-98330500D01*
X154514477Y-98409549D01*
X154514484Y-98409553D01*
X154667211Y-98450476D01*
X154673864Y-98450476D01*
X154740903Y-98470161D01*
X154786658Y-98522965D01*
X154797864Y-98574476D01*
X154797864Y-98775500D01*
X154802154Y-98815404D01*
X154802864Y-98828658D01*
X154802864Y-99044857D01*
X154802866Y-99044881D01*
X154805778Y-99069988D01*
X154805779Y-99069991D01*
X154851157Y-99172764D01*
X154851158Y-99172765D01*
X154930599Y-99252206D01*
X155033373Y-99297585D01*
X155058499Y-99300500D01*
X155679612Y-99300499D01*
X155679622Y-99300500D01*
X155694055Y-99300500D01*
X156407866Y-99300500D01*
X156474905Y-99320185D01*
X156495547Y-99336819D01*
X156496244Y-99337516D01*
X156608048Y-99449320D01*
X156608050Y-99449321D01*
X156608054Y-99449324D01*
X156708149Y-99507113D01*
X156744980Y-99528377D01*
X156897707Y-99569300D01*
X156897709Y-99569300D01*
X157055819Y-99569300D01*
X157055821Y-99569300D01*
X157208548Y-99528377D01*
X157245378Y-99507112D01*
X157307378Y-99490500D01*
X157738983Y-99490500D01*
X157833335Y-99479169D01*
X157833622Y-99481559D01*
X157891360Y-99483746D01*
X157948666Y-99523718D01*
X157975265Y-99588327D01*
X157975947Y-99601383D01*
X157973760Y-103631079D01*
X157954039Y-103698108D01*
X157901210Y-103743834D01*
X157832046Y-103753740D01*
X157814969Y-103750031D01*
X157800665Y-103745849D01*
X157791884Y-103740780D01*
X157689168Y-103713257D01*
X157687812Y-103712861D01*
X157659541Y-103694741D01*
X157630849Y-103677252D01*
X157630213Y-103675943D01*
X157628988Y-103675158D01*
X157614999Y-103644624D01*
X157600320Y-103614405D01*
X157600133Y-103612175D01*
X157599887Y-103611637D01*
X157600014Y-103610743D01*
X157598603Y-103593842D01*
X157598603Y-103592317D01*
X157598603Y-103592315D01*
X157557680Y-103439588D01*
X157552284Y-103430242D01*
X157478627Y-103302662D01*
X157478621Y-103302654D01*
X157366820Y-103190853D01*
X157366812Y-103190847D01*
X157229893Y-103111798D01*
X157229888Y-103111795D01*
X157175519Y-103097227D01*
X157077160Y-103070872D01*
X157077158Y-103070872D01*
X157075893Y-103070533D01*
X157020306Y-103038439D01*
X156971380Y-102989513D01*
X156971378Y-102989511D01*
X156889342Y-102942147D01*
X156868652Y-102930201D01*
X156848767Y-102924873D01*
X156848764Y-102924872D01*
X156844437Y-102923713D01*
X156754073Y-102899500D01*
X156716418Y-102899500D01*
X156704849Y-102897282D01*
X156683830Y-102886472D01*
X156661158Y-102879815D01*
X156653338Y-102870790D01*
X156642715Y-102865327D01*
X156630876Y-102844868D01*
X156615403Y-102827011D01*
X156613703Y-102815190D01*
X156607721Y-102804852D01*
X156608822Y-102781244D01*
X156605459Y-102757853D01*
X156610420Y-102746988D01*
X156610977Y-102735059D01*
X156624665Y-102715796D01*
X156634484Y-102694297D01*
X156640516Y-102687819D01*
X156655570Y-102672765D01*
X156700949Y-102569991D01*
X156700949Y-102569988D01*
X156702658Y-102563709D01*
X156739252Y-102504189D01*
X156802216Y-102473901D01*
X156822309Y-102472262D01*
X156982418Y-102472262D01*
X156982420Y-102472262D01*
X157135147Y-102431339D01*
X157272079Y-102352282D01*
X157383883Y-102240478D01*
X157462940Y-102103546D01*
X157503863Y-101950819D01*
X157503863Y-101792705D01*
X157462940Y-101639978D01*
X157460677Y-101636058D01*
X157443876Y-101606956D01*
X157427264Y-101544958D01*
X157427264Y-100643459D01*
X157427264Y-100643457D01*
X157396563Y-100528880D01*
X157349748Y-100447794D01*
X157337253Y-100426152D01*
X156900612Y-99989511D01*
X156797885Y-99930201D01*
X156759063Y-99919799D01*
X156759060Y-99919798D01*
X156727043Y-99911219D01*
X156683307Y-99899500D01*
X155694055Y-99899500D01*
X155694052Y-99899500D01*
X155058507Y-99899500D01*
X155058481Y-99899502D01*
X155033378Y-99902413D01*
X155033374Y-99902414D01*
X155010350Y-99912580D01*
X154941072Y-99921648D01*
X154898270Y-99906531D01*
X154835148Y-99870088D01*
X154682421Y-99829165D01*
X154524307Y-99829165D01*
X154371580Y-99870088D01*
X154371573Y-99870091D01*
X154234654Y-99949140D01*
X154234646Y-99949146D01*
X154122845Y-100060947D01*
X154122839Y-100060955D01*
X154043790Y-100197874D01*
X154043787Y-100197881D01*
X154002864Y-100350608D01*
X154002864Y-100508722D01*
X154029283Y-100607318D01*
X154032243Y-100618366D01*
X154030580Y-100688216D01*
X154000150Y-100738139D01*
X153907007Y-100831283D01*
X153907001Y-100831291D01*
X153827952Y-100968210D01*
X153827949Y-100968216D01*
X153827949Y-100968217D01*
X153817397Y-101007595D01*
X153806982Y-101024683D01*
X153801108Y-101043816D01*
X153789170Y-101053906D01*
X153781035Y-101067253D01*
X153763032Y-101075998D01*
X153747746Y-101088919D01*
X153727741Y-101093142D01*
X153718188Y-101097783D01*
X153713762Y-101098445D01*
X153705725Y-101099500D01*
X153658469Y-101099500D01*
X153613089Y-101111659D01*
X153605002Y-101112721D01*
X153578216Y-101108533D01*
X153551106Y-101107888D01*
X153544203Y-101103216D01*
X153535971Y-101101929D01*
X153515699Y-101083923D01*
X153493244Y-101068724D01*
X153489963Y-101061063D01*
X153483733Y-101055529D01*
X153476413Y-101029418D01*
X153465741Y-101004495D01*
X153464864Y-100989776D01*
X153464864Y-100623873D01*
X153464864Y-100623871D01*
X153434163Y-100509294D01*
X153434163Y-100509293D01*
X153374853Y-100406566D01*
X153094684Y-100126397D01*
X153061199Y-100065074D01*
X153059426Y-100054899D01*
X153058484Y-100047745D01*
X153058484Y-100047743D01*
X153017561Y-99895016D01*
X152984539Y-99837819D01*
X152938508Y-99758090D01*
X152938502Y-99758082D01*
X152826701Y-99646281D01*
X152826693Y-99646275D01*
X152689774Y-99567226D01*
X152689770Y-99567224D01*
X152689768Y-99567223D01*
X152537041Y-99526300D01*
X152378927Y-99526300D01*
X152226200Y-99567223D01*
X152226193Y-99567226D01*
X152089274Y-99646275D01*
X152089266Y-99646281D01*
X151977465Y-99758082D01*
X151977459Y-99758090D01*
X151898410Y-99895009D01*
X151898407Y-99895016D01*
X151857484Y-100047743D01*
X151857484Y-100205856D01*
X151898407Y-100358583D01*
X151898410Y-100358590D01*
X151977459Y-100495509D01*
X151977463Y-100495514D01*
X151977464Y-100495516D01*
X152089268Y-100607320D01*
X152089270Y-100607321D01*
X152089274Y-100607324D01*
X152151863Y-100643459D01*
X152226200Y-100686377D01*
X152378927Y-100727300D01*
X152378929Y-100727300D01*
X152386083Y-100728242D01*
X152406988Y-100737489D01*
X152429327Y-100742349D01*
X152445725Y-100754625D01*
X152449980Y-100756507D01*
X152457581Y-100763500D01*
X152527545Y-100833464D01*
X152561030Y-100894787D01*
X152563864Y-100921145D01*
X152563864Y-101964109D01*
X152585713Y-102045649D01*
X152585712Y-102045649D01*
X152585713Y-102045651D01*
X152594563Y-102078683D01*
X152594564Y-102078685D01*
X152594565Y-102078687D01*
X152653875Y-102181414D01*
X153182950Y-102710489D01*
X153285677Y-102769799D01*
X153309885Y-102776284D01*
X153309888Y-102776286D01*
X153309889Y-102776286D01*
X153328393Y-102781244D01*
X153400255Y-102800500D01*
X153400257Y-102800500D01*
X154778531Y-102800500D01*
X154845570Y-102820185D01*
X154891325Y-102872989D01*
X154901269Y-102942147D01*
X154872244Y-103005703D01*
X154866212Y-103012181D01*
X154851158Y-103027234D01*
X154805779Y-103130006D01*
X154805779Y-103130008D01*
X154802864Y-103155131D01*
X154802864Y-103331597D01*
X154799481Y-103343114D01*
X154800623Y-103355064D01*
X154789820Y-103376017D01*
X154783179Y-103398636D01*
X154773307Y-103408049D01*
X154768607Y-103417166D01*
X154740867Y-103438982D01*
X154684977Y-103471250D01*
X154622980Y-103487862D01*
X154536927Y-103487862D01*
X154384200Y-103528785D01*
X154384193Y-103528788D01*
X154247274Y-103607837D01*
X154247266Y-103607843D01*
X154135465Y-103719644D01*
X154135459Y-103719652D01*
X154056410Y-103856571D01*
X154056407Y-103856578D01*
X154015484Y-104009305D01*
X154015484Y-104167419D01*
X154045512Y-104279483D01*
X154056407Y-104320145D01*
X154056410Y-104320152D01*
X154135459Y-104457071D01*
X154135465Y-104457079D01*
X154156724Y-104478338D01*
X154190209Y-104539661D01*
X154185225Y-104609353D01*
X154156727Y-104653698D01*
X154125705Y-104684721D01*
X154125701Y-104684726D01*
X154046652Y-104821645D01*
X154046649Y-104821652D01*
X154005726Y-104974379D01*
X154005726Y-105132493D01*
X154045253Y-105280008D01*
X154046649Y-105285219D01*
X154046652Y-105285226D01*
X154125701Y-105422145D01*
X154125705Y-105422150D01*
X154125706Y-105422152D01*
X154237510Y-105533956D01*
X154237512Y-105533957D01*
X154237516Y-105533960D01*
X154374435Y-105613009D01*
X154374442Y-105613013D01*
X154527169Y-105653936D01*
X154527170Y-105653936D01*
X154534326Y-105654878D01*
X154580580Y-105670685D01*
X154594461Y-105678775D01*
X154626176Y-105710490D01*
X154728903Y-105769799D01*
X154753116Y-105776286D01*
X154843481Y-105800500D01*
X155058499Y-105800500D01*
X155694055Y-105800500D01*
X156449099Y-105800500D01*
X156478539Y-105809144D01*
X156508526Y-105815668D01*
X156513541Y-105819422D01*
X156516138Y-105820185D01*
X156536780Y-105836819D01*
X156647545Y-105947584D01*
X156681030Y-106008907D01*
X156683864Y-106035265D01*
X156683864Y-106464418D01*
X156694246Y-106550874D01*
X156694246Y-106550875D01*
X156748503Y-106688460D01*
X156837863Y-106806300D01*
X156955703Y-106895660D01*
X156955706Y-106895662D01*
X157093287Y-106949917D01*
X157150926Y-106956839D01*
X157179745Y-106960300D01*
X157179746Y-106960300D01*
X157738981Y-106960300D01*
X157738982Y-106960300D01*
X157825441Y-106949917D01*
X157825442Y-106949916D01*
X157833107Y-106948996D01*
X157902016Y-106960546D01*
X157953741Y-107007518D01*
X157971893Y-107072178D01*
X157969506Y-111469555D01*
X157969357Y-111475574D01*
X157940222Y-112068468D01*
X157937988Y-112086573D01*
X157827093Y-112644080D01*
X157822895Y-112659748D01*
X157638525Y-113202884D01*
X157632318Y-113217869D01*
X157378639Y-113732282D01*
X157370529Y-113746329D01*
X157051868Y-114223238D01*
X157041994Y-114236106D01*
X156663806Y-114667343D01*
X156652337Y-114678812D01*
X156221107Y-115056994D01*
X156208239Y-115066868D01*
X155731334Y-115385526D01*
X155717287Y-115393636D01*
X155202869Y-115647318D01*
X155187884Y-115653525D01*
X154644748Y-115837895D01*
X154629080Y-115842093D01*
X154066535Y-115953990D01*
X154050454Y-115956107D01*
X153455333Y-115995114D01*
X153447174Y-115995380D01*
X125945411Y-115984504D01*
X125939374Y-115984355D01*
X125346529Y-115955225D01*
X125328424Y-115952991D01*
X124770916Y-115842096D01*
X124755248Y-115837898D01*
X124212115Y-115653528D01*
X124197136Y-115647323D01*
X123682710Y-115393638D01*
X123668664Y-115385529D01*
X123191757Y-115066870D01*
X123178889Y-115056996D01*
X122747656Y-114678812D01*
X122736187Y-114667343D01*
X122586376Y-114496518D01*
X122358000Y-114236106D01*
X122348129Y-114223242D01*
X122348126Y-114223238D01*
X122029470Y-113746335D01*
X122021360Y-113732288D01*
X121953395Y-113594468D01*
X121767676Y-113217865D01*
X121761475Y-113202894D01*
X121577101Y-112659748D01*
X121572904Y-112644083D01*
X121498265Y-112268848D01*
X121461005Y-112081531D01*
X121458890Y-112065473D01*
X121420045Y-111472818D01*
X121419781Y-111464648D01*
X121419793Y-111443751D01*
X121425227Y-101430943D01*
X128449500Y-101430943D01*
X128449500Y-101589057D01*
X128467208Y-101655142D01*
X128490423Y-101741783D01*
X128490426Y-101741790D01*
X128569475Y-101878709D01*
X128569479Y-101878714D01*
X128569480Y-101878716D01*
X128681284Y-101990520D01*
X128681286Y-101990521D01*
X128681290Y-101990524D01*
X128818209Y-102069573D01*
X128818216Y-102069577D01*
X128970943Y-102110500D01*
X128970945Y-102110500D01*
X128978099Y-102111442D01*
X129041996Y-102139707D01*
X129049597Y-102146700D01*
X129113386Y-102210489D01*
X129216113Y-102269799D01*
X129240321Y-102276284D01*
X129240324Y-102276286D01*
X129240325Y-102276286D01*
X129270447Y-102284357D01*
X129330691Y-102300500D01*
X129790501Y-102300500D01*
X129796941Y-102302391D01*
X129803544Y-102301188D01*
X129830042Y-102312110D01*
X129857540Y-102320185D01*
X129861934Y-102325256D01*
X129868141Y-102327815D01*
X129884529Y-102351332D01*
X129903295Y-102372989D01*
X129905191Y-102380981D01*
X129908088Y-102385139D01*
X129912278Y-102410858D01*
X129914414Y-102419861D01*
X129914500Y-102422171D01*
X129914501Y-102544864D01*
X129917415Y-102569991D01*
X129920276Y-102576472D01*
X129920984Y-102595361D01*
X129916726Y-102612164D01*
X129916726Y-102620540D01*
X129918490Y-102620745D01*
X129914500Y-102655131D01*
X129914500Y-103044856D01*
X129914502Y-103044882D01*
X129918489Y-103079258D01*
X129916726Y-103079462D01*
X129916726Y-103120540D01*
X129918490Y-103120745D01*
X129914500Y-103155131D01*
X129914500Y-103544856D01*
X129914502Y-103544882D01*
X129918489Y-103579258D01*
X129916726Y-103579462D01*
X129916726Y-103620540D01*
X129918490Y-103620745D01*
X129914500Y-103655131D01*
X129914500Y-104044856D01*
X129914502Y-104044882D01*
X129918489Y-104079258D01*
X129916726Y-104079462D01*
X129916726Y-104120540D01*
X129918490Y-104120745D01*
X129914500Y-104155131D01*
X129914500Y-104544856D01*
X129914502Y-104544882D01*
X129917413Y-104569987D01*
X129917415Y-104569991D01*
X129962793Y-104672764D01*
X129962794Y-104672765D01*
X130042235Y-104752206D01*
X130145009Y-104797585D01*
X130170135Y-104800500D01*
X130791248Y-104800499D01*
X130791258Y-104800500D01*
X130805691Y-104800500D01*
X131081254Y-104800500D01*
X131148293Y-104820185D01*
X131194048Y-104872989D01*
X131201026Y-104892400D01*
X131222993Y-104974379D01*
X131233668Y-105014219D01*
X131233671Y-105014226D01*
X131312720Y-105151145D01*
X131312724Y-105151150D01*
X131312725Y-105151152D01*
X131424529Y-105262956D01*
X131424531Y-105262957D01*
X131424535Y-105262960D01*
X131553973Y-105337690D01*
X131561461Y-105342013D01*
X131714188Y-105382936D01*
X131714190Y-105382936D01*
X131872300Y-105382936D01*
X131872302Y-105382936D01*
X132025029Y-105342013D01*
X132161961Y-105262956D01*
X132173636Y-105251280D01*
X132234954Y-105217797D01*
X132304646Y-105222779D01*
X132323309Y-105231571D01*
X132434394Y-105295706D01*
X132587121Y-105336629D01*
X132590500Y-105336629D01*
X132593245Y-105337435D01*
X132595181Y-105337690D01*
X132595141Y-105337991D01*
X132657539Y-105356314D01*
X132703294Y-105409118D01*
X132714500Y-105460629D01*
X132714500Y-107194856D01*
X132714502Y-107194882D01*
X132717413Y-107219987D01*
X132717415Y-107219991D01*
X132762793Y-107322764D01*
X132762794Y-107322765D01*
X132842235Y-107402206D01*
X132945009Y-107447585D01*
X132970135Y-107450500D01*
X135259864Y-107450499D01*
X135259879Y-107450497D01*
X135259882Y-107450497D01*
X135284987Y-107447586D01*
X135284988Y-107447585D01*
X135284991Y-107447585D01*
X135387765Y-107402206D01*
X135467206Y-107322765D01*
X135512585Y-107219991D01*
X135515500Y-107194865D01*
X135515499Y-105305136D01*
X135515497Y-105305117D01*
X135512586Y-105280012D01*
X135512585Y-105280010D01*
X135512585Y-105280009D01*
X135467206Y-105177235D01*
X135387765Y-105097794D01*
X135284992Y-105052415D01*
X135259868Y-105049500D01*
X135259865Y-105049500D01*
X133365493Y-105049500D01*
X133298454Y-105029815D01*
X133252699Y-104977011D01*
X133242755Y-104907853D01*
X133245714Y-104893422D01*
X133266678Y-104815186D01*
X133266678Y-104657072D01*
X133244564Y-104574541D01*
X133246227Y-104504694D01*
X133285389Y-104446831D01*
X133349618Y-104419327D01*
X133418520Y-104430913D01*
X133426338Y-104435062D01*
X133487448Y-104470344D01*
X133640175Y-104511267D01*
X133640177Y-104511267D01*
X133798287Y-104511267D01*
X133798289Y-104511267D01*
X133951016Y-104470344D01*
X134087948Y-104391287D01*
X134199752Y-104279483D01*
X134278809Y-104142551D01*
X134319732Y-103989824D01*
X134319732Y-103831710D01*
X134278809Y-103678983D01*
X134276601Y-103675158D01*
X134199756Y-103542057D01*
X134199750Y-103542049D01*
X134087949Y-103430248D01*
X134087941Y-103430242D01*
X133951022Y-103351193D01*
X133951018Y-103351191D01*
X133951016Y-103351190D01*
X133798289Y-103310267D01*
X133798282Y-103310265D01*
X133791125Y-103309323D01*
X133727229Y-103281054D01*
X133719634Y-103274066D01*
X132935081Y-102489513D01*
X132935079Y-102489511D01*
X132883715Y-102459856D01*
X132832353Y-102430201D01*
X132821278Y-102427233D01*
X132808138Y-102423713D01*
X132717774Y-102399500D01*
X132668880Y-102399500D01*
X132658143Y-102397597D01*
X132636222Y-102386708D01*
X132612745Y-102379815D01*
X132605491Y-102371444D01*
X132595568Y-102366515D01*
X132583013Y-102345503D01*
X132566990Y-102327011D01*
X132565413Y-102316046D01*
X132559731Y-102306536D01*
X132560529Y-102282077D01*
X132557046Y-102257853D01*
X132561648Y-102247774D01*
X132562010Y-102236703D01*
X132575904Y-102216559D01*
X132586071Y-102194297D01*
X132592103Y-102187819D01*
X132789404Y-101990518D01*
X133005984Y-101773938D01*
X133065293Y-101671211D01*
X133069600Y-101655136D01*
X133095994Y-101556634D01*
X133095994Y-100552471D01*
X133115679Y-100485432D01*
X133132313Y-100464790D01*
X133759284Y-99837819D01*
X133820607Y-99804334D01*
X133846965Y-99801500D01*
X137512691Y-99801500D01*
X137512693Y-99801500D01*
X137589369Y-99780954D01*
X137605573Y-99776613D01*
X137605575Y-99776612D01*
X137615514Y-99773948D01*
X137627269Y-99770800D01*
X137649283Y-99758090D01*
X137729998Y-99711489D01*
X141661102Y-95780386D01*
X146417864Y-95780386D01*
X146417864Y-95819108D01*
X146417864Y-107249108D01*
X146417864Y-107315000D01*
X146417864Y-107419614D01*
X146422532Y-107447585D01*
X146452302Y-107625990D01*
X146520236Y-107823874D01*
X146520241Y-107823885D01*
X146619817Y-108007886D01*
X146619824Y-108007897D01*
X146748323Y-108172992D01*
X146748325Y-108172994D01*
X146748329Y-108172999D01*
X146884760Y-108298592D01*
X146902265Y-108314707D01*
X147077421Y-108429141D01*
X147269026Y-108513187D01*
X147471851Y-108564549D01*
X147541355Y-108570308D01*
X147680358Y-108581827D01*
X147680364Y-108581827D01*
X147680370Y-108581827D01*
X147805471Y-108571460D01*
X147888877Y-108564549D01*
X148091702Y-108513187D01*
X148283307Y-108429141D01*
X148458465Y-108314705D01*
X148612399Y-108172999D01*
X148740909Y-108007889D01*
X148840490Y-107823879D01*
X148908426Y-107625988D01*
X148942864Y-107419614D01*
X148942864Y-107315000D01*
X148942864Y-107249108D01*
X148942864Y-106805131D01*
X151102864Y-106805131D01*
X151102864Y-108694856D01*
X151102866Y-108694882D01*
X151105777Y-108719987D01*
X151105779Y-108719991D01*
X151151157Y-108822764D01*
X151151158Y-108822765D01*
X151230599Y-108902206D01*
X151333373Y-108947585D01*
X151358499Y-108950500D01*
X153648228Y-108950499D01*
X153648243Y-108950497D01*
X153648246Y-108950497D01*
X153673351Y-108947586D01*
X153673352Y-108947585D01*
X153673355Y-108947585D01*
X153776129Y-108902206D01*
X153855570Y-108822765D01*
X153900949Y-108719991D01*
X153903864Y-108694865D01*
X153903863Y-106805136D01*
X153903861Y-106805117D01*
X153900950Y-106780012D01*
X153900949Y-106780010D01*
X153900949Y-106780009D01*
X153855570Y-106677235D01*
X153776129Y-106597794D01*
X153776127Y-106597793D01*
X153673356Y-106552415D01*
X153648229Y-106549500D01*
X151358507Y-106549500D01*
X151358481Y-106549502D01*
X151333376Y-106552413D01*
X151333372Y-106552415D01*
X151230599Y-106597793D01*
X151151158Y-106677234D01*
X151105779Y-106780006D01*
X151105779Y-106780008D01*
X151102864Y-106805131D01*
X148942864Y-106805131D01*
X148942864Y-95819108D01*
X148942864Y-95780386D01*
X148908426Y-95574012D01*
X148840490Y-95376121D01*
X148740909Y-95192111D01*
X148740907Y-95192109D01*
X148740903Y-95192102D01*
X148612404Y-95027007D01*
X148612401Y-95027004D01*
X148612399Y-95027001D01*
X148458465Y-94885295D01*
X148458462Y-94885292D01*
X148283306Y-94770858D01*
X148091702Y-94686813D01*
X147888873Y-94635450D01*
X147680370Y-94618173D01*
X147680358Y-94618173D01*
X147471854Y-94635450D01*
X147269025Y-94686813D01*
X147077421Y-94770858D01*
X146902265Y-94885292D01*
X146748326Y-95027004D01*
X146748323Y-95027007D01*
X146619824Y-95192102D01*
X146619817Y-95192113D01*
X146520241Y-95376114D01*
X146520236Y-95376125D01*
X146452302Y-95574009D01*
X146437554Y-95662392D01*
X146417864Y-95780386D01*
X141661102Y-95780386D01*
X141704669Y-95736819D01*
X141765992Y-95703334D01*
X141792350Y-95700500D01*
X143252672Y-95700500D01*
X143252673Y-95700500D01*
X143343037Y-95676286D01*
X143367251Y-95669799D01*
X143469978Y-95610489D01*
X144048648Y-95031817D01*
X144109971Y-94998333D01*
X144136329Y-94995499D01*
X144946235Y-94995499D01*
X144946236Y-94995499D01*
X145005847Y-94989091D01*
X145140695Y-94938796D01*
X145255910Y-94852546D01*
X145342160Y-94737331D01*
X145392455Y-94602483D01*
X145398864Y-94542873D01*
X145398863Y-94047128D01*
X145392593Y-93988797D01*
X145392455Y-93987516D01*
X145342161Y-93852671D01*
X145342157Y-93852664D01*
X145255911Y-93737455D01*
X145255908Y-93737452D01*
X145140699Y-93651206D01*
X145140692Y-93651202D01*
X145005846Y-93600908D01*
X145005847Y-93600908D01*
X144946247Y-93594501D01*
X144946245Y-93594500D01*
X144946237Y-93594500D01*
X144946229Y-93594500D01*
X143688830Y-93594500D01*
X143621791Y-93574815D01*
X143601149Y-93558181D01*
X143140095Y-93097127D01*
X145897864Y-93097127D01*
X145897864Y-93097134D01*
X145897864Y-93097135D01*
X145897864Y-93592870D01*
X145897865Y-93592876D01*
X145904272Y-93652483D01*
X145954566Y-93787328D01*
X145954570Y-93787335D01*
X146040816Y-93902544D01*
X146040819Y-93902547D01*
X146156028Y-93988793D01*
X146156035Y-93988797D01*
X146290881Y-94039091D01*
X146290880Y-94039091D01*
X146297808Y-94039835D01*
X146350491Y-94045500D01*
X147946236Y-94045499D01*
X148005847Y-94039091D01*
X148140695Y-93988796D01*
X148255910Y-93902546D01*
X148277729Y-93873399D01*
X148333661Y-93831530D01*
X148403352Y-93826545D01*
X148464676Y-93860029D01*
X148475799Y-93872786D01*
X148546863Y-93966500D01*
X148664703Y-94055860D01*
X148664706Y-94055862D01*
X148802287Y-94110117D01*
X148859926Y-94117039D01*
X148888745Y-94120500D01*
X148888746Y-94120500D01*
X149472983Y-94120500D01*
X149494596Y-94117904D01*
X149559441Y-94110117D01*
X149697022Y-94055862D01*
X149814864Y-93966500D01*
X149821764Y-93957401D01*
X149877955Y-93915876D01*
X149947676Y-93911322D01*
X150008791Y-93945185D01*
X150027957Y-93970323D01*
X150042405Y-93995348D01*
X150042407Y-93995351D01*
X150042408Y-93995352D01*
X150154212Y-94107156D01*
X150154214Y-94107157D01*
X150154218Y-94107160D01*
X150288889Y-94184911D01*
X150291144Y-94186213D01*
X150443871Y-94227136D01*
X150443873Y-94227136D01*
X150601983Y-94227136D01*
X150601985Y-94227136D01*
X150754712Y-94186213D01*
X150839756Y-94137112D01*
X150855244Y-94132962D01*
X150866821Y-94125523D01*
X150901756Y-94120500D01*
X151108531Y-94120500D01*
X151175570Y-94140185D01*
X151221325Y-94192989D01*
X151231269Y-94262147D01*
X151202244Y-94325703D01*
X151196212Y-94332181D01*
X151151158Y-94377234D01*
X151105779Y-94480006D01*
X151105779Y-94480008D01*
X151102864Y-94505131D01*
X151102864Y-96394856D01*
X151102866Y-96394882D01*
X151105777Y-96419987D01*
X151105779Y-96419991D01*
X151151157Y-96522764D01*
X151151158Y-96522765D01*
X151230599Y-96602206D01*
X151333373Y-96647585D01*
X151358499Y-96650500D01*
X153648228Y-96650499D01*
X153648243Y-96650497D01*
X153648246Y-96650497D01*
X153673351Y-96647586D01*
X153673352Y-96647585D01*
X153673355Y-96647585D01*
X153776129Y-96602206D01*
X153855570Y-96522765D01*
X153900949Y-96419991D01*
X153903864Y-96394865D01*
X153903863Y-94505136D01*
X153903861Y-94505117D01*
X153900950Y-94480012D01*
X153900949Y-94480010D01*
X153900949Y-94480009D01*
X153855570Y-94377235D01*
X153776129Y-94297794D01*
X153673356Y-94252415D01*
X153648232Y-94249500D01*
X151635407Y-94249500D01*
X151568368Y-94229815D01*
X151522613Y-94177011D01*
X151512669Y-94107853D01*
X151541694Y-94044297D01*
X151560476Y-94026701D01*
X151639864Y-93966500D01*
X151729226Y-93848658D01*
X151783481Y-93711077D01*
X151793864Y-93624618D01*
X151793864Y-93065382D01*
X151783481Y-92978923D01*
X151729226Y-92841342D01*
X151720188Y-92829423D01*
X151639864Y-92723499D01*
X151522024Y-92634139D01*
X151522022Y-92634138D01*
X151384441Y-92579883D01*
X151384440Y-92579882D01*
X151384438Y-92579882D01*
X151297983Y-92569500D01*
X151297982Y-92569500D01*
X150713746Y-92569500D01*
X150713745Y-92569500D01*
X150627289Y-92579882D01*
X150627288Y-92579882D01*
X150489703Y-92634139D01*
X150371863Y-92723499D01*
X150282503Y-92841339D01*
X150228246Y-92978924D01*
X150228246Y-92978925D01*
X150219584Y-93051056D01*
X150217799Y-93055217D01*
X150218230Y-93059725D01*
X150204156Y-93087031D01*
X150192046Y-93115270D01*
X150187713Y-93118933D01*
X150186220Y-93121831D01*
X150158479Y-93143651D01*
X150152671Y-93147005D01*
X150084773Y-93163484D01*
X150018744Y-93140638D01*
X149975548Y-93085721D01*
X149967546Y-93054409D01*
X149958481Y-92978923D01*
X149904226Y-92841342D01*
X149895188Y-92829423D01*
X149814864Y-92723499D01*
X149697024Y-92634139D01*
X149697022Y-92634138D01*
X149559441Y-92579883D01*
X149559440Y-92579882D01*
X149559438Y-92579882D01*
X149472983Y-92569500D01*
X149472982Y-92569500D01*
X148888746Y-92569500D01*
X148888745Y-92569500D01*
X148802289Y-92579882D01*
X148802288Y-92579882D01*
X148664703Y-92634139D01*
X148546863Y-92723499D01*
X148475799Y-92817213D01*
X148419607Y-92858736D01*
X148349885Y-92863288D01*
X148288771Y-92829423D01*
X148277728Y-92816599D01*
X148255910Y-92787454D01*
X148255906Y-92787451D01*
X148140699Y-92701206D01*
X148140692Y-92701202D01*
X148005846Y-92650908D01*
X148005847Y-92650908D01*
X147946247Y-92644501D01*
X147946245Y-92644500D01*
X147946237Y-92644500D01*
X147946228Y-92644500D01*
X146350493Y-92644500D01*
X146350487Y-92644501D01*
X146290880Y-92650908D01*
X146156035Y-92701202D01*
X146156028Y-92701206D01*
X146040819Y-92787452D01*
X146040816Y-92787455D01*
X145954570Y-92902664D01*
X145954566Y-92902671D01*
X145926126Y-92978925D01*
X145904273Y-93037517D01*
X145897864Y-93097127D01*
X143140095Y-93097127D01*
X142650183Y-92607215D01*
X142616698Y-92545892D01*
X142613864Y-92519534D01*
X142613864Y-92140381D01*
X142603481Y-92053925D01*
X142603481Y-92053924D01*
X142603481Y-92053923D01*
X142549226Y-91916342D01*
X142549224Y-91916339D01*
X142459864Y-91798499D01*
X142342024Y-91709139D01*
X142342022Y-91709138D01*
X142204441Y-91654883D01*
X142204440Y-91654882D01*
X142204438Y-91654882D01*
X142117983Y-91644500D01*
X142117982Y-91644500D01*
X141558746Y-91644500D01*
X141558745Y-91644500D01*
X141472289Y-91654882D01*
X141472288Y-91654882D01*
X141334703Y-91709139D01*
X141216863Y-91798499D01*
X141127501Y-91916342D01*
X141126136Y-91918771D01*
X141124306Y-91920556D01*
X141122377Y-91923100D01*
X141121995Y-91922810D01*
X141076123Y-91967560D01*
X141018049Y-91982000D01*
X140583355Y-91982000D01*
X140468778Y-92012701D01*
X140468776Y-92012701D01*
X140468776Y-92012702D01*
X140366051Y-92072011D01*
X140366048Y-92072013D01*
X140282177Y-92155884D01*
X140282175Y-92155887D01*
X140222865Y-92258614D01*
X140192164Y-92373191D01*
X140192164Y-92491809D01*
X140222865Y-92606386D01*
X140282175Y-92709113D01*
X140366051Y-92792989D01*
X140468778Y-92852299D01*
X140583355Y-92883000D01*
X141018049Y-92883000D01*
X141085088Y-92902685D01*
X141122189Y-92942042D01*
X141122377Y-92941900D01*
X141123700Y-92943645D01*
X141126136Y-92946229D01*
X141127501Y-92948657D01*
X141216863Y-93066500D01*
X141323026Y-93147005D01*
X141334706Y-93155862D01*
X141472287Y-93210117D01*
X141529926Y-93217039D01*
X141558745Y-93220500D01*
X141558746Y-93220500D01*
X141895129Y-93220500D01*
X141916374Y-93226738D01*
X141938463Y-93228318D01*
X141949246Y-93236390D01*
X141962168Y-93240185D01*
X141976667Y-93256918D01*
X141994396Y-93270190D01*
X141999103Y-93282810D01*
X142007923Y-93292989D01*
X142011074Y-93314906D01*
X142018813Y-93335654D01*
X142015950Y-93348814D01*
X142017867Y-93362147D01*
X142008667Y-93382290D01*
X142003961Y-93403927D01*
X141990692Y-93421652D01*
X141988842Y-93425703D01*
X141982810Y-93432181D01*
X141981810Y-93433181D01*
X141920487Y-93466666D01*
X141894129Y-93469500D01*
X141558745Y-93469500D01*
X141472289Y-93479882D01*
X141472288Y-93479882D01*
X141334703Y-93534139D01*
X141216863Y-93623499D01*
X141127503Y-93741339D01*
X141073246Y-93878924D01*
X141073246Y-93878925D01*
X141062864Y-93965381D01*
X141062864Y-94344534D01*
X141043179Y-94411573D01*
X141026545Y-94432215D01*
X137095580Y-98363181D01*
X137034257Y-98396666D01*
X137007899Y-98399500D01*
X130170143Y-98399500D01*
X130170117Y-98399502D01*
X130145012Y-98402413D01*
X130145008Y-98402415D01*
X130042235Y-98447793D01*
X129962794Y-98527234D01*
X129917415Y-98630006D01*
X129917415Y-98630008D01*
X129914500Y-98655131D01*
X129914500Y-99044856D01*
X129914502Y-99044882D01*
X129917413Y-99069987D01*
X129917415Y-99069991D01*
X129962793Y-99172764D01*
X130050360Y-99260331D01*
X130047942Y-99262748D01*
X130079842Y-99301829D01*
X130087747Y-99371250D01*
X130056865Y-99433924D01*
X130050301Y-99439610D01*
X130050360Y-99439669D01*
X129962794Y-99527234D01*
X129917415Y-99630006D01*
X129917415Y-99630008D01*
X129914500Y-99655131D01*
X129914500Y-100044856D01*
X129914502Y-100044882D01*
X129918489Y-100079258D01*
X129917870Y-100079329D01*
X129920086Y-100084403D01*
X129918687Y-100104436D01*
X129919497Y-100119692D01*
X129918079Y-100128503D01*
X129917415Y-100130009D01*
X129916321Y-100139434D01*
X129915886Y-100142142D01*
X129901979Y-100171296D01*
X129889354Y-100201066D01*
X129887020Y-100202657D01*
X129885805Y-100205205D01*
X129858339Y-100222214D01*
X129831628Y-100240430D01*
X129828462Y-100240718D01*
X129826405Y-100241993D01*
X129816340Y-100241825D01*
X129787184Y-100244486D01*
X129787184Y-100245624D01*
X129620943Y-100245624D01*
X129468216Y-100286547D01*
X129468209Y-100286550D01*
X129331290Y-100365599D01*
X129331282Y-100365605D01*
X129219481Y-100477406D01*
X129219475Y-100477414D01*
X129140426Y-100614333D01*
X129140423Y-100614340D01*
X129099500Y-100767067D01*
X129099500Y-100785500D01*
X129079815Y-100852539D01*
X129027011Y-100898294D01*
X128975500Y-100909500D01*
X128970943Y-100909500D01*
X128818216Y-100950423D01*
X128818209Y-100950426D01*
X128681290Y-101029475D01*
X128681282Y-101029481D01*
X128569481Y-101141282D01*
X128569475Y-101141290D01*
X128490426Y-101278209D01*
X128490423Y-101278216D01*
X128449500Y-101430943D01*
X121425227Y-101430943D01*
X121428171Y-96005131D01*
X132714500Y-96005131D01*
X132714500Y-97894856D01*
X132714502Y-97894882D01*
X132717413Y-97919987D01*
X132717415Y-97919991D01*
X132762793Y-98022764D01*
X132762794Y-98022765D01*
X132842235Y-98102206D01*
X132945009Y-98147585D01*
X132970135Y-98150500D01*
X135259864Y-98150499D01*
X135259879Y-98150497D01*
X135259882Y-98150497D01*
X135284987Y-98147586D01*
X135284988Y-98147585D01*
X135284991Y-98147585D01*
X135387765Y-98102206D01*
X135467206Y-98022765D01*
X135512585Y-97919991D01*
X135515500Y-97894865D01*
X135515499Y-96005136D01*
X135515076Y-96001487D01*
X135512586Y-95980012D01*
X135512585Y-95980010D01*
X135512585Y-95980009D01*
X135467206Y-95877235D01*
X135387765Y-95797794D01*
X135348342Y-95780387D01*
X135284992Y-95752415D01*
X135259865Y-95749500D01*
X132970143Y-95749500D01*
X132970117Y-95749502D01*
X132945012Y-95752413D01*
X132945008Y-95752415D01*
X132842235Y-95797793D01*
X132762794Y-95877234D01*
X132717415Y-95980006D01*
X132717415Y-95980008D01*
X132714500Y-96005131D01*
X121428171Y-96005131D01*
X121430491Y-91730425D01*
X121430640Y-91724421D01*
X121431714Y-91702567D01*
X121459774Y-91131524D01*
X121462008Y-91113425D01*
X121572907Y-90555900D01*
X121577096Y-90540263D01*
X121761476Y-89997101D01*
X121767673Y-89982140D01*
X122021364Y-89467704D01*
X122029468Y-89453668D01*
X122348137Y-88976746D01*
X122357994Y-88963901D01*
X122736189Y-88532653D01*
X122747647Y-88521195D01*
X123178901Y-88142994D01*
X123191746Y-88133137D01*
X123668670Y-87814466D01*
X123682699Y-87806366D01*
X124197148Y-87552670D01*
X124212108Y-87546474D01*
X124599070Y-87415117D01*
X124755250Y-87362102D01*
X124770917Y-87357904D01*
X125333469Y-87246005D01*
X125349536Y-87243890D01*
X125942222Y-87205043D01*
X125950344Y-87204778D01*
X153457932Y-87215656D01*
G37*
%TD.AperFunction*%
%TD*%
%TA.AperFunction,Conductor*%
%TO.N,+3V3*%
G36*
X157404991Y-98219685D02*
G01*
X157440296Y-98253988D01*
X157491708Y-98329143D01*
X157513313Y-98395587D01*
X157513364Y-98399154D01*
X157513364Y-98842775D01*
X157510744Y-98851694D01*
X157512032Y-98860902D01*
X157501057Y-98884686D01*
X157493679Y-98909814D01*
X157485876Y-98917585D01*
X157482759Y-98924343D01*
X157455995Y-98947352D01*
X157403849Y-98980577D01*
X157337218Y-99000000D01*
X156679697Y-99000000D01*
X156612658Y-98980315D01*
X156592016Y-98963681D01*
X156576129Y-98947794D01*
X156473356Y-98902415D01*
X156448232Y-98899500D01*
X156448229Y-98899500D01*
X155812674Y-98899500D01*
X155812673Y-98899500D01*
X155694055Y-98899500D01*
X155694052Y-98899500D01*
X155227364Y-98899500D01*
X155160325Y-98879815D01*
X155114570Y-98827011D01*
X155103364Y-98775500D01*
X155103364Y-98424500D01*
X155123049Y-98357461D01*
X155175853Y-98311706D01*
X155227364Y-98300500D01*
X155827107Y-98300500D01*
X155827115Y-98300499D01*
X156448220Y-98300499D01*
X156448228Y-98300499D01*
X156448243Y-98300497D01*
X156448246Y-98300497D01*
X156473351Y-98297586D01*
X156473352Y-98297585D01*
X156473355Y-98297585D01*
X156576129Y-98252206D01*
X156592016Y-98236319D01*
X156653339Y-98202834D01*
X156679697Y-98200000D01*
X157337952Y-98200000D01*
X157404991Y-98219685D01*
G37*
%TD.AperFunction*%
%TD*%
M02*
