ISO-10303-21;
HEADER;
FILE_DESCRIPTION(('FreeCAD Model'),'2;1');
FILE_NAME('Open CASCADE Shape Model','2025-11-15T20:19:20',(''),(''),
  'Open CASCADE STEP processor 7.8','FreeCAD','Unknown');
FILE_SCHEMA(('AUTOMOTIVE_DESIGN { 1 0 10303 214 1 1 1 1 }'));
ENDSEC;
DATA;
#1 = APPLICATION_PROTOCOL_DEFINITION('international standard',
  'automotive_design',2000,#2);
#2 = APPLICATION_CONTEXT(
  'core data for automotive mechanical design processes');
#3 = SHAPE_DEFINITION_REPRESENTATION(#4,#10);
#4 = PRODUCT_DEFINITION_SHAPE('','',#5);
#5 = PRODUCT_DEFINITION('design','',#6,#9);
#6 = PRODUCT_DEFINITION_FORMATION('','',#7);
#7 = PRODUCT('屏幕 v9','屏幕 v9','',(#8));
#8 = PRODUCT_CONTEXT('',#2,'mechanical');
#9 = PRODUCT_DEFINITION_CONTEXT('part definition',#2,'design');
#10 = ADVANCED_BREP_SHAPE_REPRESENTATION('',(#11,#15),#791);
#11 = AXIS2_PLACEMENT_3D('',#12,#13,#14);
#12 = CARTESIAN_POINT('',(0.,0.,0.));
#13 = DIRECTION('',(0.,0.,1.));
#14 = DIRECTION('',(1.,0.,-0.));
#15 = MANIFOLD_SOLID_BREP('',#16);
#16 = CLOSED_SHELL('',(#17,#61,#93,#127,#159,#193,#225,#259,#281,#312,
    #337,#361,#386,#402,#442,#475,#506,#539,#570,#603,#634,#658,#674,
    #705,#723,#747,#765));
#17 = ADVANCED_FACE('',(#18),#56,.T.);
#18 = FACE_BOUND('',#19,.T.);
#19 = EDGE_LOOP('',(#20,#31,#40,#49));
#20 = ORIENTED_EDGE('',*,*,#21,.T.);
#21 = EDGE_CURVE('',#22,#24,#26,.T.);
#22 = VERTEX_POINT('',#23);
#23 = CARTESIAN_POINT('',(3.7,-15.065,-14.065));
#24 = VERTEX_POINT('',#25);
#25 = CARTESIAN_POINT('',(2.2,-16.565,-14.065));
#26 = CIRCLE('',#27,1.5);
#27 = AXIS2_PLACEMENT_3D('',#28,#29,#30);
#28 = CARTESIAN_POINT('',(2.2,-15.065,-14.065));
#29 = DIRECTION('',(0.,0.,-1.));
#30 = DIRECTION('',(1.,0.,0.));
#31 = ORIENTED_EDGE('',*,*,#32,.T.);
#32 = EDGE_CURVE('',#24,#33,#35,.T.);
#33 = VERTEX_POINT('',#34);
#34 = CARTESIAN_POINT('',(2.2,-10.065,-20.565));
#35 = CIRCLE('',#36,6.5);
#36 = AXIS2_PLACEMENT_3D('',#37,#38,#39);
#37 = CARTESIAN_POINT('',(2.2,-10.065,-14.065));
#38 = DIRECTION('',(1.,0.,0.));
#39 = DIRECTION('',(0.,-0.707106781187,-0.707106781187));
#40 = ORIENTED_EDGE('',*,*,#41,.T.);
#41 = EDGE_CURVE('',#33,#42,#44,.T.);
#42 = VERTEX_POINT('',#43);
#43 = CARTESIAN_POINT('',(3.7,-10.065,-19.065));
#44 = CIRCLE('',#45,1.5);
#45 = AXIS2_PLACEMENT_3D('',#46,#47,#48);
#46 = CARTESIAN_POINT('',(2.2,-10.065,-19.065));
#47 = DIRECTION('',(0.,-1.,0.));
#48 = DIRECTION('',(0.,0.,-1.));
#49 = ORIENTED_EDGE('',*,*,#50,.T.);
#50 = EDGE_CURVE('',#42,#22,#51,.T.);
#51 = CIRCLE('',#52,5.);
#52 = AXIS2_PLACEMENT_3D('',#53,#54,#55);
#53 = CARTESIAN_POINT('',(3.7,-10.065,-14.065));
#54 = DIRECTION('',(-1.,0.,0.));
#55 = DIRECTION('',(-0.,-0.707106781187,-0.707106781187));
#56 = TOROIDAL_SURFACE('',#57,5.,1.5);
#57 = AXIS2_PLACEMENT_3D('',#58,#59,#60);
#58 = CARTESIAN_POINT('',(2.2,-10.065,-14.065));
#59 = DIRECTION('',(1.,0.,0.));
#60 = DIRECTION('',(0.,0.,-1.));
#61 = ADVANCED_FACE('',(#62),#88,.T.);
#62 = FACE_BOUND('',#63,.T.);
#63 = EDGE_LOOP('',(#64,#75,#81,#82));
#64 = ORIENTED_EDGE('',*,*,#65,.T.);
#65 = EDGE_CURVE('',#66,#68,#70,.T.);
#66 = VERTEX_POINT('',#67);
#67 = CARTESIAN_POINT('',(2.2,10.065,-20.565));
#68 = VERTEX_POINT('',#69);
#69 = CARTESIAN_POINT('',(3.7,10.065,-19.065));
#70 = CIRCLE('',#71,1.5);
#71 = AXIS2_PLACEMENT_3D('',#72,#73,#74);
#72 = CARTESIAN_POINT('',(2.2,10.065,-19.065));
#73 = DIRECTION('',(0.,-1.,0.));
#74 = DIRECTION('',(0.,0.,-1.));
#75 = ORIENTED_EDGE('',*,*,#76,.T.);
#76 = EDGE_CURVE('',#68,#42,#77,.T.);
#77 = LINE('',#78,#79);
#78 = CARTESIAN_POINT('',(3.7,-5.0325,-19.065));
#79 = VECTOR('',#80,1.);
#80 = DIRECTION('',(0.,-1.,0.));
#81 = ORIENTED_EDGE('',*,*,#41,.F.);
#82 = ORIENTED_EDGE('',*,*,#83,.T.);
#83 = EDGE_CURVE('',#33,#66,#84,.T.);
#84 = LINE('',#85,#86);
#85 = CARTESIAN_POINT('',(2.2,-5.0325,-20.565));
#86 = VECTOR('',#87,1.);
#87 = DIRECTION('',(0.,1.,0.));
#88 = CYLINDRICAL_SURFACE('',#89,1.5);
#89 = AXIS2_PLACEMENT_3D('',#90,#91,#92);
#90 = CARTESIAN_POINT('',(2.2,-5.0325,-19.065));
#91 = DIRECTION('',(0.,1.,0.));
#92 = DIRECTION('',(0.707106781187,0.,-0.707106781187));
#93 = ADVANCED_FACE('',(#94),#122,.T.);
#94 = FACE_BOUND('',#95,.T.);
#95 = EDGE_LOOP('',(#96,#107,#114,#115));
#96 = ORIENTED_EDGE('',*,*,#97,.T.);
#97 = EDGE_CURVE('',#98,#100,#102,.T.);
#98 = VERTEX_POINT('',#99);
#99 = CARTESIAN_POINT('',(2.2,16.565,-14.065));
#100 = VERTEX_POINT('',#101);
#101 = CARTESIAN_POINT('',(3.7,15.065,-14.065));
#102 = CIRCLE('',#103,1.5);
#103 = AXIS2_PLACEMENT_3D('',#104,#105,#106);
#104 = CARTESIAN_POINT('',(2.2,15.065,-14.065));
#105 = DIRECTION('',(0.,0.,-1.));
#106 = DIRECTION('',(0.,1.,0.));
#107 = ORIENTED_EDGE('',*,*,#108,.T.);
#108 = EDGE_CURVE('',#100,#68,#109,.T.);
#109 = CIRCLE('',#110,5.);
#110 = AXIS2_PLACEMENT_3D('',#111,#112,#113);
#111 = CARTESIAN_POINT('',(3.7,10.065,-14.065));
#112 = DIRECTION('',(-1.,0.,0.));
#113 = DIRECTION('',(0.,0.707106781187,-0.707106781187));
#114 = ORIENTED_EDGE('',*,*,#65,.F.);
#115 = ORIENTED_EDGE('',*,*,#116,.T.);
#116 = EDGE_CURVE('',#66,#98,#117,.T.);
#117 = CIRCLE('',#118,6.5);
#118 = AXIS2_PLACEMENT_3D('',#119,#120,#121);
#119 = CARTESIAN_POINT('',(2.2,10.065,-14.065));
#120 = DIRECTION('',(1.,0.,0.));
#121 = DIRECTION('',(0.,0.707106781187,-0.707106781187));
#122 = TOROIDAL_SURFACE('',#123,5.,1.5);
#123 = AXIS2_PLACEMENT_3D('',#124,#125,#126);
#124 = CARTESIAN_POINT('',(2.2,10.065,-14.065));
#125 = DIRECTION('',(1.,0.,0.));
#126 = DIRECTION('',(0.,0.,-1.));
#127 = ADVANCED_FACE('',(#128),#154,.T.);
#128 = FACE_BOUND('',#129,.T.);
#129 = EDGE_LOOP('',(#130,#141,#147,#148));
#130 = ORIENTED_EDGE('',*,*,#131,.T.);
#131 = EDGE_CURVE('',#132,#134,#136,.T.);
#132 = VERTEX_POINT('',#133);
#133 = CARTESIAN_POINT('',(2.2,16.565,14.065));
#134 = VERTEX_POINT('',#135);
#135 = CARTESIAN_POINT('',(3.7,15.065,14.065));
#136 = CIRCLE('',#137,1.5);
#137 = AXIS2_PLACEMENT_3D('',#138,#139,#140);
#138 = CARTESIAN_POINT('',(2.2,15.065,14.065));
#139 = DIRECTION('',(0.,1.480297366167E-15,-1.));
#140 = DIRECTION('',(0.,1.,1.480297366167E-15));
#141 = ORIENTED_EDGE('',*,*,#142,.T.);
#142 = EDGE_CURVE('',#134,#100,#143,.T.);
#143 = LINE('',#144,#145);
#144 = CARTESIAN_POINT('',(3.7,15.065,-7.0325));
#145 = VECTOR('',#146,1.);
#146 = DIRECTION('',(0.,0.,-1.));
#147 = ORIENTED_EDGE('',*,*,#97,.F.);
#148 = ORIENTED_EDGE('',*,*,#149,.T.);
#149 = EDGE_CURVE('',#98,#132,#150,.T.);
#150 = LINE('',#151,#152);
#151 = CARTESIAN_POINT('',(2.2,16.565,-7.0325));
#152 = VECTOR('',#153,1.);
#153 = DIRECTION('',(0.,0.,1.));
#154 = CYLINDRICAL_SURFACE('',#155,1.5);
#155 = AXIS2_PLACEMENT_3D('',#156,#157,#158);
#156 = CARTESIAN_POINT('',(2.2,15.065,-7.0325));
#157 = DIRECTION('',(0.,0.,1.));
#158 = DIRECTION('',(0.707106781187,0.707106781187,-0.));
#159 = ADVANCED_FACE('',(#160),#188,.T.);
#160 = FACE_BOUND('',#161,.T.);
#161 = EDGE_LOOP('',(#162,#173,#180,#181));
#162 = ORIENTED_EDGE('',*,*,#163,.T.);
#163 = EDGE_CURVE('',#164,#166,#168,.T.);
#164 = VERTEX_POINT('',#165);
#165 = CARTESIAN_POINT('',(2.2,10.065,20.565));
#166 = VERTEX_POINT('',#167);
#167 = CARTESIAN_POINT('',(3.7,10.065,19.065));
#168 = CIRCLE('',#169,1.5);
#169 = AXIS2_PLACEMENT_3D('',#170,#171,#172);
#170 = CARTESIAN_POINT('',(2.2,10.065,19.065));
#171 = DIRECTION('',(0.,1.,1.480297366167E-15));
#172 = DIRECTION('',(0.,-1.480297366167E-15,1.));
#173 = ORIENTED_EDGE('',*,*,#174,.T.);
#174 = EDGE_CURVE('',#166,#134,#175,.T.);
#175 = CIRCLE('',#176,5.);
#176 = AXIS2_PLACEMENT_3D('',#177,#178,#179);
#177 = CARTESIAN_POINT('',(3.7,10.065,14.065));
#178 = DIRECTION('',(-1.,0.,0.));
#179 = DIRECTION('',(0.,0.707106781187,0.707106781187));
#180 = ORIENTED_EDGE('',*,*,#131,.F.);
#181 = ORIENTED_EDGE('',*,*,#182,.T.);
#182 = EDGE_CURVE('',#132,#164,#183,.T.);
#183 = CIRCLE('',#184,6.5);
#184 = AXIS2_PLACEMENT_3D('',#185,#186,#187);
#185 = CARTESIAN_POINT('',(2.2,10.065,14.065));
#186 = DIRECTION('',(1.,0.,0.));
#187 = DIRECTION('',(-0.,0.707106781187,0.707106781187));
#188 = TOROIDAL_SURFACE('',#189,5.,1.5);
#189 = AXIS2_PLACEMENT_3D('',#190,#191,#192);
#190 = CARTESIAN_POINT('',(2.2,10.065,14.065));
#191 = DIRECTION('',(1.,0.,0.));
#192 = DIRECTION('',(0.,0.,-1.));
#193 = ADVANCED_FACE('',(#194),#220,.T.);
#194 = FACE_BOUND('',#195,.T.);
#195 = EDGE_LOOP('',(#196,#207,#213,#214));
#196 = ORIENTED_EDGE('',*,*,#197,.T.);
#197 = EDGE_CURVE('',#198,#200,#202,.T.);
#198 = VERTEX_POINT('',#199);
#199 = CARTESIAN_POINT('',(2.2,-10.065,20.565));
#200 = VERTEX_POINT('',#201);
#201 = CARTESIAN_POINT('',(3.7,-10.065,19.065));
#202 = CIRCLE('',#203,1.5);
#203 = AXIS2_PLACEMENT_3D('',#204,#205,#206);
#204 = CARTESIAN_POINT('',(2.2,-10.065,19.065));
#205 = DIRECTION('',(0.,1.,-1.480297366167E-15));
#206 = DIRECTION('',(0.,1.480297366167E-15,1.));
#207 = ORIENTED_EDGE('',*,*,#208,.T.);
#208 = EDGE_CURVE('',#200,#166,#209,.T.);
#209 = LINE('',#210,#211);
#210 = CARTESIAN_POINT('',(3.7,5.0325,19.065));
#211 = VECTOR('',#212,1.);
#212 = DIRECTION('',(0.,1.,0.));
#213 = ORIENTED_EDGE('',*,*,#163,.F.);
#214 = ORIENTED_EDGE('',*,*,#215,.T.);
#215 = EDGE_CURVE('',#164,#198,#216,.T.);
#216 = LINE('',#217,#218);
#217 = CARTESIAN_POINT('',(2.2,5.0325,20.565));
#218 = VECTOR('',#219,1.);
#219 = DIRECTION('',(0.,-1.,0.));
#220 = CYLINDRICAL_SURFACE('',#221,1.5);
#221 = AXIS2_PLACEMENT_3D('',#222,#223,#224);
#222 = CARTESIAN_POINT('',(2.2,5.0325,19.065));
#223 = DIRECTION('',(0.,-1.,0.));
#224 = DIRECTION('',(0.707106781187,0.,0.707106781187));
#225 = ADVANCED_FACE('',(#226),#254,.T.);
#226 = FACE_BOUND('',#227,.T.);
#227 = EDGE_LOOP('',(#228,#239,#246,#247));
#228 = ORIENTED_EDGE('',*,*,#229,.T.);
#229 = EDGE_CURVE('',#230,#232,#234,.T.);
#230 = VERTEX_POINT('',#231);
#231 = CARTESIAN_POINT('',(2.2,-16.565,14.065));
#232 = VERTEX_POINT('',#233);
#233 = CARTESIAN_POINT('',(3.7,-15.065,14.065));
#234 = CIRCLE('',#235,1.5);
#235 = AXIS2_PLACEMENT_3D('',#236,#237,#238);
#236 = CARTESIAN_POINT('',(2.2,-15.065,14.065));
#237 = DIRECTION('',(0.,0.,1.));
#238 = DIRECTION('',(0.,-1.,0.));
#239 = ORIENTED_EDGE('',*,*,#240,.T.);
#240 = EDGE_CURVE('',#232,#200,#241,.T.);
#241 = CIRCLE('',#242,5.);
#242 = AXIS2_PLACEMENT_3D('',#243,#244,#245);
#243 = CARTESIAN_POINT('',(3.7,-10.065,14.065));
#244 = DIRECTION('',(-1.,0.,0.));
#245 = DIRECTION('',(0.,-0.707106781187,0.707106781187));
#246 = ORIENTED_EDGE('',*,*,#197,.F.);
#247 = ORIENTED_EDGE('',*,*,#248,.T.);
#248 = EDGE_CURVE('',#198,#230,#249,.T.);
#249 = CIRCLE('',#250,6.5);
#250 = AXIS2_PLACEMENT_3D('',#251,#252,#253);
#251 = CARTESIAN_POINT('',(2.2,-10.065,14.065));
#252 = DIRECTION('',(1.,0.,0.));
#253 = DIRECTION('',(0.,-0.707106781187,0.707106781187));
#254 = TOROIDAL_SURFACE('',#255,5.,1.5);
#255 = AXIS2_PLACEMENT_3D('',#256,#257,#258);
#256 = CARTESIAN_POINT('',(2.2,-10.065,14.065));
#257 = DIRECTION('',(1.,0.,0.));
#258 = DIRECTION('',(0.,0.,-1.));
#259 = ADVANCED_FACE('',(#260),#276,.T.);
#260 = FACE_BOUND('',#261,.T.);
#261 = EDGE_LOOP('',(#262,#263,#269,#270));
#262 = ORIENTED_EDGE('',*,*,#21,.F.);
#263 = ORIENTED_EDGE('',*,*,#264,.T.);
#264 = EDGE_CURVE('',#22,#232,#265,.T.);
#265 = LINE('',#266,#267);
#266 = CARTESIAN_POINT('',(3.7,-15.065,7.0325));
#267 = VECTOR('',#268,1.);
#268 = DIRECTION('',(0.,0.,1.));
#269 = ORIENTED_EDGE('',*,*,#229,.F.);
#270 = ORIENTED_EDGE('',*,*,#271,.T.);
#271 = EDGE_CURVE('',#230,#24,#272,.T.);
#272 = LINE('',#273,#274);
#273 = CARTESIAN_POINT('',(2.2,-16.565,7.0325));
#274 = VECTOR('',#275,1.);
#275 = DIRECTION('',(0.,0.,-1.));
#276 = CYLINDRICAL_SURFACE('',#277,1.5);
#277 = AXIS2_PLACEMENT_3D('',#278,#279,#280);
#278 = CARTESIAN_POINT('',(2.2,-15.065,7.0325));
#279 = DIRECTION('',(0.,0.,-1.));
#280 = DIRECTION('',(0.707106781187,-0.707106781187,0.));
#281 = ADVANCED_FACE('',(#282),#307,.T.);
#282 = FACE_BOUND('',#283,.T.);
#283 = EDGE_LOOP('',(#284,#285,#293,#301));
#284 = ORIENTED_EDGE('',*,*,#149,.F.);
#285 = ORIENTED_EDGE('',*,*,#286,.F.);
#286 = EDGE_CURVE('',#287,#98,#289,.T.);
#287 = VERTEX_POINT('',#288);
#288 = CARTESIAN_POINT('',(1.9,16.565,-14.065));
#289 = LINE('',#290,#291);
#290 = CARTESIAN_POINT('',(1.9,16.565,-14.065));
#291 = VECTOR('',#292,1.);
#292 = DIRECTION('',(1.,0.,0.));
#293 = ORIENTED_EDGE('',*,*,#294,.T.);
#294 = EDGE_CURVE('',#287,#295,#297,.T.);
#295 = VERTEX_POINT('',#296);
#296 = CARTESIAN_POINT('',(1.9,16.565,14.065));
#297 = LINE('',#298,#299);
#298 = CARTESIAN_POINT('',(1.9,16.565,-14.065));
#299 = VECTOR('',#300,1.);
#300 = DIRECTION('',(0.,0.,1.));
#301 = ORIENTED_EDGE('',*,*,#302,.T.);
#302 = EDGE_CURVE('',#295,#132,#303,.T.);
#303 = LINE('',#304,#305);
#304 = CARTESIAN_POINT('',(1.9,16.565,14.065));
#305 = VECTOR('',#306,1.);
#306 = DIRECTION('',(1.,0.,0.));
#307 = PLANE('',#308);
#308 = AXIS2_PLACEMENT_3D('',#309,#310,#311);
#309 = CARTESIAN_POINT('',(1.9,16.565,-14.065));
#310 = DIRECTION('',(0.,1.,0.));
#311 = DIRECTION('',(0.,-0.,1.));
#312 = ADVANCED_FACE('',(#313),#332,.T.);
#313 = FACE_BOUND('',#314,.T.);
#314 = EDGE_LOOP('',(#315,#316,#324,#331));
#315 = ORIENTED_EDGE('',*,*,#116,.F.);
#316 = ORIENTED_EDGE('',*,*,#317,.F.);
#317 = EDGE_CURVE('',#318,#66,#320,.T.);
#318 = VERTEX_POINT('',#319);
#319 = CARTESIAN_POINT('',(1.9,10.065,-20.565));
#320 = LINE('',#321,#322);
#321 = CARTESIAN_POINT('',(1.9,10.065,-20.565));
#322 = VECTOR('',#323,1.);
#323 = DIRECTION('',(1.,0.,0.));
#324 = ORIENTED_EDGE('',*,*,#325,.T.);
#325 = EDGE_CURVE('',#318,#287,#326,.T.);
#326 = CIRCLE('',#327,6.5);
#327 = AXIS2_PLACEMENT_3D('',#328,#329,#330);
#328 = CARTESIAN_POINT('',(1.9,10.065,-14.065));
#329 = DIRECTION('',(1.,0.,0.));
#330 = DIRECTION('',(0.,0.,-1.));
#331 = ORIENTED_EDGE('',*,*,#286,.T.);
#332 = CYLINDRICAL_SURFACE('',#333,6.5);
#333 = AXIS2_PLACEMENT_3D('',#334,#335,#336);
#334 = CARTESIAN_POINT('',(1.9,10.065,-14.065));
#335 = DIRECTION('',(1.,0.,0.));
#336 = DIRECTION('',(0.,0.,-1.));
#337 = ADVANCED_FACE('',(#338),#356,.T.);
#338 = FACE_BOUND('',#339,.T.);
#339 = EDGE_LOOP('',(#340,#341,#349,#355));
#340 = ORIENTED_EDGE('',*,*,#83,.F.);
#341 = ORIENTED_EDGE('',*,*,#342,.F.);
#342 = EDGE_CURVE('',#343,#33,#345,.T.);
#343 = VERTEX_POINT('',#344);
#344 = CARTESIAN_POINT('',(1.9,-10.065,-20.565));
#345 = LINE('',#346,#347);
#346 = CARTESIAN_POINT('',(1.9,-10.065,-20.565));
#347 = VECTOR('',#348,1.);
#348 = DIRECTION('',(1.,0.,0.));
#349 = ORIENTED_EDGE('',*,*,#350,.T.);
#350 = EDGE_CURVE('',#343,#318,#351,.T.);
#351 = LINE('',#352,#353);
#352 = CARTESIAN_POINT('',(1.9,-10.065,-20.565));
#353 = VECTOR('',#354,1.);
#354 = DIRECTION('',(0.,1.,0.));
#355 = ORIENTED_EDGE('',*,*,#317,.T.);
#356 = PLANE('',#357);
#357 = AXIS2_PLACEMENT_3D('',#358,#359,#360);
#358 = CARTESIAN_POINT('',(1.9,-10.065,-20.565));
#359 = DIRECTION('',(0.,0.,-1.));
#360 = DIRECTION('',(0.,1.,0.));
#361 = ADVANCED_FACE('',(#362),#381,.T.);
#362 = FACE_BOUND('',#363,.T.);
#363 = EDGE_LOOP('',(#364,#365,#373,#380));
#364 = ORIENTED_EDGE('',*,*,#32,.F.);
#365 = ORIENTED_EDGE('',*,*,#366,.F.);
#366 = EDGE_CURVE('',#367,#24,#369,.T.);
#367 = VERTEX_POINT('',#368);
#368 = CARTESIAN_POINT('',(1.9,-16.565,-14.065));
#369 = LINE('',#370,#371);
#370 = CARTESIAN_POINT('',(1.9,-16.565,-14.065));
#371 = VECTOR('',#372,1.);
#372 = DIRECTION('',(1.,0.,0.));
#373 = ORIENTED_EDGE('',*,*,#374,.T.);
#374 = EDGE_CURVE('',#367,#343,#375,.T.);
#375 = CIRCLE('',#376,6.5);
#376 = AXIS2_PLACEMENT_3D('',#377,#378,#379);
#377 = CARTESIAN_POINT('',(1.9,-10.065,-14.065));
#378 = DIRECTION('',(1.,0.,0.));
#379 = DIRECTION('',(0.,-1.,0.));
#380 = ORIENTED_EDGE('',*,*,#342,.T.);
#381 = CYLINDRICAL_SURFACE('',#382,6.5);
#382 = AXIS2_PLACEMENT_3D('',#383,#384,#385);
#383 = CARTESIAN_POINT('',(1.9,-10.065,-14.065));
#384 = DIRECTION('',(1.,0.,0.));
#385 = DIRECTION('',(0.,-1.,0.));
#386 = ADVANCED_FACE('',(#387),#397,.T.);
#387 = FACE_BOUND('',#388,.T.);
#388 = EDGE_LOOP('',(#389,#390,#391,#392,#393,#394,#395,#396));
#389 = ORIENTED_EDGE('',*,*,#50,.F.);
#390 = ORIENTED_EDGE('',*,*,#76,.F.);
#391 = ORIENTED_EDGE('',*,*,#108,.F.);
#392 = ORIENTED_EDGE('',*,*,#142,.F.);
#393 = ORIENTED_EDGE('',*,*,#174,.F.);
#394 = ORIENTED_EDGE('',*,*,#208,.F.);
#395 = ORIENTED_EDGE('',*,*,#240,.F.);
#396 = ORIENTED_EDGE('',*,*,#264,.F.);
#397 = PLANE('',#398);
#398 = AXIS2_PLACEMENT_3D('',#399,#400,#401);
#399 = CARTESIAN_POINT('',(3.7,-3.552713678801E-14,1.33226762955E-13));
#400 = DIRECTION('',(1.,0.,0.));
#401 = DIRECTION('',(0.,0.,-1.));
#402 = ADVANCED_FACE('',(#403),#437,.T.);
#403 = FACE_BOUND('',#404,.T.);
#404 = EDGE_LOOP('',(#405,#415,#423,#431));
#405 = ORIENTED_EDGE('',*,*,#406,.F.);
#406 = EDGE_CURVE('',#407,#409,#411,.T.);
#407 = VERTEX_POINT('',#408);
#408 = CARTESIAN_POINT('',(1.9,-15.035,15.21));
#409 = VERTEX_POINT('',#410);
#410 = CARTESIAN_POINT('',(1.9,-15.035,-15.21));
#411 = LINE('',#412,#413);
#412 = CARTESIAN_POINT('',(1.9,-15.035,-7.605));
#413 = VECTOR('',#414,1.);
#414 = DIRECTION('',(0.,-1.45985933547E-16,-1.));
#415 = ORIENTED_EDGE('',*,*,#416,.T.);
#416 = EDGE_CURVE('',#407,#417,#419,.T.);
#417 = VERTEX_POINT('',#418);
#418 = CARTESIAN_POINT('',(9.E-02,-15.035,15.21));
#419 = LINE('',#420,#421);
#420 = CARTESIAN_POINT('',(1.9,-15.035,15.21));
#421 = VECTOR('',#422,1.);
#422 = DIRECTION('',(-1.,0.,0.));
#423 = ORIENTED_EDGE('',*,*,#424,.F.);
#424 = EDGE_CURVE('',#425,#417,#427,.T.);
#425 = VERTEX_POINT('',#426);
#426 = CARTESIAN_POINT('',(9.E-02,-15.035,-15.21));
#427 = LINE('',#428,#429);
#428 = CARTESIAN_POINT('',(9.E-02,-15.035,15.21));
#429 = VECTOR('',#430,1.);
#430 = DIRECTION('',(0.,1.45985933547E-16,1.));
#431 = ORIENTED_EDGE('',*,*,#432,.F.);
#432 = EDGE_CURVE('',#409,#425,#433,.T.);
#433 = LINE('',#434,#435);
#434 = CARTESIAN_POINT('',(1.9,-15.035,-15.21));
#435 = VECTOR('',#436,1.);
#436 = DIRECTION('',(-1.,0.,0.));
#437 = PLANE('',#438);
#438 = AXIS2_PLACEMENT_3D('',#439,#440,#441);
#439 = CARTESIAN_POINT('',(1.9,-15.035,-15.21));
#440 = DIRECTION('',(0.,-1.,1.45985933547E-16));
#441 = DIRECTION('',(0.,1.45985933547E-16,1.));
#442 = ADVANCED_FACE('',(#443),#470,.T.);
#443 = FACE_BOUND('',#444,.T.);
#444 = EDGE_LOOP('',(#445,#454,#455,#464));
#445 = ORIENTED_EDGE('',*,*,#446,.F.);
#446 = EDGE_CURVE('',#409,#447,#449,.T.);
#447 = VERTEX_POINT('',#448);
#448 = CARTESIAN_POINT('',(1.9,-11.535,-18.71));
#449 = CIRCLE('',#450,3.5);
#450 = AXIS2_PLACEMENT_3D('',#451,#452,#453);
#451 = CARTESIAN_POINT('',(1.9,-11.535,-15.21));
#452 = DIRECTION('',(1.,0.,0.));
#453 = DIRECTION('',(0.,-1.,0.));
#454 = ORIENTED_EDGE('',*,*,#432,.T.);
#455 = ORIENTED_EDGE('',*,*,#456,.F.);
#456 = EDGE_CURVE('',#457,#425,#459,.T.);
#457 = VERTEX_POINT('',#458);
#458 = CARTESIAN_POINT('',(9.E-02,-11.535,-18.71));
#459 = CIRCLE('',#460,3.5);
#460 = AXIS2_PLACEMENT_3D('',#461,#462,#463);
#461 = CARTESIAN_POINT('',(9.E-02,-11.535,-15.21));
#462 = DIRECTION('',(-1.,0.,0.));
#463 = DIRECTION('',(0.,-1.,0.));
#464 = ORIENTED_EDGE('',*,*,#465,.F.);
#465 = EDGE_CURVE('',#447,#457,#466,.T.);
#466 = LINE('',#467,#468);
#467 = CARTESIAN_POINT('',(1.9,-11.535,-18.71));
#468 = VECTOR('',#469,1.);
#469 = DIRECTION('',(-1.,0.,0.));
#470 = CYLINDRICAL_SURFACE('',#471,3.5);
#471 = AXIS2_PLACEMENT_3D('',#472,#473,#474);
#472 = CARTESIAN_POINT('',(1.9,-11.535,-15.21));
#473 = DIRECTION('',(-1.,0.,0.));
#474 = DIRECTION('',(0.,-1.,0.));
#475 = ADVANCED_FACE('',(#476),#501,.T.);
#476 = FACE_BOUND('',#477,.T.);
#477 = EDGE_LOOP('',(#478,#486,#487,#495));
#478 = ORIENTED_EDGE('',*,*,#479,.F.);
#479 = EDGE_CURVE('',#447,#480,#482,.T.);
#480 = VERTEX_POINT('',#481);
#481 = CARTESIAN_POINT('',(1.9,11.535,-18.71));
#482 = LINE('',#483,#484);
#483 = CARTESIAN_POINT('',(1.9,5.7675,-18.71));
#484 = VECTOR('',#485,1.);
#485 = DIRECTION('',(0.,1.,-9.624820326183E-17));
#486 = ORIENTED_EDGE('',*,*,#465,.T.);
#487 = ORIENTED_EDGE('',*,*,#488,.F.);
#488 = EDGE_CURVE('',#489,#457,#491,.T.);
#489 = VERTEX_POINT('',#490);
#490 = CARTESIAN_POINT('',(9.E-02,11.535,-18.71));
#491 = LINE('',#492,#493);
#492 = CARTESIAN_POINT('',(9.E-02,-11.535,-18.71));
#493 = VECTOR('',#494,1.);
#494 = DIRECTION('',(0.,-1.,9.624820326183E-17));
#495 = ORIENTED_EDGE('',*,*,#496,.F.);
#496 = EDGE_CURVE('',#480,#489,#497,.T.);
#497 = LINE('',#498,#499);
#498 = CARTESIAN_POINT('',(1.9,11.535,-18.71));
#499 = VECTOR('',#500,1.);
#500 = DIRECTION('',(-1.,0.,0.));
#501 = PLANE('',#502);
#502 = AXIS2_PLACEMENT_3D('',#503,#504,#505);
#503 = CARTESIAN_POINT('',(1.9,11.535,-18.71));
#504 = DIRECTION('',(0.,-9.624820326183E-17,-1.));
#505 = DIRECTION('',(0.,-1.,9.624820326183E-17));
#506 = ADVANCED_FACE('',(#507),#534,.T.);
#507 = FACE_BOUND('',#508,.T.);
#508 = EDGE_LOOP('',(#509,#518,#519,#528));
#509 = ORIENTED_EDGE('',*,*,#510,.F.);
#510 = EDGE_CURVE('',#480,#511,#513,.T.);
#511 = VERTEX_POINT('',#512);
#512 = CARTESIAN_POINT('',(1.9,15.035,-15.21));
#513 = CIRCLE('',#514,3.5);
#514 = AXIS2_PLACEMENT_3D('',#515,#516,#517);
#515 = CARTESIAN_POINT('',(1.9,11.535,-15.21));
#516 = DIRECTION('',(1.,0.,0.));
#517 = DIRECTION('',(0.,0.,-1.));
#518 = ORIENTED_EDGE('',*,*,#496,.T.);
#519 = ORIENTED_EDGE('',*,*,#520,.F.);
#520 = EDGE_CURVE('',#521,#489,#523,.T.);
#521 = VERTEX_POINT('',#522);
#522 = CARTESIAN_POINT('',(9.E-02,15.035,-15.21));
#523 = CIRCLE('',#524,3.5);
#524 = AXIS2_PLACEMENT_3D('',#525,#526,#527);
#525 = CARTESIAN_POINT('',(9.E-02,11.535,-15.21));
#526 = DIRECTION('',(-1.,0.,0.));
#527 = DIRECTION('',(0.,0.,-1.));
#528 = ORIENTED_EDGE('',*,*,#529,.F.);
#529 = EDGE_CURVE('',#511,#521,#530,.T.);
#530 = LINE('',#531,#532);
#531 = CARTESIAN_POINT('',(1.9,15.035,-15.21));
#532 = VECTOR('',#533,1.);
#533 = DIRECTION('',(-1.,0.,0.));
#534 = CYLINDRICAL_SURFACE('',#535,3.5);
#535 = AXIS2_PLACEMENT_3D('',#536,#537,#538);
#536 = CARTESIAN_POINT('',(1.9,11.535,-15.21));
#537 = DIRECTION('',(-1.,0.,0.));
#538 = DIRECTION('',(0.,0.,-1.));
#539 = ADVANCED_FACE('',(#540),#565,.T.);
#540 = FACE_BOUND('',#541,.T.);
#541 = EDGE_LOOP('',(#542,#550,#551,#559));
#542 = ORIENTED_EDGE('',*,*,#543,.F.);
#543 = EDGE_CURVE('',#511,#544,#546,.T.);
#544 = VERTEX_POINT('',#545);
#545 = CARTESIAN_POINT('',(1.9,15.035,15.21));
#546 = LINE('',#547,#548);
#547 = CARTESIAN_POINT('',(1.9,15.035,7.605));
#548 = VECTOR('',#549,1.);
#549 = DIRECTION('',(0.,0.,1.));
#550 = ORIENTED_EDGE('',*,*,#529,.T.);
#551 = ORIENTED_EDGE('',*,*,#552,.F.);
#552 = EDGE_CURVE('',#553,#521,#555,.T.);
#553 = VERTEX_POINT('',#554);
#554 = CARTESIAN_POINT('',(9.E-02,15.035,15.21));
#555 = LINE('',#556,#557);
#556 = CARTESIAN_POINT('',(9.E-02,15.035,-15.21));
#557 = VECTOR('',#558,1.);
#558 = DIRECTION('',(0.,0.,-1.));
#559 = ORIENTED_EDGE('',*,*,#560,.F.);
#560 = EDGE_CURVE('',#544,#553,#561,.T.);
#561 = LINE('',#562,#563);
#562 = CARTESIAN_POINT('',(1.9,15.035,15.21));
#563 = VECTOR('',#564,1.);
#564 = DIRECTION('',(-1.,0.,0.));
#565 = PLANE('',#566);
#566 = AXIS2_PLACEMENT_3D('',#567,#568,#569);
#567 = CARTESIAN_POINT('',(1.9,15.035,15.21));
#568 = DIRECTION('',(0.,1.,0.));
#569 = DIRECTION('',(0.,0.,-1.));
#570 = ADVANCED_FACE('',(#571),#598,.T.);
#571 = FACE_BOUND('',#572,.T.);
#572 = EDGE_LOOP('',(#573,#582,#583,#592));
#573 = ORIENTED_EDGE('',*,*,#574,.F.);
#574 = EDGE_CURVE('',#544,#575,#577,.T.);
#575 = VERTEX_POINT('',#576);
#576 = CARTESIAN_POINT('',(1.9,11.535,18.71));
#577 = CIRCLE('',#578,3.5);
#578 = AXIS2_PLACEMENT_3D('',#579,#580,#581);
#579 = CARTESIAN_POINT('',(1.9,11.535,15.21));
#580 = DIRECTION('',(1.,0.,0.));
#581 = DIRECTION('',(-0.,1.,0.));
#582 = ORIENTED_EDGE('',*,*,#560,.T.);
#583 = ORIENTED_EDGE('',*,*,#584,.F.);
#584 = EDGE_CURVE('',#585,#553,#587,.T.);
#585 = VERTEX_POINT('',#586);
#586 = CARTESIAN_POINT('',(9.E-02,11.535,18.71));
#587 = CIRCLE('',#588,3.5);
#588 = AXIS2_PLACEMENT_3D('',#589,#590,#591);
#589 = CARTESIAN_POINT('',(9.E-02,11.535,15.21));
#590 = DIRECTION('',(-1.,0.,0.));
#591 = DIRECTION('',(0.,1.,0.));
#592 = ORIENTED_EDGE('',*,*,#593,.F.);
#593 = EDGE_CURVE('',#575,#585,#594,.T.);
#594 = LINE('',#595,#596);
#595 = CARTESIAN_POINT('',(1.9,11.535,18.71));
#596 = VECTOR('',#597,1.);
#597 = DIRECTION('',(-1.,0.,0.));
#598 = CYLINDRICAL_SURFACE('',#599,3.5);
#599 = AXIS2_PLACEMENT_3D('',#600,#601,#602);
#600 = CARTESIAN_POINT('',(1.9,11.535,15.21));
#601 = DIRECTION('',(-1.,0.,0.));
#602 = DIRECTION('',(0.,1.,0.));
#603 = ADVANCED_FACE('',(#604),#629,.T.);
#604 = FACE_BOUND('',#605,.T.);
#605 = EDGE_LOOP('',(#606,#614,#615,#623));
#606 = ORIENTED_EDGE('',*,*,#607,.F.);
#607 = EDGE_CURVE('',#575,#608,#610,.T.);
#608 = VERTEX_POINT('',#609);
#609 = CARTESIAN_POINT('',(1.9,-11.535,18.71));
#610 = LINE('',#611,#612);
#611 = CARTESIAN_POINT('',(1.9,-5.7675,18.71));
#612 = VECTOR('',#613,1.);
#613 = DIRECTION('',(0.,-1.,-9.624820326183E-17));
#614 = ORIENTED_EDGE('',*,*,#593,.T.);
#615 = ORIENTED_EDGE('',*,*,#616,.F.);
#616 = EDGE_CURVE('',#617,#585,#619,.T.);
#617 = VERTEX_POINT('',#618);
#618 = CARTESIAN_POINT('',(9.E-02,-11.535,18.71));
#619 = LINE('',#620,#621);
#620 = CARTESIAN_POINT('',(9.E-02,11.535,18.71));
#621 = VECTOR('',#622,1.);
#622 = DIRECTION('',(0.,1.,9.624820326183E-17));
#623 = ORIENTED_EDGE('',*,*,#624,.F.);
#624 = EDGE_CURVE('',#608,#617,#625,.T.);
#625 = LINE('',#626,#627);
#626 = CARTESIAN_POINT('',(1.9,-11.535,18.71));
#627 = VECTOR('',#628,1.);
#628 = DIRECTION('',(-1.,0.,0.));
#629 = PLANE('',#630);
#630 = AXIS2_PLACEMENT_3D('',#631,#632,#633);
#631 = CARTESIAN_POINT('',(1.9,-11.535,18.71));
#632 = DIRECTION('',(0.,-9.624820326183E-17,1.));
#633 = DIRECTION('',(0.,1.,9.624820326183E-17));
#634 = ADVANCED_FACE('',(#635),#653,.T.);
#635 = FACE_BOUND('',#636,.T.);
#636 = EDGE_LOOP('',(#637,#644,#645,#652));
#637 = ORIENTED_EDGE('',*,*,#638,.F.);
#638 = EDGE_CURVE('',#608,#407,#639,.T.);
#639 = CIRCLE('',#640,3.5);
#640 = AXIS2_PLACEMENT_3D('',#641,#642,#643);
#641 = CARTESIAN_POINT('',(1.9,-11.535,15.21));
#642 = DIRECTION('',(1.,0.,0.));
#643 = DIRECTION('',(0.,-6.344131569287E-16,1.));
#644 = ORIENTED_EDGE('',*,*,#624,.T.);
#645 = ORIENTED_EDGE('',*,*,#646,.F.);
#646 = EDGE_CURVE('',#417,#617,#647,.T.);
#647 = CIRCLE('',#648,3.5);
#648 = AXIS2_PLACEMENT_3D('',#649,#650,#651);
#649 = CARTESIAN_POINT('',(9.E-02,-11.535,15.21));
#650 = DIRECTION('',(-1.,0.,0.));
#651 = DIRECTION('',(0.,-6.344131569287E-16,1.));
#652 = ORIENTED_EDGE('',*,*,#416,.F.);
#653 = CYLINDRICAL_SURFACE('',#654,3.5);
#654 = AXIS2_PLACEMENT_3D('',#655,#656,#657);
#655 = CARTESIAN_POINT('',(1.9,-11.535,15.21));
#656 = DIRECTION('',(-1.,0.,0.));
#657 = DIRECTION('',(0.,-6.344131569287E-16,1.));
#658 = ADVANCED_FACE('',(#659),#669,.F.);
#659 = FACE_BOUND('',#660,.T.);
#660 = EDGE_LOOP('',(#661,#662,#663,#664,#665,#666,#667,#668));
#661 = ORIENTED_EDGE('',*,*,#646,.T.);
#662 = ORIENTED_EDGE('',*,*,#616,.T.);
#663 = ORIENTED_EDGE('',*,*,#584,.T.);
#664 = ORIENTED_EDGE('',*,*,#552,.T.);
#665 = ORIENTED_EDGE('',*,*,#520,.T.);
#666 = ORIENTED_EDGE('',*,*,#488,.T.);
#667 = ORIENTED_EDGE('',*,*,#456,.T.);
#668 = ORIENTED_EDGE('',*,*,#424,.T.);
#669 = PLANE('',#670);
#670 = AXIS2_PLACEMENT_3D('',#671,#672,#673);
#671 = CARTESIAN_POINT('',(9.E-02,-6.661338147751E-15,1.7763568394E-14)
  );
#672 = DIRECTION('',(1.,0.,0.));
#673 = DIRECTION('',(0.,0.,-1.));
#674 = ADVANCED_FACE('',(#675),#700,.T.);
#675 = FACE_BOUND('',#676,.T.);
#676 = EDGE_LOOP('',(#677,#678,#686,#694));
#677 = ORIENTED_EDGE('',*,*,#215,.F.);
#678 = ORIENTED_EDGE('',*,*,#679,.F.);
#679 = EDGE_CURVE('',#680,#164,#682,.T.);
#680 = VERTEX_POINT('',#681);
#681 = CARTESIAN_POINT('',(1.9,10.065,20.565));
#682 = LINE('',#683,#684);
#683 = CARTESIAN_POINT('',(1.9,10.065,20.565));
#684 = VECTOR('',#685,1.);
#685 = DIRECTION('',(1.,0.,0.));
#686 = ORIENTED_EDGE('',*,*,#687,.T.);
#687 = EDGE_CURVE('',#680,#688,#690,.T.);
#688 = VERTEX_POINT('',#689);
#689 = CARTESIAN_POINT('',(1.9,-10.065,20.565));
#690 = LINE('',#691,#692);
#691 = CARTESIAN_POINT('',(1.9,10.065,20.565));
#692 = VECTOR('',#693,1.);
#693 = DIRECTION('',(0.,-1.,0.));
#694 = ORIENTED_EDGE('',*,*,#695,.T.);
#695 = EDGE_CURVE('',#688,#198,#696,.T.);
#696 = LINE('',#697,#698);
#697 = CARTESIAN_POINT('',(1.9,-10.065,20.565));
#698 = VECTOR('',#699,1.);
#699 = DIRECTION('',(1.,0.,0.));
#700 = PLANE('',#701);
#701 = AXIS2_PLACEMENT_3D('',#702,#703,#704);
#702 = CARTESIAN_POINT('',(1.9,10.065,20.565));
#703 = DIRECTION('',(0.,0.,1.));
#704 = DIRECTION('',(0.,-1.,0.));
#705 = ADVANCED_FACE('',(#706),#718,.T.);
#706 = FACE_BOUND('',#707,.T.);
#707 = EDGE_LOOP('',(#708,#709,#710,#717));
#708 = ORIENTED_EDGE('',*,*,#182,.F.);
#709 = ORIENTED_EDGE('',*,*,#302,.F.);
#710 = ORIENTED_EDGE('',*,*,#711,.T.);
#711 = EDGE_CURVE('',#295,#680,#712,.T.);
#712 = CIRCLE('',#713,6.5);
#713 = AXIS2_PLACEMENT_3D('',#714,#715,#716);
#714 = CARTESIAN_POINT('',(1.9,10.065,14.065));
#715 = DIRECTION('',(1.,0.,0.));
#716 = DIRECTION('',(-0.,1.,0.));
#717 = ORIENTED_EDGE('',*,*,#679,.T.);
#718 = CYLINDRICAL_SURFACE('',#719,6.5);
#719 = AXIS2_PLACEMENT_3D('',#720,#721,#722);
#720 = CARTESIAN_POINT('',(1.9,10.065,14.065));
#721 = DIRECTION('',(1.,0.,0.));
#722 = DIRECTION('',(-0.,1.,0.));
#723 = ADVANCED_FACE('',(#724),#742,.T.);
#724 = FACE_BOUND('',#725,.T.);
#725 = EDGE_LOOP('',(#726,#727,#735,#741));
#726 = ORIENTED_EDGE('',*,*,#271,.F.);
#727 = ORIENTED_EDGE('',*,*,#728,.F.);
#728 = EDGE_CURVE('',#729,#230,#731,.T.);
#729 = VERTEX_POINT('',#730);
#730 = CARTESIAN_POINT('',(1.9,-16.565,14.065));
#731 = LINE('',#732,#733);
#732 = CARTESIAN_POINT('',(1.9,-16.565,14.065));
#733 = VECTOR('',#734,1.);
#734 = DIRECTION('',(1.,0.,0.));
#735 = ORIENTED_EDGE('',*,*,#736,.T.);
#736 = EDGE_CURVE('',#729,#367,#737,.T.);
#737 = LINE('',#738,#739);
#738 = CARTESIAN_POINT('',(1.9,-16.565,14.065));
#739 = VECTOR('',#740,1.);
#740 = DIRECTION('',(0.,0.,-1.));
#741 = ORIENTED_EDGE('',*,*,#366,.T.);
#742 = PLANE('',#743);
#743 = AXIS2_PLACEMENT_3D('',#744,#745,#746);
#744 = CARTESIAN_POINT('',(1.9,-16.565,14.065));
#745 = DIRECTION('',(0.,-1.,0.));
#746 = DIRECTION('',(0.,0.,-1.));
#747 = ADVANCED_FACE('',(#748),#760,.T.);
#748 = FACE_BOUND('',#749,.T.);
#749 = EDGE_LOOP('',(#750,#751,#752,#759));
#750 = ORIENTED_EDGE('',*,*,#248,.F.);
#751 = ORIENTED_EDGE('',*,*,#695,.F.);
#752 = ORIENTED_EDGE('',*,*,#753,.T.);
#753 = EDGE_CURVE('',#688,#729,#754,.T.);
#754 = CIRCLE('',#755,6.5);
#755 = AXIS2_PLACEMENT_3D('',#756,#757,#758);
#756 = CARTESIAN_POINT('',(1.9,-10.065,14.065));
#757 = DIRECTION('',(1.,0.,0.));
#758 = DIRECTION('',(0.,-3.416070845E-16,1.));
#759 = ORIENTED_EDGE('',*,*,#728,.T.);
#760 = CYLINDRICAL_SURFACE('',#761,6.5);
#761 = AXIS2_PLACEMENT_3D('',#762,#763,#764);
#762 = CARTESIAN_POINT('',(1.9,-10.065,14.065));
#763 = DIRECTION('',(1.,0.,0.));
#764 = DIRECTION('',(0.,-3.416070845E-16,1.));
#765 = ADVANCED_FACE('',(#766,#776),#786,.F.);
#766 = FACE_BOUND('',#767,.T.);
#767 = EDGE_LOOP('',(#768,#769,#770,#771,#772,#773,#774,#775));
#768 = ORIENTED_EDGE('',*,*,#753,.F.);
#769 = ORIENTED_EDGE('',*,*,#687,.F.);
#770 = ORIENTED_EDGE('',*,*,#711,.F.);
#771 = ORIENTED_EDGE('',*,*,#294,.F.);
#772 = ORIENTED_EDGE('',*,*,#325,.F.);
#773 = ORIENTED_EDGE('',*,*,#350,.F.);
#774 = ORIENTED_EDGE('',*,*,#374,.F.);
#775 = ORIENTED_EDGE('',*,*,#736,.F.);
#776 = FACE_BOUND('',#777,.T.);
#777 = EDGE_LOOP('',(#778,#779,#780,#781,#782,#783,#784,#785));
#778 = ORIENTED_EDGE('',*,*,#406,.T.);
#779 = ORIENTED_EDGE('',*,*,#446,.T.);
#780 = ORIENTED_EDGE('',*,*,#479,.T.);
#781 = ORIENTED_EDGE('',*,*,#510,.T.);
#782 = ORIENTED_EDGE('',*,*,#543,.T.);
#783 = ORIENTED_EDGE('',*,*,#574,.T.);
#784 = ORIENTED_EDGE('',*,*,#607,.T.);
#785 = ORIENTED_EDGE('',*,*,#638,.T.);
#786 = PLANE('',#787);
#787 = AXIS2_PLACEMENT_3D('',#788,#789,#790);
#788 = CARTESIAN_POINT('',(1.9,-3.552713678801E-14,1.33226762955E-13));
#789 = DIRECTION('',(1.,0.,0.));
#790 = DIRECTION('',(0.,0.,-1.));
#791 = ( GEOMETRIC_REPRESENTATION_CONTEXT(3) 
GLOBAL_UNCERTAINTY_ASSIGNED_CONTEXT((#795)) GLOBAL_UNIT_ASSIGNED_CONTEXT
((#792,#793,#794)) REPRESENTATION_CONTEXT('Context #1',
  '3D Context with UNIT and UNCERTAINTY') );
#792 = ( LENGTH_UNIT() NAMED_UNIT(*) SI_UNIT(.MILLI.,.METRE.) );
#793 = ( NAMED_UNIT(*) PLANE_ANGLE_UNIT() SI_UNIT($,.RADIAN.) );
#794 = ( NAMED_UNIT(*) SI_UNIT($,.STERADIAN.) SOLID_ANGLE_UNIT() );
#795 = UNCERTAINTY_MEASURE_WITH_UNIT(LENGTH_MEASURE(1.E-07),#792,
  'distance_accuracy_value','confusion accuracy');
#796 = PRODUCT_RELATED_PRODUCT_CATEGORY('part',$,(#7));
#797 = MECHANICAL_DESIGN_GEOMETRIC_PRESENTATION_REPRESENTATION('',(#798)
  ,#791);
#798 = STYLED_ITEM('color',(#799),#15);
#799 = PRESENTATION_STYLE_ASSIGNMENT((#800,#806));
#800 = SURFACE_STYLE_USAGE(.BOTH.,#801);
#801 = SURFACE_SIDE_STYLE('',(#802));
#802 = SURFACE_STYLE_FILL_AREA(#803);
#803 = FILL_AREA_STYLE('',(#804));
#804 = FILL_AREA_STYLE_COLOUR('',#805);
#805 = COLOUR_RGB('',0.627451011593,0.627451011593,0.627451011593);
#806 = CURVE_STYLE('',#807,POSITIVE_LENGTH_MEASURE(0.1),#808);
#807 = DRAUGHTING_PRE_DEFINED_CURVE_FONT('continuous');
#808 = COLOUR_RGB('',9.803921802644E-02,9.803921802644E-02,
  9.803921802644E-02);
ENDSEC;
END-ISO-10303-21;
